<svg id="Layer_1" data-name="Layer 1" xmlns="http://www.w3.org/2000/svg" viewBox="0 0 39.1 32.31"><defs><style>.cls-1,.cls-3{fill:#201e1e;}.cls-1,.cls-4{fill-rule:evenodd;}.cls-2,.cls-4{fill:#f58634;}</style></defs><g id="Layer_1-2" data-name="Layer_1"><g id="_1259089766176" data-name=" 1259089766176"><path class="cls-1" d="M28.38,2.29l.48.36a1.24,1.24,0,0,0,.08-.81c-.12-.22-.23-.15-.35,0a1.42,1.42,0,0,0-.21.43ZM29.91,3.8a2.84,2.84,0,0,0-.6-.35c-.3-.38.08-.32,0-.62a1.85,1.85,0,0,0,.05-.69c0-.22-.09-.45-.36-.46a.12.12,0,0,0-.09,0c.33.23.13.84,0,1.15a.78.78,0,0,1,0,.14l-.08,0a.75.75,0,0,0,.06-.24l-.47-.37-.13.32-.08,0,0,0c0-.06,0-.11,0-.16s.06-.14,0-.17A2.37,2.37,0,0,0,27,1.62a1,1,0,0,0-.56.21,2.36,2.36,0,0,0-.5.54c-.86,1.13-.47,1.5.51,2.25.05,0,0,0,.08,0l.21-.14.17-.14.06.07c-.14.12-.29.2-.43.31l.49.38.1-.08,0,.14a3.13,3.13,0,0,1-.48.25.55.55,0,0,1-.59,0c.05.28.18.38.54.34a2.05,2.05,0,0,0,.65-.24l.14-.08c.08,0,.13,0,.21-.1a.2.2,0,0,0,0,.08c.22.46.49.41.56.84,0,.19,0,.37,0,.57a.63.63,0,0,0,.11.33l-.21,1.5c.55.35.51,2.54.17,4.12A29.42,29.42,0,0,0,27,19.16c-.1,1.95-1.29,3.59-.29,4.29a4.33,4.33,0,0,0,2.17.35,7.61,7.61,0,0,1-1.58,2.65,4.67,4.67,0,0,0-1.2,2.21c0,.36.11-.06,0,.56a4.73,4.73,0,0,1-.26.68c1.7.81,1.42,0,2.27.39a4.55,4.55,0,0,0,3.15.06c.86-.3,1.05.43,1.82.35l1.6-.16a2.57,2.57,0,0,1-.13-.64c-1.12-.26-1.27,0-1.87-.94H33c0-1.92,1.22-2.07,2.06-4.09.23-.55.4-1,.54-1.45.84.21,1.87.57,2.23.6,1.84.14,1.12-.2,1.15-.9,0-.39-.89-2.91-2-7.34-.12-.46-3-4.91-3.25-5.39a2.59,2.59,0,0,1,.53-1.19.66.66,0,0,0,.12-.12.48.48,0,0,0,.1-.12,1.14,1.14,0,0,0,.19-.3l1-.55c-.06.27-.13.27,0,.49s.22.17.48.11a.66.66,0,0,0,.24.76c.37.24.18,0,.31,0,.3,0,.13,0,.45.12,1.39-.93.42-1.8-.27-2.73-1.61-2.17-.83-2-.83-2.48,0-.88-1.62-.8-1.7.2a1.93,1.93,0,0,0-.7-.2c0-.53-.16-.47-.51-.69a9,9,0,0,1-1.59-1.62c-.29-.35-.18,0-.31-.4-.56.13-.63.31-.7.9-.09.85-.31.47-.7,1.21Zm4.22,2.48a.57.57,0,0,0-.32-.17,2.17,2.17,0,0,1,0,.26L34,6.3l.19,0ZM30.21,4.4a.63.63,0,0,1-.09.32,3.79,3.79,0,0,1-.05.5,1.53,1.53,0,0,0,0,.36l.2.19c.07.06.17.22.33.4a5.07,5.07,0,0,1,.93.27,7.82,7.82,0,0,0,.85.57c.49-.37,1.13-1,1-1.61a8.06,8.06,0,0,0-1.23-1.77,2.85,2.85,0,0,1-.71-1.09c-.09-.24,0,.18-.07-.23H30.9a3.59,3.59,0,0,1-.62,1.58c-.26.39-.08.18-.08.52ZM28.72,28.83l.42.4c.36.46.09.24.65.54.06-.26.09-.47.17-.77a7.8,7.8,0,0,1,.28-.79A5.48,5.48,0,0,1,31,26.82c.54-.93.73-.77.94-1.2.31-.63,0-1.12.81-1.34l-.16-.8-1.9,2.61c-1.33,1.7-1.1.95-2,2.74ZM27,5.12l-.47-.36c-.17.08-.74.55-.31.65A1.24,1.24,0,0,0,27,5.12ZM25.85,4l.08.05a1.44,1.44,0,0,1-.34-.77A.75.75,0,0,0,25.85,4Z"/><polygon class="cls-1" points="0 0 0.37 0 0.37 32.3 0 32.3 0 0"/><polygon class="cls-1" points="26.75 0 27.12 0 27.12 32.3 26.75 32.3 26.75 0"/><path class="cls-2" d="M1.76,1.66H3.63a1.83,1.83,0,0,1,.75.12,1.12,1.12,0,0,1,.42.36A.93.93,0,0,1,5,2.7a.88.88,0,0,1-.72.89A1,1,0,0,1,4.87,4a1,1,0,0,1,.21.61,1.09,1.09,0,0,1-.34.78,1.62,1.62,0,0,1-1.11.33H1.76Zm.94.71v.88h.71c.26,0,.42,0,.49-.15A.51.51,0,0,0,4,2.8a.39.39,0,0,0-.09-.26.27.27,0,0,0-.18-.14,1.67,1.67,0,0,0-.39,0H2.7ZM2.7,4v1h.72a.81.81,0,0,0,.52-.13.44.44,0,0,0,.15-.35.46.46,0,0,0-.15-.34A.71.71,0,0,0,3.46,4Zm5-2.31,1.25,4h-1l-.25-.84H6.36l-.26.84H5.28l1.29-4ZM6.58,4.11h.85L7,2.7ZM12,1.66,10.69,4v1.7H9.75V4L8.5,1.66H9.58l.77,1.51.76-1.51Zm3.11.76H13.15v.83h1.5V4h-1.5v.88h1.91v.79H12.2v-4h2.86v.76Zm1.52,2.46h1.59v.8H15.63v-4h.95Zm4.85-2.34-.8.27A.66.66,0,0,0,20,2.33q-.57,0-.57.36a.3.3,0,0,0,.11.24,1,1,0,0,0,.47.18,4.81,4.81,0,0,1,.9.25,1.27,1.27,0,0,1,.49.41,1.09,1.09,0,0,1,.19.63,1.26,1.26,0,0,1-.42.94,1.76,1.76,0,0,1-1.24.39,1.87,1.87,0,0,1-1.05-.28,1.37,1.37,0,0,1-.57-.83l.87-.2a.9.9,0,0,0,1.3.44.35.35,0,0,0,.16-.29.31.31,0,0,0-.14-.28,2,2,0,0,0-.56-.18,2.51,2.51,0,0,1-1.09-.43,1,1,0,0,1-.33-.81,1.19,1.19,0,0,1,.39-.9,1.45,1.45,0,0,1,1.05-.37,1.45,1.45,0,0,1,1.53.95Zm2.65-.88,1.25,4h-1l-.25-.84h-1.3l-.25.84H21.7l1.28-4ZM23,4.11h.85L23.43,2.7Z"/><path class="cls-3" d="M2.27,6.22V8.33H1.78V6.22Zm2.17,0V8.33H4L3.2,6.91V7a.28.28,0,0,1,0,.09V8.33H2.82V6.22h.54l.71,1.24a.76.76,0,0,1,0-.14V6.22Zm1.9,0v.42H5.82V8.33h-.5V6.64H4.79V6.22Zm1.85.41h-1v.43H8v.39H7.19v.46h1v.42H6.68V6.23H8.19v.4Zm.93.87v.83h-.5V6.23h.93a1.18,1.18,0,0,1,.41.06.53.53,0,0,1,.26.21.65.65,0,0,1,.1.36A.55.55,0,0,1,10,7.4l.39.93H9.8L9.47,7.5Zm0-.9v.54h.3l.22,0A.31.31,0,0,0,9.76,7a.25.25,0,0,0,.05-.17.25.25,0,0,0-.05-.16.28.28,0,0,0-.12-.08l-.23,0Zm3.33-.37v2.1H12L11.2,6.91s0,.06,0,.07V8.33h-.39V6.23h.54l.71,1.24c0-.07,0-.11,0-.14V6.22h.39Zm1.59,0,.66,2.1h-.53L14,7.9h-.68l-.13.43h-.44l.68-2.1Zm-.56,1.28h.44l-.22-.74Zm2.75-1.28v.42h-.52V8.34h-.49V6.65h-.53V6.23Zm.85,0v2.1h-.5V6.23Zm1.34,2.13a.75.75,0,0,1-.65-.31,1.29,1.29,0,0,1-.24-.78,1.22,1.22,0,0,1,.24-.77.81.81,0,0,1,.67-.3.76.76,0,0,1,.66.32,1.34,1.34,0,0,1,.23.76,1.22,1.22,0,0,1-.24.77.77.77,0,0,1-.67.31Zm0-1.77q-.39,0-.39.69c0,.45.13.68.39.68s.38-.23.38-.68S18.69,6.59,18.44,6.59Zm3-.37V8.33H21l-.82-1.42a.15.15,0,0,0,0,.07V8.33h-.38V6.22h.53L21,7.46c0-.06,0-.1,0-.14V6.22h.39Zm1.6,0,.65,2.11h-.53L23,7.89h-.68l-.13.44h-.44l.68-2.11H23Zm-.57,1.29h.44l-.22-.74Zm2.08.4h.84v.42H24V6.23h.5V7.92Z"/><path class="cls-3" d="M1.76,16v6.32H5.57V20.46H7v-2H5.69v-.29H7V16H1.76Zm5.75,0v6.31h5.23V20.21h-1.3v-.27h1.3V18.42h-1.3v-.27h1.3V16Zm7.11,0a1.61,1.61,0,0,0-1.57,1.57,1.57,1.57,0,0,0,1.43,1.55v.06H13.21v3.14h4.7a1.56,1.56,0,0,0,.34-3.08V19.2h1.1V16H14.62Zm9.53,3.17h1.23V16H19.69v3.17H21v3.15h3.16V19.19Z"/><path class="cls-3" d="M1.75,23.34v6.89H5.32V23.34Zm12.34,0H5.39l4.35,7.37,4.34-7.37Zm-2.76,6.89H20l-4.34-7.36-4.34,7.36Zm12.11-3.45V23.34H20v6.89h5.34V26.78Z"/><path class="cls-4" d="M5,12.85V9.21H2v3.44H1.76v3A2.86,2.86,0,0,0,5,12.85Zm-.36,2.56h7.82L8.56,8.79,4.65,15.41Zm7.79,0h6.2v-3H17.5l1.14-3.24h-6.2v3h1.14Zm6.69,0h6.19v-3H24.18l1.14-3.24H19.13v3h1.14Z"/></g></g></svg>