<svg id="Layer_1" data-name="Layer 1" xmlns="http://www.w3.org/2000/svg" viewBox="0 0 64.39 12.67"><defs><style>.cls-1,.cls-2,.cls-3{fill-rule:evenodd;}.cls-2{fill:#373435;}.cls-3{fill:red;}.cls-4{fill:#fff;}</style></defs><g id="Layer_1-2" data-name="Layer_1"><g id="_1259095319696" data-name=" 1259095319696"><polygon class="cls-1" points="0 0 64.39 0 64.39 12.67 0 12.67 0 10.31 4.74 6.27 0 2.65 0 0"/><polygon class="cls-2" points="44.69 1.04 63.42 1.04 63.42 11.63 44.69 11.63 44.69 1.04"/><polygon class="cls-3" points="2.08 1.04 44.36 1.04 44.36 11.63 2.08 11.63 2.08 8.54 4.74 6.27 2.08 4.23 2.08 1.04"/><polygon class="cls-2" points="1.21 4.4 3.62 6.3 1.21 8.2 1.21 4.4"/><path class="cls-4" d="M5,7.1c0,.78,0,1.45,0,1.81s-.07.43-.24.47a2.16,2.16,0,0,1-.31,0c-.1,0-.14,0-.14.07s.06.09.17.09l.59,0h.48l.64,0,.6,0C8.29,9.59,9,8.65,9,7.74A2.07,2.07,0,0,0,7.45,5.9a1.84,1.84,0,0,0,.87-1.49c0-.45-.27-1.28-1.81-1.28-.29,0-.62,0-1,0-.17,0-.71,0-1.16,0-.12,0-.18,0-.18.08s0,.08.14.08a1.52,1.52,0,0,1,.33,0c.28.06.35.2.37.49s0,.51,0,1.8V7.1ZM6,3.64c0-.09,0-.13.07-.14a1.19,1.19,0,0,1,.28,0c.74,0,1.07.75,1.07,1.32a1.11,1.11,0,0,1-.35.9.87.87,0,0,1-.62.16,2,2,0,0,1-.4,0A.08.08,0,0,1,6,5.75V3.64ZM8,8.12a1,1,0,0,1-1,1.09,1.62,1.62,0,0,1-.63-.1C6,9,6,8.85,6,8.29v-2s0-.06,0-.06h.36a1.25,1.25,0,0,1,.71.21A2,2,0,0,1,8,8.12ZM9.7,6.84a2.84,2.84,0,0,0,.76,2.26,2.74,2.74,0,0,0,1.89.58,2.53,2.53,0,0,0,1.77-.61,3.25,3.25,0,0,0,.81-2.56V5.6c0-1.3,0-1.54,0-1.81s.09-.44.32-.48a1.07,1.07,0,0,1,.25,0c.1,0,.15,0,.15-.08s-.06-.07-.18-.07l-1,0-1,0c-.12,0-.18,0-.18.07s.05.08.14.08a1.42,1.42,0,0,1,.31,0c.28.06.35.19.37.48s0,.51,0,1.81V6.66a2.92,2.92,0,0,1-.49,2.11,1.67,1.67,0,0,1-1.18.46,1.54,1.54,0,0,1-1.06-.35c-.42-.34-.67-.86-.67-2.09V5.6c0-1.29,0-1.53,0-1.81s.09-.44.32-.48a1.05,1.05,0,0,1,.24,0c.09,0,.14,0,.14-.07s-.06-.08-.19-.08l-1,0c-.26,0-.8,0-1.25,0-.12,0-.19,0-.19.08s.05.07.15.07a1.48,1.48,0,0,1,.33,0c.28.06.35.2.37.48s0,.52,0,1.81V6.84Zm7.46,2.84a2.38,2.38,0,0,0,1.35-.35,1.69,1.69,0,0,0,.8-1.48c0-.81-.36-1.4-1.39-2.17l-.24-.18c-.71-.53-.9-.83-.9-1.22a.9.9,0,0,1,1-.88,1.1,1.1,0,0,1,.93.42,1,1,0,0,1,.22.56c0,.11,0,.16.09.16s.09-.07.09-.26c0-.67,0-.91,0-1s0-.09-.12-.11A4.6,4.6,0,0,0,17.9,3c-1.18,0-2,.67-2,1.61,0,.69.33,1.28,1.26,2l.4.31c.7.55.83.95.83,1.36a1,1,0,0,1-1.14,1,1.19,1.19,0,0,1-1.22-.86A2.06,2.06,0,0,1,16,8c0-.07,0-.14-.08-.14s-.09.09-.1.22-.05.65-.05,1.11c0,.19,0,.23.17.29a2.93,2.93,0,0,0,1.24.22Zm3.25-2.59A17.79,17.79,0,0,1,20.36,9c0,.25-.07.39-.24.43a2.16,2.16,0,0,1-.31,0c-.1,0-.14,0-.14.07s.06.08.17.08l1.07,0,1.33,0c.1,0,.16,0,.16-.08s0-.07-.13-.07l-.44,0c-.25,0-.31-.19-.34-.42s0-1,0-1.87V5.6c0-1.3,0-1.54,0-1.81s.09-.44.32-.48l.25,0c.09,0,.14,0,.14-.08s-.07-.07-.18-.07l-1,0-1.1,0c-.14,0-.2,0-.2.07s.05.08.13.08a1.06,1.06,0,0,1,.31,0c.19,0,.27.18.29.47s0,.51,0,1.81V7.09Zm3.3-2.26h0c.16.16,1.1,1.22,2,2.15s2,2,2.51,2.5c.09.09.19.19.28.19s.12-.08.12-.27L28.76,4c0-.48.07-.66.31-.72a.83.83,0,0,1,.26,0c.1,0,.15,0,.15-.08s-.08-.07-.19-.07l-.84,0-1,0c-.12,0-.22,0-.22.07s0,.08.14.08a1.41,1.41,0,0,1,.45.05c.2.09.28.25.29.77l.08,3.82h0C28,7.78,26.83,6.55,26.25,6,25,4.74,23.71,3.36,23.61,3.25S23.39,3,23.29,3s-.11.12-.11.29l-.07,5c0,.74-.05,1-.27,1.06a1.69,1.69,0,0,1-.38,0c-.09,0-.14,0-.14.07s.08.08.19.08c.44,0,.84,0,.92,0s.5,0,1.05,0c.12,0,.2,0,.2-.08s-.05-.07-.15-.07a1.34,1.34,0,0,1-.44-.06c-.17-.06-.28-.28-.3-.95L23.7,4.83Zm6.74,2.26a17.34,17.34,0,0,1-.05,1.82c0,.24-.07.43-.24.47a2.16,2.16,0,0,1-.31,0c-.1,0-.13,0-.13.07s.05.08.17.08H31l.88,0c.37,0,.84,0,1.48,0,.32,0,.39,0,.46-.22a7.06,7.06,0,0,0,.11-.95c0-.08,0-.15-.07-.15s-.08,0-.09.13c-.07.35-.17.52-.39.63a2.2,2.2,0,0,1-.8.1c-.87,0-1-.13-1-.71,0-.25,0-1,0-1.33V6.42s0-.08.05-.08l1.21,0c.32,0,.43.17.48.34s0,.22,0,.3a.07.07,0,0,0,.08.08c.07,0,.07-.09.07-.16s0-.4,0-.57c0-.44.07-.58.07-.63a.05.05,0,0,0-.06-.06s-.08,0-.14.11-.2.11-.41.12-1.17,0-1.36,0-.06,0-.06-.09V3.66c0-.06,0-.08.06-.08s1.07,0,1.21,0c.43.05.51.16.57.31a.76.76,0,0,1,0,.31c0,.07,0,.12.08.12s.08-.06.08-.1,0-.47,0-.56a3.77,3.77,0,0,1,.07-.55s0-.08,0-.08a.57.57,0,0,0-.14,0l-.36,0H29.78c-.13,0-.19,0-.19.08s.05.07.15.07a1.48,1.48,0,0,1,.33,0c.28.06.35.2.36.48s0,.52,0,1.81V7.1Zm5.22,2.59A2.38,2.38,0,0,0,37,9.33a1.71,1.71,0,0,0,.8-1.48c0-.81-.37-1.4-1.4-2.17l-.23-.18c-.71-.53-.91-.83-.91-1.22a.9.9,0,0,1,1-.88,1.1,1.1,0,0,1,.93.42,1,1,0,0,1,.22.56c0,.11,0,.16.08.16s.1-.07.1-.26c0-.67,0-.91,0-1s0-.09-.12-.11A4.6,4.6,0,0,0,36.41,3c-1.18,0-2,.67-2,1.61,0,.69.33,1.28,1.26,2l.39.31c.71.55.84.95.84,1.36a1,1,0,0,1-1.14,1,1.19,1.19,0,0,1-1.22-.86A2.06,2.06,0,0,1,34.49,8c0-.07,0-.14-.08-.14s-.09.09-.11.22,0,.65,0,1.11c0,.19,0,.23.16.29A3,3,0,0,0,35.67,9.68Zm4,0A2.38,2.38,0,0,0,41,9.33a1.71,1.71,0,0,0,.8-1.48c0-.81-.37-1.4-1.4-2.17L40.2,5.5c-.7-.53-.9-.83-.9-1.22a.9.9,0,0,1,1-.88,1.08,1.08,0,0,1,.93.42,1.07,1.07,0,0,1,.23.56c0,.11,0,.16.08.16s.09-.07.09-.26c0-.67,0-.91,0-1s0-.09-.12-.11A4.6,4.6,0,0,0,40.43,3c-1.19,0-2,.67-2,1.61,0,.69.32,1.28,1.26,2l.39.31c.71.55.83.95.83,1.36a1,1,0,0,1-1.14,1,1.18,1.18,0,0,1-1.21-.86A1.58,1.58,0,0,1,38.51,8c0-.07,0-.14-.09-.14s-.09.09-.1.22,0,.65,0,1.11c0,.19,0,.23.16.29a3,3,0,0,0,1.24.22Z"/><path class="cls-4" d="M46.1,7.1c0,.78,0,1.45,0,1.81s-.07.43-.24.47a2.16,2.16,0,0,1-.31,0c-.1,0-.14,0-.14.07s.06.09.17.09l.59,0h.49c.21,0,.51,0,.83.05s.67.05,1,.05a3.84,3.84,0,0,0,2.85-1,3.39,3.39,0,0,0,.93-2.37,3,3,0,0,0-.83-2.16,4.5,4.5,0,0,0-3.41-1l-1.31,0-1.23,0c-.12,0-.19,0-.19.07s0,.08.15.08a1.48,1.48,0,0,1,.33,0c.28.06.35.19.37.48s0,.51,0,1.81V7.09Zm1.07-1.64c0-.67,0-1.41,0-1.7a.16.16,0,0,1,.1-.17,2.47,2.47,0,0,1,.55-.06,3.41,3.41,0,0,1,2.42.85,2.93,2.93,0,0,1,.82,2.13,2.67,2.67,0,0,1-.72,2.12,2.75,2.75,0,0,1-2,.62c-.67,0-1-.18-1.11-.35a1.61,1.61,0,0,1-.09-.64c0-.16,0-.82,0-1.72V5.47Zm8.21,1.88a.08.08,0,0,1,.08.06l.68,1.81c0,.1,0,.18-.08.19s-.11,0-.11.08.1.06.25.07c.68,0,1.3,0,1.61,0s.39,0,.39-.09,0-.07-.11-.07l-.36,0c-.17-.05-.42-.17-.74-.93-.55-1.29-1.91-4.77-2.12-5.23-.08-.2-.13-.28-.21-.28s-.14.1-.24.34L52.29,8.63c-.17.43-.33.71-.72.77H51.3c-.07,0-.1,0-.1.07s0,.09.16.09c.44,0,.91,0,1,0l.9,0c.09,0,.14,0,.14-.09s0-.07-.12-.07h-.13c-.27,0-.34-.11-.34-.26A1.49,1.49,0,0,1,53,8.63l.46-1.22s0-.07.07-.07Zm-1.73-.42s0,0,0-.06l.79-2.1s0-.07.05-.07,0,0,0,.07l.77,2.1s0,0,0,0H53.65Zm5.17,1.14c0,.14,0,.49,0,.85s-.09.43-.26.47a2.16,2.16,0,0,1-.3,0c-.1,0-.14,0-.14.07s.07.09.19.09l1.06,0c.23,0,.77,0,1.3,0,.11,0,.18,0,.18-.09s0-.07-.13-.07a3.11,3.11,0,0,1-.43,0c-.26,0-.33-.22-.35-.47s0-.71,0-.85v-.7A2,2,0,0,1,60,6.51,24.64,24.64,0,0,1,61.64,3.8a1.25,1.25,0,0,1,.46-.42.82.82,0,0,1,.37-.1c.09,0,.16,0,.16-.09s-.06-.06-.15-.06l-.91,0-.8,0c-.11,0-.15,0-.15.07s.08.07.16.09A.2.2,0,0,1,61,3.5a1.17,1.17,0,0,1-.12.44c-.12.26-1.19,2.14-1.28,2.34C59.43,6,58.23,4,58.11,3.74a.82.82,0,0,1-.1-.29.16.16,0,0,1,.12-.16c.13,0,.19,0,.19-.09s0-.07-.13-.07l-.91,0-1.07,0c-.11,0-.16,0-.16.07s.06.08.12.08a.83.83,0,0,1,.36.11,2.21,2.21,0,0,1,.59.62c.3.44,1.44,2.32,1.5,2.45a1.86,1.86,0,0,1,.19.9v.7Z"/></g></g></svg>