<svg id="Layer_1" data-name="Layer 1" xmlns="http://www.w3.org/2000/svg" viewBox="0 0 73.31 41.26"><defs><style>.cls-1{fill:#474b56;}.cls-2{fill:#002ead;fill-rule:evenodd;}</style></defs><g id="Layer_1-2" data-name="Layer_1"><g id="_1259100239744" data-name=" 1259100239744"><path class="cls-1" d="M4.6,34.42l.05,0,.2,0a1.28,1.28,0,0,0,.4-.07.3.3,0,0,0,0-.18V31.79l0-.94a1.1,1.1,0,0,0,0-.39.69.69,0,0,0-.36-.07l-.22,0a.06.06,0,0,1,0-.06.14.14,0,0,1,0-.06l0,0H4.8a2.61,2.61,0,0,0,.4,0H6.72l.34,0,.37,0h.81l0,0s0,0,0,.06a1.15,1.15,0,0,1,0,.14.68.68,0,0,0,0,.12c0,.23,0,.42,0,.59a0,0,0,0,1,0,0H8.21a1.2,1.2,0,0,1-.1-.22,2.62,2.62,0,0,0-.19-.37.55.55,0,0,0-.13-.17.66.66,0,0,0-.19,0H7.16l-1,0H6.12c-.12,0-.19,0-.22,0a1.33,1.33,0,0,0-.05.47s0,.29,0,.8v.46H7.38c.12,0,.19,0,.21-.07a.65.65,0,0,0,.07-.31c0-.17.06-.27.11-.29l.09,0v.13c0,.08,0,.34,0,.77a2.82,2.82,0,0,0,0,.39c0,.14,0,.21,0,.23a.28.28,0,0,1,0,.08H7.81a1.26,1.26,0,0,1-.11-.29.75.75,0,0,0-.18-.42.41.41,0,0,0-.3-.09H6.47c-.31,0-.51,0-.61,0v1.49a1.15,1.15,0,0,0,0,.39.33.33,0,0,0,.25.07H7a5,5,0,0,0,.86-.05.81.81,0,0,0,.35-.2,2.26,2.26,0,0,0,.35-.6c0-.09.08-.14.12-.14a.11.11,0,0,1,.07,0c-.06.22-.1.36-.11.43a3.88,3.88,0,0,0,0,.48.35.35,0,0,1,0,.18h-3l-.88,0a.1.1,0,0,1-.07,0,.08.08,0,0,1,0,0v0Zm4-4v-.16a7.45,7.45,0,0,0,.76,0h.22a1.6,1.6,0,0,1,.26.26l.06.07.7.78.1.12a5.63,5.63,0,0,0,.39.42l.67.74.8.88a3.74,3.74,0,0,0,.3.33v-.06c0-.3,0-.47,0-.49V32.6c0-.09,0-.37,0-.84,0-.07,0-.19,0-.37s0-.33,0-.47a1.15,1.15,0,0,0,0-.43s-.12,0-.29-.09l-.19,0h-.18s0,0-.05-.06a.19.19,0,0,1,0-.1.52.52,0,0,1,.17,0,1.06,1.06,0,0,1,.24,0l.25,0h.48l.26,0h.05v.11l-.15,0-.17,0a.52.52,0,0,0-.15.07.25.25,0,0,0-.08.17l0,1.06,0,.48v.14L13,33c0,.46,0,.85,0,1.19,0,.08,0,.23,0,.48h-.17c-.08-.09-.34-.37-.8-.84l-.22-.23-.28-.33a2.7,2.7,0,0,0-.22-.23l-.07-.08c-.24-.27-.55-.62-.94-1l-.46-.52-.23-.28L9.49,31v.11c0,.44,0,1,0,1.8l0,1.1c0,.09,0,.18,0,.27l.12,0c.21,0,.41.05.62.09l0,0v.12l-.09,0h-.09l-.8,0-.58,0H8.64v-.1l.09,0,.16,0a1.19,1.19,0,0,0,.3-.06.41.41,0,0,0,.11-.07,5.77,5.77,0,0,0,0-.68c0-.14,0-.39,0-.76V31.4a3.75,3.75,0,0,0-.05-.75.21.21,0,0,0-.08-.11.68.68,0,0,0-.33-.11l-.27,0Zm4.87.32.13-.5a.39.39,0,0,1,0-.13s0,0,.05,0,.09.05.14.14a.85.85,0,0,0,.09.14.29.29,0,0,0,.11,0h2.76l.28,0a.1.1,0,0,0,.08,0,1.24,1.24,0,0,0,.11-.22c0-.06.07-.09.11-.09h.07a.49.49,0,0,1,0,.12v.41c0,.07,0,.29,0,.66a.14.14,0,0,1,0,.07l-.06,0-.05,0a.75.75,0,0,1-.05-.16,1.15,1.15,0,0,0-.16-.42.41.41,0,0,0-.19-.12,3.6,3.6,0,0,0-.6,0h-.56a2,2,0,0,0,0,.24l0,2.06c0,.09,0,.24,0,.47v.69a.27.27,0,0,0,0,.17.46.46,0,0,0,.21.09l.41.1a.18.18,0,0,1,.11,0v.1H15.45l-.49,0-.36,0h-.18l-.05,0a.41.41,0,0,1,0-.1l.13,0,.33-.07a.75.75,0,0,0,.25-.11.19.19,0,0,0,0-.1,3.41,3.41,0,0,0,0-.57v-3h-.53a1.64,1.64,0,0,0-.59.06,1.91,1.91,0,0,0-.48.52c-.08.11-.14.17-.19.17h0a.05.05,0,0,1,0,0,1.8,1.8,0,0,1,.06-.24c0-.17.07-.28.08-.34Zm3.83,3.66a2.75,2.75,0,0,0,.55-.08.14.14,0,0,0,.08-.1v0c0-.06,0-.26,0-.61a2.62,2.62,0,0,0,0-.28V31a.92.92,0,0,0-.05-.46c0-.06-.15-.1-.32-.12l-.29-.05a.08.08,0,0,1,0-.05.13.13,0,0,1,0-.06s.07,0,.15,0h1.39a3.2,3.2,0,0,1,1,.11.9.9,0,0,1,.47.37,1,1,0,0,1-.46,1.51l-.17.11c.07.15.18.35.31.57l.42.72a4.66,4.66,0,0,0,.35.5,1,1,0,0,0,.23.17,1.94,1.94,0,0,0,.47.12v.11H20.28c-.16-.3-.34-.63-.55-1l-.5-.89a.76.76,0,0,0-.16-.18.4.4,0,0,0-.17,0h-.38c0,.07,0,.22,0,.44V34a1.49,1.49,0,0,0,0,.17.19.19,0,0,0,.1.1,1.36,1.36,0,0,0,.37.12l.13,0a.12.12,0,0,1,0,.09H17.25v0s0,0,.05-.07Zm1.23-2.17h.14a3.06,3.06,0,0,0,.56-.06.85.85,0,0,0,.36-.14.76.76,0,0,0,.23-.29.93.93,0,0,0,.09-.4,1,1,0,0,0-.14-.47.9.9,0,0,0-.38-.33,1.55,1.55,0,0,0-.64-.13H18.5c0,.12,0,.21,0,.27v.88c0,.17,0,.39,0,.66Zm2.59,2.22.06,0,.19,0a1.28,1.28,0,0,0,.4-.07.3.3,0,0,0,.05-.18V31.79l0-.94a1.1,1.1,0,0,0,0-.39.69.69,0,0,0-.36-.07l-.22,0a.06.06,0,0,1-.05-.06.14.14,0,0,1,0-.06l.06,0h.11a2.61,2.61,0,0,0,.4,0h1.52l.34,0,.38,0h.8l0,0,0,.06a1.15,1.15,0,0,1,0,.14.68.68,0,0,0,0,.12,5.25,5.25,0,0,0,0,.59,0,0,0,0,1,0,0H24.7L24.61,31a2.62,2.62,0,0,0-.19-.37.55.55,0,0,0-.13-.17.66.66,0,0,0-.19,0h-.45l-.95,0h-.08c-.12,0-.19,0-.22,0a1.12,1.12,0,0,0,0,.47s0,.29,0,.8v.46h1.52c.12,0,.19,0,.21-.07a.81.81,0,0,0,.07-.31c0-.17.05-.27.11-.29l.08,0a.09.09,0,0,1,0,.05.28.28,0,0,1,0,.08v.77c0,.11,0,.24,0,.39a1.58,1.58,0,0,1,0,.23.28.28,0,0,1,0,.08h-.06a.92.92,0,0,1-.11-.29.92.92,0,0,0-.18-.42.43.43,0,0,0-.31-.09H23c-.31,0-.51,0-.6,0v1.49a1.15,1.15,0,0,0,0,.39c0,.05.12.07.25.07h.86a5.05,5.05,0,0,0,.86-.05.87.87,0,0,0,.35-.2,2.32,2.32,0,0,0,.34-.6c.05-.09.09-.14.13-.14l.07,0a2.91,2.91,0,0,0-.11.43,2.59,2.59,0,0,0,0,.48.28.28,0,0,1-.06.18h-3l-.89,0a.08.08,0,0,1-.06,0s0,0,0,0v0Z"/><path class="cls-1" d="M4.17,29.88a3.83,3.83,0,0,1,0,.6,1,1,0,0,1,0,.16H4.07A1.34,1.34,0,0,0,3.54,30a1.55,1.55,0,0,0-.89-.24,1.39,1.39,0,0,0-.48.07,1.93,1.93,0,0,0-.6.32,2.13,2.13,0,0,0-.44.5,2.76,2.76,0,0,0-.28.69A3.75,3.75,0,0,0,1,33.48a1.57,1.57,0,0,0,.68.75,1.89,1.89,0,0,0,.87.23h.18a2.22,2.22,0,0,0,.41-.08,1.84,1.84,0,0,0,.46-.18A2,2,0,0,0,4,33.89a2.12,2.12,0,0,0,.29-.46l0,0,.06,0a.66.66,0,0,0,0,.11c-.11.43-.19.73-.24.88l-.15,0a3.83,3.83,0,0,1-1.19.15,3.94,3.94,0,0,1-.9-.08,3.66,3.66,0,0,1-.65-.26,2,2,0,0,1-.62-.46,2.07,2.07,0,0,1-.43-.71A2.67,2.67,0,0,1,0,32.17a2.41,2.41,0,0,1,.13-.85,3.12,3.12,0,0,1,.39-.74A2.69,2.69,0,0,1,1.16,30,2.38,2.38,0,0,1,2,29.62a4.14,4.14,0,0,1,.89-.07,2.58,2.58,0,0,1,.8.11,1.53,1.53,0,0,1,.5.21Z"/><path class="cls-1" d="M28.37,31.24H28l0,0,0-.09s0,0,.07,0h.4a2.15,2.15,0,0,1,.21-.49,1.1,1.1,0,0,1,.28-.3,1.26,1.26,0,0,1,.82-.35A.5.5,0,0,1,30,30a.23.23,0,0,1,.11.21.21.21,0,0,1-.07.17.25.25,0,0,1-.19.07.34.34,0,0,1-.3-.21c0-.08-.1-.12-.14-.12s-.33.31-.49.94h.52s0,0,0,0l0,.09a.06.06,0,0,1-.06,0h-.53l0,.14c-.08.28-.15.57-.23.85l-.27,1a5.22,5.22,0,0,1-.32.89,1.16,1.16,0,0,1-.38.44.94.94,0,0,1-.59.22.53.53,0,0,1-.34-.1.28.28,0,0,1-.14-.23.26.26,0,0,1,.07-.17.3.3,0,0,1,.33,0,.46.46,0,0,1,.1.2c0,.1.08.15.14.15s.18-.08.25-.24a1.38,1.38,0,0,0,.09-.23,2.45,2.45,0,0,0,.08-.29l.19-.69c.14-.53.32-1.16.55-1.89ZM30.84,31a1,1,0,0,1,.71.31,1.06,1.06,0,0,1,.29.74,1.27,1.27,0,0,1-.15.6,1.57,1.57,0,0,1-.41.51,2.5,2.5,0,0,1-.53.3,1.62,1.62,0,0,1-.54.11.89.89,0,0,1-.69-.31,1.05,1.05,0,0,1-.28-.76,1.38,1.38,0,0,1,.14-.59,1.43,1.43,0,0,1,.41-.5,2.14,2.14,0,0,1,.51-.3,1.62,1.62,0,0,1,.54-.11Zm0,.12a.77.77,0,0,0-.63.33,2.33,2.33,0,0,0-.36.66,2.51,2.51,0,0,0-.12.76c0,.39.15.58.46.58a.72.72,0,0,0,.57-.28,2.54,2.54,0,0,0,.39-.69,2.07,2.07,0,0,0,.16-.76.68.68,0,0,0-.13-.44.43.43,0,0,0-.34-.16ZM32.31,33l0-.13.18-.55.15-.55a1.82,1.82,0,0,0,.07-.3c0-.07,0-.1-.06-.1s-.09,0-.17.12a1.6,1.6,0,0,0-.22.28l-.08.12s0,.05-.07.05-.06,0-.06-.05a.45.45,0,0,1,.1-.21,1.61,1.61,0,0,1,.24-.29A.89.89,0,0,1,33,31c.12,0,.19.1.19.29a1.36,1.36,0,0,1,0,.2c0,.06-.05.19-.11.4s-.05.2-.07.26l-.14.4.28-.56a3,3,0,0,1,.48-.72A.65.65,0,0,1,34.1,31a.24.24,0,0,1,.2.09.32.32,0,0,1,.08.23.48.48,0,0,1-.09.29.26.26,0,0,1-.21.12.25.25,0,0,1-.15-.05.14.14,0,0,1-.06-.11v-.11c0-.05,0-.08,0-.08s-.19.11-.34.34l-.17.29a2.91,2.91,0,0,0-.18.35.88.88,0,0,0-.07.14c-.11.26-.17.4-.19.43l-.17.39c-.05.13-.11.19-.18.19H32.2s0,0,0-.07v-.07l0-.1v0l0-.12,0-.13Z"/><path class="cls-1" d="M44.55,30.4a3.08,3.08,0,0,1,0,.53v.14h-.13a1.16,1.16,0,0,0-.45-.59,1.39,1.39,0,0,0-.79-.21,1.58,1.58,0,0,0-.41.05,1.8,1.8,0,0,0-.53.29,1.57,1.57,0,0,0-.38.43,2,2,0,0,0-.25.61,3,3,0,0,0-.09.73,2.66,2.66,0,0,0,.22,1.17,1.4,1.4,0,0,0,.59.67,1.61,1.61,0,0,0,.76.19h.16l.36-.06a1.66,1.66,0,0,0,.4-.17,1.09,1.09,0,0,0,.31-.27,1.46,1.46,0,0,0,.26-.4h0l.05,0a.22.22,0,0,1,0,.1c-.09.38-.16.63-.2.77l-.13,0a3.32,3.32,0,0,1-1,.13,3,3,0,0,1-.78-.07,2.55,2.55,0,0,1-.57-.22,1.81,1.81,0,0,1-.55-.4,1.94,1.94,0,0,1-.37-.63,2.23,2.23,0,0,1-.15-.83,2.09,2.09,0,0,1,.12-.74,2.3,2.3,0,0,1,.35-.65,2.17,2.17,0,0,1,.55-.54,2.08,2.08,0,0,1,.72-.3,3.83,3.83,0,0,1,.78-.06,2.63,2.63,0,0,1,.7.09,1.49,1.49,0,0,1,.43.19Zm.28,2a1.91,1.91,0,0,1,.09-.61,2.23,2.23,0,0,1,.27-.57,2,2,0,0,1,.47-.52,2.61,2.61,0,0,1,.75-.37,3,3,0,0,1,.87-.11,2.59,2.59,0,0,1,.68.09,2.8,2.8,0,0,1,.61.26,2.37,2.37,0,0,1,.54.52,1.63,1.63,0,0,1,.29.51,2.19,2.19,0,0,1,.13.75,2.46,2.46,0,0,1-.09.73,1.82,1.82,0,0,1-.28.58,2.46,2.46,0,0,1-.54.5,1.86,1.86,0,0,1-.63.31,2.64,2.64,0,0,1-.81.12,2.71,2.71,0,0,1-.79-.1,2.24,2.24,0,0,1-.58-.25,2.67,2.67,0,0,1-.48-.44,2.42,2.42,0,0,1-.37-.64,2.39,2.39,0,0,1-.12-.77Zm2.32,2.07a2,2,0,0,0,.58-.08,1.38,1.38,0,0,0,.53-.26,1.3,1.3,0,0,0,.37-.41,1.9,1.9,0,0,0,.21-.6,2.94,2.94,0,0,0,.08-.72,3.06,3.06,0,0,0-.13-.9,1.64,1.64,0,0,0-.34-.6,1.54,1.54,0,0,0-.56-.41,1.69,1.69,0,0,0-.7-.15,2,2,0,0,0-.6.1,1.6,1.6,0,0,0-.47.26,1.47,1.47,0,0,0-.35.44,2.17,2.17,0,0,0-.24.63,2.43,2.43,0,0,0-.09.6,2.51,2.51,0,0,0,.09.63,2.09,2.09,0,0,0,.23.61,1.7,1.7,0,0,0,.35.45,1.37,1.37,0,0,0,.48.31,1.47,1.47,0,0,0,.56.1Zm2.36-4v-.16l.76,0h.22a1.6,1.6,0,0,1,.25.27l.06.07.71.78.1.12c.14.16.27.31.38.42s.35.37.68.74l.8.88c.07.09.17.2.29.33v-.06c0-.31,0-.47,0-.49V32.6c0-.09,0-.37,0-.84,0-.07,0-.19,0-.37s0-.33,0-.47a1.11,1.11,0,0,0,0-.43s-.12-.06-.29-.09l-.19,0H53a.17.17,0,0,1-.06-.06l0-.1a.57.57,0,0,1,.18,0l.24,0,.25,0h.48l.25,0h.06v.11l-.15,0-.18,0a.43.43,0,0,0-.14.07.25.25,0,0,0-.08.17l0,1,0,.49v.14L54,33c0,.46,0,.85,0,1.19,0,.08,0,.23,0,.48h-.17l-.8-.84-.22-.23-.29-.33L52.27,33l-.07-.07-.94-1c-.11-.11-.26-.29-.46-.53l-.24-.27L50.42,31v.11c0,.43,0,1,0,1.8l0,1.1a2.45,2.45,0,0,0,0,.27l.11,0,.63.09,0,0v.12l-.09,0h-.08l-.8,0-.59,0h-.13v-.09l.08,0,.16,0,.31-.06.1-.07a5.37,5.37,0,0,0,0-.68c0-.14,0-.39,0-.76V31.4a4.2,4.2,0,0,0,0-.75.23.23,0,0,0-.09-.11.71.71,0,0,0-.33-.12l-.26,0Zm5.07,2a1.92,1.92,0,0,1,.08-.61,2.08,2.08,0,0,1,.27-.57,2,2,0,0,1,.47-.52,2.56,2.56,0,0,1,.76-.37,2.9,2.9,0,0,1,.86-.11,2.49,2.49,0,0,1,1.29.35,2.37,2.37,0,0,1,.55.52,1.7,1.7,0,0,1,.28.51,2.11,2.11,0,0,1,.13.75,2.46,2.46,0,0,1-.09.73,1.68,1.68,0,0,1-.28.57,2.24,2.24,0,0,1-.54.51,2.06,2.06,0,0,1-.63.31,2.64,2.64,0,0,1-.81.12,2.71,2.71,0,0,1-.79-.1,1.92,1.92,0,0,1-1.06-.69,2.42,2.42,0,0,1-.37-.64,2.39,2.39,0,0,1-.13-.77Zm2.31,2.07a2.38,2.38,0,0,0,.58-.08,1.5,1.5,0,0,0,.54-.26,1.54,1.54,0,0,0,.36-.41,2,2,0,0,0,.21-.6,2.94,2.94,0,0,0,.08-.72,3,3,0,0,0-.13-.9,1.49,1.49,0,0,0-.34-.6,1.43,1.43,0,0,0-.56-.41,1.69,1.69,0,0,0-.7-.15,2,2,0,0,0-.6.1,1.4,1.4,0,0,0-.47.26,1.47,1.47,0,0,0-.35.44,2.17,2.17,0,0,0-.24.63,2.43,2.43,0,0,0-.09.6,2.51,2.51,0,0,0,.09.63,2.21,2.21,0,0,0,.23.61,1.7,1.7,0,0,0,.35.45,1.52,1.52,0,0,0,.48.31,1.47,1.47,0,0,0,.56.1Zm2.33,0a.83.83,0,0,1,.37-.1.71.71,0,0,0,.25,0,.1.1,0,0,0,0,0,3.4,3.4,0,0,0,.07-.67c0-.47,0-1.1.1-1.89,0-.6.05-1,.05-1.12v-.09c-.16,0-.41-.06-.76-.09a.2.2,0,0,1,0-.08l0-.06.09,0h.12l.45,0,.32,0h.18l.12,0a.16.16,0,0,1,0,.07l.15.31.93,2.08.4.87a14.66,14.66,0,0,0,.72-1.62.3.3,0,0,1,0-.1L63,31.7c0-.05.09-.23.21-.54l.12-.31c.13-.36.21-.56.23-.61l.11,0h1.17v.06a.18.18,0,0,1,0,.06.49.49,0,0,1-.25.06,2.29,2.29,0,0,0-.38.05.17.17,0,0,0-.1.08,1.46,1.46,0,0,0,0,.3v.32c0,.33,0,.89,0,1.67v1.07a1.33,1.33,0,0,0,0,.29.22.22,0,0,0,.13.08,5.23,5.23,0,0,0,.59.13.05.05,0,0,1,0,0v.07h-.58l-.25,0c-.46,0-.76,0-.91,0h-.22v-.05a.13.13,0,0,1,0-.06,1.33,1.33,0,0,1,.3-.07,1.08,1.08,0,0,0,.31-.11,2.87,2.87,0,0,0,0-.52V32.6c0-.2,0-.53,0-1s0-.62,0-.81c0,.08-.11.25-.22.51l0,.13v0l-.5,1.16-.17.45-.23.55c-.11.25-.19.47-.26.67s-.06.16-.08.21h-.07c-.25-.73-.55-1.49-.9-2.26s-.59-1.27-.73-1.52a7.7,7.7,0,0,0-.06.83c0,.56-.05,1.18-.05,1.85a6.21,6.21,0,0,0,.05.7.22.22,0,0,0,.1.17.9.9,0,0,0,.43.06l.25,0a.2.2,0,0,1,0,.08l0,.06-1,0H59.6l-.38,0V34.4Zm5.35,0,.15,0c.35,0,.54-.06.59-.12a2.47,2.47,0,0,0,.07-.86V31a3.39,3.39,0,0,0,0-.45.36.36,0,0,0,0-.09,1.24,1.24,0,0,0-.39-.09,1.51,1.51,0,0,1-.32,0,.39.39,0,0,1,0-.11h.28l.89,0,.91,0a.31.31,0,0,1,0,.1l-.22,0a1.69,1.69,0,0,0-.39.07.09.09,0,0,0-.06.06.5.5,0,0,0,0,.22l0,.43v2.45a2.59,2.59,0,0,0,0,.48.26.26,0,0,0,.06.15.35.35,0,0,0,.15.07,1,1,0,0,0,.25,0,.43.43,0,0,1,.23.06.19.19,0,0,1,0,.07v0H64.58v-.1Zm5.8-4a4.55,4.55,0,0,1,0,.52s0,.09,0,.15h-.12a1.22,1.22,0,0,0-.46-.6,1.37,1.37,0,0,0-.78-.2,1.27,1.27,0,0,0-.42.05,1.6,1.6,0,0,0-.53.29,1.57,1.57,0,0,0-.38.43,2.28,2.28,0,0,0-.25.61,3,3,0,0,0-.09.73,2.69,2.69,0,0,0,.22,1.17,1.33,1.33,0,0,0,.59.66,1.54,1.54,0,0,0,.76.2h.16a2,2,0,0,0,.36-.07,1.51,1.51,0,0,0,.4-.16,1.09,1.09,0,0,0,.31-.27,1.62,1.62,0,0,0,.26-.4h0a.06.06,0,0,1,0,0,.25.25,0,0,1,0,.1c-.09.38-.16.63-.2.77l-.13,0a3.32,3.32,0,0,1-1.05.13,3.17,3.17,0,0,1-.79-.07,3.85,3.85,0,0,1-.57-.22,2.1,2.1,0,0,1-.54-.4,1.94,1.94,0,0,1-.37-.63,2.27,2.27,0,0,1-.15-.83,2.15,2.15,0,0,1,.12-.75,2.66,2.66,0,0,1,.34-.64,2.2,2.2,0,0,1,.56-.54,2.31,2.31,0,0,1,.72-.31,3.83,3.83,0,0,1,.78-.06,2.28,2.28,0,0,1,.7.1,1.49,1.49,0,0,1,.43.19Zm2.61,0c0,.15,0,.23,0,.26l0,.29c0,.13,0,.21,0,.25H72.9a1.2,1.2,0,0,0-.37-.69,1,1,0,0,0-1.23,0,.63.63,0,0,0-.25.5.6.6,0,0,0,.17.4,4,4,0,0,0,.87.54,5.85,5.85,0,0,1,.76.46,1.21,1.21,0,0,1,.35.4,1.19,1.19,0,0,1,.11.51,1.32,1.32,0,0,1-.18.67,1.19,1.19,0,0,1-.5.47,1.78,1.78,0,0,1-.83.16,2.72,2.72,0,0,1-.86-.14,1.44,1.44,0,0,1-.3-.14.21.21,0,0,1,0-.12.34.34,0,0,1,0-.09,5.73,5.73,0,0,0,0-.65.76.76,0,0,1,0-.18.06.06,0,0,1,0,0s0,0,0,0a.22.22,0,0,1,0,.08,1.09,1.09,0,0,0,.38.73,1.06,1.06,0,0,0,.77.33,1.13,1.13,0,0,0,.48-.11.84.84,0,0,0,.47-.73.72.72,0,0,0-.19-.49,2.46,2.46,0,0,0-.76-.52,5.34,5.34,0,0,1-.74-.44,1.52,1.52,0,0,1-.42-.47.93.93,0,0,1-.1-.45,1,1,0,0,1,.36-.79,1.44,1.44,0,0,1,1-.32,2.05,2.05,0,0,1,.59.08,1.45,1.45,0,0,1,.37.19Z"/><path class="cls-1" d="M35.8,34.46l.07,0,.22,0a1.37,1.37,0,0,0,.46-.07.41.41,0,0,0,.05-.21V31.47l0-1.09a1.05,1.05,0,0,0,0-.44.84.84,0,0,0-.41-.08l-.25,0s0,0,0-.07a.1.1,0,0,1,0-.07.07.07,0,0,1,.06,0H36a3.46,3.46,0,0,0,.46,0h1.74l.38,0,.43,0h.54l.07,0,.31,0,0,0s0,.05,0,.07,0,.09,0,.16a1,1,0,0,0,0,.14c0,.26,0,.48,0,.67l0,0h-.08l-.11-.26a2,2,0,0,0-.21-.42.46.46,0,0,0-.15-.19.51.51,0,0,0-.22,0h-.51l-1.08,0h-.1a.4.4,0,0,0-.25.05,1.35,1.35,0,0,0-.06.54s0,.33,0,.91v.52l.09,0H39a.49.49,0,0,0,.24-.08,1.05,1.05,0,0,0,.08-.36c0-.19.06-.3.13-.33l.09,0a.13.13,0,0,1,0,.06.34.34,0,0,1,0,.09c0,.09,0,.38,0,.88,0,.13,0,.28,0,.44s0,.25,0,.26a.28.28,0,0,1,0,.09l0,0h0a1.14,1.14,0,0,1-.11-.33,1.08,1.08,0,0,0-.21-.48.49.49,0,0,0-.35-.1h-.86a4.88,4.88,0,0,0-.69,0v1.69a1.12,1.12,0,0,0,0,.45c0,.06.14.09.28.09h1a4.07,4.07,0,0,0,1-.07.75.75,0,0,0,.4-.22,2.47,2.47,0,0,0,.4-.69c.05-.1.1-.15.14-.15a.13.13,0,0,1,.08,0,4.42,4.42,0,0,0-.12.49,3.31,3.31,0,0,0,0,.55.37.37,0,0,1-.06.21H38.68l-1.14,0h-.63l-1,0-.08,0s0,0,0-.06v0Z"/><path class="cls-1" d="M22.44,39.08l.52,0a.65.65,0,0,0,.53-.27c0-.05.06-.07.09-.07s.09,0,.09.12a.76.76,0,0,1-.21.53.63.63,0,0,1-.49.24l-.2,0a.61.61,0,0,1,.07.28.92.92,0,0,1-.15.45,1.88,1.88,0,0,1-.37.43,2.33,2.33,0,0,1-.67.38,2.38,2.38,0,0,1-.79.13,2,2,0,0,1-1.29-.41,1.27,1.27,0,0,1-.52-1,1.14,1.14,0,0,1,.33-.84,2.46,2.46,0,0,1,1.07-.58,1,1,0,0,1-.25-.62.85.85,0,0,1,.38-.73,1.51,1.51,0,0,1,1-.3,1.83,1.83,0,0,1,.82.18c.15.07.22.16.22.26a1,1,0,0,1-.08.36c-.06.14-.13.2-.21.2a.19.19,0,0,1-.16-.1,1.09,1.09,0,0,0-.34-.34.83.83,0,0,0-.43-.11,1,1,0,0,0-.64.21.66.66,0,0,0-.25.53.56.56,0,0,0,.2.42,2.69,2.69,0,0,1,.4,0,1.79,1.79,0,0,1,.48,0,.19.19,0,0,1,.13.18c0,.13-.13.2-.37.2a1.06,1.06,0,0,1-.33,0,1.94,1.94,0,0,1-.37-.16,1.11,1.11,0,0,0-.86,1.08,1.14,1.14,0,0,0,.45.91,1.58,1.58,0,0,0,1.07.37,1.47,1.47,0,0,0,1-.33.94.94,0,0,0,.4-.76.43.43,0,0,0-.08-.23l-.24,0h-.19a1.11,1.11,0,0,0-.89.33s-.06.07-.09.07-.06,0-.06-.08a.37.37,0,0,1,.12-.22,1.09,1.09,0,0,1,.27-.25,1.81,1.81,0,0,1,.78-.29l.19,0Z"/><path class="cls-1" d="M30.31,41l.16,0c.34,0,.53-.06.58-.12a2.47,2.47,0,0,0,.07-.86V37.61a3.54,3.54,0,0,0,0-.45l0-.09a1.16,1.16,0,0,0-.4-.08,1.23,1.23,0,0,1-.32-.05.41.41,0,0,1,0-.1h.29l.88,0,.91,0a.28.28,0,0,1,0,.09.71.71,0,0,1-.22,0,2.59,2.59,0,0,0-.39.07.09.09,0,0,0-.06.06.5.5,0,0,0,0,.22l0,.43,0,1.49v.59c0,.18,0,.31,0,.38a3.84,3.84,0,0,0,0,.47.22.22,0,0,0,.21.22,1,1,0,0,0,.25,0,.51.51,0,0,1,.24.06s0,0,0,.07v0H30.32V41Zm1.94-4v-.16a7.33,7.33,0,0,0,.75,0h.22a1.6,1.6,0,0,1,.26.26l.06.07.7.78.1.12a5.63,5.63,0,0,0,.39.42l.68.74.79.88.3.33v-.06c0-.31,0-.47,0-.49v-.66c0-.09,0-.37,0-.84,0-.07,0-.19,0-.37a3.94,3.94,0,0,1,0-.47,1.06,1.06,0,0,0,0-.43s-.11,0-.29-.09a.8.8,0,0,1-.19,0h-.18l0-.06a.19.19,0,0,1,0-.1l.18,0a1,1,0,0,1,.23,0,1.19,1.19,0,0,0,.25,0h.8v.1L37,37a.47.47,0,0,0-.17,0,.37.37,0,0,0-.15.06.29.29,0,0,0-.08.17l0,1.06,0,.48v.14l0,.67c0,.46,0,.86,0,1.19,0,.08,0,.23,0,.48h-.17l-.8-.84-.22-.23-.28-.33L35,39.63l-.07-.08-.94-1c-.11-.11-.26-.29-.46-.52l-.24-.28-.14-.11v.11q0,.66,0,1.8l0,1.1a2.13,2.13,0,0,0,0,.27l.11,0q.31,0,.63.09l0,0v.12a.13.13,0,0,1-.08,0h-.09c-.22,0-.49,0-.8,0l-.58,0H32.3v-.1l.09,0,.15,0a2.13,2.13,0,0,0,.31-.07l.1-.07a4,4,0,0,0,0-.68c0-.14,0-.39,0-.76V38a4.2,4.2,0,0,0,0-.75.19.19,0,0,0-.09-.11.62.62,0,0,0-.33-.11l-.26,0ZM37,41l.09,0h.15l.31,0a.62.62,0,0,0,.2-.22,9.12,9.12,0,0,0,.38-1c.07-.2.12-.32.13-.36s.11-.28.16-.42l.32-.88c0-.14.16-.45.35-.95l.17-.5h.22a5.56,5.56,0,0,1,.25.61c0,.12.11.29.2.52l.5,1.38.28.74c.14.42.23.68.28.78a.44.44,0,0,0,.12.19.25.25,0,0,0,.12,0l.16,0,.21.07a.18.18,0,0,1,0,.06.11.11,0,0,1,0,0H39.85l-.07,0a.24.24,0,0,1,0-.09l.07,0,.35,0a.88.88,0,0,0,.2,0,.51.51,0,0,0,0-.09,1.45,1.45,0,0,0-.09-.31c0-.11-.07-.22-.1-.32s-.15-.43-.35-1l-.25,0h-.91l-.25,0-.06.15-.29.92a3.82,3.82,0,0,0-.19.58.33.33,0,0,0,0,.1l.19,0,.45,0s0,0,0,.05a.43.43,0,0,0,0,0h-.23l-.62,0H37v0A.39.39,0,0,1,37,41Zm1.59-2,.81,0,.46,0c0-.08,0-.16-.08-.24-.15-.38-.22-.59-.24-.63l-.3-.76,0-.06a2.92,2.92,0,0,0-.15.34c-.14.34-.24.61-.3.8l-.09.25-.06.18a.49.49,0,0,1,0,.11Zm2.73-2v-.16c.34,0,.59,0,.76,0h.22a1.55,1.55,0,0,1,.25.26l.06.07.7.78.1.12.39.42c.12.12.34.37.68.74l.79.88.3.33v-.06c0-.31,0-.47,0-.49v-.66c0-.09,0-.37,0-.84,0-.07,0-.19,0-.37s0-.33,0-.47a1.15,1.15,0,0,0,0-.43.86.86,0,0,0-.29-.09.76.76,0,0,1-.19,0h-.18a.17.17,0,0,1-.06-.06l0-.1.18,0a1.1,1.1,0,0,1,.24,0,1.1,1.1,0,0,0,.25,0h.79v.1L46,37a.57.57,0,0,0-.18,0c-.08,0-.13,0-.14.06a.29.29,0,0,0-.08.17l0,1.06,0,.48v.14l0,.67c0,.46,0,.86,0,1.19,0,.08,0,.23,0,.48h-.18c-.07-.09-.34-.37-.79-.84l-.22-.23-.29-.33L44,39.63,44,39.55c-.24-.27-.55-.62-.93-1-.11-.11-.26-.29-.46-.52l-.24-.28-.14-.11v.11q0,.66,0,1.8l0,1.1a2.26,2.26,0,0,0,0,.27l.12,0A6.17,6.17,0,0,1,43,41l0,0v.12a.18.18,0,0,1-.09,0h-.09c-.22,0-.48,0-.79,0l-.59,0h-.13v-.1l.08,0,.16,0a2.13,2.13,0,0,0,.31-.07l.1-.07a5.37,5.37,0,0,0,0-.68c0-.14,0-.39,0-.76V38a5.63,5.63,0,0,0,0-.75.31.31,0,0,0-.09-.11.62.62,0,0,0-.33-.11l-.26,0ZM50,37a4.58,4.58,0,0,1,0,.53v.14h-.12a1.15,1.15,0,0,0-.46-.59,1.39,1.39,0,0,0-.79-.21,1.58,1.58,0,0,0-.41.05,1.8,1.8,0,0,0-.53.29,1.57,1.57,0,0,0-.38.43,2,2,0,0,0-.25.61A3,3,0,0,0,47,39a2.66,2.66,0,0,0,.22,1.17,1.4,1.4,0,0,0,.59.67,1.61,1.61,0,0,0,.76.19h.16a2.34,2.34,0,0,0,.36-.06,2.18,2.18,0,0,0,.4-.17,1.09,1.09,0,0,0,.31-.27,1.62,1.62,0,0,0,.26-.4h0l.05,0a.22.22,0,0,1,0,.1c-.09.38-.16.63-.2.77l-.14,0a3.25,3.25,0,0,1-1,.13,3.17,3.17,0,0,1-.79-.07,3.85,3.85,0,0,1-.57-.22,1.9,1.9,0,0,1-.54-.4,2.16,2.16,0,0,1-.38-.63,2.45,2.45,0,0,1-.14-.83,2.35,2.35,0,0,1,.11-.74,3,3,0,0,1,.35-.65,2.39,2.39,0,0,1,.56-.54,1.93,1.93,0,0,1,.72-.3,3.83,3.83,0,0,1,.78-.06,2.5,2.5,0,0,1,.69.09A1.46,1.46,0,0,1,50,37Zm.12,4,.06,0,.2,0a1.16,1.16,0,0,0,.4-.06.3.3,0,0,0,0-.18V38.42l0-.94a.89.89,0,0,0,0-.39.67.67,0,0,0-.35-.07l-.23,0a.05.05,0,0,1,0-.06.07.07,0,0,1,0-.06l0,0h.11a2.75,2.75,0,0,0,.41,0h1.52l.33,0,.38,0h.81l0,0a.14.14,0,0,1,0,.06.82.82,0,0,1,0,.14.68.68,0,0,0,0,.12,5,5,0,0,0,0,.58s0,0,0,0h-.07s-.06-.12-.1-.22a2.46,2.46,0,0,0-.18-.37.77.77,0,0,0-.13-.17.45.45,0,0,0-.19,0h-.45l-.95,0h-.08c-.12,0-.2,0-.22,0a1.06,1.06,0,0,0-.06.47s0,.29,0,.8v.46h1.52c.11,0,.18,0,.2-.07a.62.62,0,0,0,.08-.31c0-.17,0-.27.11-.29l.08,0s0,0,0,0a.54.54,0,0,0,0,.08c0,.08,0,.33,0,.77,0,.11,0,.24,0,.38s0,.22,0,.23,0,0,0,.08l-.05,0h0a1.58,1.58,0,0,1-.1-.29.92.92,0,0,0-.18-.42.46.46,0,0,0-.31-.09H52c-.31,0-.51,0-.6,0V40.5a.92.92,0,0,0,0,.39s.12.07.25.07h.86a4.82,4.82,0,0,0,.85,0,.84.84,0,0,0,.36-.2,2.32,2.32,0,0,0,.34-.6c0-.1.09-.14.13-.14l.06,0a2.47,2.47,0,0,0-.1.43,3.91,3.91,0,0,0,0,.48.27.27,0,0,1,0,.18h-3l-.89,0-.07,0a.07.07,0,0,1,0-.05v0Z"/><path class="cls-1" d="M25.58,41.23v-.1a1.59,1.59,0,0,1,.28-.07.84.84,0,0,0,.27-.07.36.36,0,0,0,.12-.08,2.85,2.85,0,0,0,0-.61V36.85a.29.29,0,0,0-.06-.21.82.82,0,0,0-.31-.1,1.37,1.37,0,0,1-.31-.08.08.08,0,0,1,0-.07.06.06,0,0,1,0,0,.14.14,0,0,1,.1,0H28l1.16,0h.27a.17.17,0,0,1,.12,0,.22.22,0,0,0,0,.08v.15l0,.68a.45.45,0,0,1,0,.11.23.23,0,0,1-.11,0s0,0-.05,0a.28.28,0,0,1,0-.16,2,2,0,0,0-.12-.42.31.31,0,0,0-.17-.17,2.38,2.38,0,0,0-.77-.08h-1a.81.81,0,0,0-.3,0c-.06,0-.08.08-.08.17v.05c0,.13,0,.28,0,.44v1a1.32,1.32,0,0,0,0,.29h1a2.14,2.14,0,0,0,.61-.06.3.3,0,0,0,.16-.13,1,1,0,0,0,.1-.3l.05-.31.07,0,.06,0A1.65,1.65,0,0,1,29,38l.06,1.39-.1,0h0a1.57,1.57,0,0,0-.19-.59.2.2,0,0,0-.1-.09,7.64,7.64,0,0,0-.9,0h-.66a.3.3,0,0,0-.16,0,.25.25,0,0,0,0,.07v1.9a.44.44,0,0,0,0,.14.56.56,0,0,0,.29.08,1.8,1.8,0,0,1,.4.1c.07,0,.1.07.1.11a.07.07,0,0,1,0,0,.1.1,0,0,1-.05,0,4.74,4.74,0,0,0-.87-.07,3.5,3.5,0,0,0-.62.06,3.89,3.89,0,0,1-.51,0l-.08,0Z"/><path class="cls-1" d="M8.08,24.77a2.22,2.22,0,0,1,0,.37v.1H8a.91.91,0,0,0-.32-.42,1,1,0,0,0-.56-.15,1.19,1.19,0,0,0-.29,0,1.46,1.46,0,0,0-.37.2,1.63,1.63,0,0,0-.27.31,1.54,1.54,0,0,0-.17.43,2.09,2.09,0,0,0-.07.51,1.86,1.86,0,0,0,.16.83,1,1,0,0,0,.41.46,1.21,1.21,0,0,0,.54.14h.11a1.31,1.31,0,0,0,.25-.05,1.36,1.36,0,0,0,.29-.11,1.2,1.2,0,0,0,.21-.19A2,2,0,0,0,8.13,27h.06V27q-.11.41-.15.54L8,27.6a2.42,2.42,0,0,1-.73.1,1.93,1.93,0,0,1-.56-.06,2.25,2.25,0,0,1-.4-.15,1.49,1.49,0,0,1-.38-.28,1.24,1.24,0,0,1-.26-.45,1.54,1.54,0,0,1-.1-.58,1.39,1.39,0,0,1,.08-.52,1.64,1.64,0,0,1,.24-.45,1.41,1.41,0,0,1,.39-.38,1.3,1.3,0,0,1,.51-.22,2.62,2.62,0,0,1,.55,0,1.61,1.61,0,0,1,.49.07.86.86,0,0,1,.3.13Zm.33,2.82,0,0h.14a.86.86,0,0,0,.28-.05.23.23,0,0,0,0-.13V25.08a.61.61,0,0,0,0-.27s-.11,0-.25,0H8.45a.05.05,0,0,1,0,0s0,0,0-.05h.12l.29,0h1.3l.26,0H11l0,0a.41.41,0,0,1,0,.1.39.39,0,0,0,0,.09c0,.16,0,.29,0,.41l0,0h0a.89.89,0,0,1-.07-.16,2.08,2.08,0,0,0-.13-.26.39.39,0,0,0-.09-.11.26.26,0,0,0-.14,0h-1c-.09,0-.14,0-.15,0a.65.65,0,0,0,0,.32s0,.21,0,.56V26h1.07c.08,0,.13,0,.14-.05a.49.49,0,0,0,.05-.22c0-.12,0-.18.08-.2h.06v.09c0,.06,0,.24,0,.55a2.62,2.62,0,0,0,0,.27c0,.1,0,.15,0,.16v.05h-.05a.88.88,0,0,1-.07-.2.6.6,0,0,0-.13-.3.29.29,0,0,0-.21-.06H9.72a3.4,3.4,0,0,0-.43,0v1a1.69,1.69,0,0,0,0,.28.26.26,0,0,0,.18.05h.6a2.63,2.63,0,0,0,.6,0,.55.55,0,0,0,.25-.13,1.65,1.65,0,0,0,.24-.43q0-.09.09-.09a.06.06,0,0,1,.05,0,2.33,2.33,0,0,0-.08.3c0,.11,0,.22,0,.34a.2.2,0,0,1,0,.13H9.09l-.62,0H8.42s0,0,0,0v0Zm3-2.83v-.11a3.65,3.65,0,0,0,.53,0h.16l.18.19,0,.05.5.54.07.09.27.3c.08.08.24.25.48.52l.55.62.21.22v0c0-.22,0-.34,0-.35v-.46c0-.07,0-.26,0-.59,0-.05,0-.14,0-.26s0-.24,0-.33a.83.83,0,0,0,0-.31s-.08,0-.2-.06h-.26a.08.08,0,0,1,0,0,.14.14,0,0,1,0-.07l.12,0a.56.56,0,0,1,.17,0h.73v.08h-.11l-.12,0-.1.05a.16.16,0,0,0-.05.12l0,.74,0,.34v.57c0,.32,0,.6,0,.84,0,.05,0,.16,0,.33h-.12l-.56-.59L13.73,27l-.2-.23a1.67,1.67,0,0,0-.15-.17l-.05-.05-.66-.72-.32-.37-.17-.19a.36.36,0,0,0-.09-.08v.08c0,.3,0,.72,0,1.26l0,.77c0,.07,0,.13,0,.19l.08,0,.44.07,0,0v.08l-.06,0H11.49v-.07l.06,0,.11,0,.21,0a.18.18,0,0,0,.07-.05A2.88,2.88,0,0,0,12,27c0-.1,0-.27,0-.53v-1c0-.3,0-.47,0-.53a.19.19,0,0,0-.06-.07.52.52,0,0,0-.24-.08l-.18,0Zm3.66.23.09-.36a.22.22,0,0,1,0-.09.05.05,0,0,1,0,0s.06,0,.09.1l.07.1.07,0h1.94l.2,0a.09.09,0,0,0,.06,0l.07-.15c0-.05.05-.07.08-.07h0s0,.06,0,.08v.29c0,.05,0,.21,0,.47,0,0,0,0,0,.05h-.05s0,0,0,0a.37.37,0,0,1,0-.1.9.9,0,0,0-.11-.3.28.28,0,0,0-.14-.09,3.08,3.08,0,0,0-.42,0h-.39v1.62c0,.06,0,.17,0,.33v.48a.17.17,0,0,0,0,.12.34.34,0,0,0,.16.07,2.45,2.45,0,0,0,.28.06l.07,0v.08h-.74l-.34,0h-.42a.24.24,0,0,1,0-.07l.08,0,.24,0,.17-.07a.15.15,0,0,0,0-.08,2.94,2.94,0,0,0,0-.4V24.9h-.38a1.08,1.08,0,0,0-.41,0,1.41,1.41,0,0,0-.34.37c0,.08-.1.12-.14.12h0a0,0,0,0,0,0,0s0-.08,0-.17l.06-.25ZM18,27.56a2.17,2.17,0,0,0,.39-.06s0,0,.05-.07v0s0-.18,0-.43c0-.06,0-.13,0-.2v-1.6a.58.58,0,0,0,0-.32s-.1-.07-.22-.08l-.2,0a.05.05,0,0,1,0,0s0,0,0,0a.23.23,0,0,1,.11,0h1a2.43,2.43,0,0,1,.73.07.71.71,0,0,1,.46.67.71.71,0,0,1-.45.66l-.12.07a4.37,4.37,0,0,0,.22.4l.3.51a2.9,2.9,0,0,0,.24.35.52.52,0,0,0,.17.12,1.46,1.46,0,0,0,.32.09.06.06,0,0,1,0,0,0,0,0,0,1,0,0h-.83c-.11-.21-.24-.44-.39-.7l-.35-.63a.44.44,0,0,0-.11-.12.22.22,0,0,0-.12,0h-.27a2.12,2.12,0,0,0,0,.3v.8a1.05,1.05,0,0,0,0,.13.13.13,0,0,0,.06.07,1.69,1.69,0,0,0,.26.08l.1,0a.14.14,0,0,1,0,.07H18v0a.09.09,0,0,1,0-.05ZM18.9,26H19a2,2,0,0,0,.39,0,.62.62,0,0,0,.26-.1.56.56,0,0,0,.16-.2.71.71,0,0,0,.06-.28.66.66,0,0,0-.1-.34.58.58,0,0,0-.26-.22,1.06,1.06,0,0,0-.45-.1h-.17v.8c0,.12,0,.28,0,.47Zm1.92,1.53a.07.07,0,0,1,.06,0H21l.21,0a.34.34,0,0,0,.14-.15c.08-.16.17-.39.28-.68a1.16,1.16,0,0,1,.09-.25l.11-.3.22-.61c0-.1.12-.32.25-.66l.12-.36h.15a2.77,2.77,0,0,1,.18.43,2.74,2.74,0,0,0,.14.37l.35,1,.19.53c.1.29.17.48.2.54a.51.51,0,0,0,.08.14l.09,0,.11,0,.15,0s0,0,0,0,0,0,0,0H22.8a.15.15,0,0,1,0-.07l.05,0h.24a.49.49,0,0,0,.15,0,.18.18,0,0,0,0-.06,1,1,0,0,0-.06-.22c0-.08-.05-.16-.07-.23s-.11-.3-.25-.7h-1a.49.49,0,0,0,0,.1l-.21.65c-.08.25-.13.38-.13.41l0,.07.13,0,.32,0s0,0,0,0a.08.08,0,0,1,0,0h-.16l-.43,0h-.6v0s0,0,0,0Zm1.12-1.41h.88a.75.75,0,0,0-.05-.16l-.17-.45L22.39,25l0,0a2.45,2.45,0,0,1-.1.23c-.1.24-.17.43-.21.56l-.06.18a.79.79,0,0,0,0,.13.19.19,0,0,1,0,.07h0Zm2.12,1.49a.14.14,0,0,1,0-.06,2.29,2.29,0,0,1,.36-.07.17.17,0,0,0,.14-.05s0-.09,0-.22l0-.62V25.51c0-.33,0-.54,0-.62a.1.1,0,0,0,0-.06l-.1,0-.37-.07v-.07h.15l.36,0h.95a.29.29,0,0,1,0,.09l-.24,0a.88.88,0,0,0-.25,0S25,24.88,25,25v2.46s0,.07,0,.08H26a.8.8,0,0,0,.23,0,.92.92,0,0,0,.23-.15,1.19,1.19,0,0,0,.15-.18l0,0a1.26,1.26,0,0,0,.11-.25h.08l0,.16c0,.22-.08.41-.09.55a.28.28,0,0,0,0,.09l-.88,0c-.75,0-1.19,0-1.33,0h-.39ZM28,24.74v-.08h.28l.62,0h.43a2,2,0,0,1,.58.06.85.85,0,0,1,.4.26.63.63,0,0,1,.13.39c0,.23-.16.43-.49.58v0a1.3,1.3,0,0,1,.41.19.81.81,0,0,1,.25.3.78.78,0,0,1,.06.33.82.82,0,0,1-.31.63,1.34,1.34,0,0,1-.88.27H28v0s0,0,0,0l.05,0,.34-.08a.18.18,0,0,0,0-.07,2.16,2.16,0,0,0,0-.48s0,0,0-.09v-.42c0-.41,0-.77,0-1.08v-.52a2.5,2.5,0,0,0-.35,0l-.16,0Zm.93,1.18a1,1,0,0,0,.24,0,.85.85,0,0,0,.69-.22.72.72,0,0,0,.18-.44.64.64,0,0,0,0-.2.52.52,0,0,0-.11-.19.67.67,0,0,0-.2-.12,1.23,1.23,0,0,0-.42-.07,2.1,2.1,0,0,0-.37,0v.81l0,.33Zm.55,1.59a1.06,1.06,0,0,0,.39-.1.66.66,0,0,0,.17-.14.63.63,0,0,0,.16-.23.72.72,0,0,0,0-.5.56.56,0,0,0-.13-.24.61.61,0,0,0-.27-.18,1.1,1.1,0,0,0-.41-.07,3.32,3.32,0,0,0-.48,0v.54a5.23,5.23,0,0,0,0,.65.25.25,0,0,0,.12.17A.79.79,0,0,0,29.46,27.51Zm1.17,0a.07.07,0,0,1,.06,0h.11l.21,0a.36.36,0,0,0,.15-.15,6,6,0,0,0,.27-.68l.09-.25a2.65,2.65,0,0,0,.11-.3l.22-.61c0-.1.12-.32.25-.66l.12-.36h.15a2.77,2.77,0,0,1,.18.43c0,.08.07.21.14.37l.35,1,.19.53c.1.29.17.48.2.54a.51.51,0,0,0,.08.14l.09,0,.11,0,.15,0s0,0,0,0,0,0,0,0H32.61a.15.15,0,0,1,0-.07l.05,0h.24a.49.49,0,0,0,.15,0,.35.35,0,0,1,0-.06,1,1,0,0,0-.06-.22c0-.08,0-.16-.07-.23s-.11-.3-.25-.7h-1a.49.49,0,0,0,0,.1l-.21.65a2.66,2.66,0,0,0-.13.41l0,.07.13,0,.32,0s0,0,0,0,0,0,0,0h-.16l-.44,0h-.59v0a.08.08,0,0,1,0,0Zm1.12-1.41h.89L32.58,26l-.17-.45L32.2,25l0,0s0,.09-.11.23-.17.43-.21.56l-.06.18a.58.58,0,0,0,0,.13l0,.07Zm2.16-1.39v-.11a3.65,3.65,0,0,0,.53,0h.16l.18.19,0,.05.5.54.07.09.27.3.48.51.55.63.21.22v0c0-.22,0-.34,0-.35v-.46c0-.07,0-.27,0-.6,0,0,0-.13,0-.25s0-.24,0-.34a.8.8,0,0,0,0-.3s-.08,0-.2-.06h-.26s0,0,0,0a.64.64,0,0,1,0-.07.32.32,0,0,1,.13,0h.16a.62.62,0,0,0,.18,0h.56v.07a.15.15,0,0,1-.1,0l-.12,0c-.06,0-.09,0-.1.05a.17.17,0,0,0-.06.12l0,.74L37,26v.1l0,.47c0,.32,0,.6,0,.84,0,.05,0,.16,0,.33h-.12l-.56-.59L36.2,27l-.2-.23-.15-.17-.06-.05c-.16-.19-.38-.43-.65-.73-.08-.07-.18-.2-.33-.36a1.53,1.53,0,0,0-.16-.19l-.1-.08v.08q0,.45,0,1.26v.77c0,.07,0,.13,0,.19l.09,0,.43.06,0,0v.08l-.06,0H34v-.06l.06,0,.11,0,.22,0,.07-.05c0-.11,0-.27,0-.48V25.47a2.49,2.49,0,0,0,0-.53.19.19,0,0,0-.06-.07.48.48,0,0,0-.23-.08l-.19,0Z"/><path class="cls-1" d="M38.53,26.13l.09-.07c.09,0,.24-.16.45-.31l.64-.53a2.7,2.7,0,0,0,.37-.34.09.09,0,0,0,0-.06L40,24.77l-.17,0a.3.3,0,0,1-.14,0s0,0,0,0a.05.05,0,0,1,0,0l.09,0h.54l.36,0h.18s0,.07,0,.09a1.73,1.73,0,0,0-.38.08L40.2,25a3.4,3.4,0,0,0-.28.21l-.6.51L39,26s0,0,0,0l.07.07c.16.15.38.33.66.55s.49.41.65.56a1.19,1.19,0,0,0,.65.37.23.23,0,0,1,.11,0v.06h-.65l-.77,0v-.07a.23.23,0,0,1,.12-.05,1.26,1.26,0,0,1,.27,0h.06a.28.28,0,0,0-.07-.09L40,27.35a1.61,1.61,0,0,0-.18-.17L39.56,27l-.43-.36c-.14-.12-.34-.27-.6-.46Zm-.92,1.47,0,0a1.11,1.11,0,0,0,.38-.09.17.17,0,0,0,0-.14V26.5l0-.65v-.44c0-.25,0-.41,0-.5a.36.36,0,0,0,0-.09.11.11,0,0,0-.07,0l-.26,0a.05.05,0,0,1,0-.05.08.08,0,0,1,0,0h1.18s0,0,0,0v0l-.11,0a.6.6,0,0,0-.28.09.26.26,0,0,0,0,.18v2.12a1.41,1.41,0,0,0,0,.32.08.08,0,0,0,0,0,.46.46,0,0,0,.24.07l.09,0a.43.43,0,0,1,0,.05.05.05,0,0,1,0,0h-.3l-.27,0-.2,0-.35,0h-.09V27.6Z"/><path class="cls-1" d="M48.08,24.76v-.11a3.72,3.72,0,0,0,.53,0h.15a1.62,1.62,0,0,1,.18.19s0,0,.05.05l.49.54.07.09.27.3c.08.08.24.25.48.52l.55.62.21.22v0c0-.22,0-.34,0-.35v-.46c0-.07,0-.26,0-.59,0-.05,0-.14,0-.26s0-.24,0-.33a.83.83,0,0,0,0-.31s-.08,0-.2-.06h-.26l0,0a.14.14,0,0,1,0-.07l.13,0a.5.5,0,0,1,.16,0h.73v.08h-.1l-.13,0-.1.05a.21.21,0,0,0,0,.12l0,.74,0,.34v.1l0,.47c0,.32,0,.6,0,.84,0,.05,0,.16,0,.33h-.12l-.56-.59c-.08-.07-.13-.13-.16-.16l-.2-.23a1.67,1.67,0,0,0-.15-.17l0-.05-.66-.72L49,25.45a1.28,1.28,0,0,0-.17-.19.36.36,0,0,0-.09-.08v.08c0,.3,0,.72,0,1.26l0,.77c0,.07,0,.13,0,.19l.08,0,.44.07,0,0v.08l-.07,0H48.12v-.07l.06,0,.11,0,.21,0a.13.13,0,0,0,.07-.05,2.88,2.88,0,0,0,0-.48c0-.1,0-.27,0-.53v-1a3.54,3.54,0,0,0,0-.53.19.19,0,0,0-.06-.07.52.52,0,0,0-.23-.08l-.19,0Zm3.67,2.8.11,0a.85.85,0,0,0,.41-.09,1.82,1.82,0,0,0,0-.6V25.17c0-.09,0-.2,0-.31s0,0,0-.06a.73.73,0,0,0-.28-.06.54.54,0,0,1-.22,0,.1.1,0,0,1,0-.07H52l.62,0c.16,0,.37,0,.64,0a.15.15,0,0,1,0,.07l-.15,0a.72.72,0,0,0-.27.05.07.07,0,0,0-.05,0,.75.75,0,0,0,0,.15v2a2.57,2.57,0,0,0,0,.34.16.16,0,0,0,0,.1.19.19,0,0,0,.1,0l.17,0c.09,0,.15,0,.17,0a.09.09,0,0,1,0,.05v0H51.76Zm4.66-2.77,0,.35c0,.11,0,.18,0,.22h-.06a1.49,1.49,0,0,0-.39-.53.92.92,0,0,0-.57-.18,1.74,1.74,0,0,0-.64.1,1.3,1.3,0,0,0-.57.5,1.49,1.49,0,0,0-.24.85,1.38,1.38,0,0,0,.09.52,1.82,1.82,0,0,0,.24.43,1.54,1.54,0,0,0,.38.34.84.84,0,0,0,.33.15l.33,0a1.25,1.25,0,0,0,.31,0,.71.71,0,0,0,.26-.1.48.48,0,0,0,.11-.15,1.21,1.21,0,0,0,0-.33,1,1,0,0,0-.05-.47c0-.05-.15-.08-.34-.09h-.19l0-.06s0,0,0,0a5.08,5.08,0,0,1,.53,0h.93v0a.18.18,0,0,1,0,.06l-.15,0h-.15a.17.17,0,0,0-.13.05.53.53,0,0,0,0,.18v.31a1.6,1.6,0,0,1,0,.4.14.14,0,0,1,0,.09.78.78,0,0,1-.19.1,2.45,2.45,0,0,1-.37.11,4.28,4.28,0,0,1-.6.05,2.05,2.05,0,0,1-.76-.12,1.4,1.4,0,0,1-.51-.33,1.37,1.37,0,0,1-.3-.42,1.65,1.65,0,0,1-.14-.65,1.6,1.6,0,0,1,.92-1.44,2.1,2.1,0,0,1,.92-.17,2.42,2.42,0,0,1,.66.07A1.74,1.74,0,0,1,56.41,24.79Zm.63,2.8,0,0h.14a.86.86,0,0,0,.28-.05.23.23,0,0,0,0-.13V25.08a.61.61,0,0,0,0-.27s-.11,0-.25,0h-.16a.05.05,0,0,1,0,0s0,0,0-.05h.12l.29,0h1.3l.26,0h.6s0,0,0,0a.41.41,0,0,1,0,.1.78.78,0,0,1,0,.09c0,.16,0,.29,0,.41l0,0h0a.89.89,0,0,1-.07-.16,2.08,2.08,0,0,0-.13-.26.39.39,0,0,0-.09-.11s-.07,0-.14,0h-1c-.08,0-.14,0-.15,0a.65.65,0,0,0,0,.32s0,.21,0,.56V26H59c.08,0,.13,0,.14-.05a.49.49,0,0,0,0-.22c0-.12,0-.18.08-.2h.06v.09c0,.06,0,.24,0,.55,0,.08,0,.17,0,.27s0,.15,0,.16a.43.43,0,0,0,0,.05h-.05a.88.88,0,0,1-.07-.2.6.6,0,0,0-.13-.3.29.29,0,0,0-.21-.06h-.53a3.08,3.08,0,0,0-.42,0v1a.7.7,0,0,0,0,.28s.08.05.17.05h.6a2.63,2.63,0,0,0,.6,0,.5.5,0,0,0,.25-.13,1.93,1.93,0,0,0,.25-.43c0-.06.05-.09.08-.09a.06.06,0,0,1,.05,0,2.33,2.33,0,0,0-.08.3l0,.34a.2.2,0,0,1,0,.13H57.72l-.62,0h-.05s0,0,0,0v0Zm3.11,0a2,2,0,0,0,.38-.06s0,0,.06-.07v0s0-.18,0-.43v-1.8a.7.7,0,0,0,0-.32.3.3,0,0,0-.22-.08l-.2,0a.05.05,0,0,1,0,0,.08.08,0,0,1,0,0,.19.19,0,0,1,.1,0h1a2.47,2.47,0,0,1,.73.07.67.67,0,0,1,.33.27.64.64,0,0,1,.13.4A.71.71,0,0,1,62,26l-.12.07a2.81,2.81,0,0,0,.22.4l.3.51a2,2,0,0,0,.24.35.61.61,0,0,0,.16.12,1.8,1.8,0,0,0,.33.09v.07h-.83c-.11-.21-.24-.44-.39-.7l-.35-.63a.66.66,0,0,0-.12-.12.22.22,0,0,0-.12,0H61a2.12,2.12,0,0,0,0,.3v.8a1.05,1.05,0,0,0,0,.13.13.13,0,0,0,.06.07,1.69,1.69,0,0,0,.26.08l.1,0a.14.14,0,0,1,0,.07H60.12v0a.09.09,0,0,1,0-.05ZM61,26h.1a2,2,0,0,0,.39,0,.57.57,0,0,0,.25-.1.41.41,0,0,0,.16-.2.58.58,0,0,0,.07-.28.77.77,0,0,0-.1-.34.61.61,0,0,0-.27-.22,1,1,0,0,0-.44-.1H61A1.42,1.42,0,0,0,61,25v.61c0,.12,0,.28,0,.47Zm2,1.53.11,0a.85.85,0,0,0,.41-.09,1.82,1.82,0,0,0,0-.6V25.17c0-.09,0-.2,0-.31l0-.06a.73.73,0,0,0-.28-.06.5.5,0,0,1-.22,0,.1.1,0,0,1,0-.07h.2l.62,0c.16,0,.37,0,.64,0a.15.15,0,0,1,0,.07l-.15,0a.86.86,0,0,0-.28.05s0,0,0,0A.75.75,0,0,0,64,25v2a2.57,2.57,0,0,0,0,.34.16.16,0,0,0,0,.1.19.19,0,0,0,.1,0l.17,0c.09,0,.15,0,.17,0a.09.09,0,0,1,0,.05v0H63.06Zm1.52,0a.07.07,0,0,1,.06,0h.11l.21,0a.41.41,0,0,0,.14-.15,6,6,0,0,0,.27-.68l.09-.25a2.65,2.65,0,0,0,.11-.3l.22-.61.25-.66.12-.36h.15a2.77,2.77,0,0,1,.18.43l.14.37.35,1,.19.53c.1.29.17.48.2.54a.33.33,0,0,0,.09.14l.08,0,.11,0,.15,0a.09.09,0,0,1,0,.08H66.54a.14.14,0,0,1,0-.07l0,0h.24a.42.42,0,0,0,.14,0,.39.39,0,0,0,0-.06,1.48,1.48,0,0,0-.07-.22c0-.08,0-.16-.07-.23s-.1-.3-.25-.7h-1l0,.1-.2.65a2.66,2.66,0,0,0-.13.41.14.14,0,0,0,0,.07l.13,0,.32,0s0,0,0,0a.08.08,0,0,1,0,0h-.16l-.43,0h-.6v0s0,0,0,0Zm1.11-1.41h.89L66.51,26c-.1-.27-.15-.42-.16-.45L66.13,25l0,0a1.61,1.61,0,0,0-.1.23c-.1.24-.17.43-.22.56l-.06.18a.58.58,0,0,0,0,.13s0,.05,0,.07Z"/><path class="cls-1" d="M43.68,25.12a.78.78,0,0,1,.59.25.86.86,0,0,1,.25.62,1,1,0,0,1-.13.5,1.24,1.24,0,0,1-.34.42,2.09,2.09,0,0,1-.44.25,1.29,1.29,0,0,1-.45.09.75.75,0,0,1-.57-.26.88.88,0,0,1-.23-.63,1.11,1.11,0,0,1,.12-.49,1.23,1.23,0,0,1,.33-.42,1.64,1.64,0,0,1,.43-.24A1.28,1.28,0,0,1,43.68,25.12Zm0,.1a.64.64,0,0,0-.52.27,1.7,1.7,0,0,0-.29.55,1.93,1.93,0,0,0-.11.62c0,.33.13.49.38.49a.63.63,0,0,0,.48-.23,1.9,1.9,0,0,0,.32-.58,1.76,1.76,0,0,0,.14-.63.57.57,0,0,0-.11-.36A.35.35,0,0,0,43.71,25.22Zm1.56.1h-.35v0l0-.08s0,0,0,0h.34a2.37,2.37,0,0,1,.17-.4,1,1,0,0,1,.23-.25,1.07,1.07,0,0,1,.68-.29.41.41,0,0,1,.25.07.2.2,0,0,1,0,.31.21.21,0,0,1-.16.05.27.27,0,0,1-.25-.17c0-.06-.08-.1-.11-.1s-.28.26-.41.78h.43s0,0,0,0l0,.08a.05.05,0,0,1,0,0H45.7l0,.11c-.06.24-.13.47-.19.71s-.12.42-.23.8a3.72,3.72,0,0,1-.26.74,1.14,1.14,0,0,1-.32.37.79.79,0,0,1-.49.17.51.51,0,0,1-.28-.07.26.26,0,0,1-.11-.2.22.22,0,0,1,.05-.14.24.24,0,0,1,.14,0,.17.17,0,0,1,.13,0,.34.34,0,0,1,.09.16c0,.09.07.13.12.13s.14-.07.21-.2a1.45,1.45,0,0,0,.06-.19c0-.08,0-.16.08-.24l.15-.58q.18-.66.45-1.56Z"/><polygon class="cls-2" points="33.47 10.09 34.98 10.09 34.98 18.14 33.47 18.14 33.47 10.09"/><polygon class="cls-2" points="35.97 7.72 37.48 7.72 37.48 20.36 35.97 20.36 35.97 7.72"/><polygon class="cls-2" points="38.47 10.09 39.98 10.09 39.98 18.14 38.47 18.14 38.47 10.09"/><path class="cls-2" d="M36.66,0a9,9,0,0,1,5.46,16.11l-1.25-1.22h0a7.26,7.26,0,1,0-8.32.08h0l-1.27,1.2A9,9,0,0,1,36.66,0Z"/></g></g></svg>