<svg id="Layer_1" data-name="Layer 1" xmlns="http://www.w3.org/2000/svg" viewBox="0 0 32.39 42.21"><defs><style>.cls-1,.cls-4{fill:#201e1e;}.cls-1,.cls-2,.cls-3,.cls-5{fill-rule:evenodd;}.cls-2{fill:#22b35a;}.cls-3{fill:#3abdfa;}.cls-5{fill:#fcbd00;}</style></defs><g id="Layer_1-2" data-name="Layer_1"><g id="CBN_VECTOR_LOGO.cdr"><path class="cls-1" d="M26.05,35.48c2.75-.81,5.79,1.62,2.49,4.79-3.07,2.95-2.79,2-6,.44-4.53-2.24-10-1.64-14.37.66-2,1-2.42,1.4-5.37-2.3-1.3-1.64-.22-4.11,3.7-3.7A94.55,94.55,0,0,1,.46,28C.23,27.47-.4,18.16.41,17.11c.51-.67.86-.43,1.26-.25,0-5.08,3.94-5.7,4.87-7A38.06,38.06,0,0,0,8.62,6.25L8,6.11C8.15,5,8.35,5.8,8.42,5l-.49-.49c.52-.58.54-.48.54-.9-.57-.24-.42-.1-.6-.46C8,3.11,12.21.85,12.53.78c2.91-.65.54,2.77,2.1,3C15.83,4,16,2,14.49,1.57l-.14-.27C15.4-.33,17.87-.62,18,1.52a7.21,7.21,0,0,0,.33,2.27,1,1,0,0,0,.71.14c0-.11-.49-4.18,2.27-3.1,1.3.52,2.71,2.32,3.66,3L24.33,4a6.05,6.05,0,0,1,.55,1,1.65,1.65,0,0,1-.85.19l0,.28a3.11,3.11,0,0,1,.91.79l-.25.3c-.79-.07-.17-.3-1-.3.32,1.1,1.67,2.35,2.35,3.34,1.21,1.75.47.51,2.22,1.78a6.47,6.47,0,0,1,2.79,5.56l.47-.17c1,.83.83,1,.81,3.23,0,1.74,0,6.56-.57,8.16-.47,1.25-2.53,3.16-3.48,4.35a19.92,19.92,0,0,0-2.27,3ZM9.18,10l-.4,0,0-.27.1-.16L9,9.29l.45-.08.31,0,.35.1h.28l.14-.13.24-.16L11,8.92l.08.18.24.07L11.63,9l.27-.13.28-.22.26-.24.29,0h.37l.24-.05L13.72,8,14,7.81l.27-.09.18,0,.29.21.11.19v.21l0,.16-.11.29-.13.18.05,2.28.1.29.22.29.14.34-.06.22-.26.05-.36,0-.29.13-.22.19-.4-.16-.63-.71-.5-.45L11.76,11l-.53-.33-.66-.28-.47-.19-.47-.19-.45,0ZM19.71,8.16c2.11,1.25,1.87.19,2.46,1.11.32.52.31.29.65.56L23,10l-.08.24a4.64,4.64,0,0,0-2,.85,2.81,2.81,0,0,0-1,.71,4.89,4.89,0,0,0-.95,1l-.28-.09a2.39,2.39,0,0,1-.24-1.22c.42-.35.17-.18.54-.22s.43-.18.71-.39c.57.06.31.08.74-.13a1.44,1.44,0,0,1,.72-.19c.28-.09.31-.23.34-.34a16.89,16.89,0,0,1-2.36-1.79.41.41,0,0,1,0-.36L19.62,8l.1.12Zm-5.13,5.21,3.4,0,.23.06v.18l-.06.15-.89,1-.49.64-.2.24-.15.16-.17-.06-.14-.13-.27-.43-.81-1-.24-.28-.2-.2-.1-.21ZM11.26,35.64c.38-.87.12-.57-.1-1.13-.09-.22,0-.24.07-.41.44.17.19.53,1.2.93.55.21.63-.07.66.37a1.56,1.56,0,0,1-1,.08C11.85,35.81,11.71,35.78,11.26,35.64ZM19,35.19c1.46-.14,1.86-1.28,2.45-1.85h.17c-.12.69-.39.76-.39,1.06,0,.5-.34.24-.08,1.11.11.36-.06.34-.38.43l-.17-.26-1.69-.1-.07-.22.16-.18ZM29.62,21.73c.43.73-.05,1.93-.05,2.13s0,.3-.27.51c.06.26.06.26-.17.5,0,1-.39,1.58-1.29,2.47-.41.4-.85.33-.89-.07.9-.82.09-1.31.61-1.87s1.2-.59,1.1-1.18.43-.51.47-.77a1.62,1.62,0,0,1,0-.67c.12-.9,0-.12,0-1,.26-.18.28-.22.52-.09Zm-1.11,1.06c.24.67-.17.8-.39,1.08s-.19.3-.51.32c-.57,0-.38-.45-.08-.76s.12-.88,1-.64ZM2.76,21.73c-.43.73.06,1.93.06,2.13s0,.3.26.51c-.06.26-.06.26.17.5,0,1,.39,1.58,1.3,2.47.4.4.84.33.89-.07-.91-.82-.09-1.31-.62-1.87s-1.2-.59-1.1-1.18-.43-.51-.47-.77a1.72,1.72,0,0,0,0-.67c-.13-.9-.06-.12,0-1-.25-.18-.27-.22-.51-.09Zm1.11,1.06c-.24.67.17.8.39,1.08s.19.3.51.32c.58,0,.38-.45.08-.76s-.12-.88-1-.64ZM24.5,24c.24.69,0,.57-.16,1.11l0,.36a1.51,1.51,0,0,0-.19.5c-.07.64,0,.09-.19.55a2.23,2.23,0,0,0-.13.61l-.14.41c-.07.44.1-.1-.17.78l-.3.94c-.46-.06-.43,0-.65-.59S22.35,28,22,27.28c-.21-.44-.43-.41.19-1.42l1-1.73c.33-.3.9-.19,1.23-.13ZM8,24c-.24.69,0,.57.16,1.11l0,.36a1.78,1.78,0,0,1,.19.5c.07.64,0,.09.18.55a2.23,2.23,0,0,1,.13.61l.14.41c.07.44-.1-.1.17.78l.3.94c.46-.06.43,0,.65-.59s.19-.68.52-1.39c.2-.44.42-.41-.19-1.42l-1-1.73c-.33-.3-.9-.19-1.23-.13Zm2.93,1.6a6.82,6.82,0,0,0-.67-1.14l-.13-.22.06-.14c.33-.05.68.18,1.13,0,.28-.1,0-.11.43-.11l.09.11c-.05.26-.42.53-.47,1.06,0,.31.07,0-.13.5Zm10.69,0a5.68,5.68,0,0,1,.67-1.14l.12-.22-.06-.14c-.32-.05-.68.18-1.12,0s0-.11-.44-.11l-.08.11c0,.26.42.53.47,1.06,0,.31-.07,0,.12.5Zm3.84-10.69c-.71-.23-4.54,3.2-6.5,3.65-2.29.54-1,3.38-4.4.54,0,0-5-2.79-6.4-3.82-.54-.39-.26-.32-.73-.36-.91.78-.52.95-1.69,1.2l0,.19c.24.24,4.09,2.17,5.77,3.68.91.81,1-.47,2.3,1.55,1.62,2.48,1.19.32,1.43,3.85.17,2.38.08.09-.09,2.38A14.25,14.25,0,0,1,15,31.66L15,33c-1.71,0-4.2-3.22-1.06-5.09,1.34-.8.56-1.7-.12-3.84-.11-.36-.05-.41-.53-.73.21-.95-2.38-4.22-4.27-2.8C6.91,22.13,1.68,17.8,6.5,13.7c1-.89,4.61-1.73,4.91,2.26.09,1.18,1.7,1.25,3.92,1.55a1.5,1.5,0,0,0,1-.31c1,.73,2.39.15,4.39-.25,1.33-.28-.61-4.12,3.75-4,4.1.12,5.49,8,.23,7.88-1.8-.05-1.46-2.21-4.65,1-.6.6-.41.79-.64,1.47-1.19.33-2.27,3.34-.62,4.42,2,1.32.55,5.61-1.26,5.25-.76-4.06.28-3.63-.31-6.3a15.34,15.34,0,0,1,.45-4c2.23-3.14,1.91-1.58,4.2-3.38a44.83,44.83,0,0,1,4.77-3l0-.13a5.1,5.1,0,0,1-1.26-1.28Z"/><path class="cls-2" d="M28.1,38.84c.41,0,.5-.07.79,0,0,0-2,3-3.6,2.48-1.95-.63-4.75-3.47-10.89-2.66a23.27,23.27,0,0,0-7.8,2.51c-.9.43-2.16-1.08-3-2.07L3.7,39c2.34-.15,7.8-4.31,16.52-2.62,4.53,1,5.33,2.49,7.87,2.45Z"/><path class="cls-2" d="M3.41,37.63c.1-1.76,2.49-2.09,3.7-1.1C6.91,37.53,3.94,38.55,3.41,37.63Z"/><path class="cls-2" d="M28.79,37.63c-.1-1.76-2.5-2.09-3.7-1.1C25.29,37.53,28.25,38.55,28.79,37.63Z"/><path class="cls-2" d="M1.17,17.8l-.23.14a89,89,0,0,0,0,9.24c.47,1.86,4.74,6.5,6.21,8.1a5.5,5.5,0,0,0,1.7,1.31c1.47-.51,2.51-.71,1.3-3.52A54.93,54.93,0,0,1,7,24.75c-.07-.28,0-1.22-1.23-.75-.54,1.53.77,2.66.77,6-.22-.09-4.07-3.17-4.27-4.53-.28-1.83.39-5.13-.54-6.68l-.57-1Z"/><path class="cls-2" d="M31.27,17.8l.22.14a83.74,83.74,0,0,1,0,9.24c-.47,1.86-4.74,6.5-6.21,8.1a5.39,5.39,0,0,1-1.7,1.31c-1.47-.51-2.51-.71-1.29-3.52a54.89,54.89,0,0,0,3.14-8.32c.07-.28,0-1.22,1.23-.75.55,1.53-.77,2.66-.77,6,.23-.09,4.07-3.17,4.27-4.53.28-1.83-.38-5.13.54-6.68l.57-1Z"/><path class="cls-1" d="M3.19,15.84l-.3.14a7.35,7.35,0,0,0,.79,4.54C5.21,22.83,7.91,23,10.5,22.77l.58-.17v-.27c-1.27-.45.07-1.36-2.41-.43S3.08,20.41,3.36,17a2.26,2.26,0,0,0,0-1Z"/><path class="cls-1" d="M29.64,15.84l.29.14a7.28,7.28,0,0,1-.79,4.54c-1.53,2.31-4.23,2.47-6.81,2.25l-.58-.17v-.27c1.26-.45-.08-1.36,2.41-.43s5.57-1.49,5.29-4.93a2.42,2.42,0,0,1,0-1Z"/><path class="cls-1" d="M19.88,25.33c-.25-.18-.11-.13-.52-.13.11,1.23-.76,1.06.38,2.14,2.36,2.26,1,5.58-1.41,6.62-.81.35-.52,0-.9.59l.25.12c3.05-1.1,4.88-3.89,3.57-6.8-.21-.46-1.09-2.15-1.36-2.53Z"/><path class="cls-3" d="M7.17,15.13c3.54,2.64,6.91,4.11,8,5.15a3.35,3.35,0,0,0,1.4,1c.92-.43.62-1.44,3.91-2.81a25.25,25.25,0,0,0,5.09-3.31l.75.75c-3.61,1.8-4.39,3.17-6,3.74s-3.64,2.84-3.42,4.21c.16.94-.33,1.87-.08,2.8.44,1.61-.27.74.3,4.47a4.11,4.11,0,0,1-.2,2.06,1.6,1.6,0,0,1-1.4,0c-.2-1.81.29-1.66.17-5.34-.07-1.85.4-.11.08-2.33a5,5,0,0,1,.1-2.37C13,18.69,13.24,20.92,9.63,18a10.65,10.65,0,0,0-3.41-2c.66-.42.39-.24,1-.86Z"/><path class="cls-4" d="M6.65,40a.39.39,0,0,1-.19.5.4.4,0,0,1-.35,0,.56.56,0,0,1-.31-.28.55.55,0,0,1-.09-.41.48.48,0,0,1,.47-.37.4.4,0,0,1,.26.13l-.16.15a.18.18,0,0,0-.12-.08.27.27,0,0,0-.15,0,.2.2,0,0,0-.11.17.45.45,0,0,0,.07.27.52.52,0,0,0,.21.21.19.19,0,0,0,.2,0,.18.18,0,0,0,.1-.11.33.33,0,0,0,0-.19l.21,0Zm1.07-.22-.67.37-.51-.93.66-.35.09.17-.48.26.1.18.45-.25.09.18L7,39.68l.12.24.5-.27.09.17Zm1-.45-.19.08L7.86,39l.29.62L8,39.69l-.44-1,.18-.08.67.47-.29-.64.17-.08.44,1Zm.67-1.18-.28.11.31.79-.2.08-.3-.8-.28.11-.07-.19L9.3,38Zm1.39.41-.23.08-.22-.17a.65.65,0,0,0-.15-.11l-.07,0-.11,0h0l.14.42-.19.07-.35-1,.45-.16a.39.39,0,0,1,.26,0,.3.3,0,0,1,.18.17.34.34,0,0,1,0,.2.31.31,0,0,1-.16.16l.12.05a.69.69,0,0,1,.17.13l.19.15ZM10.25,38a.13.13,0,0,0-.08-.08.24.24,0,0,0-.16,0L9.82,38l.09.25.2-.07a.37.37,0,0,0,.13-.07.12.12,0,0,0,0-.12Zm1.57.31-.22.06-.15-.21-.36.1v.24l-.21.06L11,37.43l.18-.06.68.91ZM11.34,38l-.22-.34,0,.41.25-.07Zm1.25.11-.62.15-.24-1,.19,0,.2.82.42-.1Zm1.4-.55a.31.31,0,0,1,0,.22.34.34,0,0,1-.26.13l-.47.09-.17-1,.44-.08a.35.35,0,0,1,.23,0,.21.21,0,0,1,.13.18.32.32,0,0,1,0,.14.31.31,0,0,1-.09.11.26.26,0,0,1,.16.07.26.26,0,0,1,.07.15Zm-.32-.41a.16.16,0,0,0-.05-.08.22.22,0,0,0-.14,0l-.2,0,0,.24.2,0a.23.23,0,0,0,.12,0,.11.11,0,0,0,0-.11Zm.1.44a.11.11,0,0,0-.06-.1.21.21,0,0,0-.16,0l-.21,0,.05.28.23,0a.33.33,0,0,0,.12,0,.11.11,0,0,0,0-.11Zm1.42.15-.22,0-.11-.23-.37,0-.06.25-.21,0,.27-1.09h.19Zm-.41-.38L14.61,37l-.08.4Zm1.39.35H16L15.54,37l0,.69h-.19l0-1.05h.2l.43.69,0-.71h.19l0,1Zm1.19,0H17.1l-.27-.47-.13.15v.32h-.2V36.63h.2v.43l.38-.43h.27l-.39.42.39.64Zm1.6-.36a.62.62,0,0,1-.18.38.45.45,0,0,1-.38.1.5.5,0,0,1-.34-.18.6.6,0,0,1-.09-.41.61.61,0,0,1,.19-.4.45.45,0,0,1,.37-.09.47.47,0,0,1,.34.18.53.53,0,0,1,.09.42Zm-.21,0A.41.41,0,0,0,18.7,37a.27.27,0,0,0-.19-.11.24.24,0,0,0-.22.06.39.39,0,0,0-.11.26.37.37,0,0,0,.05.28.2.2,0,0,0,.19.11.25.25,0,0,0,.21-.06.43.43,0,0,0,.12-.27ZM20,37.17l-.5-.09-.05.21.44.08,0,.2-.43-.09-.09.44-.21,0,.21-1L20,37l0,.19Zm1.27,1.19-.19,0-.21-.78-.19.66-.18,0,.28-1,.19,0,.21.78.19-.67.18.05-.28,1Zm.49.15-.19-.06.31-1,.2.07Zm1.18.28a.65.65,0,0,1-.21,0,.88.88,0,0,1-.24,0,.54.54,0,0,1-.31-.28.55.55,0,0,1,0-.42.61.61,0,0,1,.25-.31.47.47,0,0,1,.42,0,.48.48,0,0,1,.25.18.45.45,0,0,1,0,.26l-.2,0a.17.17,0,0,0,0-.14.34.34,0,0,0-.13-.1.26.26,0,0,0-.23,0,.37.37,0,0,0-.17.21.45.45,0,0,0,0,.3.32.32,0,0,0,.18.16l.12,0,.13,0,0-.13-.22-.08.07-.17.41.15-.14.4Zm.92.56-.7-.31.43-1,.68.31-.08.18-.5-.22-.08.18.46.21-.08.18-.46-.21-.11.25.51.23-.08.18Zm1.05.56-.22-.13,0-.27a.57.57,0,0,0,0-.18.15.15,0,0,0,0-.07.18.18,0,0,0-.08-.06l0,0-.21.39-.18-.1.51-.93.42.23a.39.39,0,0,1,.18.18.28.28,0,0,1,0,.25.31.31,0,0,1-.15.13.28.28,0,0,1-.22,0l.05.12s0,.12,0,.22v.24Zm.1-.8A.11.11,0,0,0,25,39a.57.57,0,0,0-.11-.1l-.19-.1-.13.24.19.1a.23.23,0,0,0,.14,0S25,39.16,25,39.11Zm.26,1L25.1,40l.54-.9.18.11Zm1,.63-.19-.12.07-.25-.32-.2-.2.16-.18-.12.89-.68.16.11Zm-.09-.55.1-.4L26,40Z"/><path class="cls-5" d="M16.17,16.08c-2.92-3.39-5.85-7.61-10.49-5a7,7,0,0,0-2.91,9.26,6.79,6.79,0,0,0,4.9,3.31c1,.07,4.9.26,5-1.14l-2.24-2.11c-.52-.19-3.31,2.34-5.67-1-1.67-2.38.4-6.08,2.9-6.94a3.27,3.27,0,0,1,3.78,1.91c.73,2.18,0,2.6,3.71,2.89,1.2.09,1.17-.44,1.06-1.2Z"/><path class="cls-1" d="M15.06,16.14c-.27-.44-3.76-4.66-5.69-5.07a4,4,0,0,0-2.23.18l0,.38c.64.41,3.92-.82,5.39,3C13,16,11.68,15.84,14,16.16c.62.08.58.41,1,.11v-.13Z"/><path class="cls-5" d="M16.28,16.08c2.92-3.39,5.85-7.61,10.5-5a7.05,7.05,0,0,1,2.9,9.26,6.79,6.79,0,0,1-4.9,3.31c-1,.07-4.9.26-5-1.14l2.23-2.11c.52-.19,3.31,2.34,5.67-1,1.67-2.38-.4-6.08-2.89-6.94a3.28,3.28,0,0,0-3.79,1.91c-.73,2.18,0,2.6-3.71,2.89-1.2.09-1.17-.44-1.05-1.2Z"/><path class="cls-1" d="M17.76,16.14c.26-.44,3.76-4.66,5.68-5.07a4,4,0,0,1,2.23.18l0,.38c-.64.41-3.91-.82-5.39,3-.52,1.35.82,1.23-1.55,1.55-.62.08-.57.41-1,.11v-.13Z"/><path class="cls-5" d="M13,23.7c-1.73,2.73-4,5.9-2.28,9.25a5.62,5.62,0,0,0,4.46,2.41c2.08.08,4.19.34,6.13-2.37,1.74-2.4.89-5.1-.5-7.45-.39-.65-.87-1.44-1.61-1.65,0,.07-1.31,2.58-.66,3.19,1.37,1.29,2.44,2.59,1.08,4.89-2.1,3.55-9.64,1-7.08-3.23,1.28-2.08,2.67-.18,1.08-4.65-.14-.4-.34-.36-.61-.39Z"/><path class="cls-1" d="M12.3,32.86c-.36-.69-1.7-2-.67-3.84,1.12-2,1.14-1.35,1.68-2,.37-.42-.11-1.66-.32-2.29h-.22a32.24,32.24,0,0,0-2,5.19c-.09,1,.43,2.88,1.07,3.13l.4,0Z"/><path class="cls-1" d="M20.15,32.86c.37-.69,1.7-2,.68-3.84-1.12-2-1.14-1.35-1.68-2-.37-.42.1-1.66.31-2.29h.23a32.24,32.24,0,0,1,2,5.19c.09,1-.43,2.88-1.08,3.13l-.4,0Z"/><path class="cls-2" d="M18.2,10.75a.82.82,0,0,1-.89-1c.09-.21.19,0,.19-.62-.8-.69-2.77-.75-3.12-3.78,0-.45,0-.16-.19-.62-.65-.18-.8.22-1.13-.18s-.31-.45-.83-.43c-.24.31-.22.22-.22.45.88-.08,1.1.22.91,1.29l.33-.52c.93,0,1.14,1.75.92,1.95l-.28.11c-.49-.43-.2-.51-.31-1.11-.27.31-.13,1.59-.74,1.54-.2,0-.25-.31-.28-.45l-.09-.05c-.54.68-.06.61-.86.92l-.23-.14c0-.7,1.06-1.65,1-2.7-.66-.53-.53.6-.81,1.34s-.84,1.68-1.5,1.87c-.79-.52.19-.77.95-2.51.18-.42.45-.46.09-1a11.4,11.4,0,0,0-1.59,2.5c-.39.58,0-.15-.31.57C9,8.7,8.59,9.62,8,9.29c-.2-.85.21-.84,1.18-2.26A16.69,16.69,0,0,1,10.4,5.19c-.2-.17-.09-.13-.6-.1-.08-.34.06-.39.32-.57,0-.27-.12-.22-.44-.5l.08-.26a4,4,0,0,0,1.53-.62c.44-.39,0-.35.84-.46.26.41.14.4.4.48a4,4,0,0,0,.2-1.05,5.91,5.91,0,0,0-1.29.5c-.4.21-.7.84-1.5.33.05-.43.22-.33.52-.5s.13-.12.38-.19c.56-.15,2.26-1.69,2.74-.59C13.71,2,13.46,3.44,14,4a1.75,1.75,0,0,0,.52.3l.33.33a1.55,1.55,0,0,0,.76-.11,2.12,2.12,0,0,0,0-3c-.15-.09-.31,0-.38-.26C15,.61,16.51-.06,17.35.75c.49.47.24,2.24.43,3s.33.39.62.71a.66.66,0,0,0,1-.12c.29-1.17-.46-3.1,1.08-3.18.64,0,1.66.89,2.29,1.35l-.07.26c-.63.2-.93-.56-1.74-.7s-.67.73-.6.86c.38-.06.74-.66,2.49.8l.19.18c-.08.22-.28.23-.49.28-.17.35.23.5.62.75l0,.26c-.6.43-.64-.45-1.14-.45l0,.17.14.1v.24l-.29.06L21.7,5l-.17,0c-.13.29-.38.28-.66.19-.26-.7-.25-.42-.16-1,0-.22,0-.45-.28-.45-.38,1.34-.46,1.57-1.51,1.7-.5.06-.6-.5-1.27-1l-.25.07c-.1.23,0,.28,0,.68.82.59.84,1,2.36.59.34-.12.26-.22.83-.19A7.39,7.39,0,0,1,21.32,8l-.09.23-.14.05c-.68-.38-.41-.77-.63-1.3-.13-.32-.13,0-.13-.6a.5.5,0,0,0-.39.1c.08.4.11.51-.05.78l-.41,0c-.14-.38.07-.43-.28-.63l-.1.38-.15,0-.4-.41,0,.09c.06.11.71.82-.14,1.15-.23.09-.1-.2-.59-.2a3.21,3.21,0,0,0,.39,1.34c.16-.08.2-.09.29-.24.19,0,.18,0,.31.17,0,.51.14,1.65-.57,1.75Z"/><path class="cls-2" d="M22.25,5.73c-.12.42.25.14.25,1,0,.4.15.4.31.85a1.76,1.76,0,0,0,1,1.06l.26.18c.12.11.1,0,.28.26a.34.34,0,0,0,.24.18l.28-.07c0-.4.05-.34-.28-.61s-.09-.28-.66-1.17l-.85-1.26c-.16-.21-.14-.1-.23-.32s-.07-.21-.21-.28l-.35,0,0,.19Z"/><path class="cls-2" d="M22.86,8.84c.34-.5-.09-.57-.53-1.62-.22-.53-.52-1.45-.91-1.53h-.19c-.5.74.33,1.33.52,2,.1.37.45,1.34.95,1.25Z"/><path class="cls-2" d="M14.91,10.21a1.67,1.67,0,0,1,.63-1.48c1.37.68,1,.47,1,1.68s-1.5.92-1.6-.21Z"/><path class="cls-2" d="M16.17,12.24c0-.33.15-.18.38-.74.41-.1.55.11.57.52s-.53,1-.9.48a.25.25,0,0,1,0-.26Z"/><path class="cls-2" d="M17.62,13.14c1.22.08.4-.71.38-.78-.05-.26.26-.92-.45-.75-.12.19-.22.14-.07.59C17.29,12.5,16.88,12.86,17.62,13.14Z"/><path class="cls-2" d="M20.24,9.73l.47.37c0,.65-.39.35-.62.37-.12.19-.09.24-.38.28-.63.1-.39-.77-.23-.82l.41.06c0-.26.06-.23.27-.32l.09.06Z"/><path class="cls-2" d="M15,12.69c.19-.17.39-.14.36-.41s-.07-.13,0-.39.13-.12.46,0c.17.36.19,1.1-.3,1.21L14.82,13l-.06-.13.05-.11.16-.06Z"/><path class="cls-1" d="M16.21.77a.23.23,0,0,1,.23.23.23.23,0,0,1-.23.24A.23.23,0,0,1,16,1,.23.23,0,0,1,16.21.77Z"/></g></g></svg>