<svg id="Layer_1" data-name="Layer 1" xmlns="http://www.w3.org/2000/svg" viewBox="0 0 67.96 22.69"><defs><style>.cls-1{fill:#16780d;}.cls-2{fill:#3f4951;}</style></defs><g id="Layer_1-2" data-name="Layer_1"><g id="_1259453975552" data-name=" 1259453975552"><path class="cls-1" d="M16.77,5.5v3H14l-1.85-3H9.38v3H5.7a9,9,0,0,1,17.1,0H19.12v-3Zm0,6.59h-.62l-.73-1.2h1.35v1.2Zm-5,0v-1.2h.93l.73,1.2H11.73Zm16.67-1.2V8.54H25.24a11.35,11.35,0,0,0-22,0H0v2.35H9.37v1.2H0v2.35H3.33a11.36,11.36,0,0,0,15.84,7.13l-1.23-2A9,9,0,0,1,5.8,14.44H9.38V17h2.35V14.44h3.1L16.39,17h2.73V14.44H28.4V12.09H19.12v-1.2Z"/><path class="cls-2" d="M33.46,12.1a1.54,1.54,0,0,0,1.7,1.13,1.6,1.6,0,0,0,1.35-.6l1.25.72a3,3,0,0,1-2.63,1.29,3.28,3.28,0,0,1-2.4-.9,3.09,3.09,0,0,1-.9-2.28,3.11,3.11,0,0,1,.89-2.27A3.05,3.05,0,0,1,35,8.28a2.86,2.86,0,0,1,2.19.92,3.18,3.18,0,0,1,.86,2.26,3.63,3.63,0,0,1-.06.64Zm0-1.21h3.07A1.46,1.46,0,0,0,36,10a1.74,1.74,0,0,0-2,0,1.53,1.53,0,0,0-.54.9ZM44.1,6h1.66v8.43H44.5L40.88,9.31v5.16H39.22V6h1.26l3.62,5.14V6Zm7.73,2.41h1.56v6H51.83v-.71a2.34,2.34,0,0,1-2,.88,2.75,2.75,0,0,1-2.07-.92,3.22,3.22,0,0,1-.86-2.26A3.2,3.2,0,0,1,47.8,9.2a2.71,2.71,0,0,1,2.07-.92,2.34,2.34,0,0,1,2,.88V8.45ZM49,12.68a1.59,1.59,0,0,0,1.19.48,1.63,1.63,0,0,0,1.67-1.7,1.63,1.63,0,0,0-1.67-1.7,1.59,1.59,0,0,0-1.19.48,1.64,1.64,0,0,0-.47,1.22A1.62,1.62,0,0,0,49,12.68Zm6.6-5a1,1,0,0,1-1-1,.92.92,0,0,1,.28-.67.88.88,0,0,1,.67-.29.9.9,0,0,1,.68.29.92.92,0,0,1,.28.67.91.91,0,0,1-.28.67A.93.93,0,0,1,55.57,7.72Zm-.77,6.75v-6h1.55v6Zm4.53-5A1.6,1.6,0,0,1,60,8.62a2.15,2.15,0,0,1,1.12-.29v1.73a1.84,1.84,0,0,0-1.27.29,1.36,1.36,0,0,0-.56,1.24v2.88H57.77v-6h1.56Zm7.07-1H68v6H66.4v-.71a2.36,2.36,0,0,1-2,.88,2.73,2.73,0,0,1-2.07-.92,3.22,3.22,0,0,1-.86-2.26,3.2,3.2,0,0,1,.86-2.26,2.7,2.7,0,0,1,2.07-.92,2.36,2.36,0,0,1,2,.88V8.45Zm-2.87,4.23a1.74,1.74,0,0,0,2.4,0,1.67,1.67,0,0,0,.47-1.22,1.66,1.66,0,0,0-.47-1.22,1.74,1.74,0,0,0-2.4,0,1.67,1.67,0,0,0-.47,1.22A1.66,1.66,0,0,0,63.53,12.68Z"/></g></g></svg>