<svg id="Layer_1" data-name="Layer 1" xmlns="http://www.w3.org/2000/svg" xmlns:xlink="http://www.w3.org/1999/xlink" viewBox="0 0 37.77 38.18"><defs><style>.cls-1,.cls-10{fill:none;}.cls-2{fill:#229131;}.cls-3{fill:#9a341b;}.cls-4{fill:#1d8b2e;}.cls-5{fill:#fff;}.cls-6{fill:#ffed00;}.cls-7{fill:#009037;}.cls-8{clip-path:url(#clip-path);}.cls-9{fill:#fcea0d;}.cls-10{stroke:#009037;stroke-linejoin:round;stroke-width:1.3px;}</style><clipPath id="clip-path"><path class="cls-1" d="M17.61,10.37c-.43.3-.84.38-.95.3s-.25-.26-.33-.15-.22.3-.33.2-.32-.19-.33.1a.69.69,0,0,1-.47.61c-.27.1-.3.25-.57.65s-.54.34-1,.36-.55.3-.55.3a3.26,3.26,0,0,1-.32,1c-.17.22-.54,0-.54,0a1.64,1.64,0,0,1,.35.52c.14.33,0,.49,0,.49l.1.15a4.53,4.53,0,0,1,.1,1.08,8,8,0,0,1,.61.62,1.58,1.58,0,0,1,.46.8c0,.07.92,1.3.92,1.3a2.12,2.12,0,0,1,.33-.3c.11,0,.3.12.3.12s.86-.35.92-.28a2.43,2.43,0,0,0,1.2.64c.26-.05.75-.55,1.12-.43s.25.55.25.55a1.56,1.56,0,0,1,.33-.14c.11,0,.07.18.14.23a1.51,1.51,0,0,1,.42.45c.09.15-.3.5-.34.64s.33.56.39.75,0,.26,0,.26l-.58.82a4.85,4.85,0,0,1-.35.48v0a1.26,1.26,0,0,0,.45,1,2,2,0,0,1,.66,1,4.07,4.07,0,0,0,.31.87,1.43,1.43,0,0,1,0,.68.55.55,0,0,0,.28.3c.23.12.43-.2.67-.38a7.88,7.88,0,0,1,.77-.38,1,1,0,0,0,.44-.56,2.87,2.87,0,0,1,.92-.69,1.4,1.4,0,0,0,.56-.62c.11-.26-.06-.76,0-1a9,9,0,0,1,.9-1.23,1.13,1.13,0,0,0,.07-.74s.33-.25.67-.48.36-.48.56-1.1.94-.92,1.14-1.05.46-.62.41-.74a1.32,1.32,0,0,1-.08-.44s0-.08,0-.11v0a.16.16,0,0,0-.15-.16h0a3.23,3.23,0,0,1-1.12-.17.75.75,0,0,1-.16-.49l-1.37-2,0-.82-.23-.2c-.13-.1.05-.33.07-.53s0-.51-.25-.49a1.7,1.7,0,0,1-.9-.1c-.3-.14-.57-.76-.57-.76l-.53.28s0,.08,0,.12,0,.17,0,.26c0,.25-.14.3-.49.12s-.43-.16-.67,0-.55-.13-.91-.28a.58.58,0,0,0-.26-.06.61.61,0,0,0-.35.11,1.24,1.24,0,0,0,.23-.44.3.3,0,0,0-.08-.32,7,7,0,0,1-1-.64.73.73,0,0,0-.43-.16,1.35,1.35,0,0,0-.82.34h0Z"/></clipPath></defs><g id="Layer_1-2" data-name="Layer_1"><g id="_1259035567392" data-name=" 1259035567392"><path class="cls-2" d="M18.88,34.3A15.24,15.24,0,1,1,34.12,19.07,15.24,15.24,0,0,1,18.88,34.3Zm0-34.3A19,19,0,0,0,0,19.09,19,19,0,0,0,18.88,38.17,19,19,0,0,0,37.77,19.09,19,19,0,0,0,18.88,0Zm0,0Z"/><path class="cls-3" d="M23.76,10.74c.09-.16.17-.31.27-.46a8.26,8.26,0,0,1,3.24,3.13l.44-.28a9.36,9.36,0,0,0-3.48-3.22c.07-.14.14-.26.22-.4a10.29,10.29,0,0,1,3.63,3.37l.42-.26a11.47,11.47,0,0,0-3.84-3.49c.08-.15.17-.29.26-.46a11.85,11.85,0,0,1,4,3.68l.53-.34A12,12,0,0,0,25.2,8.16l.24-.42a11.94,11.94,0,0,1,4.42,4l.38-.24A16.78,16.78,0,0,0,25.69,7.3l.14-.25L26,6.79a14.07,14.07,0,0,1-6.39,26.28V28.54a9.52,9.52,0,0,0,6.48-3.15A9.65,9.65,0,0,0,28.52,19a9.29,9.29,0,0,0-.86-3.92,9.42,9.42,0,0,0-3.9-4.33h0Zm0,0Z"/><path class="cls-3" d="M13.34,9.15a13.06,13.06,0,0,0-3.76,3.46l.08.07.3.2A11.3,11.3,0,0,1,13.53,9.5c.08.14.15.27.24.41a11,11,0,0,0-3.52,3.16,1.88,1.88,0,0,0,.23.16l.24.16A10,10,0,0,1,14,10.33c.08.14.16.26.21.37C10.5,13.2,8.85,16.61,9.7,21.06a8.89,8.89,0,0,0,3.11,5.19,9.42,9.42,0,0,0,5.58,2.27v4.53A14.06,14.06,0,0,1,12,6.79c.11.2.23.39.35.6a14.9,14.9,0,0,0-2.5,1.74,11.32,11.32,0,0,0-2.06,2.25l.44.31a11.93,11.93,0,0,1,4.31-3.95c.09.14.16.28.25.43A13.27,13.27,0,0,0,8.6,11.94c.19.12.36.24.55.38a11.91,11.91,0,0,1,1.76-2.05,12.49,12.49,0,0,1,2.15-1.62l.28.5Zm0,0Z"/><path class="cls-3" d="M20.86,6.08c0-.2,0-.39,0-.62l-.64.37c-.05-.21-.1-.39-.14-.57-.16.12-.35.25-.55.41L19.3,5l-.21.62L18.41,5l-.17.5-.61-.33c0,.22,0,.41,0,.61l-.8-.08.38.57c-.26.15-.51.28-.78.42l.39.3c.18.14.18.14.06.34s-.25.38-.38.58a1.51,1.51,0,0,0,.64-.27c.22-.13.41,0,.43.22s0,.3,0,.47l.18-.14c.28-.22.47-.17.61.15.08.17.17.33.26.51L19,8.35l.62.45c.05-.12.08-.22.11-.31s.14-.2.3-.12l.27.18c.18.14.28.12.37-.09l.09-.31c0-.14.1-.15.22-.08s.22.12.36.2V7.88a0,0,0,0,1,0,0,.21.21,0,0,1,.13-.18c.16-.06.3-.14.48-.22l-.41-.36L22,6.68l-.74-.15.5-.7c-.35-.08-.59.17-.89.25Zm-4,.14-.49-.74,1,.11V4.85l.71.39c.06-.18.12-.36.18-.56l.68.57a2.8,2.8,0,0,0,.13-.41.13.13,0,0,1,.13-.1h0c.07,0,.16,0,.2.09s.12.34.19.52l.9-.68a2.4,2.4,0,0,0-.2.88l1.07-.63c-.1.3-.37.5-.35.86a1.44,1.44,0,0,1,1-.12l-.53.75.88.17-.67.52.45.4c-.19.09-.35.18-.53.25a.31.31,0,0,0-.23.36,3.83,3.83,0,0,1,0,.48l-.57-.29c-.1.17-.19.33-.27.5a.12.12,0,0,1-.11.07.08.08,0,0,1-.07,0l-.6-.29c-.06.16-.13.34-.21.53L19,8.63l-.39.62c-.07-.14-.15-.26-.22-.39l-.23-.45c-.08-.17-.13-.19-.28-.07s-.33.3-.54.48v-1s0,0-.05,0A2,2,0,0,1,16,8.18l.7-1-.68-.52.84-.47h0Zm0,0Z"/><path class="cls-4" d="M11.77,15.51l-.39,0s-.08,0-.07,0a.77.77,0,0,1,.1-.29s.12,0,.17,0a.72.72,0,0,1,.22.17.19.19,0,0,1,0,.13.13.13,0,0,1-.08,0Zm0,0Z"/><path class="cls-4" d="M11.43,14.72s-.13-.1-.14-.16.08-.17.2-.17.26,0,.26.16-.17.12-.32.17Zm0,0Z"/><path class="cls-4" d="M11.12,15l-.11.22a1.24,1.24,0,0,1-.19-.21c-.06-.21,0-.3.18-.24s.08.14.11.22h0Zm0,0Z"/><path class="cls-4" d="M11.41,14.09c-.06,0-.13,0-.12-.13s0-.24.16-.22a.34.34,0,0,1,.2.19c0,.11-.09.15-.24.16Zm0,0Z"/><path class="cls-4" d="M12.22,15.08c-.21.15-.24.15-.46,0,.06,0,.12-.13.19-.13h0a.26.26,0,0,1,.24.18Zm0,0Z"/><path class="cls-4" d="M11.9,13.63l-.15-.18c.05,0,.09-.1.12-.1a.75.75,0,0,1,.2.1c-.05.05-.09.11-.17.18Zm0,0Z"/><path class="cls-5" d="M19.29,8l.78-.1a1,1,0,0,0,.67-.52.35.35,0,0,0,.06-.19.32.32,0,0,0-.09-.23s-.05-.09,0-.11,0-.22-.14-.28a2.07,2.07,0,0,0-.34-.15,3.72,3.72,0,0,1-.94-.51.59.59,0,0,0-.29-.1H18.9a1.23,1.23,0,0,0-1,.56.92.92,0,0,0,.43,1.51l.24.06L19.3,8h0Zm1.57-1.9c.3-.07.53-.32.89-.25-.17.23-.32.45-.49.71l.74.15-.52.41.41.35a5,5,0,0,1-.47.23.18.18,0,0,0-.14.18,0,0,0,0,0,0,0v.38a2.9,2.9,0,0,1-.36-.2c-.12-.07-.19-.06-.22.08l-.09.31c-.09.21-.2.23-.37.09A1.27,1.27,0,0,0,20,8.37c-.16-.08-.24,0-.3.11l-.11.31L19,8.35l-.34.52c-.09-.19-.18-.35-.25-.52C18.21,8,18,8,17.75,8.2l-.19.14c0-.17,0-.32,0-.46s-.21-.36-.44-.22a1.48,1.48,0,0,1-.64.27c.14-.2.27-.39.38-.57s.12-.2-.06-.35l-.38-.3.77-.41-.38-.58.8.08c0-.19,0-.38,0-.6l.61.32c.06-.16.11-.32.17-.5l.68.57c.07-.21.14-.39.21-.63.11.26.19.48.28.71l.55-.41c.05.18.09.36.14.57l.64-.36c0,.22,0,.41,0,.61Zm0,0Z"/><path class="cls-2" d="M20.52,6.75s0,0,0,0a3.59,3.59,0,0,0-.34-.17,3.79,3.79,0,0,1-1-.55A.41.41,0,0,0,19,5.91h0a1.15,1.15,0,0,0-1.08.66.84.84,0,0,0-.13.44.78.78,0,0,0,.07.33.82.82,0,0,0,.66.46,4.62,4.62,0,0,0,.74.06,4,4,0,0,0,.7-.05,1,1,0,0,0,.72-.48c.1-.16.07-.25-.09-.36a.6.6,0,0,0-.32-.1H20.1L19,7a.27.27,0,0,1-.12,0S19,6.9,19,6.9l.58-.07.93-.08h0ZM19.29,8l-.77-.06-.23,0a.93.93,0,0,1-.43-1.52,1.22,1.22,0,0,1,1.08-.56h0a.53.53,0,0,1,.29.1,3.72,3.72,0,0,0,.94.51l.33.15c.11,0,.22.12.14.28s0,.09,0,.11a.32.32,0,0,1,0,.42,1,1,0,0,1-.67.52c-.28,0-.56.08-.76.1Zm0,0Z"/><path class="cls-5" d="M20.07,11.05l-.13.17a8.32,8.32,0,0,0-2.26-.84l.38-.23a8.46,8.46,0,0,1,2,.74Z"/><path class="cls-5" d="M27,16.7a6.18,6.18,0,0,1,.2,1.14L27,18l-.16.23a9.6,9.6,0,0,0-.27-1.69l.19.1.18,0Z"/><path class="cls-5" d="M24.62,12.39l.11-.16c-.08-.1-.2-.2-.28-.3l-.39.06c.2.2.39.42.57.64v-.24Z"/><path class="cls-5" d="M21.19,11.74l.24,0a9.82,9.82,0,0,1,2,2,9.27,9.27,0,0,1,1.9,6.7l-.37.12a9,9,0,0,0-1.84-6.63,10,10,0,0,0-2.24-2.17Z"/><path class="cls-5" d="M20.26,26l.1.18a8.28,8.28,0,0,0-4.95-14.91h0l-.47.32h.44a7.93,7.93,0,0,1,4.86,14.21l0,.21Z"/><path class="cls-6" d="M24.29,24.39a2.28,2.28,0,0,0,.35-.61v0a.46.46,0,0,0-.06-.23c0-.07.1-.07.11-.12a.4.4,0,0,1,.06-.24c.05-.07.58-.18.69-.28s.07-.1.11-.16.21-.23.21-.26,0-.2.06-.2.1,0,.1.12a1.21,1.21,0,0,0,0,.33l.07.09s-.07,0-.12,0-.05.14-.06.2-.12.14-.12.17,0,.07,0,.11a.46.46,0,0,0-.13.18c0,.12-.1.26-.12.3a1.74,1.74,0,0,1-.14.38c-.07.14-.22.31-.22.33a.6.6,0,0,1-.1.25.85.85,0,0,1-.39.17c-.09,0-.09,0-.16-.08a1.31,1.31,0,0,1-.16-.41Zm0,0Z"/><path class="cls-7" d="M25.87,22.79s0,.14-.05.2-.11.14-.11.17,0,.07,0,.11a.57.57,0,0,0-.12.18,3,3,0,0,1-.12.3,1.71,1.71,0,0,1-.13.38c-.07.14-.23.31-.23.33a.46.46,0,0,1-.1.25.7.7,0,0,1-.39.18c-.1,0-.09,0-.16-.08a1.25,1.25,0,0,1-.19-.43,2.58,2.58,0,0,0,.38-.65.09.09,0,0,0,0-.05.54.54,0,0,0-.05-.21c0-.06.06,0,.07-.08a.39.39,0,0,1,.06-.24c.05-.07.58-.18.7-.28s.07-.1.11-.17a2.7,2.7,0,0,0,.2-.25s0-.2.07-.2.1,0,.1.12-.05.28,0,.33a.36.36,0,0,0,.07.1l-.08,0h0Zm.14-.06c-.05,0,0-.27,0-.36s-.12-.23-.2-.23-.06.18-.06.2-.17.19-.22.27,0,.08-.11.17-.66.22-.72.29a.53.53,0,0,0-.07.25s-.11.11-.11.11a.52.52,0,0,1,.07.25v0a2.35,2.35,0,0,1-.37.63,1.12,1.12,0,0,0,.14.49.49.49,0,0,0,.3.14.79.79,0,0,0,.41-.2.46.46,0,0,0,.1-.25s.16-.2.24-.34a2.24,2.24,0,0,0,.14-.39l.12-.3a.41.41,0,0,1,.13-.19s0-.1,0-.11.11-.05.12-.17,0-.13,0-.15.14,0,.16,0,0-.12-.07-.16h0Zm0,0Z"/><g class="cls-8"><path class="cls-9" d="M32.71,18.93c0,7.32-6.75,13.25-15.07,13.25S2.57,26.25,2.57,18.93,9.32,5.67,17.64,5.67s15.07,5.94,15.07,13.26Zm0,0Z"/></g><path class="cls-1" d="M17.61,10.37c-.43.3-.84.38-.95.3s-.25-.26-.33-.15-.22.3-.33.2-.32-.19-.33.1a.69.69,0,0,1-.47.61c-.27.1-.3.25-.57.65s-.54.34-1,.36-.55.3-.55.3a3.26,3.26,0,0,1-.32,1c-.17.22-.54,0-.54,0a1.64,1.64,0,0,1,.35.52c.14.33,0,.49,0,.49l.1.15a4.53,4.53,0,0,1,.1,1.08,8,8,0,0,1,.61.62,1.58,1.58,0,0,1,.46.8c0,.07.92,1.3.92,1.3a2.12,2.12,0,0,1,.33-.3c.11,0,.3.12.3.12s.86-.35.92-.28a2.43,2.43,0,0,0,1.2.64c.26-.05.75-.55,1.12-.43s.25.55.25.55a1.56,1.56,0,0,1,.33-.14c.11,0,.07.18.14.23a1.51,1.51,0,0,1,.42.45c.09.15-.3.5-.34.64s.33.56.39.75,0,.26,0,.26l-.58.82a4.85,4.85,0,0,1-.35.48v0a1.26,1.26,0,0,0,.45,1,2,2,0,0,1,.66,1,4.07,4.07,0,0,0,.31.87,1.43,1.43,0,0,1,0,.68.55.55,0,0,0,.28.3c.23.12.43-.2.67-.38a7.88,7.88,0,0,1,.77-.38,1,1,0,0,0,.44-.56,2.87,2.87,0,0,1,.92-.69,1.4,1.4,0,0,0,.56-.62c.11-.26-.06-.76,0-1a9,9,0,0,1,.9-1.23,1.13,1.13,0,0,0,.07-.74s.33-.25.67-.48.36-.48.56-1.1.94-.92,1.14-1.05.46-.62.41-.74a1.32,1.32,0,0,1-.08-.44s0-.08,0-.11v0a.16.16,0,0,0-.15-.16h0a3.23,3.23,0,0,1-1.12-.17.75.75,0,0,1-.16-.49l-1.37-2,0-.82-.23-.2c-.13-.1.05-.33.07-.53s0-.51-.25-.49a1.7,1.7,0,0,1-.9-.1c-.3-.14-.57-.76-.57-.76l-.53.28s0,.08,0,.12,0,.17,0,.26c0,.25-.14.3-.49.12s-.43-.16-.67,0-.55-.13-.91-.28a.58.58,0,0,0-.26-.06.61.61,0,0,0-.35.11,1.24,1.24,0,0,0,.23-.44.3.3,0,0,0-.08-.32,7,7,0,0,1-1-.64.73.73,0,0,0-.43-.16,1.35,1.35,0,0,0-.82.34"/><g class="cls-8"><path class="cls-5" d="M17.37,13.3a4.57,4.57,0,1,0,4.57,4.57,4.57,4.57,0,0,0-4.57-4.57Zm0,9.49h0a4.92,4.92,0,1,1,3.48-1.44,4.93,4.93,0,0,1-3.48,1.44Zm0,0Z"/></g><path class="cls-1" d="M17.61,10.37c-.43.3-.84.38-.95.3s-.25-.26-.33-.15-.22.3-.33.2-.32-.19-.33.1a.69.69,0,0,1-.47.61c-.27.1-.3.25-.57.65s-.54.34-1,.36-.55.3-.55.3a3.26,3.26,0,0,1-.32,1c-.17.22-.54,0-.54,0a1.64,1.64,0,0,1,.35.52c.14.33,0,.49,0,.49l.1.15a4.53,4.53,0,0,1,.1,1.08,8,8,0,0,1,.61.62,1.58,1.58,0,0,1,.46.8c0,.07.92,1.3.92,1.3a2.12,2.12,0,0,1,.33-.3c.11,0,.3.12.3.12s.86-.35.92-.28a2.43,2.43,0,0,0,1.2.64c.26-.05.75-.55,1.12-.43s.25.55.25.55a1.56,1.56,0,0,1,.33-.14c.11,0,.07.18.14.23a1.51,1.51,0,0,1,.42.45c.09.15-.3.5-.34.64s.33.56.39.75,0,.26,0,.26l-.58.82a4.85,4.85,0,0,1-.35.48v0a1.26,1.26,0,0,0,.45,1,2,2,0,0,1,.66,1,4.07,4.07,0,0,0,.31.87,1.43,1.43,0,0,1,0,.68.55.55,0,0,0,.28.3c.23.12.43-.2.67-.38a7.88,7.88,0,0,1,.77-.38,1,1,0,0,0,.44-.56,2.87,2.87,0,0,1,.92-.69,1.4,1.4,0,0,0,.56-.62c.11-.26-.06-.76,0-1a9,9,0,0,1,.9-1.23,1.13,1.13,0,0,0,.07-.74s.33-.25.67-.48.36-.48.56-1.1.94-.92,1.14-1.05.46-.62.41-.74a1.32,1.32,0,0,1-.08-.44s0-.08,0-.11v0a.16.16,0,0,0-.15-.16h0a3.23,3.23,0,0,1-1.12-.17.75.75,0,0,1-.16-.49l-1.37-2,0-.82-.23-.2c-.13-.1.05-.33.07-.53s0-.51-.25-.49a1.7,1.7,0,0,1-.9-.1c-.3-.14-.57-.76-.57-.76l-.53.28s0,.08,0,.12,0,.17,0,.26c0,.25-.14.3-.49.12s-.43-.16-.67,0-.55-.13-.91-.28a.58.58,0,0,0-.26-.06.61.61,0,0,0-.35.11,1.24,1.24,0,0,0,.23-.44.3.3,0,0,0-.08-.32,7,7,0,0,1-1-.64.73.73,0,0,0-.43-.16,1.35,1.35,0,0,0-.82.34"/><g class="cls-8"><path class="cls-5" d="M17.45,11.88a6,6,0,1,0,6,6,6,6,0,0,0-6-6Zm0,12.33a6.3,6.3,0,1,1,2.46-.49,6.41,6.41,0,0,1-2.45.49Zm0,0Z"/></g><path class="cls-1" d="M17.61,10.37c-.43.3-.84.38-.95.3s-.25-.26-.33-.15-.22.3-.33.2-.32-.19-.33.1a.69.69,0,0,1-.47.61c-.27.1-.3.25-.57.65s-.54.34-1,.36-.55.3-.55.3a3.26,3.26,0,0,1-.32,1c-.17.22-.54,0-.54,0a1.64,1.64,0,0,1,.35.52c.14.33,0,.49,0,.49l.1.15a4.53,4.53,0,0,1,.1,1.08,8,8,0,0,1,.61.62,1.58,1.58,0,0,1,.46.8c0,.07.92,1.3.92,1.3a2.12,2.12,0,0,1,.33-.3c.11,0,.3.12.3.12s.86-.35.92-.28a2.43,2.43,0,0,0,1.2.64c.26-.05.75-.55,1.12-.43s.25.55.25.55a1.56,1.56,0,0,1,.33-.14c.11,0,.07.18.14.23a1.51,1.51,0,0,1,.42.45c.09.15-.3.5-.34.64s.33.56.39.75,0,.26,0,.26l-.58.82a4.85,4.85,0,0,1-.35.48v0a1.26,1.26,0,0,0,.45,1,2,2,0,0,1,.66,1,4.07,4.07,0,0,0,.31.87,1.43,1.43,0,0,1,0,.68.55.55,0,0,0,.28.3c.23.12.43-.2.67-.38a7.88,7.88,0,0,1,.77-.38,1,1,0,0,0,.44-.56,2.87,2.87,0,0,1,.92-.69,1.4,1.4,0,0,0,.56-.62c.11-.26-.06-.76,0-1a9,9,0,0,1,.9-1.23,1.13,1.13,0,0,0,.07-.74s.33-.25.67-.48.36-.48.56-1.1.94-.92,1.14-1.05.46-.62.41-.74a1.32,1.32,0,0,1-.08-.44s0-.08,0-.11v0a.16.16,0,0,0-.15-.16h0a3.23,3.23,0,0,1-1.12-.17.75.75,0,0,1-.16-.49l-1.37-2,0-.82-.23-.2c-.13-.1.05-.33.07-.53s0-.51-.25-.49a1.7,1.7,0,0,1-.9-.1c-.3-.14-.57-.76-.57-.76l-.53.28s0,.08,0,.12,0,.17,0,.26c0,.25-.14.3-.49.12s-.43-.16-.67,0-.55-.13-.91-.28a.58.58,0,0,0-.26-.06.61.61,0,0,0-.35.11,1.24,1.24,0,0,0,.23-.44.3.3,0,0,0-.08-.32,7,7,0,0,1-1-.64.73.73,0,0,0-.43-.16,1.35,1.35,0,0,0-.82.34"/><g class="cls-8"><path class="cls-5" d="M17.48,10.66a7.21,7.21,0,1,0,7.2,7.21,7.21,7.21,0,0,0-7.2-7.21Zm0,14.77a7.57,7.57,0,1,1,2.94-.6,7.34,7.34,0,0,1-2.92.6Zm0,0Z"/></g><path class="cls-1" d="M17.61,10.37c-.43.3-.84.38-.95.3s-.25-.26-.33-.15-.22.3-.33.2-.32-.19-.33.1a.69.69,0,0,1-.47.61c-.27.1-.3.25-.57.65s-.54.34-1,.36-.55.3-.55.3a3.26,3.26,0,0,1-.32,1c-.17.22-.54,0-.54,0a1.64,1.64,0,0,1,.35.52c.14.33,0,.49,0,.49l.1.15a4.53,4.53,0,0,1,.1,1.08,8,8,0,0,1,.61.62,1.58,1.58,0,0,1,.46.8c0,.07.92,1.3.92,1.3a2.12,2.12,0,0,1,.33-.3c.11,0,.3.12.3.12s.86-.35.92-.28a2.43,2.43,0,0,0,1.2.64c.26-.05.75-.55,1.12-.43s.25.55.25.55a1.56,1.56,0,0,1,.33-.14c.11,0,.07.18.14.23a1.51,1.51,0,0,1,.42.45c.09.15-.3.5-.34.64s.33.56.39.75,0,.26,0,.26l-.58.82a4.85,4.85,0,0,1-.35.48v0a1.26,1.26,0,0,0,.45,1,2,2,0,0,1,.66,1,4.07,4.07,0,0,0,.31.87,1.43,1.43,0,0,1,0,.68.55.55,0,0,0,.28.3c.23.12.43-.2.67-.38a7.88,7.88,0,0,1,.77-.38,1,1,0,0,0,.44-.56,2.87,2.87,0,0,1,.92-.69,1.4,1.4,0,0,0,.56-.62c.11-.26-.06-.76,0-1a9,9,0,0,1,.9-1.23,1.13,1.13,0,0,0,.07-.74s.33-.25.67-.48.36-.48.56-1.1.94-.92,1.14-1.05.46-.62.41-.74a1.32,1.32,0,0,1-.08-.44s0-.08,0-.11v0a.16.16,0,0,0-.15-.16h0a3.23,3.23,0,0,1-1.12-.17.75.75,0,0,1-.16-.49l-1.37-2,0-.82-.23-.2c-.13-.1.05-.33.07-.53s0-.51-.25-.49a1.7,1.7,0,0,1-.9-.1c-.3-.14-.57-.76-.57-.76l-.53.28s0,.08,0,.12,0,.17,0,.26c0,.25-.14.3-.49.12s-.43-.16-.67,0-.55-.13-.91-.28a.58.58,0,0,0-.26-.06.61.61,0,0,0-.35.11,1.24,1.24,0,0,0,.23-.44.3.3,0,0,0-.08-.32,7,7,0,0,1-1-.64.73.73,0,0,0-.43-.16,1.35,1.35,0,0,0-.82.34"/><g class="cls-8"><path class="cls-5" d="M17.48,9.29a8.58,8.58,0,1,0,8.58,8.58,8.58,8.58,0,0,0-8.58-8.58Zm0,17.52A8.93,8.93,0,1,1,21,26.1a8.91,8.91,0,0,1-3.48.71h0Zm0,0Z"/></g><path class="cls-1" d="M17.61,10.37c-.43.3-.84.38-.95.3s-.25-.26-.33-.15-.22.3-.33.2-.32-.19-.33.1a.69.69,0,0,1-.47.61c-.27.1-.3.25-.57.65s-.54.34-1,.36-.55.3-.55.3a3.26,3.26,0,0,1-.32,1c-.17.22-.54,0-.54,0a1.64,1.64,0,0,1,.35.52c.14.33,0,.49,0,.49l.1.15a4.53,4.53,0,0,1,.1,1.08,8,8,0,0,1,.61.62,1.58,1.58,0,0,1,.46.8c0,.07.92,1.3.92,1.3a2.12,2.12,0,0,1,.33-.3c.11,0,.3.12.3.12s.86-.35.92-.28a2.43,2.43,0,0,0,1.2.64c.26-.05.75-.55,1.12-.43s.25.55.25.55a1.56,1.56,0,0,1,.33-.14c.11,0,.07.18.14.23a1.51,1.51,0,0,1,.42.45c.09.15-.3.5-.34.64s.33.56.39.75,0,.26,0,.26l-.58.82a4.85,4.85,0,0,1-.35.48v0a1.26,1.26,0,0,0,.45,1,2,2,0,0,1,.66,1,4.07,4.07,0,0,0,.31.87,1.43,1.43,0,0,1,0,.68.55.55,0,0,0,.28.3c.23.12.43-.2.67-.38a7.88,7.88,0,0,1,.77-.38,1,1,0,0,0,.44-.56,2.87,2.87,0,0,1,.92-.69,1.4,1.4,0,0,0,.56-.62c.11-.26-.06-.76,0-1a9,9,0,0,1,.9-1.23,1.13,1.13,0,0,0,.07-.74s.33-.25.67-.48.36-.48.56-1.1.94-.92,1.14-1.05.46-.62.41-.74a1.32,1.32,0,0,1-.08-.44s0-.08,0-.11v0a.16.16,0,0,0-.15-.16h0a3.23,3.23,0,0,1-1.12-.17.75.75,0,0,1-.16-.49l-1.37-2,0-.82-.23-.2c-.13-.1.05-.33.07-.53s0-.51-.25-.49a1.7,1.7,0,0,1-.9-.1c-.3-.14-.57-.76-.57-.76l-.53.28s0,.08,0,.12,0,.17,0,.26c0,.25-.14.3-.49.12s-.43-.16-.67,0-.55-.13-.91-.28a.58.58,0,0,0-.26-.06.61.61,0,0,0-.35.11,1.24,1.24,0,0,0,.23-.44.3.3,0,0,0-.08-.32,7,7,0,0,1-1-.64.73.73,0,0,0-.43-.16,1.35,1.35,0,0,0-.82.34"/><g class="cls-8"><path class="cls-5" d="M17.73,7.69A10.18,10.18,0,1,0,27.91,17.87,10.19,10.19,0,0,0,17.73,7.69Zm0,20.71h0a10.68,10.68,0,0,1-4.1-.82,10.52,10.52,0,0,1-6.44-9.69v0h0A10.69,10.69,0,0,1,8,13.77a10.52,10.52,0,0,1,9.69-6.44h0a10.69,10.69,0,0,1,4.1.83,10.51,10.51,0,0,1,6.43,9.69v0h0A10.5,10.5,0,0,1,17.73,28.4Zm0,0Z"/></g><path class="cls-1" d="M17.61,10.37c-.43.3-.84.38-.95.3s-.25-.26-.33-.15-.22.3-.33.2-.32-.19-.33.1a.69.69,0,0,1-.47.61c-.27.1-.3.25-.57.65s-.54.34-1,.36-.55.3-.55.3a3.26,3.26,0,0,1-.32,1c-.17.22-.54,0-.54,0a1.64,1.64,0,0,1,.35.52c.14.33,0,.49,0,.49l.1.15a4.53,4.53,0,0,1,.1,1.08,8,8,0,0,1,.61.62,1.58,1.58,0,0,1,.46.8c0,.07.92,1.3.92,1.3a2.12,2.12,0,0,1,.33-.3c.11,0,.3.12.3.12s.86-.35.92-.28a2.43,2.43,0,0,0,1.2.64c.26-.05.75-.55,1.12-.43s.25.55.25.55a1.56,1.56,0,0,1,.33-.14c.11,0,.07.18.14.23a1.51,1.51,0,0,1,.42.45c.09.15-.3.5-.34.64s.33.56.39.75,0,.26,0,.26l-.58.82a4.85,4.85,0,0,1-.35.48v0a1.26,1.26,0,0,0,.45,1,2,2,0,0,1,.66,1,4.07,4.07,0,0,0,.31.87,1.43,1.43,0,0,1,0,.68.55.55,0,0,0,.28.3c.23.12.43-.2.67-.38a7.88,7.88,0,0,1,.77-.38,1,1,0,0,0,.44-.56,2.87,2.87,0,0,1,.92-.69,1.4,1.4,0,0,0,.56-.62c.11-.26-.06-.76,0-1a9,9,0,0,1,.9-1.23,1.13,1.13,0,0,0,.07-.74s.33-.25.67-.48.36-.48.56-1.1.94-.92,1.14-1.05.46-.62.41-.74a1.32,1.32,0,0,1-.08-.44s0-.08,0-.11v0a.16.16,0,0,0-.15-.16h0a3.23,3.23,0,0,1-1.12-.17.75.75,0,0,1-.16-.49l-1.37-2,0-.82-.23-.2c-.13-.1.05-.33.07-.53s0-.51-.25-.49a1.7,1.7,0,0,1-.9-.1c-.3-.14-.57-.76-.57-.76l-.53.28s0,.08,0,.12,0,.17,0,.26c0,.25-.14.3-.49.12s-.43-.16-.67,0-.55-.13-.91-.28a.58.58,0,0,0-.26-.06.61.61,0,0,0-.35.11,1.24,1.24,0,0,0,.23-.44.3.3,0,0,0-.08-.32,7,7,0,0,1-1-.64.73.73,0,0,0-.43-.16,1.35,1.35,0,0,0-.82.34"/><path class="cls-7" d="M19.34,19.09c-.08-.05,0-.24-.15-.23a1.3,1.3,0,0,0-.32.14c-.11.07.12-.43-.26-.55s-.86.38-1.12.43a2.43,2.43,0,0,1-1.2-.64c-.05-.07-.87.28-.91.28s-.19-.16-.3-.12a1.35,1.35,0,0,0-.34.3s-.89-1.23-.91-1.3a1.83,1.83,0,0,0-.46-.8,7.15,7.15,0,0,0-.61-.62c-.22-.2,0-.93-.11-1.08,0,0,.18.06.24,0a1.92,1.92,0,0,0,.36-.59c0-.16.52-.54.61-.6a1.94,1.94,0,0,0,.72-.6c.2-.36.55-.9.83-.91s.41.51.58.81a5.11,5.11,0,0,0,1.3,1.45s.25.22.34.2.14-.11.26-.25a6,6,0,0,1,.79-.8c.08,0,.21.08.25,0s.23-.38.33-.35.44.1.46.27a3.69,3.69,0,0,0,.27.79c.06.11.45.54.52.71s.06.34.17.35.56,0,.58.15-.28.49-.39.66-.61.83-.58.93.25.31.22.44,0,.3-.2.39-.36.23-.36.33,0,.13,0,.14-.23-.16-.29-.16-.24,0-.22.18.19.63.07.65-.14,0-.14,0h0Zm0,0Z"/><path class="cls-10" d="M12.18,13.74s.37.16.55-.05a3.49,3.49,0,0,0,.32-1s0-.26.54-.29.77,0,1-.37.3-.55.57-.65a.65.65,0,0,0,.46-.61c0-.28.21-.2.33-.1s.26-.08.34-.2.21.08.33.16a1.19,1.19,0,0,0,.94-.3c.42-.3.83-.55,1.26-.21a6.91,6.91,0,0,0,1,.64A.33.33,0,0,1,20,11a.15.15,0,0,1,0,.09,1.35,1.35,0,0,1-.22.45c-.11.13.24-.2.6-.05s.68.41.92.28.3-.16.66,0,.47.14.49-.12a1.85,1.85,0,0,0,0-.23v-.15l.53-.28s.26.61.56.76a1.8,1.8,0,0,0,.9.1c.25,0,.28.28.25.49s-.19.43-.07.53l.23.2,0,.81,1.37,2a.72.72,0,0,0,.16.48c.17.17,1.12.18,1.12.18h0a.15.15,0,0,1,.15.15v0a.71.71,0,0,0,0,.14,1.16,1.16,0,0,0,.08.42c0,.12-.21.61-.41.74s-.94.43-1.14,1.05-.21.87-.56,1.1-.68.48-.68.48a1.18,1.18,0,0,1-.06.74,10,10,0,0,0-.91,1.23,4.48,4.48,0,0,0,0,1,1.46,1.46,0,0,1-.56.62c-.41.24-.91.58-.92.69a1,1,0,0,1-.44.56,5.52,5.52,0,0,0-.77.38c-.25.18-.45.5-.68.38a.55.55,0,0,1-.28-.3c-.06-.14.1-.41,0-.68a4.52,4.52,0,0,1-.31-.87,2,2,0,0,0-.66-1,1.27,1.27,0,0,1-.44-1c.12-.15.24-.32.35-.48.25-.38.58-.82.58-.82s.07-.08,0-.26-.43-.61-.38-.75.42-.49.33-.64a1.61,1.61,0,0,0-.41-.45c-.08-.05,0-.24-.15-.23a.89.89,0,0,0-.32.14s.12-.43-.26-.55-.86.38-1.12.43a2.43,2.43,0,0,1-1.2-.64,5,5,0,0,0-.91.28s-.19-.16-.3-.12a1.35,1.35,0,0,0-.34.3s-.89-1.23-.91-1.3a1.83,1.83,0,0,0-.46-.8,7.15,7.15,0,0,0-.61-.62c-.22-.2,0-.93-.11-1.08l-.1-.15s.13-.16,0-.48a1.41,1.41,0,0,0-.33-.5h0Z"/><path class="cls-5" d="M9.79,3.75,7.73,5.12c-.29.2-.26.34-.26.34s0,1.16,0,1.51.3.14.3.14L9.6,5.67c.16-.11.33,0,.35.27a.51.51,0,0,1-.09.37s-2,1.67-2.34,2c-.47.52-.83.16-.83-.14s0-2.55,0-2.55c0-.55.25-.71.25-.71S9.27,3.29,9.58,3.09,10,3,10,3.17l0,.38a.29.29,0,0,1-.16.2Zm0,0Z"/><path class="cls-5" d="M13.87,1.52c0-.15-.08-.14-.27-.09s-1.51.46-1.93.64-.76.28-.75.72,0,2.47,0,2.65,0,.33.61-.05c0,0,2-.93,2.23-1s.25-.1.26-.21,0-.44,0-.44,0-.15-.23-.08l-1.15.44c-.25.12-.66.26-.66.26s-.17.11-.19,0a1.8,1.8,0,0,1,0-.23.17.17,0,0,1,.12-.19l1.62-.67c.12-.06.16,0,.16-.14V2.76c0-.12,0-.2-.26-.11l-1.54.6s-.14.07-.15,0,0-.23,0-.23-.06-.13.14-.21L13.68,2s.19-.06.19-.15V1.51h0Zm0,0Z"/><path class="cls-5" d="M18,2.44a.46.46,0,0,1-.42.39c-.33.06-1.13.19-1.42.22-.07,0-.13,0-.13-.06V1.72s0-.12.18-.16,1.29-.17,1.29-.17.54,0,.54.33a6.71,6.71,0,0,1-.05.72h0ZM17.89.67s-2,.26-2.37.33-.33.31-.33.31,0,2.32,0,2.52.12.15.25.14c.54-.1,2-.33,2.61-.45a.9.9,0,0,0,.78-.78s.06-.77.06-1.43-1-.64-1-.64Z"/><path class="cls-5" d="M23.11,1.37c0-.08,0-.21-.53-.33S20.24.73,20.24.73,19.8.57,19.8,1s0,2.33,0,2.33,0,.25.55.31a13.85,13.85,0,0,1,1.75.3c.24.06.93.17.93.17h0A.09.09,0,0,0,23.15,4h0V3.71s0-.16-.33-.26a9.43,9.43,0,0,0-1.46-.36c-.48,0-.54,0-.54,0s-.11,0-.1-.13V2.64s0-.07.27,0,1.71.3,1.71.3S23,3,23,2.84V2.38s0-.14-.3-.19-1.54-.28-1.72-.26-.25,0-.25-.08,0-.38,0-.38,0-.13.17-.1a14.18,14.18,0,0,1,1.57.38c.24.11.49.16.6.08s.1-.46.1-.46h0Zm0,0Z"/><path class="cls-5" d="M30.48,7.66c-.58-.48-.93-.83-.93-.83s-.13-.08-.15-.41,0-1.1,0-1.1,0-.48.38-.3a3.67,3.67,0,0,1,1.1.9,1.6,1.6,0,0,1,.13.86c0,.38.09,1.36-.48.88Zm.86-2.18A7.12,7.12,0,0,0,29.53,4c-.79-.36-.87.38-.87.38s-.07,1.36-.05,2,.27.77.27.77.41.45,1.41,1.34c.68.62,1.35.26,1.35-.53v-1c0-.71.09-1-.3-1.45Zm0,0Z"/><path class="cls-5" d="M27.13,3.9s-.61-.36-.92-.52-1.11-.49-1.11-.49c0-.62.38-.49.38-.49a11.19,11.19,0,0,1,1.43.71.8.8,0,0,1,.22.78h0Zm.39-1.08a10.71,10.71,0,0,0-2.28-1c-.51,0-.92,0-.94.5s0,2.09,0,2.09a.24.24,0,0,0,.2.22c.18,0,.47.21.48,0s0-.67,0-.67,0-.13.16-.08,1.84.86,1.84.86a.25.25,0,0,1,.15.23h0v.69a.48.48,0,0,0,.2.48c.21.12.51.31.49-.08,0,0,0-2.49,0-2.68a.58.58,0,0,0-.38-.53Zm0,0Z"/><path class="cls-5" d="M9.45,31.72S7.52,30.05,7,29.46c-.18-.21-.3-.11-.28.15s0,3.57,0,3.57a2.16,2.16,0,0,0,.41.38s2,1.42,2.14,1.49.25.15.27,0a4,4,0,0,0,0-.51.45.45,0,0,0-.18-.18L7.54,33a.28.28,0,0,1-.11-.22s0,0,0-.06c0-.2.17-.08.27,0s1.22.86,1.44,1,.25.07.25-.08,0-.49,0-.49,0-.09-.16-.21-1.49-1-1.58-1.13-.16-.12-.16-.33h0c0-.12,0-.24,0-.36s.06,0,.24.13,1.39,1.1,1.54,1.19.28.13.3,0,0-.39,0-.39,0-.1-.14-.25h0Zm0,0Z"/><path class="cls-5" d="M13.8,34.35c0-.21,0-.33-.3-.43s-.77-.3-1.26-.52-.92-.48-1.07-.55-.53-.06-.53.4v2s-.06.2.22.43a10.05,10.05,0,0,0,2.56,1.13s.3.16.3-.06,0-.81,0-.81.06-.06-.25-.1a6.33,6.33,0,0,1-1.29-.36c-.28-.13-.81-.27-.81-.71s.18-.87.54-.77,1.07.59,1.33.67.5.16.54,0a1.24,1.24,0,0,0,0-.27v-.07Zm0,0Z"/><path class="cls-5" d="M19.49,34.9h.42c.11,0,.12.21.12.21V36.7l.63-1.85s0-.13.22-.13h.53c.15,0,.13.1.24.39s.64,1.29.64,1.29,0-1.5,0-1.64.23-.23.38-.25.37-.13.37.15,0,2.14,0,2.14.08.42-.43.52-.93.2-1,0S21,36.12,21,36.12l-.33,1s0,.37-.33.41l-.5,0h-.3a.25.25,0,0,1-.26-.26h0c0-.28,0-2,0-2.2a.2.2,0,0,1,.19-.21h0Zm0,0Z"/><path class="cls-5" d="M30.79,30.68l0-.88h-.06a.25.25,0,0,0-.15.06l-1.88,1.71a1,1,0,0,0-.28.9c.08.59.27,1.16.79.74.21-.18.44-.35.67-.51s.31-.22.4.08-.17.44-.37.58-1.32.95-1.38,1-.3,0-.28.2l0,.55s0,.19.25,0a13.31,13.31,0,0,0,2.11-1.46c.44-.47.55-.55.55-1.15s-.12-.9-.52-.9-.48.25-.72.4l-.39.33a.17.17,0,0,1-.27-.05c-.1-.18-.07-.38.3-.62s1.19-1,1.19-1h0Zm0,0Z"/><path class="cls-5" d="M17.16,36.8c-.5,0-1.8-.08-1.8-.68v-.58c0-.15,0-.43.62-.36s1.73.22,1.73.8,0,.82-.55.82Zm-1.53-2.3c-1,0-1.07.43-1.07.72v1.2c0,1.12,2.19,1.18,3,1.18s.93-.81.93-1.91-1.88-1.15-2.91-1.18h0Zm0,0Z"/><path class="cls-5" d="M26.91,34.05a5,5,0,0,1-1.1.64c-.49.18-1.18.36-1.18.36s0-.47.31-.6a16,16,0,0,0,1.65-.77c.22-.16.33.11.32.37Zm.71-.34c0-.53-.34-.87-.65-.84a1.05,1.05,0,0,0-.47.21,8.36,8.36,0,0,1-2.07.88.63.63,0,0,0-.54.68c0,.2-.1,2.25-.1,2.25h.77l.07-1.1,1-.31a8.13,8.13,0,0,0,1-.39c.21-.13.22,0,.22,0s0,.27,0,.53.16.17.16.17a1.83,1.83,0,0,0,.46-.18.22.22,0,0,0,.12-.18.43.43,0,0,0,0,0Z"/></g></g></svg>