<svg id="Layer_1" data-name="Layer 1" xmlns="http://www.w3.org/2000/svg" viewBox="0 0 95.3 23.81"><defs><style>.cls-1{fill:#3f4951;}.cls-2{fill:#787a01;fill-rule:evenodd;}</style></defs><g id="Layer_1-2" data-name="Layer_1"><g id="_1258032867072" data-name=" 1258032867072"><path class="cls-1" d="M30.7,17.41h2V10.18h-2Zm3.58,0h2v-4l3.08,4h1.76V10.18h-2V14l-3-3.82H34.28v7.23Zm8.36,0h2V14.83h3.42V13.16H44.64V11.93h3.78V10.18H42.64v7.23Zm6.94,0h2V15.22h.88l1.45,2.19h2.32L54.5,14.89A2.3,2.3,0,0,0,56,12.67v0A2.27,2.27,0,0,0,55.35,11,3.2,3.2,0,0,0,53,10.18H49.58v7.23Zm2-3.76V11.91h1.31c.67,0,1.09.29,1.09.86v0c0,.53-.4.86-1.08.86Zm5,3.76h2.1l.52-1.29H62l.52,1.29h2.15l-3.08-7.28H59.62l-3.07,7.28Zm3.21-2.85.81-2.06.81,2.06Zm8.84,3a3.64,3.64,0,0,0,3.2-1.63l-1.51-1.07a2,2,0,0,1-1.63.87,1.79,1.79,0,0,1-1.73-1.93v0a1.79,1.79,0,0,1,1.73-1.91,1.93,1.93,0,0,1,1.58.85l1.51-1.17A3.54,3.54,0,0,0,68.68,10a3.72,3.72,0,0,0-3.81,3.76v0a3.67,3.67,0,0,0,3.73,3.74Zm7.73,0a3.78,3.78,0,0,0,3.9-3.76v0a3.89,3.89,0,0,0-7.78,0v0A3.75,3.75,0,0,0,76.33,17.55Zm0-1.81a1.88,1.88,0,0,1-1.85-2v0a1.85,1.85,0,0,1,1.83-1.93,1.88,1.88,0,0,1,1.86,1.95v0A1.84,1.84,0,0,1,76.35,15.74Zm5.17,1.67h2V15.22h.88l1.45,2.19h2.32l-1.73-2.52a2.3,2.3,0,0,0,1.49-2.22v0A2.27,2.27,0,0,0,87.3,11a3.2,3.2,0,0,0-2.36-.78H81.52v7.23Zm2-3.76V11.91h1.31c.67,0,1.08.29,1.08.86v0c0,.53-.39.86-1.07.86Zm5.67,3.76h2V15.34h1c1.8,0,3.11-.9,3.11-2.6v0c0-1.6-1.18-2.54-3-2.54H89.2v7.23Zm2-3.64V11.86h.94c.72,0,1.16.33,1.16,1v0c0,.57-.44.94-1.15.94Z"/><polygon class="cls-2" points="9.99 3.72 12.98 3.72 12.98 13.68 9.99 13.68 9.99 3.72"/><polygon class="cls-2" points="16.83 5.94 13.83 5.94 13.83 9.78 16.83 9.78 16.83 5.94"/><polygon class="cls-2" points="21.52 6.79 21.52 9.78 25.41 9.78 25.41 6.79 21.52 6.79"/><polygon class="cls-2" points="13.83 13.63 23.45 13.63 23.45 10.63 13.83 10.63 13.83 13.63"/><polygon class="cls-2" points="17.68 14.48 26.25 14.48 26.25 17.48 17.68 17.47 17.68 14.48"/><polygon class="cls-2" points="3.4 17.47 12.98 17.47 12.98 14.48 3.4 14.48 3.4 17.47"/><polygon class="cls-2" points="0 13.63 9.14 13.63 9.14 10.63 0 10.63 0 13.63"/><polygon class="cls-2" points="9.99 14.48 12.98 14.48 12.98 22.11 9.99 22.11 9.99 14.48"/><polygon class="cls-2" points="13.83 23.81 16.83 23.81 16.83 14.48 13.83 14.48 13.83 23.81"/><polygon class="cls-2" points="20.67 0 17.68 0 17.68 9.78 20.67 9.78 20.67 0"/><polygon class="cls-2" points="17.68 22.09 20.67 22.09 20.67 18.32 17.68 18.32 17.68 22.09"/><polygon class="cls-2" points="6.15 5.94 9.14 5.94 9.14 9.78 6.15 9.78 6.15 5.94"/><polygon class="cls-2" points="6.15 21.71 9.14 21.71 9.14 18.32 6.15 18.32 6.15 21.71"/></g></g></svg>