<svg id="Layer_1" data-name="Layer 1" xmlns="http://www.w3.org/2000/svg" viewBox="0 0 88.14 24.82"><defs><style>.cls-1{fill:#323332;}.cls-1,.cls-2{fill-rule:evenodd;}.cls-2{fill:#f4a01c;}</style></defs><g id="Layer_1-2" data-name="Layer_1"><path class="cls-1" d="M71,16.4c2.35,0,4.57-1.69,4.57-3.79a2.29,2.29,0,0,0-.06-.85H70.23c0,1.82-.35,1.46,1.71,1.46h2c-.06.79-1.46,1.83-2.68,1.83a3.25,3.25,0,0,1-2.29-.7,2.41,2.41,0,0,1-1-2.1c0-2,3-3.29,4.85-2,.39.27.34.21,1,.21H75a4.61,4.61,0,0,0-2.45-1.83c-3.67-1.18-7.71,2.32-5.42,5.79a4.67,4.67,0,0,0,3.84,2Z"/><path class="cls-1" d="M80.55,12.49c0-2.63,3.44-3.47,5.1-2.06,2.17,1.85.49,4.62-1.87,4.62h-.37a2.87,2.87,0,0,1-2.86-2.56Zm-1.47-.36h0v.48c0,2.1,2.22,3.79,4.58,3.79a4.62,4.62,0,0,0,4-2.26,3.59,3.59,0,0,0-.11-3.67A4.91,4.91,0,0,0,80.91,9.2a4.26,4.26,0,0,0-.85.73,3.73,3.73,0,0,0-1,2.19Z"/><path class="cls-1" d="M54.8,8.65v7.6h1.46V10.78a4.78,4.78,0,0,1,.69.66l3.91,4.14c.3.38.51.41.57.66h1.48V8.53H61.49c-.12.14,0,.46,0,1.22V14.2c-.24-.16-1-1.12-1.33-1.42s-.39-.45-.64-.7L56.84,9.17c-.27-.35-.31-.3-.55-.64H54.83a.21.21,0,0,0,0,.12Z"/><path class="cls-1" d="M45.4,12.67c0-1.39-.16-1.51.42-2.09a2.61,2.61,0,0,1,3.75.06,1.11,1.11,0,0,1,.35.63V13.4a3.76,3.76,0,0,1-2.42-.32,3.31,3.31,0,0,0-2.1-.41ZM43.94,11h0V16.4H45.4c0-2-.25-2.32.8-2.32s2.88,1.19,3.72.79V16.4h1.46V11.09A3.11,3.11,0,0,0,50.85,10a4,4,0,0,0-6.34-.09A3,3,0,0,0,43.94,11Z"/><path class="cls-1" d="M33,8.47H31.74v7.85H33.2V11a4.37,4.37,0,0,1,.64.7c.16.21,1.38,1.7,1.8,2.12h.89l1.14-1.34c.43-.51.84-1,1.27-1.48v5.35H40.4V8.47H39l0,0-.08.11L38.56,9l-1.64,2.12h0l-.83,1.08L36,12.11,33.07,8.47Zm2.42,2.82h0l.62.82L33.07,8.47h0l1,1.23,1.27,1.59Z"/><path class="cls-1" d="M41.72,20v.49c.29-.19.75.32,1.27.15V20a.72.72,0,0,0-.64-.37.75.75,0,0,0-.64.37Zm1.58.72h0v.65H43V20.9c-.28.22-1-.44-1.27-.07v.5h-.31v-.64h0V20a1,1,0,0,1,.94-.65,1,1,0,0,1,.95.65v.73Z"/><polygon class="cls-1" points="48.62 21.32 48.62 19.32 48.93 19.32 48.93 21.32 48.62 21.32"/><polygon class="cls-1" points="48.62 20.47 50.11 20.47 50.11 20.16 48.62 20.16 48.62 20.47"/><polygon class="cls-1" points="48.62 19.63 50.32 19.63 50.32 19.32 48.62 19.32 48.62 19.63"/><polygon class="cls-1" points="48.62 21.32 50.32 21.32 50.32 21.01 48.62 21.01 48.62 21.32"/><path class="cls-1" d="M43.9,19.9c0,.75,1.45.44,1.45.8s-.37.39-.65.39a.43.43,0,0,1-.46-.42h-.37c0,.5.37.68.76.7h.19a1.4,1.4,0,0,0,.59-.15.57.57,0,0,0,.08-.92c-.26-.18-1.23-.14-1.23-.38s.28-.36.55-.36a.49.49,0,0,1,.49.33h.31c-.13-.55-.34-.62-.93-.62-.42,0-.78.22-.78.62Z"/><path class="cls-1" d="M46.33,19.9c0,.75,1.45.44,1.45.8s-.37.39-.65.39a.43.43,0,0,1-.46-.42H46.3c0,.5.37.68.76.7h.19a1.4,1.4,0,0,0,.59-.15.57.57,0,0,0,.08-.92c-.26-.18-1.23-.14-1.23-.38s.28-.36.54-.36a.48.48,0,0,1,.49.33H48c-.13-.55-.35-.62-.94-.62-.41,0-.77.22-.77.62Z"/><polygon class="cls-1" points="50.77 19.63 52.47 19.63 52.47 19.32 50.77 19.32 50.77 19.63"/><polygon class="cls-1" points="51.77 19.32 51.77 21.33 51.46 21.33 51.46 19.32 51.77 19.32"/><path class="cls-1" d="M66.1,20.49h-1v-.31h1.31a.66.66,0,0,1,0,.14,1.17,1.17,0,1,1-1.16-1,1.2,1.2,0,0,1,1,.47h-.41a.92.92,0,0,0-.57-.2.75.75,0,1,0,0,1.48.84.84,0,0,0,.83-.57Z"/><polygon class="cls-1" points="53.76 19.32 54.07 19.32 54.07 21.32 53.76 21.32 53.76 19.32"/><polygon class="cls-1" points="55.67 19.32 55.98 19.32 55.98 21.32 55.67 21.32 55.67 19.32"/><polygon class="cls-1" points="55.67 19.32 55.91 19.54 54.97 20.66 54.87 20.31 55.67 19.32"/><polygon class="cls-1" points="54.08 19.32 53.84 19.54 54.77 20.66 54.87 20.31 54.08 19.32"/><polygon class="cls-1" points="54.97 20.66 54.77 20.66 54.78 20.45 54.82 20.32 54.92 20.31 54.97 20.66"/><path class="cls-1" d="M56.84,20v.49c.29-.19.75.32,1.28.15V20a.75.75,0,0,0-.64-.37.74.74,0,0,0-.64.37Zm1.59.72h0v.65h-.31v-.43c-.28.22-1-.44-1.28-.07v.5h-.31V20.7h0V20a1,1,0,0,1,1.9,0v.74Z"/><polygon class="cls-1" points="59.04 19.32 59.35 19.32 59.35 21.32 59.04 21.32 59.04 19.32"/><polygon class="cls-1" points="59.35 19.32 59.12 19.54 60.81 21.32 60.8 20.92 59.35 19.32"/><polygon class="cls-1" points="60.8 19.32 61.11 19.32 61.11 21.32 60.8 21.32 60.8 19.32"/><path class="cls-1" d="M62,20v.49c.29-.19.75.32,1.28.15V20a.75.75,0,0,0-.64-.37A.72.72,0,0,0,62,20Zm1.59.72h0v.65h-.31v-.43c-.28.22-1-.44-1.28-.07v.5h-.3V20.7h0V20a1,1,0,0,1,1.9,0v.74Z"/><polygon class="cls-1" points="66.94 21.33 66.94 19.32 67.25 19.32 67.25 21.33 66.94 21.33"/><polygon class="cls-1" points="66.94 20.48 68.43 20.48 68.43 20.17 66.94 20.17 66.94 20.48"/><polygon class="cls-1" points="66.94 19.64 68.64 19.64 68.64 19.32 66.94 19.32 66.94 19.64"/><polygon class="cls-1" points="66.94 21.33 68.64 21.33 68.64 21.02 66.94 21.02 66.94 21.33"/><polygon class="cls-1" points="69.23 19.32 69.55 19.32 69.55 21.32 69.23 21.32 69.23 19.32"/><polygon class="cls-1" points="71.14 19.32 71.45 19.32 71.45 21.32 71.14 21.32 71.14 19.32"/><polygon class="cls-1" points="71.14 19.32 71.38 19.54 70.44 20.66 70.35 20.31 71.14 19.32"/><polygon class="cls-1" points="69.55 19.32 69.31 19.54 70.25 20.66 70.34 20.31 69.55 19.32"/><polygon class="cls-1" points="70.44 20.66 70.25 20.66 70.25 20.45 70.3 20.32 70.39 20.31 70.44 20.66"/><polygon class="cls-1" points="71.9 21.33 71.9 19.32 72.22 19.32 72.22 21.33 71.9 21.33"/><polygon class="cls-1" points="71.9 20.48 73.39 20.48 73.39 20.17 71.9 20.17 71.9 20.48"/><polygon class="cls-1" points="71.9 19.64 73.61 19.64 73.61 19.32 71.9 19.32 71.9 19.64"/><polygon class="cls-1" points="71.9 21.33 73.61 21.33 73.61 21.02 71.9 21.02 71.9 21.33"/><polygon class="cls-1" points="74.19 19.32 74.5 19.32 74.5 21.32 74.19 21.32 74.19 19.32"/><polygon class="cls-1" points="74.5 19.32 74.27 19.54 75.96 21.32 75.95 20.92 74.5 19.32"/><polygon class="cls-1" points="75.95 19.32 76.26 19.32 76.26 21.32 75.95 21.32 75.95 19.32"/><polygon class="cls-1" points="76.78 19.64 78.48 19.64 78.48 19.32 76.78 19.32 76.78 19.64"/><polygon class="cls-1" points="77.78 19.32 77.78 21.34 77.47 21.34 77.47 19.32 77.78 19.32"/><polygon class="cls-2" points="4.87 2.91 6.77 2.91 6.77 21.68 4.87 21.68 4.87 2.91"/><polygon class="cls-2" points="8.97 1.14 10.88 1.14 10.88 23.35 8.97 23.35 8.97 1.14"/><polygon class="cls-2" points="14.01 1.17 15.91 1.17 15.91 23.48 14.01 23.48 14.01 1.17"/><polygon class="cls-2" points="10.91 17.89 10.91 15.98 14.01 15.98 14.01 17.89 10.91 17.89"/><polygon class="cls-2" points="18.11 2.98 20.01 2.98 20.01 21.45 18.11 21.45 18.11 2.98"/><path class="cls-2" d="M12.46,0a12.45,12.45,0,0,1,9.45,20.56V17.33a10.52,10.52,0,0,0,1.18-4.87,10.64,10.64,0,1,0-21.27,0A10.5,10.5,0,0,0,3,17.27v3.26A12.46,12.46,0,0,1,12.46,0Z"/><path class="cls-2" d="M4.87,19.91a10.42,10.42,0,0,0,1.9,1.54v2.09a12.43,12.43,0,0,1-1.9-1.2V19.92ZM9,22.51a10.88,10.88,0,0,0,1.91.47v1.83A12,12,0,0,1,9,24.42ZM14,23a10.13,10.13,0,0,0,1.9-.46v1.91a13.05,13.05,0,0,1-1.9.39Zm4.1-1.51A11.7,11.7,0,0,0,20,20v2.41a12.52,12.52,0,0,1-1.91,1.2V21.47Z"/></g></svg>