<svg id="Layer_1" data-name="Layer 1" xmlns="http://www.w3.org/2000/svg" xmlns:xlink="http://www.w3.org/1999/xlink" viewBox="0 0 69.93 24.54"><defs><style>.cls-1{fill:none;}.cls-2{clip-path:url(#clip-path);}.cls-3{fill:#647093;}.cls-4,.cls-7,.cls-8,.cls-9{fill:#484c6f;}.cls-5{fill:#00ade9;}.cls-5,.cls-6,.cls-7,.cls-9{fill-rule:evenodd;}.cls-6{fill:#079b5d;}.cls-8,.cls-9{stroke:#484c6f;stroke-miterlimit:10;stroke-width:0.22px;}</style><clipPath id="clip-path"><path class="cls-1" d="M69.27,3.2l.27.68a5.53,5.53,0,0,1-.14,4.39l-1,.87H67.23L57.36,13A5.52,5.52,0,0,1,54.25,10L54,9.26a5.52,5.52,0,0,1,0-4l12.62-5a5.45,5.45,0,0,1,2.7,2.92Z"/></clipPath></defs><g id="Layer_1-2" data-name="Layer_1"><g id="_1259089772176" data-name=" 1259089772176"><g class="cls-2"><rect class="cls-3" x="52.57" y="2.59" width="16.7" height="4.43" transform="translate(2.52 22.8) rotate(-21.63)"/><rect class="cls-4" x="54.21" y="6.71" width="16.7" height="4.43" transform="translate(1.12 23.69) rotate(-21.63)"/></g><path class="cls-1" d="M69.27,3.2l.27.68a5.53,5.53,0,0,1-.14,4.39l-1,.87H67.23L57.36,13A5.52,5.52,0,0,1,54.25,10L54,9.26a5.52,5.52,0,0,1,0-4l12.62-5a5.45,5.45,0,0,1,2.7,2.92Z"/><path class="cls-5" d="M57.13,0l6.39,6.16L60.14,7.5c-2.12-2-2.53-3.23-4.79-2.68a2.46,2.46,0,0,0-1.75,2C53.67,3.66,54.37,2.06,57.13,0Z"/><path class="cls-6" d="M66.5,13.65,60.14,7.5l3.38-1.34c2.1,2.09,2.23,3.06,4.5,2.66,1-.18,1.68-2,1.91-2.94-.07,3.18-.7,5.69-3.43,7.78Z"/><polygon class="cls-4" points="2.68 11.18 2.68 18.14 0.11 18.14 0.11 7.07 2.39 7.07 7.95 13.67 7.95 7.07 10.52 7.07 10.52 18.14 8.49 18.14 2.68 11.18"/><polygon class="cls-4" points="22.22 18.12 26.32 12.43 22.46 7.15 25.52 7.15 27.85 10.36 30.18 7.15 33.23 7.15 29.34 12.4 33.59 18.12 30.46 18.12 27.85 14.53 25.25 18.12 22.22 18.12"/><polygon class="cls-4" points="34.79 18.11 34.79 7.15 37.06 7.15 37.06 18.11 34.79 18.11"/><polygon class="cls-4" points="39.05 18.08 39.05 7.15 41.44 7.15 44.91 11.55 48.4 7.15 50.79 7.15 50.79 18.08 48.13 18.08 48.13 11.31 44.91 15.31 41.73 11.31 41.73 18.08 39.05 18.08"/><path class="cls-7" d="M13.33,7.14h7.82v2H14.64V11.6h4.7v1.82h-4.7V16.1h6.51v2H13.33a1,1,0,0,1-1-1h0v-9h0V8.1h0a1,1,0,0,1,1-1Z"/><polygon class="cls-8" points="0.11 24.4 0.11 22.06 0.36 22.06 1.81 23.98 1.68 23.98 1.68 22.06 1.99 22.06 1.99 24.4 1.73 24.4 0.29 22.48 0.42 22.48 0.42 24.4 0.11 24.4"/><polygon class="cls-8" points="2.65 24.4 2.65 22.06 2.96 22.06 2.96 24.4 2.65 24.4"/><path class="cls-8" d="M4.6,24.43a1.14,1.14,0,0,1-.46-.09,1.05,1.05,0,0,1-.37-.25,1,1,0,0,1-.24-.38,1.28,1.28,0,0,1-.09-.48,1.21,1.21,0,0,1,.09-.48,1.07,1.07,0,0,1,.24-.38,1.15,1.15,0,0,1,.37-.25,1.27,1.27,0,0,1,.94,0,.91.91,0,0,1,.37.27l-.19.21a.86.86,0,0,0-.3-.21.93.93,0,0,0-.34-.06,1,1,0,0,0-.35.06.92.92,0,0,0-.28.19,1.19,1.19,0,0,0-.18.29,1.11,1.11,0,0,0,0,.72,1.12,1.12,0,0,0,.18.28.67.67,0,0,0,.28.19.81.81,0,0,0,.35.07A.92.92,0,0,0,5,24.07a.8.8,0,0,0,.3-.19l.18.25a1,1,0,0,1-.38.22,1.12,1.12,0,0,1-.45.08Zm.53-.34v-.87h.3v.91Z"/><polygon class="cls-8" points="6.25 24.11 6.25 23.35 7.12 23.35 7.12 23.07 6.25 23.07 6.25 22.35 7.24 22.35 7.24 22.06 5.94 22.06 5.94 24.4 7.29 24.4 7.29 24.11 6.25 24.11"/><path class="cls-8" d="M7.78,24.4V22.06h.68a.8.8,0,0,1,.39.09.65.65,0,0,1,.25.29.94.94,0,0,1,.09.43,1,1,0,0,1-.09.44.62.62,0,0,1-.25.28.69.69,0,0,1-.39.1H7.92L8,23.53v.87ZM9,24.4l-.45-.85h.27l.45.85ZM8,23.57l-.11-.17h.53a.46.46,0,0,0,.37-.14.56.56,0,0,0,.12-.38.57.57,0,0,0-.12-.39.5.5,0,0,0-.37-.14H7.92L8,22.18v1.39Z"/><polygon class="cls-8" points="9.69 24.4 9.69 22.06 10 22.06 10 24.4 9.69 24.4"/><path class="cls-8" d="M10.35,24.4l1-2.34h.31l1,2.34h-.33l-.88-2.16h.12l-.88,2.16Zm.42-.59.09-.26h1.23l.09.26Z"/><polygon class="cls-8" points="12.94 24.4 12.94 22.06 13.2 22.06 14.65 23.98 14.51 23.98 14.51 22.06 14.83 22.06 14.83 24.4 14.57 24.4 13.12 22.48 13.26 22.48 13.26 24.4 12.94 24.4"/><polygon class="cls-8" points="16.49 24.11 16.49 23.35 17.36 23.35 17.36 23.07 16.49 23.07 16.49 22.35 17.48 22.35 17.48 22.06 16.18 22.06 16.18 24.4 17.52 24.4 17.52 24.11 16.49 24.11"/><polygon class="cls-8" points="17.84 24.4 18.75 23.07 18.75 23.33 17.89 22.06 18.24 22.06 18.92 23.06 18.78 23.06 19.46 22.06 19.8 22.06 18.95 23.31 18.95 23.07 19.86 24.4 19.5 24.4 18.77 23.33 18.91 23.33 18.2 24.4 17.84 24.4"/><path class="cls-8" d="M21,22.06h-.64V24.4h.23v-.91H21c.43,0,.69-.3.69-.81s-.26-.62-.69-.62Zm0,1.14h-.41v-.85H21c.3,0,.46,0,.46.33S21.25,23.2,21,23.2Z"/><path class="cls-8" d="M23.09,24.43a1.14,1.14,0,0,1-.46-.09,1.27,1.27,0,0,1-.36-.26A1,1,0,0,1,22,23.7a1.19,1.19,0,0,1-.09-.47,1.28,1.28,0,0,1,.09-.48,1.14,1.14,0,0,1,.23-.38,1.23,1.23,0,0,1,.36-.25,1.14,1.14,0,0,1,.46-.09,1,1,0,0,1,.44.09,1,1,0,0,1,.36.25,1.17,1.17,0,0,1,.24.38,1.48,1.48,0,0,1,0,1,1.17,1.17,0,0,1-.24.38,1,1,0,0,1-.36.25,1,1,0,0,1-.44.09Zm0-.3a.71.71,0,0,0,.32-.07.7.7,0,0,0,.27-.19.88.88,0,0,0,.17-.28,1.11,1.11,0,0,0,0-.72.92.92,0,0,0-.17-.29,1,1,0,0,0-.27-.19.87.87,0,0,0-.32-.06.88.88,0,0,0-.33.06,1,1,0,0,0-.27.19.92.92,0,0,0-.17.29,1.11,1.11,0,0,0,0,.72.88.88,0,0,0,.17.28.74.74,0,0,0,.27.19A.72.72,0,0,0,23.09,24.13Z"/><path class="cls-8" d="M24.57,24.4V22.06h.68a.8.8,0,0,1,.39.09.65.65,0,0,1,.25.29.94.94,0,0,1,.09.43,1,1,0,0,1-.09.44.62.62,0,0,1-.25.28.71.71,0,0,1-.39.1h-.54l.11-.16v.87Zm1.17,0-.45-.85h.27l.45.85Zm-.92-.83-.11-.17h.54a.44.44,0,0,0,.36-.14.56.56,0,0,0,.12-.38.57.57,0,0,0-.12-.39.49.49,0,0,0-.36-.14h-.54l.11-.17v1.39Z"/><polygon class="cls-8" points="27.11 24.4 27.11 22.35 26.36 22.35 26.36 22.06 28.17 22.06 28.17 22.35 27.42 22.35 27.42 24.4 27.11 24.4"/><polygon class="cls-9" points="28.08 23.11 28.9 23.11 28.9 23.46 28.08 23.46 28.08 23.11"/><polygon class="cls-8" points="29.58 24.4 29.58 22.06 29.89 22.06 29.89 24.4 29.58 24.4"/><polygon class="cls-8" points="30.44 24.4 30.44 22.06 30.69 22.06 31.64 23.83 31.5 23.83 32.44 22.06 32.69 22.06 32.69 24.4 32.4 24.4 32.4 22.56 32.47 22.56 31.63 24.12 31.49 24.12 30.66 22.56 30.73 22.56 30.73 24.4 30.44 24.4"/><path class="cls-8" d="M34.06,22.06h-.65V24.4h.24v-.91h.41c.43,0,.69-.3.69-.81s-.26-.62-.69-.62Zm0,1.14h-.4v-.85h.4c.3,0,.46,0,.46.33S34.35,23.2,34.05,23.2Z"/><path class="cls-8" d="M36.17,24.43a1.13,1.13,0,0,1-.45-.09,1,1,0,0,1-.36-.26,1.12,1.12,0,0,1-.24-.38,1.4,1.4,0,0,1-.08-.47,1.51,1.51,0,0,1,.08-.48,1.36,1.36,0,0,1,.24-.38,1,1,0,0,1,.36-.25,1.13,1.13,0,0,1,.45-.09,1.1,1.1,0,0,1,.45.09,1,1,0,0,1,.36.25,1.36,1.36,0,0,1,.24.38,1.48,1.48,0,0,1,0,1,1.36,1.36,0,0,1-.24.38,1,1,0,0,1-.36.25,1.1,1.1,0,0,1-.45.09Zm0-.3a.72.72,0,0,0,.33-.07.61.61,0,0,0,.26-.19.9.9,0,0,0,.18-.28,1.11,1.11,0,0,0,0-.72,1,1,0,0,0-.18-.29.83.83,0,0,0-.26-.19.94.94,0,0,0-.66,0,.83.83,0,0,0-.26.19,1,1,0,0,0-.18.29,1.11,1.11,0,0,0,0,.72.9.9,0,0,0,.18.28.7.7,0,0,0,.26.19A.72.72,0,0,0,36.17,24.13Z"/><path class="cls-8" d="M37.76,24.4V22.06h.68a.75.75,0,0,1,.39.09.59.59,0,0,1,.25.29.94.94,0,0,1,.09.43,1,1,0,0,1-.09.44.57.57,0,0,1-.25.28.67.67,0,0,1-.39.1H37.9l.11-.16v.87Zm1.17,0-.44-.85h.26l.45.85ZM38,23.57l-.11-.17h.54a.43.43,0,0,0,.36-.14.56.56,0,0,0,.12-.38.57.57,0,0,0-.12-.39.46.46,0,0,0-.36-.14H37.9l.11-.17v1.39Z"/><polygon class="cls-8" points="40.04 24.4 40.04 22.35 39.29 22.35 39.29 22.06 41.1 22.06 41.1 22.35 40.35 22.35 40.35 24.4 40.04 24.4"/><path class="cls-8" d="M42.24,24.4V22.06h.85a.7.7,0,0,1,.5.16.57.57,0,0,1,.18.44.72.72,0,0,1-.07.32.55.55,0,0,1-.19.21.52.52,0,0,1-.25.07l.05-.11a.57.57,0,0,1,.29.08.41.41,0,0,1,.19.2.68.68,0,0,1,.08.34.56.56,0,0,1-.19.46.78.78,0,0,1-.54.17Zm.27-.27h.62a.55.55,0,0,0,.34-.09.44.44,0,0,0,0-.6.55.55,0,0,0-.34-.09h-.65v-.27h.58a.44.44,0,0,0,.32-.1.32.32,0,0,0,.11-.28.33.33,0,0,0-.11-.28.49.49,0,0,0-.32-.09h-.55v1.8Z"/><path class="cls-8" d="M44,24.4l1-2.34h.31l1,2.34h-.33L45,22.24h.12l-.88,2.16H44Zm.42-.59.08-.26h1.23l.09.26Z"/><polygon class="cls-8" points="46.49 24.4 46.49 22.06 46.75 22.06 48.2 23.98 48.06 23.98 48.06 22.06 48.37 22.06 48.37 24.4 48.12 24.4 46.67 22.48 46.8 22.48 46.8 24.4 46.49 24.4"/><path class="cls-8" d="M49.36,23.84v-.41l1.09-1.37h.31l-.84,1.08-.15.21-.39.49Zm-.24.56V22.06h.28V24.4Zm1.36,0-.78-1.12.18-.25.92,1.37Z"/></g></g></svg>