<svg id="Layer_1" data-name="Layer 1" xmlns="http://www.w3.org/2000/svg" viewBox="0 0 30.83 35.18"><defs><style>.cls-1,.cls-2{fill:#0a9923;}.cls-1{fill-rule:evenodd;}</style></defs><g id="Layer_1-2" data-name="Layer_1"><g id="_1259453982080" data-name=" 1259453982080"><path class="cls-1" d="M29.62,2,26.68,5.5c-4-9.73-15.79-.88-10.57,9.4,2.35,4.61,9.83,3.68,11.13-.05l.2-2.17,3.39,3.49-2.33-.11c-.74.21-6.69,7.34-12.64,1S14.64-3,23.85.59C27.47,2,24.33,1.92,29.62,2Z"/><path class="cls-1" d="M1.21,2,4.15,5.5c4-9.73,15.79-.88,10.57,9.4-2.34,4.61-9.83,3.68-11.13-.05l-.2-2.17L0,16.17l2.33-.11C3.08,16.27,9,23.4,15,17S16.19-3,7,.59C3.36,2,6.5,1.92,1.22,2Z"/><path class="cls-1" d="M1.21,17.52,4.15,21c4-9.73,15.79-.88,10.57,9.4C12.38,35,4.89,34.09,3.59,30.36l-.2-2.17L0,31.68l2.33-.11c.75.21,6.7,7.34,12.64,1s1.22-20-8-16.43c-3.62,1.41-.48,1.33-5.76,1.42Z"/><path class="cls-1" d="M29.62,17.52,26.68,21c-4-9.73-15.79-.88-10.57,9.4,2.35,4.61,9.83,3.68,11.13-.05l.2-2.17,3.39,3.49-2.33-.11c-.74.21-6.69,7.34-12.64,1s-1.22-20,8-16.43c3.62,1.41.48,1.33,5.77,1.42Z"/><path class="cls-2" d="M12.77,6.81l-.37.07A.85.85,0,0,0,12,7.1a.88.88,0,0,0-.25.52,7.11,7.11,0,0,0-.07,1.09v5.75h-.83L6.76,8.25V12a5.48,5.48,0,0,0,.08,1.06,1,1,0,0,0,.24.54,1.14,1.14,0,0,0,.4.22,2.66,2.66,0,0,0,.43.13v.44H5.08V14a2.76,2.76,0,0,0,.42-.08,1,1,0,0,0,.39-.2.87.87,0,0,0,.24-.5,5.77,5.77,0,0,0,.07-1.11V8.27a1.9,1.9,0,0,0-.07-.54A1.16,1.16,0,0,0,5.54,7a1.71,1.71,0,0,0-.48-.18V6.38H7.54l3.55,5.44V8.77A5.82,5.82,0,0,0,11,7.69a1,1,0,0,0-.26-.52,1,1,0,0,0-.39-.23,3.67,3.67,0,0,0-.43-.13V6.38h2.83v.43Z"/><path class="cls-2" d="M26.34,28.82H23.26v-.38l.33-.05a1.09,1.09,0,0,0,.28-.08.51.51,0,0,0,.21-.2.73.73,0,0,0,.06-.32V22.58l-1.95,6.13h-.51c0-.11-.08-.33-.18-.65s-.17-.57-.23-.77L19.83,22.5v4.24a5.33,5.33,0,0,0,.07.93.86.86,0,0,0,.21.46,1,1,0,0,0,.36.19,1.8,1.8,0,0,0,.37.11v.39H18.38v-.39l.32-.06a1,1,0,0,0,.38-.18.82.82,0,0,0,.21-.47,5.36,5.36,0,0,0,.06-.93V23.34a1.56,1.56,0,0,0-.07-.52.67.67,0,0,0-.19-.33.77.77,0,0,0-.33-.2,1.86,1.86,0,0,0-.34-.06v-.38h2.64l1.39,4.59,1.18-3.72c0-.14.08-.3.12-.5a2.17,2.17,0,0,0,.06-.37h2.52v.38l-.27,0-.27.08a.38.38,0,0,0-.21.2,1,1,0,0,0,0,.31v4.93a.85.85,0,0,0,0,.3.53.53,0,0,0,.21.21,1.12,1.12,0,0,0,.27.08l.28.06v.38Z"/><path class="cls-2" d="M11.41,23.6a2.39,2.39,0,0,1-.2,1,1.87,1.87,0,0,1-.55.69,2.41,2.41,0,0,1-.82.4,4.21,4.21,0,0,1-1.05.12H8.33v2a1,1,0,0,0,.05.31.53.53,0,0,0,.21.21l.27.08.31.06v.38H6.07v-.38l.31-.05a.91.91,0,0,0,.27-.06.4.4,0,0,0,.21-.19.89.89,0,0,0,0-.32V22.91a.85.85,0,0,0,0-.3.42.42,0,0,0-.21-.21,1.16,1.16,0,0,0-.3-.1l-.28-.07v-.38H9.22a2.71,2.71,0,0,1,1.65.43,1.57,1.57,0,0,1,.54,1.31Zm-1.56.24a2.1,2.1,0,0,0-.26-1.16,1.05,1.05,0,0,0-.93-.39H8.33v3.07H8.5a1.28,1.28,0,0,0,1-.37A1.65,1.65,0,0,0,9.85,23.84Z"/><path class="cls-2" d="M22,14.63a3.37,3.37,0,0,1-1.12-.18A3.8,3.8,0,0,1,20,14l-.32.39h-.4l-.06-2.89h.4c.09.27.21.56.34.87a4.56,4.56,0,0,0,.48.81,2.5,2.5,0,0,0,.64.62,1.45,1.45,0,0,0,.81.23,1.21,1.21,0,0,0,1-.37,1.35,1.35,0,0,0,.34-.95,1.12,1.12,0,0,0-.29-.78A2.22,2.22,0,0,0,22,11.4l-.71-.29c-.22-.08-.42-.17-.61-.26a2.23,2.23,0,0,1-1-.93,2.85,2.85,0,0,1-.32-1.34,2.52,2.52,0,0,1,.17-.9,2.28,2.28,0,0,1,.49-.78,2.24,2.24,0,0,1,.78-.53,2.49,2.49,0,0,1,1-.2,2.8,2.8,0,0,1,1,.18,4.35,4.35,0,0,1,.75.37l.29-.34h.4l0,2.74H24c-.1-.29-.2-.6-.33-.9a3.66,3.66,0,0,0-.4-.77,1.84,1.84,0,0,0-.52-.52,1.22,1.22,0,0,0-.69-.2,1.05,1.05,0,0,0-.81.35,1.21,1.21,0,0,0-.32.85,1.17,1.17,0,0,0,.27.79,2.45,2.45,0,0,0,.86.54l.7.28a6.61,6.61,0,0,1,.63.27,2.27,2.27,0,0,1,1,.88,2.48,2.48,0,0,1,.35,1.38,2.71,2.71,0,0,1-.2,1,2.42,2.42,0,0,1-.53.81,2.69,2.69,0,0,1-.86.55,3,3,0,0,1-1.13.19Z"/></g></g></svg>