<svg id="Layer_1" data-name="Layer 1" xmlns="http://www.w3.org/2000/svg" viewBox="0 0 37.44 36.71"><defs><style>.cls-1{stroke:#000;stroke-miterlimit:10;stroke-width:0.22px;}.cls-10,.cls-12,.cls-13,.cls-14,.cls-15,.cls-16,.cls-17,.cls-18,.cls-19,.cls-2,.cls-20,.cls-21,.cls-22,.cls-23,.cls-24,.cls-25,.cls-26,.cls-27,.cls-28,.cls-29,.cls-3,.cls-4,.cls-5,.cls-6,.cls-7,.cls-8,.cls-9{fill-rule:evenodd;}.cls-3{fill:#e30000;}.cls-4{fill:#fffcfc;}.cls-5{fill:#fff8f8;}.cls-6{fill:#fc0000;}.cls-7{fill:#fdfdfd;}.cls-8{fill:#ff0;}.cls-9{fill:#00004e;}.cls-10{fill:#007000;}.cls-11{fill:#fff;}.cls-12{fill:#a3a3a3;}.cls-13{fill:#fefefe;}.cls-14{fill:#fcfcfc;}.cls-15{fill:#919191;}.cls-16{fill:#949494;}.cls-17{fill:#989898;}.cls-18{fill:#a2a2a2;}.cls-19{fill:#3e3e3e;}.cls-20{fill:#3c3c3c;}.cls-21{fill:#3f3f3f;}.cls-22{fill:#575757;}.cls-23{fill:#393939;}.cls-24{fill:#696969;}.cls-25{fill:#595959;}.cls-26{fill:#4f4f4f;}.cls-27{fill:#4e4e4e;}.cls-28{fill:#505050;}.cls-29{fill:#414141;}</style></defs><g id="Layer_1-2" data-name="Layer_1"><g id="_1259035624320" data-name=" 1259035624320"><path class="cls-1" d="M6.46,6.47A1.33,1.33,0,0,1,6.15,6a1.07,1.07,0,0,1-.06-.35.9.9,0,0,1,.06-.34,1.2,1.2,0,0,1,.28-.38,1,1,0,0,1,.75-.31A1.11,1.11,0,0,1,8,5a1.16,1.16,0,0,1,.36.79A1,1,0,0,1,8,6.54a1,1,0,0,1-.75.32,1.09,1.09,0,0,1-.76-.39Zm.31-.32a.85.85,0,0,0,.5.29.55.55,0,0,0,.44-.16.53.53,0,0,0,.18-.43.78.78,0,0,0-.26-.52A.8.8,0,0,0,7.13,5a.55.55,0,0,0-.44.17.52.52,0,0,0-.18.43A.78.78,0,0,0,6.77,6.15Zm4.15-1.86-1-1.91,1.32-.67.16.33-.93.47.24.45.8-.41.16.33-.8.4.41.82Zm1.87-.9-.78-2,.4-.16.78,2Zm2.12-1.51h.44a1,1,0,0,1-.16.59.93.93,0,0,1-.5.32.91.91,0,0,1-.76-.09A1.07,1.07,0,0,1,13.45,2a1.15,1.15,0,0,1,0-.88.93.93,0,0,1,.62-.48.9.9,0,0,1,.67,0A.82.82,0,0,1,15.1,1l-.38.22A.47.47,0,0,0,14.49,1a.39.39,0,0,0-.3,0,.46.46,0,0,0-.33.27.85.85,0,0,0,0,.57.89.89,0,0,0,.3.52.49.49,0,0,0,.41.06.42.42,0,0,0,.26-.19.62.62,0,0,0,.07-.38Zm1.24.57L15.88.32l1.57-.2.05.36L16.36.63l.06.47L17.48,1l0,.36-1.06.14.07.57,1.19-.15,0,.36-1.61.21Zm3.5-1.28a1.44,1.44,0,0,1,.17-.53.87.87,0,0,1,.23-.27.88.88,0,0,1,.3-.16,1.21,1.21,0,0,1,.47,0,1,1,0,0,1,.72.39,1.17,1.17,0,0,1,.18.85,1.12,1.12,0,0,1-.38.77,1,1,0,0,1-.79.2A1,1,0,0,1,19.83,2a1.11,1.11,0,0,1-.18-.83Zm.45,0a.79.79,0,0,0,.1.57.58.58,0,0,0,.84.11.8.8,0,0,0,.24-.54.8.8,0,0,0-.09-.56.62.62,0,0,0-.41-.24.54.54,0,0,0-.45.13.79.79,0,0,0-.23.53Zm2.09,1.38L22.77.53l1.42.4-.1.35-1-.28L23,1.49l.87.24-.1.35-.87-.24-.24.87-.42-.12Zm3.53,1.28.81-1.59L26,2l.17-.33,1.52.78-.17.32-.56-.29-.81,1.59-.39-.2Zm1.4.77,1.25-1.75.35.25-.49.69.69.49.49-.69.35.26L28.52,5.63l-.36-.25.55-.76L28,4.13l-.55.76-.35-.25Zm1.95,1.43,1.48-1.55,1.15,1.1-.25.26-.83-.8-.33.35.77.74-.25.26L30,5.69l-.4.42.86.82-.25.27L29.07,6.07Z"/><polygon class="cls-1" points="9.17 5.46 7.93 3.72 9.13 2.86 9.34 3.16 8.49 3.76 8.79 4.17 9.52 3.65 9.73 3.95 9 4.47 9.53 5.21 9.17 5.46"/><path class="cls-1" d="M.61,13.94l2.09.49-.1.42L.51,14.36ZM.35,15.07l2.13.25,0,.41L.9,16.44l1.43.17-.05.4L.15,16.76l.05-.43,1.51-.7-1.4-.17Zm.46,2.34.06.42A.61.61,0,0,0,.56,18a.5.5,0,0,0-.09.31.55.55,0,0,0,.1.32.25.25,0,0,0,.21.09.18.18,0,0,0,.13,0A.57.57,0,0,0,1,18.52l.08-.35a1,1,0,0,1,.2-.49.55.55,0,0,1,.42-.22.59.59,0,0,1,.31.09.56.56,0,0,1,.23.25,1.3,1.3,0,0,1,.09.42.91.91,0,0,1-.16.61.61.61,0,0,1-.47.23l0-.43a.31.31,0,0,0,.23-.13A.41.41,0,0,0,2,18.23a.55.55,0,0,0-.09-.29.16.16,0,0,0-.14-.07.19.19,0,0,0-.12.07,1,1,0,0,0-.13.41,2.75,2.75,0,0,1-.14.47.61.61,0,0,1-.21.24.72.72,0,0,1-.34.1.73.73,0,0,1-.35-.09.68.68,0,0,1-.25-.28,1.09,1.09,0,0,1-.09-.47.93.93,0,0,1,.16-.63.83.83,0,0,1,.54-.28ZM.25,19.89l2.13-.25.08.69a2.76,2.76,0,0,1,0,.51.59.59,0,0,1-.17.33.67.67,0,0,1-.4.17.61.61,0,0,1-.34,0,.66.66,0,0,1-.23-.15.56.56,0,0,1-.13-.22,2.2,2.2,0,0,1-.09-.44l0-.28-.8.1,0-.43Zm1.82.22-.61.07,0,.24a1.11,1.11,0,0,0,.07.33.34.34,0,0,0,.12.12.28.28,0,0,0,.18,0A.28.28,0,0,0,2,20.81a.3.3,0,0,0,.08-.18,2.74,2.74,0,0,0,0-.31l0-.21ZM.6,22.19l2.07-.58.42,1.53-.35.1-.31-1.11L2,22.26l.29,1-.35.1-.28-1-.56.16.32,1.15-.35.1L.6,22.19ZM2.53,25.4l0,.43A.91.91,0,0,1,2,25.72a.88.88,0,0,1-.36-.47.88.88,0,0,1,0-.76A1.1,1.1,0,0,1,2.25,24a1.18,1.18,0,0,1,.88,0,1,1,0,0,1,.54.57.94.94,0,0,1,0,.68.92.92,0,0,1-.29.35l-.25-.37a.45.45,0,0,0,.19-.24.48.48,0,0,0,0-.31.45.45,0,0,0-.3-.3.86.86,0,0,0-.57.06A.86.86,0,0,0,2,24.7a.46.46,0,0,0,0,.41.42.42,0,0,0,.21.24.61.61,0,0,0,.39,0Zm0,1.71,1.53-.9-.32-.55.31-.19.86,1.47-.31.19-.32-.55-1.54.9-.22-.37Zm1.58.66a1.38,1.38,0,0,1,.49-.26,1.1,1.1,0,0,1,.36,0,1.09,1.09,0,0,1,.32.1,1.12,1.12,0,0,1,.35.31,1,1,0,0,1,.24.78,1.13,1.13,0,0,1-.47.73,1.08,1.08,0,0,1-.81.28,1,1,0,0,1-.7-.41,1,1,0,0,1-.24-.78,1.12,1.12,0,0,1,.46-.72Zm.29.34a.83.83,0,0,0-.34.48.57.57,0,0,0,.12.45.55.55,0,0,0,.41.22A.81.81,0,0,0,5.15,29a.8.8,0,0,0,.33-.46.62.62,0,0,0-.54-.68.84.84,0,0,0-.54.21ZM5,30.58,6.49,29l.66.63a1.76,1.76,0,0,1,.32.39.49.49,0,0,1,0,.32.66.66,0,0,1-.16.31.63.63,0,0,1-.38.19.67.67,0,0,1-.44-.15,1,1,0,0,1,0,.29,1.78,1.78,0,0,1-.07.42l-.1.48L6,31.55l.1-.55a2.18,2.18,0,0,0,0-.39.33.33,0,0,0,0-.15A.8.8,0,0,0,6,30.29l-.06-.06-.62.65L5,30.58ZM6.17,30l.23.23a2.29,2.29,0,0,0,.3.25.2.2,0,0,0,.15,0A.28.28,0,0,0,7,30.39a.3.3,0,0,0,.08-.17A.27.27,0,0,0,7,30.05l-.23-.23-.24-.23L6.17,30Zm5.24,4.23.15-.33.85.38-.35.78a1,1,0,0,1-.45.05,1.17,1.17,0,0,1-.52-.12,1.19,1.19,0,0,1-.48-.37.85.85,0,0,1-.17-.52,1.29,1.29,0,0,1,.11-.57,1.35,1.35,0,0,1,.37-.49,1,1,0,0,1,.54-.2,1.06,1.06,0,0,1,.52.12,1,1,0,0,1,.5.4.78.78,0,0,1,.07.54l-.42-.1a.51.51,0,0,0-.06-.3.6.6,0,0,0-.25-.21.58.58,0,0,0-.48,0,.71.71,0,0,0-.37.42.81.81,0,0,0-.08.59.58.58,0,0,0,.33.36,1.07,1.07,0,0,0,.27.06,1.18,1.18,0,0,0,.27,0l.11-.24-.45-.21Zm1.23,1.36.58-2.06,1.52.42-.09.35L13.54,34l-.13.46,1,.29-.1.35-1-.29-.15.56,1.15.32-.1.35-1.57-.44Zm2.24.61.4-2.11.41.08.6,1.58.27-1.42.39.08-.39,2.11-.43-.08-.6-1.55-.26,1.39-.39-.08Zm2.46.36.08-2.14,1.58.05v.36l-1.15,0,0,.48,1.08,0,0,.36-1.07,0,0,.58,1.2,0,0,.36-1.62-.05Zm2.33,0-.16-2.14.9-.07a1.55,1.55,0,0,1,.51,0,.51.51,0,0,1,.26.18.66.66,0,0,1,.12.33.57.57,0,0,1-.11.41.69.69,0,0,1-.41.23,1.2,1.2,0,0,1,.25.16,2.38,2.38,0,0,1,.27.33l.29.4-.51,0L20.73,36c-.12-.15-.21-.25-.25-.29a.34.34,0,0,0-.14-.08.49.49,0,0,0-.22,0H20l.07.89-.43,0ZM20,35.28l.32,0a1.45,1.45,0,0,0,.38,0,.29.29,0,0,0,.12-.1.41.41,0,0,0,0-.16.27.27,0,0,0-.07-.17.25.25,0,0,0-.17-.08l-.32,0-.33,0Zm4,.56-.46.11-.29-.44-.84.19-.06.52-.45.1.33-2.27.45-.11Zm-1-.65-.47-.71-.1.84Zm1.49.48-.77-2,.4-.16.64,1.64,1-.39.13.34Zm4.68-3.58a1.35,1.35,0,0,1-.28-.48,1.12,1.12,0,0,1-.05-.36,1.14,1.14,0,0,1,.08-.33,1.25,1.25,0,0,1,.3-.36,1,1,0,0,1,.76-.28,1.15,1.15,0,0,1,.76.43,1.18,1.18,0,0,1,.32.8,1,1,0,0,1-.38.72,1,1,0,0,1-.76.28,1.17,1.17,0,0,1-.75-.43Zm.33-.31a.82.82,0,0,0,.49.31.57.57,0,0,0,.45-.14.6.6,0,0,0,.2-.42.83.83,0,0,0-.25-.54.8.8,0,0,0-.48-.3.58.58,0,0,0-.65.56A.84.84,0,0,0,29.57,31.78ZM32,31l-1.54-1.48,1-1.07.26.25-.72.75.36.36L32,29.2l.26.25-.62.65.65.63L32,31ZM35.51,26l-2-.87.28-.64a2.53,2.53,0,0,1,.24-.45.57.57,0,0,1,.32-.2.68.68,0,0,1,.43.06.64.64,0,0,1,.27.2.45.45,0,0,1,.12.25.49.49,0,0,1,0,.24,2,2,0,0,1-.15.43l-.11.25.74.33-.18.4Zm-1.45-1.12.55.25.1-.22a1,1,0,0,0,.11-.33.29.29,0,0,0,0-.16.28.28,0,0,0-.13-.11.26.26,0,0,0-.21,0,.31.31,0,0,0-.16.12,2.25,2.25,0,0,0-.14.28l-.08.19Zm1.29-1.22a1.11,1.11,0,0,1-.5-.24.9.9,0,0,1-.24-.27.94.94,0,0,1-.11-.32,1.13,1.13,0,0,1,0-.47,1,1,0,0,1,.48-.65,1.33,1.33,0,0,1,1.58.44,1,1,0,0,1,.08.8,1,1,0,0,1-.49.66A1.07,1.07,0,0,1,35.35,23.63Zm.11-.43a.79.79,0,0,0,.57,0,.59.59,0,0,0,.3-.37.54.54,0,0,0-.07-.46.82.82,0,0,0-.49-.31.83.83,0,0,0-.57,0,.6.6,0,0,0-.23.83A.79.79,0,0,0,35.46,23.2Zm1.58-2L34.93,21l0-.43,1.75.2.13-1.06.36,0Zm.25-2.13L35.15,19V18.6l2.15.07Zm-.8-2.5.12-.42a.9.9,0,0,1,.53.3.86.86,0,0,1,.19.56.92.92,0,0,1-.26.72,1.34,1.34,0,0,1-1.63.05.94.94,0,0,1-.32-.72.86.86,0,0,1,.21-.64.8.8,0,0,1,.38-.24l.12.43a.5.5,0,0,0-.26.16.53.53,0,0,0,.1.68.82.82,0,0,0,.56.13.9.9,0,0,0,.57-.16.46.46,0,0,0,.16-.39.38.38,0,0,0-.12-.29.55.55,0,0,0-.35-.17Zm.66-1.17-2.11.4-.29-1.56.36-.07.21,1.13.47-.08-.2-1.06.35-.06.2,1,.57-.11-.22-1.17.36-.07.3,1.6Z"/><path class="cls-2" d="M3.41,9.78a.5.5,0,1,1,0,1,.5.5,0,0,1,0-1Z"/><path class="cls-2" d="M33.9,9.78a.5.5,0,1,1-.51.5A.5.5,0,0,1,33.9,9.78Z"/><path class="cls-3" d="M19,16.23c-.1,0-.08-.07-.1-.14l0-.05c-.06,0,0,.09-.05.16-.21-.22.05,0,.06-.42.16.07,0,.07.2.26L19,16l0,.21ZM18.36,13h.15a1.11,1.11,0,0,1,.4.17v0a.58.58,0,0,1-.14,0,.58.58,0,0,0,.11.2c0,.07.1.2-.05.12a.93.93,0,0,0,.09.45.12.12,0,0,0,.18,0c.18-.22-.05-.46.07-.66s.7-.24.93.51c0,.06,0,.14,0,.21s.05.13.07.21v.36s0,.06-.06.07a2,2,0,0,0,.24.9.46.46,0,0,1-.29-.29h0c0,.09.05.17.05.24-.15,0-.2-.29-.23-.38s0,0,0,0a.49.49,0,0,0,0,.13l0,.1a.56.56,0,0,1-.21-.47h0c0,.1,0,.16,0,.25s-.15-.15-.15-.27v.13c-.07-.05-.07-.08-.1-.11h0a.29.29,0,0,1-.1-.12.74.74,0,0,0-.08-.13c0,.07-.05,0-.06.1s0-.06-.07-.1v.09c-.05,0-.05,0-.09-.07L19,14.5a1.51,1.51,0,0,0,.09.18l.78,1.07a.25.25,0,0,1,0,.07h-.1s0,0-.09,0l-.32,0c-.19.05-.13,0-.27,0,0,.14.17.18.2.22a.15.15,0,0,1-.18,0c0,.1.05.15,0,.21a.12.12,0,0,1-.1-.09h0c0,.05,0,0,0,.07s-.14-.09-.14-.2h-.08c0-.13.08-.17.21-.17s0-.09,0-.14-.09-.07-.15-.17,0-.07-.06-.1a.44.44,0,0,1-.07.17s0,0-.05-.05,0,.1-.08.11h0a.49.49,0,0,0,0,.24c.06,0,.06,0,.1,0s-.15.1-.21.12-.22-.09-.25,0,.11.26,0,.23a.28.28,0,0,1-.17-.18c-.05,0,0,0,0,.08s-.1-.11,0-.18.11-.05.21-.07a.34.34,0,0,0,.17-.11c.07-.08.07-.13,0-.19a1.4,1.4,0,0,1,0-1c-.06,0-.07-.09-.12-.12s0,.1-.1.12a.19.19,0,0,0,0-.1h0a.61.61,0,0,1,0,.13c0,.07,0,.08-.07.09s0-.1,0-.16l-.06.15a.83.83,0,0,1-.08.12l0,0c-.08.1-.07.17-.14.22V15a.85.85,0,0,1-.05.24.67.67,0,0,1-.11.18.37.37,0,0,1,0-.11l-.07.16,0,0s0,0,0,0v-.23a.77.77,0,0,1-.18.46,2.87,2.87,0,0,0,0-.44h0a1.32,1.32,0,0,1-.1.53s0,0-.06,0a7.84,7.84,0,0,0,0-1.21s-.07,0-.07-.14,0,0,0-.2a1.11,1.11,0,0,1,.08-.37,1,1,0,0,1,.3-.6.48.48,0,0,1,.14-.09c.18-.08.46-.09.53,0s0,.26,0,.38,0,.28.13.29c0-.16.17-.14.27-.4a.22.22,0,0,0,0-.25c-.08-.08-.14,0-.25,0a.32.32,0,0,1,.14-.21.58.58,0,0,1,.21-.07ZM18.68,16c0-.06.05-.06.13-.07S18.75,16,18.68,16Zm-.3,0c-.27.1-.16,0-.36,0,0,.05-.05.05,0,.12a.25.25,0,0,0,0,.12c-.14,0-.13-.13-.15-.19h0a.16.16,0,0,0-.09.07c0-.19.37,0,.49-.4l.05,0s0,0,0,0c0,.13-.06.22,0,.31ZM19.89,15h0V15h0Zm-2.27-.08h0Zm0-.3h0c0,.06,0,0,0,.12s0,.07,0,.14h0V14.7A.51.51,0,0,1,17.62,14.57Zm.17-.06s0,0,0,0S17.79,14.54,17.79,14.51Zm1.62,0h0Z"/><path class="cls-4" d="M18.38,16c-.1-.09-.05-.18,0-.31,0,.05,0,0,0,0l-.05,0c-.12.41-.52.21-.49.4a.16.16,0,0,1,.09-.07h0c0,.06,0,.16.15.19a.43.43,0,0,1-.05-.12c0-.07,0-.07,0-.12.21,0,.1.1.37,0Z"/><path class="cls-4" d="M19,16l.11,0c-.22-.19-.05-.19-.2-.26,0,.38-.28.2-.07.42,0-.07,0-.12.05-.16l0,.05c0,.07,0,.11.1.14L19,16Z"/><path class="cls-5" d="M18.68,16c.07,0,.1,0,.13-.07S18.7,16,18.68,16Z"/><polygon class="cls-6" points="17.21 15.47 17.2 15.47 17.21 15.49 17.21 15.47"/><path class="cls-2" d="M18.06,17.55c0,.19-.3.31-.34.21S17.9,17.49,18.06,17.55ZM20.65,16v0a.12.12,0,0,1-.06.09.28.28,0,0,1-.14,0c0,.08.09.24-.18.24.05.11,0,.24-.18.24.07.14,0,.23-.18.23,0,0,.07.14,0,.21a.21.21,0,0,1-.14,0c0,.14,0,.24-.18.24,0,.06.08.23-.19.24a.15.15,0,0,1,0,.1c0,.11-.13.12-.22.12-.26,0-.53-.44-.13-.45,0-.07,0-.11,0-.17s.08-.05.17-.05,0-.24.18-.24c-.07-.14,0-.24.18-.24,0-.05-.07-.13,0-.21a.18.18,0,0,1,.13,0V16.3a1.7,1.7,0,0,1-1.49.31l-.4-.14a2.19,2.19,0,0,0-.6-.22c-.12,0-.17-.05-.2,0,.26,0,.19.19.19.24.18,0,.21.1.18.24.16,0,.24.1.17.23a.2.2,0,0,1,.14,0,.15.15,0,0,1,0,.2c.26,0,.19.15.19.24.39,0,.12.45-.15.45s-.2-.13-.19-.23c-.21,0-.22-.15-.18-.23-.15,0-.25-.09-.18-.24-.24,0-.19-.16-.18-.24-.18,0-.21-.11-.18-.23-.21,0-.21-.12-.18-.24a.21.21,0,0,1-.14,0c-.07-.05-.07-.12,0-.2-.14,0-.2-.06-.2-.12v0a.27.27,0,0,1,.1-.19c.3-.23.51-.05.42.12.06,0,0,0,.08,0h0a2,2,0,0,1,.33,0c.3,0,.15.08.38.1a.46.46,0,0,1,.2.05.7.7,0,0,0,.19.06,2,2,0,0,0,.64.06,4.85,4.85,0,0,0,1.18-.24c.11,0,.07-.1.24-.1a.11.11,0,0,1,0-.08c0-.1.08-.15.18-.15a.43.43,0,0,1,.37.29ZM19,17.5c.15-.06.37.09.33.24S18.92,17.64,19,17.5Zm-1.42,0c0-.19.3-.31.34-.21S17.69,17.6,17.54,17.54Zm1.93,0c-.19.06-.4-.15-.33-.23S19.51,17.32,19.47,17.5Zm-1.77-.43c0,.16-.25.3-.33.23S17.5,17,17.7,17.07Zm1.95.19c-.15.08-.38-.12-.34-.22S19.69,17.07,19.65,17.26Zm-2.47-.2c0-.14.18-.28.33-.23S17.31,17.14,17.18,17.06Zm2.65,0c-.17.07-.4-.14-.33-.24S19.86,16.84,19.83,17Zm-2.62-.44c.24-.07.12.19-.07.25S17,16.66,17.21,16.59Zm2.49-.05c.14-.07.41.2.28.26S19.56,16.61,19.7,16.54ZM17,16.35c.24-.06.1.21-.09.25S16.82,16.41,17,16.35Zm2.81,0c.14-.08.39.12.34.22S19.82,16.51,19.85,16.32Zm0-.11Zm0,0,.05-.06s0,0,0,.06Zm-3.21.15c0-.16.24-.31.32-.24S16.84,16.42,16.65,16.36Zm3.42-.29c.13-.06.41.2.27.26S19.91,16.13,20.07,16.07Zm-3.27-.18c0,.18-.28.31-.33.22S16.63,15.83,16.8,15.89Zm3.74.19c-.18.07-.39-.16-.32-.24S20.59,15.91,20.54,16.08Z"/><path class="cls-7" d="M19.7,16.54c-.14.07.14.32.28.26S19.84,16.47,19.7,16.54Z"/><path class="cls-7" d="M20.07,16.07c-.16.06.13.31.27.26S20.2,16,20.07,16.07Z"/><path class="cls-7" d="M19.65,17.26c0-.19-.3-.32-.34-.22S19.5,17.34,19.65,17.26Z"/><path class="cls-7" d="M20.54,16.08c.05-.17-.25-.32-.33-.24S20.36,16.15,20.54,16.08Z"/><path class="cls-7" d="M19.83,17c0-.19-.27-.32-.33-.24S19.66,17.1,19.83,17Z"/><path class="cls-7" d="M19.85,16.32c0,.19.29.31.34.22S20,16.24,19.85,16.32Z"/><path class="cls-7" d="M19.47,17.5c0-.18-.26-.31-.33-.23S19.28,17.56,19.47,17.5Z"/><path class="cls-7" d="M19,17.5c0,.14.17.29.32.24S19.11,17.44,19,17.5Z"/><path class="cls-7" d="M17,16.35c-.22.06-.33.3-.1.25S17.28,16.29,17,16.35Z"/><path class="cls-7" d="M17.21,16.59c-.22.07-.31.32-.07.24S17.45,16.52,17.21,16.59Z"/><path class="cls-7" d="M16.65,16.36c.19.06.39-.16.32-.24S16.6,16.2,16.65,16.36Z"/><path class="cls-7" d="M17.7,17.07c-.2-.06-.41.16-.33.23S17.73,17.23,17.7,17.07Z"/><path class="cls-7" d="M17.18,17.06c.13.08.38-.08.33-.23S17.16,16.92,17.18,17.06Z"/><path class="cls-7" d="M17.54,17.54c.15.06.37-.11.34-.21S17.51,17.35,17.54,17.54Z"/><path class="cls-7" d="M16.8,15.89c-.17-.06-.39.13-.33.22S16.83,16.07,16.8,15.89Z"/><path class="cls-7" d="M18.06,17.55c-.16-.06-.38.11-.34.21S18.08,17.74,18.06,17.55Z"/><polygon class="cls-8" points="14.54 21.28 13.13 21.5 13.21 22.23 14.32 22.51 15.15 22.08 14.49 21.82 14.54 21.28"/><polygon class="cls-9" points="14.22 21.61 13.42 21.73 13.49 22.15 14.05 22.27 14.4 22.11 14.14 21.98 14.22 21.61"/><polygon class="cls-9" points="13.13 22.21 13.09 22.68 14.1 23.08 14.03 23.24 14 23.35 14 23.52 14.02 23.74 14.07 23.84 14.5 23.99 14.9 24.12 15.48 24.28 16.07 24.42 16.83 24.55 17.61 24.63 18.42 24.64 19.06 24.63 19.93 24.54 20.57 24.43 21.31 24.26 22.13 24.02 22.54 23.88 22.84 23.77 22.99 23.72 22.99 23.61 22.92 23.06 23.92 22.66 23.91 22.19 22.61 22.53 22.73 22.75 22.18 22.93 21.38 23.18 20.47 23.39 19.65 23.51 18.64 23.56 17.84 23.56 17.15 23.52 16.57 23.44 15.79 23.29 15.22 23.15 14.82 23.02 14.49 22.92 14.35 22.86 14.24 22.92 14.17 22.86 14.12 22.79 14.16 22.71 14.34 22.5 13.13 22.21"/><path class="cls-8" d="M13,22.66A.7.7,0,0,0,13,23l.19.08.33.12.48.19,0-.17.09-.17,0-.06L13.84,23l-.37-.14-.27-.1-.1-.06Z"/><path class="cls-8" d="M14,23.68c-.12,0-.54.33.48.72a14.38,14.38,0,0,0,5.93.48c.11,0,3.55-.59,2.71-1.18-.05,0-1.28.41-1.42.45a11.52,11.52,0,0,1-7.47-.26c-.26-.09-.12-.1-.23-.21Z"/><path class="cls-8" d="M14.47,22.52a3.66,3.66,0,0,0,1.22.41,13.88,13.88,0,0,0,5.14.13l.48-.09a7.3,7.3,0,0,0,.92-.3,1.15,1.15,0,0,0,.38-.15l.11.23-.13.06-1,.29a12,12,0,0,1-4,.45,5.23,5.23,0,0,1-1.19-.14,9.73,9.73,0,0,1-1.74-.4c-.35-.11-.33-.16-.52-.06l-.14-.15.14-.18c0-.06,0-.1.09-.11a.92.92,0,0,1,.16,0Z"/><path class="cls-10" d="M14.54,22.48A9.75,9.75,0,0,1,19,21.69c3.26.39,2.18.53,3.54.89-.36.13-.7.25-1,.35l-.56.13a12.52,12.52,0,0,1-3.23.15C17,23.17,15,23,14.54,22.48Z"/><polygon class="cls-8" points="22.52 21.28 23.92 21.5 23.84 22.23 22.83 22.47 21.91 22.08 22.56 21.82 22.52 21.28"/><polygon class="cls-9" points="22.84 21.61 23.64 21.73 23.56 22.15 23.01 22.27 22.66 22.11 22.91 21.98 22.84 21.61"/><path class="cls-8" d="M24,22.66a.82.82,0,0,1,0,.38l-.19.08-.33.12-.56.22,0-.13,0-.18,0-.09L23,23l.23-.08.37-.14.27-.11.1-.06.07,0Z"/><path class="cls-11" d="M15.31,23.36l0,.12-.09,0-.16.48-.16-.05.16-.49-.09,0,0-.12.34.12Zm.42.1-.15.61-.16,0,.06-.26h-.05l-.06.26-.16,0,.15-.62.16,0,0,.22,0,0,.06-.22Zm.09,0,.27.05,0,.13-.11,0,0,.12.1,0,0,.12-.1,0,0,.14L16,24l0,.13-.28-.06.12-.62Zm1,.18-.09.63-.15,0,0-.3,0,.29-.14,0,.09-.63.14,0,.05.3,0-.29Zm.28,0-.09.63-.16,0,.09-.63Zm.44.27h-.16v-.12a0,0,0,0,0,0,0,0,0,0,0,0,0,0s0,0,0,.06l0,.3v.05l0,0h0a.35.35,0,0,0,0-.06v-.08h0V24h.19l0,.34h-.11v-.05s0,0,0,0a.07.07,0,0,1-.06,0l-.08,0s0,0,0-.06a.14.14,0,0,1,0-.06v-.29a1.23,1.23,0,0,1,0-.13.19.19,0,0,1,.06-.07.16.16,0,0,1,.12,0,.21.21,0,0,1,.12,0,.16.16,0,0,1,.06.08.38.38,0,0,1,0,.12v0Zm.14-.22H18v.13h-.11V24h.1v.12h-.1v.14h.12v.13l-.29,0,0-.63Zm.35,0h.28s0,0,.06,0a.21.21,0,0,1,0,.12.19.19,0,0,1,0,.1s0,0-.07,0l.07,0,0,0v.26h-.15v-.21s0-.05,0-.06h0v.28H18Zm.17.11V24s0,0,0,0,0,0,0-.05v0s0,0,0,0Zm.49-.11v.63h-.16v-.63Zm.38,0,.12.63H19l0-.12H19v.11h-.17l0-.64Zm-.07.41c0-.07,0-.16,0-.26,0,.12,0,.21,0,.26Zm.53-.43h.17a.33.33,0,0,1,.1,0l.06,0,0,.05a.28.28,0,0,0,0,.08v.06a.22.22,0,0,1,0,.09.08.08,0,0,1,0,0l-.09,0h0v.26h-.16l0-.64Zm.17.09V24h0s0,0,0,0,0,0,0,0v-.05a.2.2,0,0,0,0-.05H19.7Zm.66.17a.88.88,0,0,1,0,.14.22.22,0,0,1,0,.08l-.06.06-.09,0h-.09l-.07,0a.13.13,0,0,1,0-.07A.78.78,0,0,1,20,24l0-.1a.88.88,0,0,1,0-.14.17.17,0,0,1,0-.07s0-.05.06-.06a.19.19,0,0,1,.09,0h.09a.1.1,0,0,1,.07,0s0,0,0,.06a.78.78,0,0,1,0,.14Zm-.2-.18a.2.2,0,0,0,0-.05h0v.06l.05.3a.35.35,0,0,0,0,.06h0s0,0,0,0v-.07l-.05-.28Zm.42-.23.08.51.1,0,0,.13-.26,0-.1-.63.16,0Zm.32-.07.14.62-.16,0-.14-.62.16,0Zm.56.17-.16,0,0-.11s0-.05,0-.05h0a0,0,0,0,0,0,0,.18.18,0,0,0,0,.06l.06.29s0,.05,0,.06h0s0,0,0,0a.26.26,0,0,0,0-.07l0-.08.16,0v0a.37.37,0,0,1,0,.14.12.12,0,0,1,0,.09.28.28,0,0,1-.11.05h-.12a.12.12,0,0,1-.08-.06.68.68,0,0,1,0-.13l0-.18a.84.84,0,0,1,0-.1.15.15,0,0,1,0-.07.2.2,0,0,1,.06-.07.19.19,0,0,1,.09,0h.12l.08.05,0,.13v.06Zm0-.29.26-.08,0,.12-.11,0,0,.12.1,0,0,.11-.1,0,0,.14.12,0,0,.12-.28.09-.18-.61Z"/><path class="cls-2" d="M15.25,22.48a.15.15,0,0,1,.16.13.16.16,0,0,1-.32,0A.15.15,0,0,1,15.25,22.48Z"/><path class="cls-2" d="M16.36,22.57c.08,0,.15.05.15.1s-.07.11-.15.11-.15-.05-.15-.11S16.28,22.57,16.36,22.57Z"/><path class="cls-2" d="M16.58,22.79c.08,0,.15.05.15.1s-.07.1-.15.1-.15,0-.15-.1S16.49,22.79,16.58,22.79Z"/><path class="cls-2" d="M18.12,22.24a.14.14,0,0,1,.15.12.15.15,0,0,1-.3,0A.14.14,0,0,1,18.12,22.24Z"/><path class="cls-2" d="M18.23,22.7c.09,0,.16.05.16.11s-.07.11-.16.11-.16-.05-.16-.11S18.14,22.7,18.23,22.7Z"/><path class="cls-2" d="M18.78,22.28c.2,0,.36,0,.36.11s-.16.11-.36.11-.36-.05-.36-.11S18.58,22.28,18.78,22.28Z"/><path class="cls-2" d="M19.45,22c.2,0,.35,0,.35.12s-.15.12-.35.12-.36-.05-.36-.12S19.25,22,19.45,22Z"/><path class="cls-2" d="M19.57,22.58a.14.14,0,0,1-.14-.14.14.14,0,1,1,.14.14Z"/><path class="cls-2" d="M19.75,22.74c.18,0,.32.05.32.11s-.14.12-.32.12-.33,0-.33-.12S19.56,22.74,19.75,22.74Z"/><path class="cls-2" d="M20.52,22.83c.09,0,.16.05.16.11s-.07.11-.16.11-.15-.05-.15-.11S20.44,22.83,20.52,22.83Z"/><path class="cls-2" d="M20.93,22.74a.12.12,0,1,0,0,.24.12.12,0,1,0,0-.24Z"/><path class="cls-2" d="M21.31,22.7a.12.12,0,1,0,0,.23.12.12,0,1,0,0-.23Z"/><path class="cls-2" d="M18.38,19c-.24.31-.46.62-.7.92l-1.91,2.52a.21.21,0,0,1-.29,0,.15.15,0,0,1,0-.16l2.35-3.08L18,19a1.28,1.28,0,0,1,.17-.22,1.71,1.71,0,0,1,.2.27Zm3,3.69h-.06a.35.35,0,0,1-.27-.14l-1-1.36L19.88,21s-1.35-1.78-1.39-1.81l-.87,1.12c-.49.63-1.06,1.4-1.54,2-.07.09-.19.27-.28.31a.34.34,0,0,1-.5-.29.46.46,0,0,1,.13-.27l.36-.47.17-.23c.12-.16.24-.3.36-.47l.17-.23,1.41-1.85a1.13,1.13,0,0,0,.17-.23l-.18-.23a.5.5,0,0,1-.14-.27.32.32,0,0,1,.34-.33c.25,0,.32.23.41.29a1.37,1.37,0,0,1,.15-.21.36.36,0,0,1,.56,0,.32.32,0,0,1-.06.41l-.24.32.09.12.09.12c.58.78,1.2,1.56,1.78,2.34l.53.7c.08.1.31.36.31.5a.31.31,0,0,1-.3.32Zm-3.49-4.58c-.05-.16.17-.25.29-.15l2.89,3.79c.06.07.44.56.45.6s-.17.23-.29.14-2.25-2.95-2.45-3.2c0-.07-.87-1.14-.89-1.18Zm.67.06c.07-.07.14-.19.19-.23a.2.2,0,0,1,.29,0c.11.14-.15.31-.26.52Z"/><path class="cls-7" d="M17.92,18.11s.84,1.11.89,1.17c.19.26,2.39,3.16,2.45,3.21s.32,0,.28-.14a5,5,0,0,0-.44-.6L18.21,18c-.12-.1-.34,0-.29.14Z"/><path class="cls-7" d="M18.38,19a1.71,1.71,0,0,0-.2-.27A1.28,1.28,0,0,0,18,19l-.18.23-2.35,3.08a.15.15,0,0,0,0,.16.21.21,0,0,0,.29,0l1.91-2.52c.24-.3.46-.61.7-.92Z"/><path class="cls-7" d="M18.59,18.17l.22.28c.11-.21.37-.38.26-.52a.2.2,0,0,0-.29,0A2.92,2.92,0,0,0,18.59,18.17Z"/><path class="cls-12" d="M19.46,19.64c0-.07,0-.1.08-.12s.13,0,.14.08A.22.22,0,0,1,19.46,19.64Zm.57-.11c0-.07,0-.07,0-.1s.07,0,.07.07A.13.13,0,0,1,20,19.53Zm-.3-.29c0,.1-.11.07-.19.1s-.15.13-.16,0S19.66,19.13,19.73,19.24Zm.31-.1c0,.13-.18.13-.19.06S20,19.07,20,19.14ZM19.69,19s0,0,0,0a.11.11,0,0,1,0,.08s0,0,0,.05a.07.07,0,0,1,0-.13Zm.42,0c.05,0,.28-.09.22.06.09,0,.17.06.15.15s-.25.05-.21-.1a.28.28,0,0,1-.13,0,.12.12,0,0,1,0-.12Zm.19-.17c.08,0,.21,0,.19.08l0,0a.12.12,0,0,1-.17-.1Zm-.54-.11s0,.07-.05.09-.18-.18-.09-.22.26,0,.23.11A.13.13,0,0,1,19.76,18.73Zm-2.05-.83c.05,0,.13,0,.19.05s.07.52.12.64.2.18.21.29,0,.05,0,.11a.67.67,0,0,1-.07.31.77.77,0,0,1-.18.32,3.22,3.22,0,0,1-.52.47c-.21.11-.19.05-.41.06a2.26,2.26,0,0,1,.16.21c.08.08.21.1.18.18s-.06,0-.13,0a.49.49,0,0,1-.2-.18l0-.05L17,20.27a.38.38,0,0,0,0,.18.23.23,0,0,0,.08.11c.11.11.26.37.18.54s-.13.06-.18.21a.33.33,0,0,1,.05.28c0,.06-.17.29-.24.11s0,0,.05-.07a.59.59,0,0,0-.1-.17c0,.29-.11.76-.12.91a.19.19,0,0,1,.23,0,.14.14,0,0,1,.21,0c.1,0,.14-.08.24,0,.06-.07.14,0,.22,0,.09-.55-.09-1.48.08-1.76.05-.1.13-.09.27-.08l.34,0c.21,0,.42.08.63.1a.81.81,0,0,1,.3-.1l.31-.07a2.1,2.1,0,0,1,.33-.06c.11,0,.12.15,0,.23.09,0,.16,0,.18.1a.14.14,0,0,1-.13.15h0s.15.07.08.2-.15,0-.24,0,.08.15.11.23a1.26,1.26,0,0,1,.11.81c.09,0,.09,0,.16,0s.14-.08.18,0,.13-.06.21,0,.15-.06.2,0a5.83,5.83,0,0,0-.18-.61,2,2,0,0,1,.07-.68c0-.27.19-.84.48-.46a.54.54,0,0,1,.09.12.5.5,0,0,0,.08.12c0-.18-.15-1.29-.19-1.43A2,2,0,0,0,19.26,18c-.25,0-.52,0-.77,0s-.57,0-.78,0Z"/><path class="cls-2" d="M17.45,22.49a.07.07,0,0,1,0-.06c.06,0,.09,0,.09.08s-.09,0-.12,0Zm-.46,0v-.05c.11-.07.16.09.06.09S17,22.5,17,22.48Zm.25-.05h.09C17.38,22.59,17.17,22.55,17.24,22.43Zm-.47,0a.06.06,0,0,1,.12,0C16.88,22.54,16.76,22.54,16.77,22.44Zm3.87-.16c.09,0,.1.07.06.1S20.61,22.34,20.64,22.28Zm-.18,0c.08,0,.07,0,.06.1S20.4,22.32,20.46,22.27Zm-.21,0c.09,0,.09.05.07.1S20.21,22.33,20.25,22.27Zm-.12,0v.08C20,22.39,20,22.2,20.13,22.28ZM17,21.48,17,21.34A.2.2,0,0,1,17,21.48ZM16.89,21a1.44,1.44,0,0,1,.09.24l-.06,0h-.05Zm-1.79.19c.07,0,.09-.24.23-.26a.27.27,0,0,1,.06.29.28.28,0,0,1-.24.13c0-.11,0-.09-.05-.16Zm-.6-.28s0,0,0,0,0,0,0,0,0,0,0,.06Zm2.41-.29c.06.05.33.32.22.5a1,1,0,0,0-.09-.18c0-.07-.05-.11-.14-.12v-.2Zm-2.33-.92a.43.43,0,0,1,.06-.17s0,0,0,.07a.14.14,0,0,0,0,.06Zm.2,1.54c0-.11,0-.15-.11-.14.07-.05.07-.12,0-.15.06-.11,0-.14-.05-.18v-.1l0,0v-.1s0,0,0,0,.09,0,.17-.05v-.13h-.17c0-.12.08-.07.17-.06v-.12a.5.5,0,0,1-.13-.05,1.53,1.53,0,0,1,.11-.48h.16v-.11c-.05,0-.15,0-.18-.08h.16v-.12a.23.23,0,0,1-.12,0s0,0,.08,0,.29.06.25-.1a.59.59,0,0,1,.31.08c.18.07.22,0,.3,0l0,.19a.87.87,0,0,0-.31-.1c-.66-.06-.64.87-.68,1.37,0,.19,0,.19.11.27L15,21s0,.08.08.11,0,0-.05,0,.05.09,0,.12,0-.13-.19-.12Zm.49-3c.3-.49,1.39-.33,2.08-.31.1,0,.06,0,.1,0s.06,0,.08,0l.3.44c.07.1,0,.05.05.18a.22.22,0,0,0,.08.16h0c-.13.05,0,.05-.11.11l-.15.1c-.32.22-.1.34-.4.34s-.5,0-.55.19c-.22.05-.26.43-.43.5s-.14-.12-.19-.19l-.17-.21a.7.7,0,0,0,.33-.08.25.25,0,0,0,.13-.24c.22.17.32.08.33-.22s.21-.42.13-.56a.18.18,0,0,0-.24,0c-.1.06-.11.11-.19.18-.22.24-.18.3-.12.51-.3-.14-.1-.24-.22-.38s-.27,0-.45,0-.27,0-.48.08-.18.05-.2.09,0,.19.06.2a.82.82,0,0,0-.27,0,1.17,1.17,0,0,1,.23-.49c.07-.1.21-.35.28-.42-.13.33.15.34.26.25s-.07-.32-.25-.26Zm2.44-.29a6.69,6.69,0,0,1,.77,0c.26,0,.52,0,.78,0a2,2,0,0,1,1.87,1.35c0,.15.17,1.26.19,1.44a.5.5,0,0,1-.08-.12,1.25,1.25,0,0,0-.09-.12c-.3-.38-.43.18-.49.45a2,2,0,0,0-.06.69c0,.17.17.46.18.61a.14.14,0,0,0-.2,0c-.08-.07-.12,0-.21,0s-.14,0-.19,0-.06,0-.16,0a1.19,1.19,0,0,0-.1-.81c0-.08-.08-.16-.11-.23s.18.07.24,0S20,21,20,20.94h0c.07,0,.14-.06.12-.15s-.09-.08-.17-.11c.09-.07.08-.2,0-.22a1.91,1.91,0,0,0-.33.06l-.31.07a.67.67,0,0,0-.3.1l-.64-.1-.33,0c-.14,0-.22,0-.28.08-.16.29,0,1.22-.07,1.77-.08,0-.17-.06-.22,0-.1-.09-.14,0-.24,0a.14.14,0,0,0-.21,0c-.1-.05-.12-.07-.23,0,0-.15.09-.63.12-.91a.59.59,0,0,1,.1.17s0,0-.06.06.23,0,.25-.11a.35.35,0,0,0-.06-.28c.06-.15.1,0,.18-.2s-.06-.43-.17-.54a.24.24,0,0,1-.09-.11.55.55,0,0,1,0-.18l0,.05a.1.1,0,0,1,0,.05.44.44,0,0,0,.2.18c.06,0,.09,0,.13,0s-.11-.1-.19-.19-.11-.17-.15-.2c.22,0,.2.05.41-.06a2.69,2.69,0,0,0,.51-.48.67.67,0,0,0,.19-.32.78.78,0,0,0,.07-.3.47.47,0,0,0,0-.12c0-.1-.17-.19-.21-.28s.08-.51-.11-.64-.14,0-.19-.05Zm-3.35,3a.49.49,0,0,0,.16.37l.16.1a1.57,1.57,0,0,0,.28.1,1.27,1.27,0,0,0,.34-.05c.39-.15.23-.64,0-.64s-.2.11-.24.19l-.05,0a.38.38,0,0,1-.15-.13,1.51,1.51,0,0,0,0-.3l0-.32a1.34,1.34,0,0,1,.14-.53.3.3,0,0,1,.09-.13.39.39,0,0,1,.26-.06.68.68,0,0,1,.47.27c.2.26.38.62.65.19.06-.09.1-.2.16-.27,0,.12-.05.25,0,.37a.44.44,0,0,0,.08.11s0,1.15-.09,1.43c0,0,0,.1,0,.13l-.09.69c0,.32.36.3.61.3a1.09,1.09,0,0,0,.45-.07c.14-.13.12-.44.12-.65s0-.26,0-.34l0-.49,0-.31a.5.5,0,0,1,.05-.13H18a6.85,6.85,0,0,1,1,.14s0,0,.06.05.2,0,.28,0a.83.83,0,0,1,.15,0c.12,0,.06,0,.11.1s.09,0,.12.08a1.8,1.8,0,0,1,.28.74c0,.15,0,.28,0,.33a.35.35,0,0,0,.37.36c.16,0,.65,0,.65-.21a1.87,1.87,0,0,0-.11-.48,1,1,0,0,1-.05-.7,3.69,3.69,0,0,1,.11-.45l.08-.19c.14,0,.31.4.39.54s.08.06.15,0-.14-1.25-.17-1.43a1.77,1.77,0,0,0-.35-1l-.06-.07-.07-.08-.2-.17a1.25,1.25,0,0,0-.24-.16l-.08-.05a3.06,3.06,0,0,0-1.4-.32h-.64a.43.43,0,0,0-.12,0,1.13,1.13,0,0,1-.26,0c-.08,0-.17,0-.26,0h-.11c-.22,0-.44,0-.65,0-.56,0-1.3-.11-1.68.35l-.07.08c-.09.13-.17.26-.25.39a.28.28,0,0,1-.06.09,1.11,1.11,0,0,0-.19.43c0,.05,0,.08,0,.13l-.11.36a2,2,0,0,0-.05.43l0,.44c0,.06,0,.11,0,.16s0,.11,0,.14a.61.61,0,0,0,0,.14h0Z"/><path class="cls-12" d="M15.27,18.19c.18-.07.37.15.24.25s-.38.09-.25-.24a2.19,2.19,0,0,0-.28.42,1.21,1.21,0,0,0-.24.48,1.24,1.24,0,0,1,.27,0s-.12-.1-.06-.2.14-.05.21-.09.19-.1.48-.08.3-.16.45,0-.08.23.22.37c-.06-.21-.1-.27.12-.5a1.07,1.07,0,0,1,.18-.19.2.2,0,0,1,.25.06c.07.14-.11.12-.13.56s-.11.39-.33.21a.26.26,0,0,1-.13.25.6.6,0,0,1-.33.07l.16.22c0,.07.11.17.2.19s.21-.45.42-.5c.05-.2.36-.2.55-.19s.09-.12.41-.34l.14-.1c.09-.07,0-.06.11-.11h0a.23.23,0,0,1-.08-.16c0-.13,0-.09-.06-.19l-.3-.43-.08,0s0,0-.09,0c-.69,0-1.78-.18-2.09.31Z"/><path class="cls-12" d="M14.78,19.25s.07,0,.12,0v.12h-.16c0,.06.13.07.18.08v.12h-.16a1.53,1.53,0,0,0-.11.47.21.21,0,0,0,.13.05v.13c-.09,0-.16-.06-.17.06h.17v.12c-.08,0-.18,0-.17.06s0,0,0,0v.1l0,0v.09c.09.05.11.08.05.18.1,0,.1.1,0,.15.13,0,.13,0,.11.14.19,0,.14.05.19.12s0-.06,0-.11,0,0,.05-.05,0-.07-.08-.11L14.87,21c-.11-.08-.13-.08-.11-.27,0-.5,0-1.43.67-1.37a.87.87,0,0,1,.32.09l0-.18c-.09,0-.12,0-.3,0a.59.59,0,0,0-.31-.07c0,.16-.1.09-.25.1s-.06,0-.08,0Z"/><path class="cls-12" d="M15.1,21.14c.06.07.08.05.05.16a.28.28,0,0,0,.24-.13.27.27,0,0,0-.06-.29c-.14,0-.16.22-.23.26Z"/><path class="cls-2" d="M20.11,19a.12.12,0,0,0,0,.12.28.28,0,0,0,.13,0c0,.15.09.11.21.1s-.06-.15-.14-.15-.18-.1-.23-.06Z"/><path class="cls-2" d="M19.73,19.24c-.07-.11-.36-.07-.35.09s.12,0,.16,0S19.71,19.34,19.73,19.24Z"/><path class="cls-12" d="M16.9,20.77c.09,0,.1.05.14.11a1,1,0,0,1,.09.18c.11-.17-.16-.45-.22-.5v.21Z"/><path class="cls-2" d="M19.76,18.73a.13.13,0,0,0,.09,0c0-.09-.14-.13-.23-.11s0,.27.09.22S19.74,18.77,19.76,18.73Z"/><path class="cls-2" d="M19.46,19.64a.22.22,0,0,0,.22,0c0-.07-.05-.11-.14-.08S19.44,19.57,19.46,19.64Z"/><path class="cls-2" d="M20.3,18.84a.13.13,0,0,0,.18.1v0c0-.12-.11-.12-.19-.08Z"/><path class="cls-2" d="M20,19.14c-.07-.07-.2,0-.19.06S20.05,19.27,20,19.14Z"/><path class="cls-12" d="M16.87,21.15h.05l.06,0a1.44,1.44,0,0,0-.09-.24Z"/><path class="cls-2" d="M19.7,19.16s0,0,0-.05a.11.11,0,0,0,0-.08s0,0,0,0a.08.08,0,0,0,0,.14Z"/><path class="cls-13" d="M17,22.48s0,.05.07,0,.05-.16-.06-.09Z"/><path class="cls-7" d="M16.77,22.44a.06.06,0,0,0,.12,0A.06.06,0,0,0,16.77,22.44Z"/><path class="cls-13" d="M17.24,22.43c-.07.12.14.16.09,0Z"/><path class="cls-14" d="M17.45,22.49c0,.06.07.07.12,0s0-.07-.09-.07a.07.07,0,0,0,0,.06Z"/><path class="cls-2" d="M20,19.53a.13.13,0,0,0,.11,0c0-.06,0-.07-.07-.07S20,19.46,20,19.53Z"/><path class="cls-7" d="M20.46,22.27c-.06.05,0,.12.06.1S20.54,22.27,20.46,22.27Z"/><path class="cls-7" d="M20.25,22.27c0,.05,0,.1.07.1S20.34,22.24,20.25,22.27Z"/><path class="cls-7" d="M20.64,22.28c0,.06,0,.13.06.09S20.73,22.26,20.64,22.28Z"/><path class="cls-13" d="M20.13,22.28c-.11-.08-.14.1,0,.08Z"/><path class="cls-15" d="M14.58,19.65l0,0,0-.06c0-.05,0-.05,0-.08A.48.48,0,0,0,14.58,19.65Z"/><path class="cls-16" d="M17,21.48a.18.18,0,0,0-.06-.14Z"/><path class="cls-17" d="M14.5,20.86s0,0,0-.06,0,0,0,0,0,0,0,0Z"/><path class="cls-2" d="M18.2,28.29a8.12,8.12,0,0,1,2,.2,6.67,6.67,0,0,1,3.27,1.78,7.83,7.83,0,0,1,.51.61c.08.11.14.21.22.33.4.65-.5,1.37-1.13.78L23,31.86a7.7,7.7,0,0,0-.6-.54A6.4,6.4,0,0,0,18.68,30a6.51,6.51,0,0,0-3.58.91,6.1,6.1,0,0,0-1.25,1,.7.7,0,0,1-.8.26.71.71,0,0,1-.52-.59,1.52,1.52,0,0,1,.37-.75A5.36,5.36,0,0,1,14,29.71a7.13,7.13,0,0,1,4.18-1.42ZM14.62,4.42h.16a3.74,3.74,0,0,1,.88.21,1.29,1.29,0,0,1-.19.39,1.82,1.82,0,0,1-.59.55,1.73,1.73,0,0,1-.39.18,2.42,2.42,0,0,1-1,.08A3,3,0,0,1,13,5.72c-.15-.06-.15,0-.29,0l-.09.06a.53.53,0,0,1,.17,0,6,6,0,0,0,.84.17c.15,0,.16.08.19.21a1.41,1.41,0,0,1-.5.41,1.24,1.24,0,0,1-.2.1,4.88,4.88,0,0,1-.89.29,3.29,3.29,0,0,1-1.09,0A2.32,2.32,0,0,1,10.68,7s0,0-.1,0L10.5,7a1.12,1.12,0,0,0-.16.13c.13,0,.24,0,.37,0l1.17.07c0,.08.12.14.06.23a1.65,1.65,0,0,1-.33.41c0,.06-.14.12-.18.18s.15-.07.22-.07.12.09.17.12c0,.26-.2.85-.2,1L11.79,9A1.6,1.6,0,0,1,12,8.3a1.88,1.88,0,0,1,.88-.86,1.8,1.8,0,0,1,.68-.2c0,.07.09.1.1.16L13.52,8c.38-.2.06-.05.48-.47A1.71,1.71,0,0,1,15.38,7a2.93,2.93,0,0,1,.75.18,2,2,0,0,1-.15.33,1.69,1.69,0,0,1-.8.64,2,2,0,0,1-.83.1c-.41,0-.47-.2-.66-.1l-.07,0c.15,0,.27.08.44.11l.23,0a1.81,1.81,0,0,0,.23,0l.07.21a1.92,1.92,0,0,1-.51.38,2.09,2.09,0,0,1-.3.14,3.12,3.12,0,0,1-1.54.19l-.18-.05-.15-.06a.92.92,0,0,1-.21.13c.06.08.5.08.59.1l.32,0c.1,0,.24,0,.34,0a.4.4,0,0,0,.08.16c0,.15-.15.23-.17.3a.24.24,0,0,0,.12,0,5.73,5.73,0,0,1-.19,1c.21-.1,0-.36.4-.89a1.49,1.49,0,0,1,.42-.41,1.1,1.1,0,0,1,.26-.15,1,1,0,0,1,.32-.11,2.14,2.14,0,0,1,.35-.06,3.62,3.62,0,0,0-.16.63.17.17,0,0,0,.13-.08,1.25,1.25,0,0,1,.26-.33,1.42,1.42,0,0,1,.48-.31,1.7,1.7,0,0,1,1.29.09.84.84,0,0,0-.06.14.91.91,0,0,0-.07.14,2,2,0,0,1-.17.23l-.1.1a1.5,1.5,0,0,1-1.21.32,1.67,1.67,0,0,1-.31-.09c-.08,0,0,0-.13,0v0a.87.87,0,0,1,.22.05l.65.12a2,2,0,0,1-1.81.82c-.41,0-.53-.21-.67,0l.27,0,.89,0a.61.61,0,0,1,0,.12.49.49,0,0,1,0,.11c0,.08-.09.13-.13.2s.09.05.08.14a1.46,1.46,0,0,0,0,.22,2.13,2.13,0,0,1,.31-.52,1.39,1.39,0,0,1,.87-.48.41.41,0,0,0,.12.14l-.08.38c.05,0,.06-.05.08-.09a1.22,1.22,0,0,1,1.58-.5c.06,0,.05,0,.12,0a.93.93,0,0,1-.18.39,1.24,1.24,0,0,1-.28.28,1.28,1.28,0,0,1-.89.19h0c.18.06.19,0,.25.24a1.69,1.69,0,0,1-.83.49,1.79,1.79,0,0,1-.59.08c-.28,0-.44-.15-.51,0a4.19,4.19,0,0,0,.76.07,1,1,0,0,1,.09.13c.06.13-.27.44-.39.53a1.62,1.62,0,0,1-.81.33,1.92,1.92,0,0,1-.68-.06.44.44,0,0,0-.11.09,1,1,0,0,1-.08.11,3.57,3.57,0,0,0,.77-.08c.06.09.16.1.11.22a1.56,1.56,0,0,1-1,.93,1.64,1.64,0,0,1-.5.08.79.79,0,0,0-.17,0c0,.12-.15.22-.17.34A2.16,2.16,0,0,1,12,15.2a2.64,2.64,0,0,1,.3-.07l.13.14a1.16,1.16,0,0,1-.22.46l-.08.1a2.46,2.46,0,0,1-.44.41c-.42.3-.61.2-.63.4a3.62,3.62,0,0,0,.43-.24l.12-.09.18.09a1.83,1.83,0,0,1-.43,1,2.33,2.33,0,0,1-.62.59c-.06,0-.07,0-.09.11a2.15,2.15,0,0,0-.05.34l.06-.05a2.21,2.21,0,0,0,.38-.43,1.14,1.14,0,0,1,.22.07,2.67,2.67,0,0,1-.13,1,3.82,3.82,0,0,1-.36.73c.06,0,.07,0,.15,0a2,2,0,0,1,.21,1,2.24,2.24,0,0,1-.22.94c.05,0,.14,0,.2-.05a2,2,0,0,1,.19,1.11,1.78,1.78,0,0,1-.25.77c0,.06,0,.15.06.24h0a2,2,0,0,0,.17-.46c0-.09,0,0,0-.08a1.06,1.06,0,0,1,.19-.06,4,4,0,0,1,.24.51,2.23,2.23,0,0,1,.06,1.3c0,.15-.1.12,0,.25l.14.22v-.24c0-.1-.06-.34,0-.43a.18.18,0,0,1,.21-.07l.07.05a1.86,1.86,0,0,1,.59,1.44,1.43,1.43,0,0,1-.07.38.47.47,0,0,1,.14.14,1.06,1.06,0,0,0,.15.15c0-.18-.1-.37-.1-.55s.12-.13.2-.1a.88.88,0,0,1,.21.12,1.3,1.3,0,0,1,.32.34,1.64,1.64,0,0,1,.28,1c.06,0,0,0,.09.06l.25.18a2.3,2.3,0,0,0-.12-.34l-.1-.34a1,1,0,0,1,.51.12,1.64,1.64,0,0,1,.35.29l.14.18a1.24,1.24,0,0,1,.23.69.59.59,0,0,0,.19,0,7.23,7.23,0,0,1,2-.49,8.29,8.29,0,0,1,.85-.06,9,9,0,0,1,2.41.33,3.59,3.59,0,0,1,.35.12,3,3,0,0,1,.32.12,1.23,1.23,0,0,1,.33-.78l.23-.23.18-.12a.93.93,0,0,1,.5-.12.53.53,0,0,0-.05.19,4.84,4.84,0,0,0-.18.49l.18-.12.08-.06c.05,0,0,0,.09-.06a1.65,1.65,0,0,1,.28-1,1.52,1.52,0,0,1,.33-.34c.29-.19.17-.13.4,0,0,.19-.1.36-.11.55.12-.08.18-.22.29-.29a1.51,1.51,0,0,1-.07-.4,2,2,0,0,1,.3-1.07,1.61,1.61,0,0,1,.32-.37s.08-.07.13,0,.15.11.15.32l0,.43.14-.23c.07-.11,0-.12,0-.26A2.19,2.19,0,0,1,25,23.6a3.85,3.85,0,0,1,.24-.5l.2.06s0,.17.11.38a.79.79,0,0,1,.08.16h0c0-.1.08-.19.05-.26a.54.54,0,0,1-.06-.11,2.06,2.06,0,0,1,0-1.75c.05,0,.14,0,.2.05a1.2,1.2,0,0,0-.09-.21,2.16,2.16,0,0,1,.07-1.69.7.7,0,0,1,.16,0,3.07,3.07,0,0,1-.48-1.18,4.52,4.52,0,0,1,0-.53.81.81,0,0,1,.22-.07l.21.25a1.31,1.31,0,0,0,.24.23c0-.08,0-.27-.06-.35S26,18,26,18a2.38,2.38,0,0,1-1-1.6.64.64,0,0,0,.19-.08l.12.1c.14.09.29.15.43.23,0-.12-.09-.13-.19-.17a1.85,1.85,0,0,1-.44-.23,1.82,1.82,0,0,1-.75-1l.14-.13.62.12c0-.13-.14-.22-.17-.34a2.24,2.24,0,0,1-.63-.05,1.55,1.55,0,0,1-1.08-1l.14-.14a3,3,0,0,0,.77.09,1,1,0,0,0-.19-.21,1.6,1.6,0,0,1-.33.07,2.29,2.29,0,0,1-.37,0,1.75,1.75,0,0,1-.92-.43s-.05-.06-.09-.09c-.22-.26-.22-.27-.09-.46a4.22,4.22,0,0,0,.77-.07c-.06-.1-.13,0-.24,0a1.91,1.91,0,0,1-.86,0,1.85,1.85,0,0,1-.47-.2c-.2-.12-.23-.21-.36-.29a.44.44,0,0,1,.08-.2s.06,0,.1,0l.11,0a1.75,1.75,0,0,1-.51,0,1.13,1.13,0,0,1-.39-.17,1.12,1.12,0,0,1-.45-.66l.25-.09a1.19,1.19,0,0,1,1.38.46c.07.09.08.16.15.18l-.09-.38a.41.41,0,0,0,.12-.14,1,1,0,0,1,.42.13,1.23,1.23,0,0,1,.47.36,1.38,1.38,0,0,1,.25.42l0,.09a1.46,1.46,0,0,0,0-.22c0-.09,0-.08.08-.14a2.14,2.14,0,0,1-.22-.43,5.82,5.82,0,0,0,.6,0l.56-.05c-.14-.21-.24,0-.68,0a2.45,2.45,0,0,1-1.37-.37,1.69,1.69,0,0,1-.25-.2l-.1-.13a.5.5,0,0,1-.08-.12c.17,0,.82-.17.88-.17v0c-.1,0-.05-.05-.15,0a.38.38,0,0,1-.15,0,1.06,1.06,0,0,1-.35.05,1.41,1.41,0,0,1-.91-.26,1.24,1.24,0,0,1-.21-.18,2.05,2.05,0,0,1-.29-.5A1.55,1.55,0,0,1,22,9.45c.26.27.23.38.38.41a3.62,3.62,0,0,0-.16-.63,1.86,1.86,0,0,1,1.07.42l.21.22a1.33,1.33,0,0,1,.23.38c.17.39.07.51.24.6a6.92,6.92,0,0,1-.19-1,.24.24,0,0,0,.12,0,.67.67,0,0,0-.09-.14c-.15-.23,0-.15,0-.32.1,0,.24,0,.33,0l.33,0c.09,0,.53,0,.58-.1s-.09-.07-.15-.1-.1,0-.18,0a2.56,2.56,0,0,1-1.29,0A3,3,0,0,1,22.71,9c-.44-.22-.38-.29-.56-.41a1.18,1.18,0,0,0,.07-.2,7.36,7.36,0,0,0,.91-.19L23,8.12a2.5,2.5,0,0,1-1,.13,1.62,1.62,0,0,1-1.18-.74,1.59,1.59,0,0,1-.16-.32l.18-.06a1.93,1.93,0,0,1,1.4,0,1.63,1.63,0,0,1,.57.38c.43.44.07.26.47.47l-.09-.41c0-.15-.07-.15,0-.25s0,0,.05-.08a2.06,2.06,0,0,1,1.2.56A1.93,1.93,0,0,1,25,9l.17.12A4.52,4.52,0,0,0,25,8.64c0-.14-.08-.35-.1-.49S25,8,25.09,8s.15.06.23.07S25,7.84,25,7.73c-.21-.28-.21-.25-.08-.45.27,0,.55,0,.81,0s.49-.08.73-.08a.48.48,0,0,0-.11-.09c-.09-.07-.15-.15-.25-.11a3.38,3.38,0,0,1-2.95-.54c-.06,0-.18-.12-.17-.21A.39.39,0,0,1,23,6.06s.71-.15.82-.17a1.18,1.18,0,0,1,.31-.08l-.05,0c-.17-.09-.2-.11-.34,0a2.3,2.3,0,0,1-1.87-.15,1.91,1.91,0,0,1-.32-.24,1.6,1.6,0,0,1-.45-.7l.22-.07a2.34,2.34,0,0,1,1.65,0,1.46,1.46,0,0,1,.52.32l.22.21c.42.49.07.21.51.45,0-.12-.17-.67-.17-.7s.08-.13.11-.17a2.32,2.32,0,0,1,1.23.5,2.25,2.25,0,0,1,.73,1c.2.58-.05.45.39.74a9.73,9.73,0,0,1-.26-1.2l.14-.1a2.43,2.43,0,0,1,.49.18,2.28,2.28,0,0,1,1,.91,2.22,2.22,0,0,1,.2.47,2.52,2.52,0,0,1,.09.56c0,.11,0,.59,0,.62a2.51,2.51,0,0,0,.33.32c0-.17,0-.33,0-.5s0-.31,0-.49c.2-.06.08-.18.45.06a2.3,2.3,0,0,1,.95,1.09,3.24,3.24,0,0,1,0,1.58l.3.46,0,0c0-.19,0-.37,0-.55s0-.33,0-.51c.25-.06.12-.14.39.07l.16.15a2.32,2.32,0,0,1,.6,2.74c-.07.18-.16.24-.08.38s0,0,0,0a6.32,6.32,0,0,0,.36-1.09l.21-.07a7.54,7.54,0,0,1,.45.61,2.4,2.4,0,0,1-.28,2.76s0,.05,0,.11l.14.53,0,0a7,7,0,0,0,.31-1.13s0-.11.23-.11A2.85,2.85,0,0,1,33,17.89a2.56,2.56,0,0,1-.59.73v.58l.33-.27.07-.05a1.89,1.89,0,0,0,.53-.64c.28,0,.25,0,.31.41A2.7,2.7,0,0,1,33,20.76a5.56,5.56,0,0,1-.52.54c-.37.37-.26.05-.4.65a5.56,5.56,0,0,0,.92-.82,1.42,1.42,0,0,1,.22.07,4.14,4.14,0,0,1,0,.61,2.76,2.76,0,0,1-1.15,1.75l-.18.12a3.65,3.65,0,0,0-.43.27l-.17.41.26-.17c.19-.14.3-.31.41-.28s.15.05.15.16a2.3,2.3,0,0,1-.17.88,2.45,2.45,0,0,1-1,1.1,2.26,2.26,0,0,1-.26.16l-.3.13c-.11,0-.2,0-.26.14s-.31.43-.33.5a1.7,1.7,0,0,0,.24-.09,3.54,3.54,0,0,0,.62-.3l.19.1a1.78,1.78,0,0,1-.66,1.24l-.09.08a2.86,2.86,0,0,1-.66.37,3,3,0,0,1-.79.23c-.09,0-.2,0-.27.08a4.15,4.15,0,0,0-.51.52,3,3,0,0,0,.71-.16l.15.14a1.62,1.62,0,0,1-.2.42l-.13.17-.24.21-.09.06a2.34,2.34,0,0,1-1.16.37c-.74,0-.39-.1-.92.26l-.36.24H26a2.84,2.84,0,0,0,.35,0c0,.06.1.12.12.19a1.61,1.61,0,0,1-.71.68,1.8,1.8,0,0,1-.54.17l-.31,0c-.24,0-.17,0-.31,0a1.12,1.12,0,0,1-1.76.36l-.5-.49-.15-.12a5.68,5.68,0,0,0-1.83-1,6.37,6.37,0,0,0-.91-.23l-.25,0c-.13,0-.58,0-.79,0a5.43,5.43,0,0,0-1.07,0,6,6,0,0,0-2.41,1,5.71,5.71,0,0,0-.48.38l-.14.12a2.35,2.35,0,0,1-.61.53,1.14,1.14,0,0,1-1.5-.55h-.18a.5.5,0,0,1-.18,0l-.32,0a1.92,1.92,0,0,1-.56-.16,1.6,1.6,0,0,1-.75-.7c0-.07.09-.13.12-.19a3.52,3.52,0,0,0,.74,0l-.37-.25c-.51-.3-.16-.23-.64-.23l-.29,0a2.57,2.57,0,0,1-1-.25,1.62,1.62,0,0,1-.83-1l.15-.14a2.77,2.77,0,0,0,.7.16,3.91,3.91,0,0,0-.35-.36c-.1-.1-.15-.2-.29-.22a3.77,3.77,0,0,1-.7-.15l-.25-.1a2.54,2.54,0,0,1-1-.72,1.66,1.66,0,0,1-.4-1l.19-.1a3.78,3.78,0,0,0,.86.4c0-.07-.24-.36-.28-.43s-.07-.13-.18-.17l-.24-.09a2.72,2.72,0,0,1-.84-.55,3.8,3.8,0,0,1-.33-.37,2.2,2.2,0,0,1-.41-1.32A.14.14,0,0,1,4.71,24c.14-.07.18,0,.29.07a3.19,3.19,0,0,0,.47.35,1.25,1.25,0,0,0-.09-.25c0-.08,0-.17-.13-.21A3.67,3.67,0,0,1,4,22.82a2.23,2.23,0,0,1-.34-.67,2.13,2.13,0,0,1-.08-.91c0-.06,0,0,.1-.07l.12,0a5.63,5.63,0,0,0,.93.82c0-.1-.05-.2-.06-.3s0-.08-.07-.12-.32-.27-.47-.42a3,3,0,0,1-1-2.48c0-.17,0-.36.14-.39a1,1,0,0,1,.17,0,3,3,0,0,0,.92.95v-.58a2.68,2.68,0,0,1-.59-.74,2.15,2.15,0,0,1-.21-.46,2.89,2.89,0,0,1,.42-2.6c.23,0,.22.07.24.13a7.24,7.24,0,0,0,.28,1l0,.12s0,0,0,0l.11-.58c0-.06-.1-.17-.13-.22A2.81,2.81,0,0,1,4,14.1a2.18,2.18,0,0,1,.21-1.19,2.38,2.38,0,0,1,.25-.44l.31-.38.2.06a6.42,6.42,0,0,0,.36,1.1l0,0c.07-.14,0-.22-.09-.4a3.37,3.37,0,0,1-.15-.48,2.27,2.27,0,0,1,.2-1.56,1.92,1.92,0,0,1,.25-.38l.31-.32c.43-.38.28-.27.54-.21,0,.18,0,.35.06.53s0,.35,0,.53l.14-.2c.29-.44.2-.22.13-.72a2.1,2.1,0,0,1,.67-2l.19-.16c.54-.4.46-.24.65-.19,0,.19,0,.33,0,.51s0,.31,0,.48a3.43,3.43,0,0,0,.33-.33A2.49,2.49,0,0,1,9.47,6l.41-.24a2.74,2.74,0,0,1,.48-.17l.07,0,.07,0a3,3,0,0,1-.11.61l-.15.57c.07,0,.12-.07.18-.11s.08,0,.1-.19a2.16,2.16,0,0,1,.56-1.14,2.68,2.68,0,0,1,.3-.28,2.41,2.41,0,0,1,1.21-.49s.11.12.11.17-.15.59-.16.71c.18-.1.21-.05.33-.24a1.9,1.9,0,0,1,.41-.44,2,2,0,0,1,1.33-.47Zm9.74,26.29c.07-.18.28-.23.5-.4s.15-.18.22-.23A1.52,1.52,0,0,1,25.4,30c0,.16-.16.37-.23.53a1.66,1.66,0,0,0-.14.63,10.66,10.66,0,0,0,1.13,0l-.06.08L26,31.3a1.42,1.42,0,0,1-.46.28,2,2,0,0,1-.86.13,1.13,1.13,0,0,0-.09-.58,4.32,4.32,0,0,0-.27-.42Zm-12.64.41A3.3,3.3,0,0,0,11.35,30a1.11,1.11,0,0,1,.35.14,1.27,1.27,0,0,0,.39.35s.12.05.15.08a1.15,1.15,0,0,1,.21.27c-.12.29-.33.35-.29.91a1.81,1.81,0,0,1-1.52-.48l-.05-.08A10.66,10.66,0,0,0,11.72,31.12Zm16.17-1.91Zm-19,0ZM26.14,30c0,.37.14.22-.31.52l-.26.16-.27.16c0-.21.4-.84.43-1.16-.49,0-.6.22-.65,0l-.27,0c-.1,0-.22,0-.31,0l0,0,.5-.34c.09-.05.48,0,.85-.08l.24-.07.22-.09a2,2,0,0,0-.21.85ZM10.4,29.14a3.39,3.39,0,0,0,1.3.24l.55.37c-.09,0-.21,0-.31,0l-.27,0c-.05.18-.16,0-.65,0,0,.32.41.95.43,1.16l-.86-.53a1.91,1.91,0,0,0-.11-1,1,1,0,0,1,0-.1.15.15,0,0,0,0,0l0-.05Zm13,.48a2.32,2.32,0,0,1,.23-.14c.41-.25.31-.48.61-.51a2.74,2.74,0,0,0-.3,1c.32,0,.6,0,.92,0a.4.4,0,0,1-.13.16,1.56,1.56,0,0,1-.57.26l-.57-.6c-.07-.08-.15-.12-.19-.18ZM12.83,30a2.68,2.68,0,0,0-.3-1c.25,0,.24.21.42.38a1.66,1.66,0,0,0,.24.17c.13.07.16,0,.23.16s-.43.44-.58.61-.06.14-.18.12a1.53,1.53,0,0,1-.38-.12A.89.89,0,0,1,11.9,30a7.23,7.23,0,0,0,.93,0Zm9.32-1.18a.31.31,0,0,0,.11,0l0,.07Zm-7.66,0a.9.9,0,0,0,.24,0l-.19.1Zm10.38.45-.33.22a2.84,2.84,0,0,1-.35.22c0-.06.06-.16.09-.23a3.68,3.68,0,0,0,.27-.74c-.55,0-.38.18-1,.18l.27-.2c.16-.12.12-.1.39-.1a1.84,1.84,0,0,0,.79-.19c0,.17-.06.16-.1.38a1.74,1.74,0,0,0,0,.46Zm-13.08-.84a1.84,1.84,0,0,0,.79.19c.28,0,.2,0,.38.09l.28.21c-.66,0-.49-.19-1-.19a5,5,0,0,0,.31.86l.05.12c-.08,0-.6-.39-.68-.44a1.78,1.78,0,0,0-.09-.84Zm14.59,1.81A1.85,1.85,0,0,1,26.69,29a1.92,1.92,0,0,1,.77-.7c-.1.58-.23.54-.16,1.21a6.47,6.47,0,0,0,1.12-.17,1.13,1.13,0,0,1-.33.41,2.39,2.39,0,0,1-1.7.42Zm-18-.83a6.47,6.47,0,0,0,1.12.17,3.41,3.41,0,0,0-.16-1.21,2,2,0,0,1,1,1.22,1.45,1.45,0,0,1,.06.62v0a2.16,2.16,0,0,1-.67,0,2.14,2.14,0,0,1-1-.41,1.19,1.19,0,0,1-.32-.41Zm14.11-.41c.2-.37.1-.2.34-.38s.17-.27.4-.34a2.62,2.62,0,0,0-.23.83,3.15,3.15,0,0,0,.75,0,.68.68,0,0,1-.3.25c-.22.1-.25.1-.35,0S22.52,29,22.44,28.94Zm-8.64.13a2.88,2.88,0,0,0-.23-.85.38.38,0,0,1,.23.17c.25.29.28.17.41.37a1.05,1.05,0,0,1,.13.26,1.49,1.49,0,0,0-.31.2c-.28.2-.29.31-.69.11a.68.68,0,0,1-.29-.23l.75,0Zm10-1.42-.07.33c0,.1,0,.33,0,.41a2.67,2.67,0,0,1-.49.35.84.84,0,0,1,.08-.2,3.23,3.23,0,0,0,.21-.62.93.93,0,0,0-.42.08c-.16.06-.05,0-.18,0a2.27,2.27,0,0,0-.24,0l.21-.16c.19-.16.21,0,.64-.12Zm-10.88,0a1.86,1.86,0,0,0,.62.13c.3,0,.17,0,.41.16a.39.39,0,0,1,.1.08A.4.4,0,0,1,14,28c-.32,0-.1.06-.29,0a1,1,0,0,0-.43-.08,2,2,0,0,0,.13.42l.16.4a1.32,1.32,0,0,1-.25-.16,1.75,1.75,0,0,0-.25-.16,1.94,1.94,0,0,0,0-.59,1.67,1.67,0,0,1-.05-.18Zm-1.27,1.46c-.34.12-1.43-.12-1.65-.66.23,0,.54.1.92.14a2.9,2.9,0,0,0-.12-1,1,1,0,0,1,.35.26,1.63,1.63,0,0,1,.5,1.28Zm12.15-1.46Zm-10.88,0Zm12.16,1.46a1.53,1.53,0,0,1,.24-.95,1.64,1.64,0,0,1,.61-.59,2.87,2.87,0,0,0-.12,1c.36,0,.73-.12.92-.14a1.19,1.19,0,0,1-.63.53,2.08,2.08,0,0,1-1,.13Zm-3.42-.64a1.08,1.08,0,0,1,.22-.59,1.13,1.13,0,0,1,.44-.36,2,2,0,0,0-.19.72l.61,0a1,1,0,0,1-.95.25l-.13,0Zm-7.07-.24a1.86,1.86,0,0,0-.18-.71,1.19,1.19,0,0,1,.66.95.53.53,0,0,1-.15.05,1,1,0,0,1-.93-.26Zm-3.5-.77Zm17,.34a2.06,2.06,0,0,0,.06.52c.07.25.09.17-.08.35l-.14.14-.44.39c0-.31.22-.77.22-1.23a1.47,1.47,0,0,0-.67.31l-.17-.14a2.56,2.56,0,0,1-.53.14,3.69,3.69,0,0,1,.34-.35c.2-.2.08-.06.5-.18a2.8,2.8,0,0,0,.51-.18l.23-.11a2.43,2.43,0,0,1,.22-.14,4.2,4.2,0,0,0-.05.48ZM8.59,27.32l.32.19.06,0a3.06,3.06,0,0,0,.84.27c.18,0,.12,0,.23.12a3.85,3.85,0,0,1,.35.35,2.05,2.05,0,0,1-.53-.14l-.18.14A1.43,1.43,0,0,0,9,28c0,.46.22.92.22,1.24a9.66,9.66,0,0,1-.72-.69,2.62,2.62,0,0,0,.12-.72,3.23,3.23,0,0,0-.05-.47ZM24,28.3a1.28,1.28,0,0,1,.18-.78,1.55,1.55,0,0,1,.47-.51c0,.15-.18.6-.08.86a3.67,3.67,0,0,0,.74-.11A1.34,1.34,0,0,1,24,28.3Zm-11.74-.43c.09-.24-.06-.63-.09-.86a1.45,1.45,0,0,1,.65,1.29c-.18.09-1.14-.07-1.3-.53a4.54,4.54,0,0,0,.74.1ZM26.5,27a2.77,2.77,0,0,0,.08.72l-.54.55c0-.26.18-.65.18-1.05a1.55,1.55,0,0,0-.46.19l-.13.09a.29.29,0,0,1,0-.1,2.31,2.31,0,0,0-.28.1,1.36,1.36,0,0,1-.32.08c.06-.1.18-.19.26-.3s.25-.07.44-.13l.2-.07a1.35,1.35,0,0,0,.38-.19,1.74,1.74,0,0,1,.18-.11c0,.1,0,.12,0,.22Zm-15.4.48a2.18,2.18,0,0,0-.58-.26c0,.36.19.84.19,1.05a7.14,7.14,0,0,1-.55-.55l.09-.43a3.86,3.86,0,0,0,0-.51.82.82,0,0,1,.17.11l.18.11.19.08a2.23,2.23,0,0,0,.44.13c.1,0,.15,0,.21.07a3.48,3.48,0,0,1,.26.3,3.24,3.24,0,0,1-.59-.18s0,0,0,.08ZM23,27.55a1.28,1.28,0,0,1,.5-1.08,2.2,2.2,0,0,0-.07.74l.6-.1c0,.12-.24.27-.39.34a1.35,1.35,0,0,1-.64.1Zm-9.73-.35a2.17,2.17,0,0,0-.06-.73,1.24,1.24,0,0,1,.5,1.08,1.56,1.56,0,0,1-.65-.1c-.14-.07-.35-.22-.38-.34l.59.09Zm13.52.38a1.74,1.74,0,0,1,.05-1.19,2.06,2.06,0,0,1,.58-.83c0,.21,0,.44,0,.65a2.26,2.26,0,0,0,.09.56c.4-.1.85-.35,1-.4a1.42,1.42,0,0,1-.65.83,2.58,2.58,0,0,1-1.09.38ZM9.22,26.77a3,3,0,0,0,.1-.58c0-.2,0-.43,0-.63a2,2,0,0,1,.59.84A1.86,1.86,0,0,1,10,27.59a2.57,2.57,0,0,1-1.12-.39,1.52,1.52,0,0,1-.64-.83l.51.21a4.76,4.76,0,0,0,.53.19Zm-1.15-.09a1.76,1.76,0,0,1,.33.95,2.15,2.15,0,0,1-.09.77A3.23,3.23,0,0,1,7,27.94a1.74,1.74,0,0,1-.79-1c.1,0,.2.09.3.13a6.91,6.91,0,0,0,1,.34A3.87,3.87,0,0,0,7.5,26a1.68,1.68,0,0,1,.42.42,1.84,1.84,0,0,1,.15.28Zm17-.13a2.18,2.18,0,0,0,.08.53l-.41.43c0-.12.12-.5.16-.87a1,1,0,0,0-.44.18,1.46,1.46,0,0,0-.13.09c-.05,0-.09-.1-.16-.09s-.12.05-.21.06l.2-.24s.29-.08.35-.1a1.26,1.26,0,0,0,.31-.13,1.36,1.36,0,0,0,.28-.18c0,.1,0,.2,0,.32Zm-13.45-.32a1.86,1.86,0,0,0,.58.31l.36.09.21.25c-.09,0-.15-.05-.22-.06s-.11.06-.16.09a1.18,1.18,0,0,0-.56-.27,2,2,0,0,0,0,.23c0,.21.13.52.13.64a2.13,2.13,0,0,1-.3-.31c0-.05-.08-.07-.11-.12a1.55,1.55,0,0,0,.05-.85Zm16.8,2.17A2.12,2.12,0,0,1,28.52,27c.05-.1.1-.16.16-.27a1.83,1.83,0,0,1,.14-.28,1.9,1.9,0,0,1,.43-.42,3.46,3.46,0,0,0,.09,1.41,4.53,4.53,0,0,0,.65-.22l.3-.12c.1,0,.2-.1.29-.13a1.69,1.69,0,0,1-.79,1,3.22,3.22,0,0,1-1.36.45ZM26.76,26l0,0,0,0a1.64,1.64,0,0,1-1.4,1,1.63,1.63,0,0,1,.05-1,1.73,1.73,0,0,1,.45-.7,3.2,3.2,0,0,0,.08,1c.24-.05.66-.28.81-.32ZM10,26l.39.17a2.67,2.67,0,0,0,.42.15,3.52,3.52,0,0,0,.08-1,1.44,1.44,0,0,1,.26.32,2.25,2.25,0,0,1,.19.38,1.79,1.79,0,0,1,.05,1c-.5,0-1.3-.46-1.4-1l0,0,0,0Zm16.4-.1Zm-16,0Zm14.94-.31,0,0,0,0a1.36,1.36,0,0,1-1.11.81A1.59,1.59,0,0,1,24.56,25a2.48,2.48,0,0,0,.08.87L25,25.7C25.08,25.66,25.18,25.6,25.29,25.56Zm-13.83,0c.13.05.41.19.65.27a2.29,2.29,0,0,0,.07-.87,1.57,1.57,0,0,1,.37,1.42,1.35,1.35,0,0,1-1.1-.81l0,0Zm18.3-1a3.64,3.64,0,0,0-.06,1,2.16,2.16,0,0,0,.16.63c.1.24.15.11,0,.37a4.65,4.65,0,0,1-.37.5c0-.07,0-.07,0-.15v-.38a1.11,1.11,0,0,1,0-.17V26c0-.14,0-.23,0-.36a1.37,1.37,0,0,0-.67.5c-.25,0,.1-.16-.39.08l-.2.09-.21.08.26-.4c.05-.07,0,0,.15-.08a2.3,2.3,0,0,0,1.33-1.23.06.06,0,0,1,0,0l0,0ZM7,24.55a2.12,2.12,0,0,0,.66.9,2.23,2.23,0,0,0,.7.41c.18.07.12,0,.24.21s.13.18.18.28l-.41-.18c-.49-.24-.15-.1-.4-.08,0-.07-.14-.18-.2-.22a1.21,1.21,0,0,0-.46-.28c0,.13,0,.21,0,.35l0,.53v.18l0,.36a5.34,5.34,0,0,1-.48-.68L7,26A2.48,2.48,0,0,0,7,24.78,2.23,2.23,0,0,1,7,24.55Zm22.78,0c0-.09,0,0,0-.05S29.78,24.52,29.76,24.55ZM7,24.55s0,0,0-.05S7,24.48,7,24.55Zm22.8-.09s0,0,0,0S29.78,24.51,29.78,24.46ZM7,24.46s0,0,0,0S7,24.51,7,24.46ZM29.8,24.4s0,0,0,0S29.8,24.44,29.8,24.4Zm-22.87,0s0,0,0,0S6.93,24.44,6.93,24.4Zm-1.19.38A4.08,4.08,0,0,0,6.26,24c0-.09.08-.24.12-.31a2.61,2.61,0,0,1,.26.53A2.86,2.86,0,0,1,6.8,25.6a2.32,2.32,0,0,1-.19.58,2.87,2.87,0,0,1-1.15-.69,1.93,1.93,0,0,1-.57-1.25l.42.29C5.44,24.61,5.6,24.71,5.74,24.78Zm24.09-.47c0,.09,0,0,0,.05S29.82,24.34,29.83,24.31Zm-22.92,0s0,0,0,.05S6.92,24.38,6.91,24.31Zm23.23,1.87a2.4,2.4,0,0,1-.19-.59,2.84,2.84,0,0,1,.16-1.36,2.7,2.7,0,0,1,.26-.51c0,.05.09.24.12.31a3.44,3.44,0,0,0,.52.75l.44-.25.4-.29a1.87,1.87,0,0,1-.57,1.26,2.71,2.71,0,0,1-1.14.68Zm-4-1.53a1.64,1.64,0,0,0,.15.7c.05.13.06.09-.06.27a1.56,1.56,0,0,1-.17.25l0-.72c0-.12,0-.17,0-.29a1,1,0,0,0-.55.43c-.16-.09,0-.11-.48.12,0-.09.1-.23.19-.26a1.68,1.68,0,0,0,.87-.79l.05-.1a.08.08,0,0,0,0-.05l0,0s0,0,0,0,0,.17,0,.24a2.11,2.11,0,0,0,0,.25Zm-15.65-.49.05.09a1.67,1.67,0,0,0,.92.89c.07,0,.06,0,.09.07a1.28,1.28,0,0,1,.11.2c-.44-.23-.32-.21-.48-.12a1.34,1.34,0,0,0-.55-.45l0,.36c0,.25,0,.43,0,.67a3,3,0,0,1-.25-.37c-.07-.13.21-.24.15-1.1,0-.07,0-.16,0-.24Zm17.71,1.51a2.28,2.28,0,0,1,.17-2,2.77,2.77,0,0,0,.53.89,4.7,4.7,0,0,0,.69-.44A1.91,1.91,0,0,1,28.23,25.67ZM7.82,24.52a3,3,0,0,0,.53-.89,2.32,2.32,0,0,1,.17,2.05,2,2,0,0,1-1.4-1.6,4.79,4.79,0,0,0,.7.44Zm18.41-.4s0,0,0,0S26.23,24.17,26.23,24.12Zm-15.72,0s0,0,0,0S10.51,24.17,10.51,24.12Zm15.73-.06s0,0,0,0S26.24,24.1,26.24,24.06Zm-15.75,0s0,0,0,0S10.49,24.1,10.49,24.06ZM26.55,25.3a2,2,0,0,1,.12-1.71,3.6,3.6,0,0,0,.45.75,4.79,4.79,0,0,0,.55-.36,1.63,1.63,0,0,1-1.12,1.32Zm-16.92-1A2.41,2.41,0,0,0,9.88,24l.2-.4a2.08,2.08,0,0,1,.12,1.71A1.64,1.64,0,0,1,9.07,24a4.26,4.26,0,0,0,.56.36ZM26.26,24s0,0,0,0S26.26,24,26.26,24ZM10.47,24s0,0,0,0S10.47,24,10.47,24Zm14.69.93a1.7,1.7,0,0,1,0-1.1l.12-.3a3,3,0,0,0,.36.61c.15-.06.32-.23.44-.29a1.38,1.38,0,0,1-.88,1.08Zm2.24-1.05Zm-16.26.26a3.34,3.34,0,0,0,.36-.61l.07.16c0,.05,0,.1,0,.16a1.58,1.58,0,0,1,0,1.08,1.36,1.36,0,0,1-.88-1.08,3,3,0,0,0,.44.29Zm-1.8-.26Zm20.49.44a1.79,1.79,0,0,0,0-.46c0-.08,0,0,0-.07a.84.84,0,0,0-.17-.05c-.07.05-.14.13-.21.19l-.24.17a1.7,1.7,0,0,1,.12-.3s.08-.05.13-.08a4,4,0,0,0,.62-.46,3.5,3.5,0,0,0,.39-.46,2.78,2.78,0,0,0,.22-.42l0-.12h0v0h0a3.45,3.45,0,0,0,.05.67,2.52,2.52,0,0,0,.36.88s.06.07.06.12-.19.45-.22.5a1.93,1.93,0,0,1-.42-.85c0-.09,0-.13-.07-.16l-.17-.05a4.4,4.4,0,0,0-.39.72l-.11.27Zm-22.92,0-.1-.25a1.56,1.56,0,0,0-.11-.26,2,2,0,0,0-.14-.25,1.76,1.76,0,0,1-.14-.23c-.1,0-.12.05-.22.05a1.41,1.41,0,0,1-.16.57,2.4,2.4,0,0,1-.29.44L5.6,24c-.11-.26-.08-.07.17-.59A2.71,2.71,0,0,0,6,22.23a2.7,2.7,0,0,0,.67,1,2.86,2.86,0,0,0,.71.5.89.89,0,0,1,.16.34c-.37-.24-.43-.45-.62-.31s0,0,0,.07a2.4,2.4,0,0,0,0,.46Zm19.37-.37c0-.21.11-.46-.19-.46,0,0-.17.16-.21.18,0-.16.05-.1.3-.28a2.23,2.23,0,0,0,.55-.63,1.24,1.24,0,0,0,.1-.2l.08-.22a2.15,2.15,0,0,0,.13.88c.15.38.28.33.07.71a1.15,1.15,0,0,1-.25-.67l-.23-.06a3,3,0,0,0-.33.69v0s0,0,0,0ZM9.89,23.25a.85.85,0,0,1-.09.38.7.7,0,0,1-.17.29l-.1-.26c0-.08,0-.08.1-.26a2.19,2.19,0,0,0,.21-1,4.15,4.15,0,0,0,.18.4,1.61,1.61,0,0,0,.24.34,2.26,2.26,0,0,0,.47.4c.1.06.1,0,.14.17l-.13-.11h0s-.05-.07-.07-.07c-.3,0-.19.26-.19.47l-.16-.39a.3.3,0,0,0,0-.1l-.16-.27a.71.71,0,0,1-.22.07Zm16,.05A1.73,1.73,0,0,1,25.72,22a2.35,2.35,0,0,0,.4.56,3.61,3.61,0,0,0,.3-.25l.15-.13a1.79,1.79,0,0,1,.14-.13,1.41,1.41,0,0,1-.31.76,2,2,0,0,1-.24.26,1.29,1.29,0,0,1-.3.22Zm-15.25-.73a1.55,1.55,0,0,0,.23-.27c.07-.1.12-.19.18-.29a1.73,1.73,0,0,1-.15,1.29,1.37,1.37,0,0,1-.3-.22,1.66,1.66,0,0,1-.55-1l.3.27Zm16.78.87a2,2,0,0,1-.25-.74,2,2,0,0,1,.08-.84c.09.14.12.23.22.37a2.92,2.92,0,0,0,.28.32,4.13,4.13,0,0,0,.55-.47l.18-.16a1.83,1.83,0,0,1-.68,1.27,2.49,2.49,0,0,1-.38.25ZM9,22.55a2.08,2.08,0,0,0,.27-.32,3.56,3.56,0,0,0,.23-.37,2.06,2.06,0,0,1,.07.86,1.92,1.92,0,0,1-.25.72,2,2,0,0,1-1.06-1.52l.36.33c.16.14.28.21.38.3Zm20.21.94,0,0a2.21,2.21,0,0,1-.15-1.81,3.2,3.2,0,0,0,.44.65l.09.1a.6.6,0,0,1,.08.08,5,5,0,0,0,.48-.36l.44-.38A1.82,1.82,0,0,1,29.94,23a2.22,2.22,0,0,1-.67.5l0-.05Zm-22.15-1a2.63,2.63,0,0,0,.35-.39,4,4,0,0,0,.27-.44,2.21,2.21,0,0,1,0,1.52.72.72,0,0,1-.09.2.93.93,0,0,1,0,.1l0,.08h0a3.24,3.24,0,0,1-.59-.41s-.06-.07-.1-.1l-.18-.19a1.86,1.86,0,0,1-.44-1.12s.52.45.67.56l.24.18Zm-2.22-.08a2.62,2.62,0,0,0,.42-.45,2.6,2.6,0,0,0,.32-.55,2.48,2.48,0,0,1,.16,1.25,2.31,2.31,0,0,1-.41,1.06,2.65,2.65,0,0,1-1.59-2.2.57.57,0,0,1,.15.12l1,.77Zm26.53,1.31a2.42,2.42,0,0,1-.4-1.06,2.48,2.48,0,0,1,.16-1.25c.05.1.09.2.15.3a3,3,0,0,0,.59.7l1-.77a.53.53,0,0,1,.14-.12,2.64,2.64,0,0,1-1.59,2.2Zm-5.54-2s0,0,.07.09a1,1,0,0,0,.08.11c.13.16.07.05.07.26a.76.76,0,0,1-.18-.33S25.86,21.69,25.85,21.67Zm-15.17.46c0-.21-.06-.1.07-.26s.1-.17.15-.2a1,1,0,0,1-.22.46ZM26.94,22c0-.27,0-.23-.2-.29a5.76,5.76,0,0,1-.43.43c0-.14.06-.13.24-.31l.06-.08a2.31,2.31,0,0,0,.52-.85l0-.09a1.58,1.58,0,0,0,.16.55l.08.16a2.83,2.83,0,0,0,.2.28c0,.05.09.08.1.13a.8.8,0,0,1-.05.21,1.33,1.33,0,0,1-.29-.62,1.42,1.42,0,0,1-.22,0A3.36,3.36,0,0,0,27,22ZM9.38,21.49a1,1,0,0,1-.11.34l-.17.28s0,0,0-.09,0-.11.07-.24l.09-.11a2,2,0,0,0,.36-.89h0l.15.37c.07.12.14.24.21.34s.08.11.12.15l.07.07.06.08a1.66,1.66,0,0,0,.14.13c.07.06.1.06.1.18l-.32-.31a.43.43,0,0,0-.11-.12c-.23.06-.21,0-.21.29a3.36,3.36,0,0,0-.2-.53,1.42,1.42,0,0,1-.22,0Zm17,4.38.18-.31a1.19,1.19,0,0,1,.16-.08l.33-.17a1.93,1.93,0,0,0,.61-.63,1.73,1.73,0,0,0,.2-1.24c-.12.09-.35.4-.48.43a.48.48,0,0,1,.07-.18,2.17,2.17,0,0,0,1.17-2.32l-.43.47-.1.09a1.46,1.46,0,0,1-.19.16c0-.21.09-.21.28-.4l.33-.37a2.83,2.83,0,0,0,.41-.79c0-.06,0-.09.06-.13a2.11,2.11,0,0,0,.55,1.19c.13.14.13.14.06.39,0,.08,0,0,0,.06s-.06-.08-.12-.16a1.33,1.33,0,0,1-.26-.61c-.08,0-.13,0-.22,0a2,2,0,0,0-.25.69,2.48,2.48,0,0,0,0,.86,2.1,2.1,0,0,0,.32.84c.05.08.05.07,0,.15A1.22,1.22,0,0,1,29,24a1,1,0,0,0-.06.18,1.63,1.63,0,0,1-.31-.58c0-.09,0-.17-.05-.26s-.12-.05-.22-.05a.7.7,0,0,1-.1.16,1,1,0,0,0-.1.18,2.94,2.94,0,0,0-.33,1.25,1.84,1.84,0,0,0,.17.89c.06.12.07.09-.1.33a1.65,1.65,0,0,1-.23.32l0-.6c0-.22,0-.4,0-.6-.23,0-.53.38-.58.41V25.5a2,2,0,0,0-.32.21,1.53,1.53,0,0,1-.37.16Zm-17.06-2c-.12,0-.35-.34-.48-.43A1.75,1.75,0,0,0,9.27,25l.11.13.14.12.3.2c.29.17.27,0,.44.31a.65.65,0,0,1,.09.16A1.69,1.69,0,0,1,10,25.7a.78.78,0,0,1-.15-.1,1.06,1.06,0,0,0-.17-.1v.08s-.36-.39-.58-.41c0,.18,0,.34,0,.6l0,.6a1.25,1.25,0,0,1-.23-.31c-.16-.24-.16-.22-.11-.33a1.81,1.81,0,0,0,.18-.89,3.11,3.11,0,0,0-.53-1.6.84.84,0,0,0-.24.06,1.36,1.36,0,0,1-.27.74l-.07.09-.13-.34c-.06-.15,0-.09.17-.45a2.43,2.43,0,0,0,.06-1.78,2.52,2.52,0,0,0-.15-.33,1.43,1.43,0,0,0-.22,0,1.47,1.47,0,0,1-.26.6.77.77,0,0,0-.12.17s0-.07,0-.14-.07-.15.07-.3a2,2,0,0,0,.32-.44,2.19,2.19,0,0,0,.24-.76s.12.31.2.48a3.13,3.13,0,0,0,.59.8c.22.21.29.21.29.41l-.42-.38-.08-.09c-.24-.24-.2-.37-.25-.07a1.53,1.53,0,0,0,.06.87,2.32,2.32,0,0,0,.69.95,2.76,2.76,0,0,0,.39.28c.07,0,.06,0,.09.09a.5.5,0,0,1,0,.13Zm21.47-2.24c0-.23,0-.23-.22-.27s-.05,0-.09.08a.34.34,0,0,1-.08.09l-.46.41-.11.08a.59.59,0,0,1,.09-.3l.1-.09.11-.09a3.51,3.51,0,0,0,.91-1.25l.06-.15a2.61,2.61,0,0,0,.78,1.39c0,.14-.08.3-.08.44a1.72,1.72,0,0,1-.51-.94L31.08,21a2.23,2.23,0,0,0-.15.31l-.06.16-.06.17ZM5.44,21a1.24,1.24,0,0,1-.19.53,1.88,1.88,0,0,1-.32.41c0-.14-.07-.3-.08-.44a2.39,2.39,0,0,0,.48-.6,3.18,3.18,0,0,0,.18-.37,2,2,0,0,0,.12-.42l0,.14a3.7,3.7,0,0,0,.91,1.26c.18.14.24.16.27.31a.53.53,0,0,1,0,.17,7.75,7.75,0,0,1-.74-.66L6,21.41s0,.16,0,.22h0l0-.06A2.23,2.23,0,0,0,5.67,21L5.44,21Zm20.79.74a1.45,1.45,0,0,1-.35-.7,1.9,1.9,0,0,1,0-.92c.08.12.09.23.19.36a1,1,0,0,0,.28.26l.15-.15a2.09,2.09,0,0,1,.17-.14,2.65,2.65,0,0,1,.29-.29,1.59,1.59,0,0,1-.23.93,2.4,2.4,0,0,1-.53.65Zm-15.86-1c.24-.11.38-.45.47-.62a1.76,1.76,0,0,1-.32,1.62,2.4,2.4,0,0,1-.53-.65,1.59,1.59,0,0,1-.23-.93Zm17.48.91a1.23,1.23,0,0,1-.27-.38,1.76,1.76,0,0,1-.18-.47,2.21,2.21,0,0,1,.07-1.12,1.9,1.9,0,0,0,.23.45,1.39,1.39,0,0,0,.32.32,8.51,8.51,0,0,0,.76-.71,1.81,1.81,0,0,1-.27,1.15,2.92,2.92,0,0,1-.66.76ZM8.73,20.48a1.43,1.43,0,0,0,.55-.77,2.15,2.15,0,0,1,.06,1.13,1.72,1.72,0,0,1-.44.84,3,3,0,0,1-.37-.35A2.09,2.09,0,0,1,8,19.77a4.31,4.31,0,0,0,.37.37Zm17.36-.56.13.14s0,0,0,.1v.15c-.09-.06-.13-.3-.17-.39Zm-15.6.39c0-.14,0-.18,0-.24l.14-.15A1.07,1.07,0,0,1,10.49,20.31ZM29.8,21.52a2,2,0,0,1-.55-1,2.37,2.37,0,0,1,.09-1.35l0,.07a1.53,1.53,0,0,0,.64.86l.12-.11.82-.73a2.08,2.08,0,0,1-.33,1.38,3.31,3.31,0,0,1-.6.7,1.06,1.06,0,0,1-.23.19ZM6.73,20.08a1.54,1.54,0,0,0,.65-.86l0-.06a2.4,2.4,0,0,1,.09,1.36,2,2,0,0,1-.55,1,3.77,3.77,0,0,1-.83-.89,2.14,2.14,0,0,1-.33-1.38l.12.12a5.92,5.92,0,0,0,.59.52,1.06,1.06,0,0,0,.12.1l.11.1Zm20.9-.66c.06,0,.06.07.11.12l.11.13c.06.06.07,0,.07.14v.24a1.51,1.51,0,0,1-.29-.63Zm-18.51,0a2,2,0,0,1-.11.35.84.84,0,0,1-.18.29c0-.34-.05-.28.18-.51a.69.69,0,0,1,.11-.13Zm18.51,0,0,0Zm-18.51,0v0Zm-5.81-.78v0s0,0,0,0a2.63,2.63,0,0,0,.52.54l.58.46a1.46,1.46,0,0,0,.28-.21,2.5,2.5,0,0,0,.52-.9,2.72,2.72,0,0,1,.15,1.63,2.83,2.83,0,0,1-.27.69,2.57,2.57,0,0,1-.42.52,2.17,2.17,0,0,1-.29-.24,3.59,3.59,0,0,1-.72-.83,2.74,2.74,0,0,1-.33-.71,2.38,2.38,0,0,1-.06-.92ZM32,21.34a2.39,2.39,0,0,1-.42-.53,2.42,2.42,0,0,1-.27-.68,2.72,2.72,0,0,1,.15-1.63,2.68,2.68,0,0,1,.13.34,1.74,1.74,0,0,0,.67.77l.3-.25c.19-.15.41-.32.58-.48l.25-.27a2,2,0,0,1,0,.94,3.13,3.13,0,0,1-.78,1.3,5,5,0,0,1-.56.49ZM10.37,19.87a1.75,1.75,0,0,1-.4-.82A1.93,1.93,0,0,1,10.08,18l0,.06v.05a6.48,6.48,0,0,0,.26.78,2.45,2.45,0,0,0,.58-.45l0,0s0,0,.05,0a2.64,2.64,0,0,1-.44,1.2,1.16,1.16,0,0,1-.24.29Zm16-1a5.3,5.3,0,0,0,.28-.88s0,.05.06.1a1.92,1.92,0,0,1,.07.95,1.75,1.75,0,0,1-.4.82,2.38,2.38,0,0,1-.44-.65,2.22,2.22,0,0,1-.23-.85,2.06,2.06,0,0,1,.16.15l.16.14a1.79,1.79,0,0,0,.34.22Zm0-.66c-.05-.2,0-.16,0-.28s0,0,.06-.07a2.3,2.3,0,0,1-.1.35h0Zm-16-.35a.37.37,0,0,1,.11.15c0,.06,0,.12,0,.2a2.3,2.3,0,0,1-.1-.35ZM8.73,19.5a1.84,1.84,0,0,1-.52-1,1.88,1.88,0,0,1,0-.71,1.2,1.2,0,0,1,.19-.56,5.49,5.49,0,0,0,.35,1.06,4.23,4.23,0,0,0,.82-.62,3.07,3.07,0,0,1-.83,1.81ZM28,18.3a5.86,5.86,0,0,0,.35-1.05,1.42,1.42,0,0,1,.2.58,2.22,2.22,0,0,1,0,.68,2,2,0,0,1-.53,1,4.07,4.07,0,0,1-.3-.36,4,4,0,0,1-.24-.41,2.67,2.67,0,0,1-.29-1,4.46,4.46,0,0,0,.82.62Zm2-.71a9.32,9.32,0,0,0,.43-1.26,2.33,2.33,0,0,1,.25.66,2.2,2.2,0,0,1-.25,1.51A2.26,2.26,0,0,1,30,19a2.53,2.53,0,0,1-.38-.42c-.11-.17-.2-.31-.3-.5A2.88,2.88,0,0,1,29,16.84c.07.05.15.15.23.22a3.46,3.46,0,0,0,.78.53ZM6.73,19a1,1,0,0,1-.22-.24,2,2,0,0,1-.19-.28,2.22,2.22,0,0,1,0-2.16s.17.56.2.65.16.41.24.61a3.06,3.06,0,0,0,.54-.34c.17-.12.41-.38.46-.41a3,3,0,0,1-.35,1.26,4.41,4.41,0,0,1-.58.83.43.43,0,0,1-.1.09ZM28,17.69c0-.06,0-.14,0-.2s0-.1,0-.19l.19-.31A4.26,4.26,0,0,1,28,17.69ZM8.57,17l.19.31c.1.17,0,.12,0,.39A3.85,3.85,0,0,1,8.57,17ZM26,17a2,2,0,0,1,.21-.82,1.5,1.5,0,0,1,.25.85,1.39,1.39,0,0,1-.29.82,2.34,2.34,0,0,1-.93-1.16A2.25,2.25,0,0,0,26,17Zm-15.53.68a1.54,1.54,0,0,1-.08-.19,1.44,1.44,0,0,1,.15-1.31,2,2,0,0,1,.21.82,2.25,2.25,0,0,0,.76-.31,2.34,2.34,0,0,1-.93,1.16l-.11-.17Zm21.78-1a3.73,3.73,0,0,0,.16-.35c.1-.28.18-.48.26-.77,0-.1.07-.29.1-.38a2.51,2.51,0,0,1,0,2.6,3.69,3.69,0,0,1-.48.63,2.87,2.87,0,0,1-.48-.5A3.81,3.81,0,0,1,31,15.8l.05,0,.11.11a4.81,4.81,0,0,0,.4.36,3.76,3.76,0,0,0,.65.4ZM4,15.23l0,0v0a5,5,0,0,0,.22.78c.08.23.21.49.28.7a3.14,3.14,0,0,0,.66-.4l.15-.12.4-.38a3.35,3.35,0,0,1-.41,1.53,3.93,3.93,0,0,1-.86,1.1c0-.06-.09-.1-.13-.16A2.46,2.46,0,0,1,3.65,17,2.62,2.62,0,0,1,4,15.23Zm23.61.89a1.78,1.78,0,0,1,.09-.53,3.68,3.68,0,0,1,.17-.44,1.66,1.66,0,0,1,.33,1,1.76,1.76,0,0,1-.34,1h0a2.81,2.81,0,0,1-1.18-1.4l.44.22a2.21,2.21,0,0,0,.5.15ZM9,17.15a2,2,0,0,1-.24-.43,1.6,1.6,0,0,1,0-1.14c0-.08.07-.16.1-.23l.12-.19h0a3,3,0,0,1,.18.45,2.09,2.09,0,0,1,.09.52,3.51,3.51,0,0,0,.93-.37,2.29,2.29,0,0,1-.48.81A2.71,2.71,0,0,1,9,17.15ZM25.4,14.63a.88.88,0,0,1,.26.31,1.53,1.53,0,0,1,.05,1.35,2.09,2.09,0,0,1-.9-.58,1.28,1.28,0,0,1-.19-.3l.73.1,0-.88ZM11,16.29a1.52,1.52,0,0,1,.06-1.36l.17-.24s0,0,.09-.07l0,.9.74-.11a1.51,1.51,0,0,1-.46.54,2,2,0,0,1-.64.34Zm16.54-1.23Zm-18.42,0ZM27.6,15s0-.06,0,0S27.61,15.07,27.6,15ZM9.14,15s0-.06,0,0S9.15,15.07,9.14,15Zm18.49-.14v.07s0,0,0,0S27.61,14.89,27.63,14.87Zm-18.51,0s0,0,0,0,0,0,0,0Zm20.31.22a1.75,1.75,0,0,1,.12-.62l.2-.53a2,2,0,0,1,.31.5,1.73,1.73,0,0,1,.13.69,2.1,2.1,0,0,1-.43,1.19,2.17,2.17,0,0,1-.47-.32,3.34,3.34,0,0,1-.76-.83,2,2,0,0,1-.25-.54A3.94,3.94,0,0,0,29.43,15.09ZM7,16.32a2,2,0,0,1-.43-1.21,1.69,1.69,0,0,1,.14-.68A1.76,1.76,0,0,1,7,13.94c.07.16.15.36.21.53a1.75,1.75,0,0,1,.12.62,4.31,4.31,0,0,0,1.15-.46,2,2,0,0,1-.26.55l-.16.23A3.58,3.58,0,0,1,7,16.32ZM26.83,13.4a1.56,1.56,0,0,1,.54.84,2,2,0,0,1-.13,1.14,2.29,2.29,0,0,1-.81-.41,1.67,1.67,0,0,1-.56-.65l.9.12Zm-17.32,2a1.86,1.86,0,0,1-.13-1.15,1.49,1.49,0,0,1,.36-.67.39.39,0,0,1,.18-.16l.06,1,.9-.13a1.21,1.21,0,0,1-.25.37,2.53,2.53,0,0,1-1.12.69ZM12,14.67a1.58,1.58,0,0,1,0-.89,1.09,1.09,0,0,1,.46-.59l-.06.8a3.15,3.15,0,0,0,.92,0,1.38,1.38,0,0,1-1.31.7Zm13-1.24c.06,0,.16.1.27.15l.31.11a2,2,0,0,0,.75.05l.26.43a4.19,4.19,0,0,1-1-.21,1.77,1.77,0,0,0,.46.88,2.78,2.78,0,0,0,1.06.72c.24.08.13,0,.23.22a1.73,1.73,0,0,1-.39-.18l-.35-.22-.17.11A2.31,2.31,0,0,0,27,16.76a2.79,2.79,0,0,0,.64.55c.08.05.08,0,.1.15s0,.29.07.42a2.66,2.66,0,0,1-.58-.58.48.48,0,0,0-.22.05,2.65,2.65,0,0,0,.34,1.57,4.1,4.1,0,0,0,.26.41h-.21a3.08,3.08,0,0,0-.19.56l0-.07h-.21a1.6,1.6,0,0,1-.44.53c0-.41,0-.13.28-.63a2.06,2.06,0,0,0-.08-2.13.44.44,0,0,1-.13,0,2.75,2.75,0,0,0,.11-.47,1.64,1.64,0,0,0-.2-1,4,4,0,0,0-.24-.37l-.19.05a1.59,1.59,0,0,0-.38-1.28,1.79,1.79,0,0,0-.28-.27l-.11,0c-.1,0-.11.1-.12.29s0,.16,0,.26a.34.34,0,0,1-.09-.14c0-.05,0-.11,0-.18s0-.25,0-.42a1.44,1.44,0,0,0-.19-.7Zm-13.07,0a2.25,2.25,0,0,0-.15,1.31l0,.06,0,0,0,0a2.12,2.12,0,0,0,0-.24.41.41,0,0,0,0-.12v-.08h0c0-.06,0-.05,0-.07l-.16-.06-.07.06a1.55,1.55,0,0,0-.44.56,1.45,1.45,0,0,0-.15.94.67.67,0,0,0-.19,0,3,3,0,0,0-.23.35,1.62,1.62,0,0,0-.14,1.33.49.49,0,0,1,0,.11.61.61,0,0,1-.15,0,2.09,2.09,0,0,0,.21,2.52,1.85,1.85,0,0,1,0,.24,1.65,1.65,0,0,1-.45-.53l-.2,0,0,.06a1,1,0,0,0-.08-.29l-.1-.27a.68.68,0,0,0-.21,0,3,3,0,0,0,.62-1.9c0-.07,0-.09-.08-.11a.45.45,0,0,0-.16,0,2.5,2.5,0,0,1-.59.58c0-.12.06-.27.08-.4s0-.09.23-.25L9.53,17a3.35,3.35,0,0,0,.65-.8,1.75,1.75,0,0,0,.24-.73l-.17-.1a1.63,1.63,0,0,0-.17.11,3,3,0,0,1-.57.28c.1-.2,0-.14.23-.22a2.66,2.66,0,0,0,1.26-1,2.15,2.15,0,0,0,.26-.63,5,5,0,0,1-1,.2l.26-.43a1.83,1.83,0,0,0,.75-.05,1.85,1.85,0,0,0,.44-.18.61.61,0,0,1,.14-.07Zm13.07,0Zm-13.07,0Zm12.52-.24a1.13,1.13,0,0,1,.45.6,1.64,1.64,0,0,1,0,.88,1.37,1.37,0,0,1-1.31-.7,3.21,3.21,0,0,0,.93,0l-.06-.8ZM32,12.45s0-.06,0,0,.13.18.2.29a2,2,0,0,1,0,2.26c-.06.1-.14.2-.19.29a2.65,2.65,0,0,1-.6-.38,4.33,4.33,0,0,1-.5-.46,3.08,3.08,0,0,1-.73-1.2c.08,0,.24.13.33.17l.32.16a3.92,3.92,0,0,0,.74.22A6.47,6.47,0,0,1,32,12.45Zm-27.19,0s0,0,0,0a6.57,6.57,0,0,1,.38,1.33,4.15,4.15,0,0,0,.74-.22l.65-.33a3.86,3.86,0,0,1-1.81,2,2.48,2.48,0,0,1-.37-.62,2,2,0,0,1,0-1.61,3.89,3.89,0,0,1,.37-.61Zm23.8-.51c.06,0,.18.15.22.2a1.77,1.77,0,0,1,.46.77,2.13,2.13,0,0,1-.16,1.38,3.5,3.5,0,0,1-1-.48,2.32,2.32,0,0,1-.7-.79c.36,0,.73.12,1.11.15l.08-1.22ZM7.67,14.28a2.11,2.11,0,0,1-.16-1.39,1.88,1.88,0,0,1,.27-.55c.07-.09.32-.4.41-.41l.07,1.23.57-.07c.19,0,.37-.07.55-.09a2.21,2.21,0,0,1-.71.8,3.87,3.87,0,0,1-1,.48Zm15.27-2s0,0,0,.05S23,12.34,22.94,12.27Zm-9.13,0c0,.09,0,0,0,.05S13.79,12.3,13.81,12.27Zm9.13,0s0,0,0,0,0,0,0,0Zm-9.13,0V12.2s0,0,0,0S13.82,12.25,13.81,12.27Zm10-.07a2.47,2.47,0,0,0,.77.09,1.5,1.5,0,0,0,.46-.09l.26.29a9.27,9.27,0,0,1-1.16-.13,1.38,1.38,0,0,0,.08.27,1.57,1.57,0,0,0,.12.26c-.06,0,0-.07-.19,0s-.05,0-.05.23,0,.17,0,.29c-.14-.09-.07-.12-.07-.31A1.77,1.77,0,0,0,23.83,12.2Zm-11.15,1c0,.18.07.2-.07.29l0-.46c0-.05,0-.05-.11-.1s0,0-.13,0a1.62,1.62,0,0,0,.2-.53,9.27,9.27,0,0,1-1.16.13l.26-.29a1.74,1.74,0,0,0,.72.09,2.26,2.26,0,0,0,.51-.09A1.71,1.71,0,0,0,12.68,13.16Zm12.67-1Zm-2.44,0s0-.06,0,0S22.92,12.21,22.91,12.15Zm-11.51,0Zm2.43,0s0,0,0,0S13.83,12.18,13.83,12.13Zm9.06-.06c0-.05,0,0,0,0S22.89,12.11,22.89,12.07Zm-9,0c0-.05,0,0,0,0S13.84,12.11,13.84,12.07Zm10.68.61s0,0,0,0h0a3.68,3.68,0,0,0,1.1,0,7.94,7.94,0,0,1-.06-.95,1,1,0,0,1,.33.29,1.55,1.55,0,0,1,.26,1.47,1.64,1.64,0,0,1-1-.22,1.48,1.48,0,0,1-.63-.61Zm-13.93.82a1.73,1.73,0,0,1,0-1.08,1.22,1.22,0,0,1,.23-.39,1.37,1.37,0,0,1,.34-.29l-.07,1a3.88,3.88,0,0,0,1.13,0,1.7,1.7,0,0,1-1.65.84ZM22.87,12s0,0,0,0S22.88,12,22.87,12Zm-9,0c0,.09,0,0,0,0S13.86,12,13.88,12Zm9,.87c.17,0,.3-.08.45-.11l-.19-.85a1.31,1.31,0,0,1,.35.22,1.48,1.48,0,0,1,.37,1.25,1.43,1.43,0,0,1-1.51-.46,4.75,4.75,0,0,0,.53-.05Zm-9.91.51a1.6,1.6,0,0,1,.14-.93,1.09,1.09,0,0,1,.58-.54l-.19.85a3.76,3.76,0,0,0,1,.16,1.26,1.26,0,0,1-.44.37A1.43,1.43,0,0,1,12.93,13.34Zm13.18-1.45a1,1,0,0,1,.17.11,2.67,2.67,0,0,0,1.06.36,1.17,1.17,0,0,0,.27,0h.28l.32.53-1-.18-.14.16a1.93,1.93,0,0,0,.35.63l.23.25.13.11a3.88,3.88,0,0,0,1.12.61c.09,0,.11,0,.15.09a1.06,1.06,0,0,1,.06.19,3.58,3.58,0,0,1-.81-.4l-.11-.08-.19.1a2.79,2.79,0,0,0,.79,1.49,3.83,3.83,0,0,0,.62.51c.27.18.22.06.31.54a1.18,1.18,0,0,1,0,.25,1.11,1.11,0,0,1-.3-.22L29,16.46l-.22.05a2.72,2.72,0,0,0,0,.51,3.4,3.4,0,0,0,.08.46,3.8,3.8,0,0,0,.76,1.43c.27.36.32.23.32.51a2.11,2.11,0,0,0,0,.25,1,1,0,0,1-.26-.4l-.19-.49h-.2a2.65,2.65,0,0,0-.26.78A1,1,0,0,1,29,19.4h-.22a1.33,1.33,0,0,1-.4.49.69.69,0,0,1-.17.14c0-.54-.05-.16.32-.73a2.29,2.29,0,0,0,.3-.77,2.22,2.22,0,0,0-.18-1.35,2.71,2.71,0,0,0-.18-.34,1,1,0,0,0-.19,0,2.77,2.77,0,0,0,.14-.54,1.94,1.94,0,0,0-.45-1.44c0-.05-.06-.07-.08-.11a.74.74,0,0,1-.21.07,1.86,1.86,0,0,0,0-.65,1.9,1.9,0,0,0-.62-1l-.1-.08a.82.82,0,0,0-.22-.16c0,.08-.09.64-.09.86l-.06-.1c-.12-.2-.12-.13-.08-.32a1.88,1.88,0,0,0-.08-1.1,2.23,2.23,0,0,0-.24-.4Zm-15.47,0a2.87,2.87,0,0,0-.23.39,1.88,1.88,0,0,0-.09,1.1c0,.11,0,.14,0,.23a.53.53,0,0,0-.06.1l-.07.1c0-.24-.08-.74-.08-.86a2.33,2.33,0,0,0-.74.73,1.68,1.68,0,0,0-.25.82,2,2,0,0,0,0,.35.59.59,0,0,1-.2-.07l-.15.2a1.8,1.8,0,0,0-.3,1.75.78.78,0,0,1,0,.14,1,1,0,0,0-.18,0,2.57,2.57,0,0,0-.33.73,2.26,2.26,0,0,0,.48,2c.14.15.1.07.1.44A1.71,1.71,0,0,1,8,19.4H7.8s0,0,0,.08l0,.08a2.79,2.79,0,0,0-.25-.77H7.29A1.23,1.23,0,0,0,7.2,19a1.89,1.89,0,0,1-.35.66c0-.17-.07-.37,0-.47a3.64,3.64,0,0,0,.71-.94A3.17,3.17,0,0,0,8,17a3,3,0,0,0,0-.52l-.23-.05a.23.23,0,0,1-.07.1l-.08.1a2.75,2.75,0,0,1-.6.5,1.85,1.85,0,0,1,0-.23c0-.07,0-.17,0-.25s0-.15.09-.19a3.77,3.77,0,0,0,.8-.63,2.79,2.79,0,0,0,.79-1.49l-.19-.1a2.45,2.45,0,0,1-.43.27,3.44,3.44,0,0,1-.49.21,1.89,1.89,0,0,1,.06-.18c0-.1,0-.06.14-.1A3,3,0,0,0,9,13.81l.07-.05a2.83,2.83,0,0,0,.24-.25,1.83,1.83,0,0,0,.36-.64l-.14-.15a6.65,6.65,0,0,1-1,.17l.33-.53a2.69,2.69,0,0,0,1-.09A3.33,3.33,0,0,0,10.64,11.89Zm15.47,0h0Zm-15.45,0h0Zm15.43,0Zm-15.43,0Zm10.57-.09.26-.08s0,0,.07,0A1.21,1.21,0,0,1,21.23,11.79Zm-5.71,0a1.3,1.3,0,0,1-.33-.07c.05-.05.06,0,.15,0l.17,0Zm14.93-.24c0-.49.05-1,.09-1.45a2.41,2.41,0,0,1,.51.5,1.94,1.94,0,0,1,.38,1.55,2.54,2.54,0,0,1-.24.75,3.62,3.62,0,0,1-1.83-1.12l-.1-.13a1.28,1.28,0,0,1-.16-.28A11.14,11.14,0,0,0,30.45,11.55ZM5.56,12.9a2.61,2.61,0,0,1-.24-.76,1.91,1.91,0,0,1,0-.89,1.87,1.87,0,0,1,.34-.66,1.93,1.93,0,0,1,.5-.49c0,.48.07,1,.1,1.45a11,11,0,0,0,1.34-.18,1.35,1.35,0,0,1-.16.29A3.68,3.68,0,0,1,5.56,12.9ZM21.33,12a1.72,1.72,0,0,0,.66-.25,3.11,3.11,0,0,1-.14-.52,1.21,1.21,0,0,1,.86,1.06,1.56,1.56,0,0,1-1.14-.1c-.11-.05-.21-.12-.29-.16Zm-7.28.29a1.24,1.24,0,0,1,.28-.68,1.09,1.09,0,0,1,.57-.38,2.09,2.09,0,0,1-.14.52,1.57,1.57,0,0,0,.62.24l.06,0s0,0,0,0-.19.12-.3.17a2.55,2.55,0,0,1-.33.11,1.41,1.41,0,0,1-.79,0Zm6.14-1.24a1,1,0,0,1,.72,0,.91.91,0,0,1,.44.4A.92.92,0,0,1,20.19,11.07Zm-4.79.43a.89.89,0,0,1,.45-.4,1.11,1.11,0,0,1,.72,0,.88.88,0,0,1-.46.43A1,1,0,0,1,15.4,11.5Zm10,.65c-.08-.05-.08-.1-.16-.15a2,2,0,0,0,0-.82,1.68,1.68,0,0,0-.28-.62,3.09,3.09,0,0,0,.78.14,2.81,2.81,0,0,0,.43,0l.38-.09c.06.09.3.3.32.37a5.53,5.53,0,0,1-.92-.07c-.3,0-.28-.12-.43.11a1.44,1.44,0,0,0,.13.31l.09.14.11.13a2.25,2.25,0,0,1-.21-.12l-.22-.12v.41c0,.15,0,.25,0,.41Zm-14,0c0-.15,0-.25,0-.39v-.43l-.42.24a1.58,1.58,0,0,0,.32-.58c-.15-.23-.13-.15-.41-.11A7.16,7.16,0,0,1,10,11a3.4,3.4,0,0,1,.33-.37l.37.09a2.81,2.81,0,0,0,.43,0,2.42,2.42,0,0,0,.41,0l.38-.09a1.77,1.77,0,0,0-.19.33A2.91,2.91,0,0,0,11.53,12Zm11.69-.74a3.8,3.8,0,0,0,1.19-.18c0-.26-.19-.69-.23-1a1.47,1.47,0,0,1,.73.6A2,2,0,0,1,25,12a1.82,1.82,0,0,1-1.13,0,1.46,1.46,0,0,1-.76-.54ZM11.78,12A2,2,0,0,1,12,10.84a1.4,1.4,0,0,1,.74-.6l-.23,1a3.7,3.7,0,0,0,1.18.18,1.15,1.15,0,0,1-.33.33,1.81,1.81,0,0,1-1.55.24Zm16,.14a2.13,2.13,0,0,1-1.26-.26,1.72,1.72,0,0,1-.78-.75,6.19,6.19,0,0,0,1.38.05A8.71,8.71,0,0,1,27,10a1.79,1.79,0,0,1,.42.34,1.55,1.55,0,0,1,.43,1.1A2,2,0,0,1,27.78,12.12ZM11,11.11a2,2,0,0,1-1.34,1,2.11,2.11,0,0,1-.7,0,1.8,1.8,0,0,1-.11-.65A1.71,1.71,0,0,1,9,10.82,1.8,1.8,0,0,1,9.72,10a10.92,10.92,0,0,1-.08,1.13l.39,0c.32,0,.68-.08,1-.08Zm12.86-1.2Zm-11,0Zm9,.57,0,0h0a2.66,2.66,0,0,0,.76-.23l.08-.06a2.25,2.25,0,0,1-.17-.62,1.46,1.46,0,0,1,1.09,1.25,2,2,0,0,1-1.42-.1C22.06,10.61,22,10.54,21.85,10.48Zm-7,0,0,0,0,0a2.42,2.42,0,0,1-.78.34,1.71,1.71,0,0,1-1,0s0-.2,0-.24a1.44,1.44,0,0,1,1-1,3.27,3.27,0,0,1-.17.62,2.14,2.14,0,0,0,.84.29Zm5.64-1.08a1.27,1.27,0,0,1,.9,0,1.18,1.18,0,0,1,.58.49,1.42,1.42,0,0,1-.91,0A1,1,0,0,1,20.53,9.36Zm-5.79.5a1.22,1.22,0,0,1,1.48-.5,1,1,0,0,1-.58.5A1.39,1.39,0,0,1,14.74,9.86ZM10.83,8.44a1.75,1.75,0,0,1-.19.2,2,2,0,0,0-.49,1.47c0,.26,0,.22-.05.32a1.19,1.19,0,0,1-.19.2,2.5,2.5,0,0,0,0-.4c0-.15,0-.25,0-.41-.21-.11-.14-.13-.36,0a1.92,1.92,0,0,0-.89,2.25c0,.12-.06.17-.12.28a.55.55,0,0,1-.06.08l-.06.1c0-.13,0-.3,0-.43s0-.3,0-.43-.13-.07-.2-.05a2.37,2.37,0,0,0-.56.54,1,1,0,0,0-.12.17,2.05,2.05,0,0,0-.14,1.81c0,.11.09.2.12.3s0,0,0,.05a.07.07,0,0,1,0,0A2.25,2.25,0,0,0,7.27,14c-.13-.37,0-.35-.3-.43l-.13.17a2.05,2.05,0,0,0-.51,1.5,2.43,2.43,0,0,0,.27.89c.24.42.3.3.24.58a1.26,1.26,0,0,0,0,.27.65.65,0,0,1-.12-.28,4.47,4.47,0,0,1-.16-.63c0-.08,0-.1-.07-.12l-.17,0a3.84,3.84,0,0,0-.39.86,2.47,2.47,0,0,0,.33,2,.71.71,0,0,0,.07.09c.23.34.31.22.3.49,0,.12,0,.18,0,.31a1.53,1.53,0,0,1-.31-.26l-.12-.09a1.55,1.55,0,0,1-.32-.44.56.56,0,0,0-.24,0,1.82,1.82,0,0,0-.11-.4,3.17,3.17,0,0,0-.17-.37h-.2c-.1.19-.15.42-.24.61a1.37,1.37,0,0,1-.35.49v-.31c0-.31,0-.23.2-.46a.46.46,0,0,0,.07-.07.7.7,0,0,0,.08-.1L5,18.13a3.87,3.87,0,0,0,.9-2.32c0-.13,0-.18,0-.31a.59.59,0,0,0-.2-.07l-.11.11c-.1.13-.23.23-.34.35L5,16.1a2.75,2.75,0,0,1-.28.19,4.42,4.42,0,0,1,.13-.71c0-.16.09-.14.27-.25l.57-.43a3.5,3.5,0,0,0,.49-.53l.15-.19a.26.26,0,0,0,.07-.1.86.86,0,0,1,.07-.1,2.29,2.29,0,0,0,.36-1,1,1,0,0,1-.17-.1,4.83,4.83,0,0,1-1,.52l-.16.06a.9.9,0,0,1,.08-.21c0-.12,0-.11.14-.15A4,4,0,0,0,7.53,12,1.81,1.81,0,0,0,8,11.22l-.14-.15a6.17,6.17,0,0,1-1.25.2c.06-.11.39-.58.41-.66a4.52,4.52,0,0,0,.52,0,2.82,2.82,0,0,0,.93-.2l.4-.18A2.84,2.84,0,0,0,9.17,10a1.87,1.87,0,0,0,.74-1l-.12-.15c-.23,0-.48.08-.73.1L8.25,9c.1-.15.34-.33.45-.48l.23.07a2.34,2.34,0,0,0,.26,0,3.3,3.3,0,0,0,1.4-.13l.24-.09Zm15.06,0,.22.08a3.27,3.27,0,0,0,1.42.16l.28-.05.25-.07c.08.12.4.38.43.48h-.41c-.36,0-.86-.12-1.12-.14L26.84,9a1.91,1.91,0,0,0,.72,1,3,3,0,0,0,.73.42,3.1,3.1,0,0,0,.95.2h.25l.28,0c0,.09.35.55.41.67a5.61,5.61,0,0,1-1.25-.21l-.14.15a1.38,1.38,0,0,0,.18.41l.24.34a3.38,3.38,0,0,0,1,.78c.12.07.26.13.39.19l.43.16c.13,0,.1,0,.15.14a1.55,1.55,0,0,1,.08.23c-.18-.09-.39-.15-.62-.26a4.8,4.8,0,0,1-.54-.32l-.18.1a2.52,2.52,0,0,0,.64,1.38,4.39,4.39,0,0,0,1.17,1l.11.06c.07.05.07.17.09.26s0,.18.05.28a1.45,1.45,0,0,1,0,.3,2.44,2.44,0,0,1-.52-.39l-.23-.23-.11-.11a.49.49,0,0,0-.12-.13l-.2.07c0,.12,0,.17,0,.29A4,4,0,0,0,32,18.46c.28.27.21.12.21.77a1.37,1.37,0,0,1-.35-.49l-.17-.44a1.26,1.26,0,0,0-.07-.16h-.2a2,2,0,0,0-.27.75l-.24,0a2.14,2.14,0,0,1-.54.62,1.84,1.84,0,0,1-.22.17c0-.12,0-.19,0-.29,0-.3,0-.1.36-.58a2.56,2.56,0,0,0,.22-.4,2.52,2.52,0,0,0,0-2.05c-.05-.12-.21-.32-.23-.41-.32,0-.21.1-.31.48a2.63,2.63,0,0,1-.09.3c0,.08-.05.24-.11.28a2.41,2.41,0,0,0-.07-.37c0-.12.08-.19.14-.29a2.06,2.06,0,0,0,.39-1.07,2.12,2.12,0,0,0-.17-1,4.32,4.32,0,0,0-.46-.71.58.58,0,0,0-.14,0c-.09,0-.07,0-.09.1,0,.27-.26.65-.27.82-.07-.1,0-.2.09-.38a2.33,2.33,0,0,0,.05-1.45A2.1,2.1,0,0,0,29,12a2.07,2.07,0,0,0-.44-.4c-.06,0-.13,0-.2.05,0,.27-.08.58-.09.86-.08-.1-.15-.24-.22-.35s0,0,0-.08l.07-.38a1.91,1.91,0,0,0-.33-1.34,2.68,2.68,0,0,0-.28-.3l-.34-.25c-.22-.14-.15-.12-.37,0a5.42,5.42,0,0,0,.05.81c-.1-.07-.15-.19-.25-.26a2.21,2.21,0,0,0-.13-1.17A1.83,1.83,0,0,0,26,8.5S25.91,8.46,25.89,8.42Zm-15,0,0,0Zm15,0ZM12.72,9.68c0,.09-.29.32-.4.4a2.4,2.4,0,0,1-1.23.37c-.12,0-.65,0-.69-.11a2.71,2.71,0,0,1,0-.75A2,2,0,0,1,10.64,9a1.85,1.85,0,0,1,.92-.7c-.06.4-.21.78-.28,1.17a6,6,0,0,0,.67.15c.26,0,.51,0,.77,0ZM10.87,8.42ZM24,9.68a5.18,5.18,0,0,0,1.45-.2c-.07-.38-.23-.77-.28-1.17a1.84,1.84,0,0,1,.92.72,2.07,2.07,0,0,1,.23.59,2,2,0,0,1,0,.74,2,2,0,0,1-.7.1,2.42,2.42,0,0,1-1.22-.39c-.11-.07-.39-.29-.4-.39ZM28.71,7.9a1.9,1.9,0,0,1,1.06,1.7,2.45,2.45,0,0,1-.13.78,2.66,2.66,0,0,1-1.55-.3,2.17,2.17,0,0,1-.95-.92c.1,0,.29,0,.4.05a5.31,5.31,0,0,0,1.26,0,12.92,12.92,0,0,1-.09-1.33Zm-3.35.21Zm-14,0ZM7.11,10.38A2.53,2.53,0,0,1,7,9.58,1.9,1.9,0,0,1,8,7.9c0,.24-.11,1.18-.09,1.3v0a3.42,3.42,0,0,0,.85,0l.8-.09a2.14,2.14,0,0,1-1,.92,2.55,2.55,0,0,1-1.54.3ZM25.35,8.11h0Zm-13.92,0h0Zm11.09.51,0,0h0a2.76,2.76,0,0,0,1-.33,2.39,2.39,0,0,1-.21-.73,1.71,1.71,0,0,1,.52.2,1.54,1.54,0,0,1,.4.31,1.75,1.75,0,0,1,.44,1,2.21,2.21,0,0,1-1.25,0A2.54,2.54,0,0,1,22.52,8.61Zm-8.3,0s0,0,0,0h0A2.63,2.63,0,0,1,12,9a1.67,1.67,0,0,1,.54-1.08l.1-.07a1.78,1.78,0,0,1,.71-.33,2.39,2.39,0,0,1-.21.73,2.82,2.82,0,0,0,1.05.33Zm6.72-1.25a1.72,1.72,0,0,1,1.14,0,1.44,1.44,0,0,1,.71.59,1.75,1.75,0,0,1-1.13,0A1.29,1.29,0,0,1,20.94,7.32Zm-7,.61a1.55,1.55,0,0,1,.31-.36,1.62,1.62,0,0,1,1.54-.25,1.24,1.24,0,0,1-.72.62A1.82,1.82,0,0,1,14,7.93ZM26,7.44a4.93,4.93,0,0,0,.8-.16c-.05-.27-.34-1.21-.33-1.38a2,2,0,0,1,1.41,1.53c0,.12.11.84,0,.9h0l-.15,0a2.5,2.5,0,0,1-.67.06A2.78,2.78,0,0,1,25.59,8c-.13-.08-.46-.34-.49-.48A7.42,7.42,0,0,0,26,7.44ZM8.81,8.32a2.3,2.3,0,0,1,.31-1.6,2.16,2.16,0,0,1,1.12-.82,3.83,3.83,0,0,1-.15.7c-.06.22-.13.46-.18.68a6.6,6.6,0,0,0,.82.17l.93.06a2.27,2.27,0,0,1-1.15.79,2.82,2.82,0,0,1-1.7,0ZM24.57,5.84c0-.14-.11-.24-.15-.41s-.07-.31-.1-.46a2.29,2.29,0,0,1,1.13.59A2,2,0,0,1,26,6.73a2.65,2.65,0,0,1-1.53,0,3,3,0,0,1-1.21-.54A4.6,4.6,0,0,0,24.57,5.84Zm-13.82.89a1.85,1.85,0,0,1,.56-1.17A2.15,2.15,0,0,1,12.43,5c0,.15-.06.3-.1.45s-.11.28-.15.42h0l.06,0a5.52,5.52,0,0,0,1.24.35,1.66,1.66,0,0,1-.55.32,3.2,3.2,0,0,1-.66.22,2.65,2.65,0,0,1-1.53,0ZM21.42,4.78a1.63,1.63,0,0,1,.69-.13,1.88,1.88,0,0,1,1.58.83,2.17,2.17,0,0,1-1.38,0A1.51,1.51,0,0,1,21.42,4.78Zm-8.36.7a2,2,0,0,1,.18-.23,1.21,1.21,0,0,1,.2-.19A1.79,1.79,0,0,1,14,4.77a2.06,2.06,0,0,1,1.39,0,1.58,1.58,0,0,1-.9.73A2.16,2.16,0,0,1,13.06,5.48Z"/><path class="cls-18" d="M18.2,28.29A7.16,7.16,0,0,0,14,29.7a5.46,5.46,0,0,0-1.12,1.13,1.52,1.52,0,0,0-.37.75.72.72,0,0,0,.52.59.71.71,0,0,0,.81-.27,5.74,5.74,0,0,1,1.24-1,6.54,6.54,0,0,1,7.28.41,6.22,6.22,0,0,1,.6.54l.14.13c.62.59,1.53-.13,1.12-.78a3.78,3.78,0,0,0-.22-.33,6.1,6.1,0,0,0-.51-.61,6.63,6.63,0,0,0-3.27-1.78,7.69,7.69,0,0,0-2-.2Z"/><path class="cls-18" d="M8.81,8.33a2.82,2.82,0,0,0,1.7,0,2.27,2.27,0,0,0,1.15-.79c-.32,0-.62,0-.93-.06a6.6,6.6,0,0,1-.82-.17c0-.22.12-.46.18-.68a3.66,3.66,0,0,0,.15-.7,2.2,2.2,0,0,0-1.13.83,2.33,2.33,0,0,0-.3,1.6Z"/><path class="cls-18" d="M26.84,7.28a6.27,6.27,0,0,1-.8.17c-.31,0-.63,0-.95.06a1.65,1.65,0,0,0,.5.48,2.94,2.94,0,0,0,1.49.46,3.52,3.52,0,0,0,.66-.06l.15,0,0,0c.1-.06,0-.78,0-.9A2,2,0,0,0,26.51,5.9c0,.18.27,1.11.33,1.38Z"/><path class="cls-18" d="M32,21.34a4.18,4.18,0,0,0,.56-.49,3.13,3.13,0,0,0,.78-1.3,2,2,0,0,0,0-.94l-.25.27c-.17.17-.39.33-.58.49l-.3.24a1.69,1.69,0,0,1-.67-.77,2.68,2.68,0,0,0-.13-.34,2.72,2.72,0,0,0-.15,1.63,2.42,2.42,0,0,0,.27.68,2.39,2.39,0,0,0,.42.53Z"/><path class="cls-18" d="M3.35,18.61s0,0,0,0a2.38,2.38,0,0,0,.06.92,2.64,2.64,0,0,0,.33.72,3.75,3.75,0,0,0,.72.82,1.32,1.32,0,0,0,.29.24,2.57,2.57,0,0,0,.42-.52,2.68,2.68,0,0,0,.27-.69,2.72,2.72,0,0,0-.15-1.63,2.68,2.68,0,0,1-.53.91,1.46,1.46,0,0,1-.27.2l-.58-.46a2.63,2.63,0,0,1-.52-.54Z"/><path class="cls-18" d="M4,15.23H4A2.57,2.57,0,0,0,3.64,17a2.62,2.62,0,0,0,.65,1.27,1,1,0,0,1,.14.15,3.93,3.93,0,0,0,.86-1.1A3.35,3.35,0,0,0,5.7,15.8l-.4.38-.15.12a4,4,0,0,1-.66.41c-.07-.22-.2-.48-.28-.71A4.22,4.22,0,0,1,4,15.23Z"/><path class="cls-18" d="M32.25,16.71a3.79,3.79,0,0,1-.65-.41,2.77,2.77,0,0,1-.4-.36l-.11-.1s0,0-.05,0a3.78,3.78,0,0,0,.8,2.12,2.55,2.55,0,0,0,.48.5,4,4,0,0,0,.48-.62A2.43,2.43,0,0,0,33.09,16a2.34,2.34,0,0,0-.32-.79c0,.08-.07.27-.1.38-.08.29-.16.48-.26.76a3.92,3.92,0,0,1-.16.36Z"/><path class="cls-18" d="M28.8,9.24a5.9,5.9,0,0,1-1.26,0c-.11,0-.3-.05-.4-.05a2.12,2.12,0,0,0,.95.92,2.66,2.66,0,0,0,1.55.31,2.5,2.5,0,0,0,.13-.78A1.92,1.92,0,0,0,28.71,7.9a10.87,10.87,0,0,0,.1,1.34Z"/><path class="cls-18" d="M7.11,10.39a2.71,2.71,0,0,0,1.54-.3,2.21,2.21,0,0,0,1-.93l-.8.09a3.42,3.42,0,0,1-.85,0v0c0-.12.13-1.06.09-1.31A1.91,1.91,0,0,0,7,9.59a2.52,2.52,0,0,0,.13.79Z"/><path class="cls-18" d="M4.8,12.46l0,0a4.45,4.45,0,0,0-.37.61,2,2,0,0,0,0,1.61,2.48,2.48,0,0,0,.37.62,3.86,3.86,0,0,0,1.81-2l-.65.33a4,4,0,0,1-.75.22,6.76,6.76,0,0,0-.37-1.33Z"/><path class="cls-18" d="M32,12.46a6.33,6.33,0,0,0-.38,1.33,3.3,3.3,0,0,1-.74-.22l-.32-.16c-.09,0-.25-.14-.33-.17a3.08,3.08,0,0,0,.73,1.2,4.33,4.33,0,0,0,.5.46,2.65,2.65,0,0,0,.6.38c.05-.09.13-.19.19-.29a2,2,0,0,0,0-2.25c-.07-.12-.14-.2-.2-.29Z"/><path class="cls-18" d="M30.44,11.55a11.26,11.26,0,0,1-1.34-.18.78.78,0,0,0,.16.28l.09.13a3.69,3.69,0,0,0,1.84,1.12,2.57,2.57,0,0,0,.24-.74,2,2,0,0,0-.38-1.56,2.41,2.41,0,0,0-.51-.5C30.5,10.59,30.47,11.06,30.44,11.55Z"/><path class="cls-18" d="M5.56,12.9a3.68,3.68,0,0,0,1.93-1.24,1.35,1.35,0,0,0,.16-.29,11.14,11.14,0,0,1-1.35.18c0-.49,0-1-.09-1.45a1.94,1.94,0,0,0-.5.49,1.87,1.87,0,0,0-.34.66,1.91,1.91,0,0,0,0,.89A2.61,2.61,0,0,0,5.56,12.9Z"/><path class="cls-18" d="M10.75,6.73a2.65,2.65,0,0,0,1.53,0,3.39,3.39,0,0,0,.66-.21,1.86,1.86,0,0,0,.55-.33,5.52,5.52,0,0,1-1.24-.35l-.06,0h0c0-.14.11-.24.15-.41s.06-.31.1-.46a2.15,2.15,0,0,0-1.12.59,1.85,1.85,0,0,0-.56,1.17Z"/><path class="cls-18" d="M24.57,5.84a4.3,4.3,0,0,1-1.31.4,2.84,2.84,0,0,0,1.21.54,2.65,2.65,0,0,0,1.53,0,2,2,0,0,0-.56-1.17A2.22,2.22,0,0,0,24.32,5c0,.15.06.31.1.46S24.53,5.7,24.57,5.84Z"/><path class="cls-18" d="M5.74,24.78a3.18,3.18,0,0,1-.43-.25l-.41-.29a1.92,1.92,0,0,0,.56,1.25,2.76,2.76,0,0,0,1.15.69,2.19,2.19,0,0,0,.19-.58,2.82,2.82,0,0,0-.16-1.35,2.18,2.18,0,0,0-.26-.53c0,.06-.08.22-.12.3A3.19,3.19,0,0,1,5.74,24.78Z"/><path class="cls-18" d="M30.14,26.18a2.71,2.71,0,0,0,1.14-.68,1.92,1.92,0,0,0,.57-1.26l-.4.29-.44.25a3.13,3.13,0,0,1-.52-.75c0-.07-.09-.26-.13-.31a2.69,2.69,0,0,0-.25.51,2.86,2.86,0,0,0-.17,1.36,2.27,2.27,0,0,0,.19.59Z"/><path class="cls-18" d="M25.47,9.48a4.73,4.73,0,0,1-1.44.2c0,.1.29.32.39.39a2.48,2.48,0,0,0,1.22.39,2,2,0,0,0,.71-.1,2.05,2.05,0,0,0,0-.74,1.63,1.63,0,0,0-1.15-1.3c.06.39.21.78.28,1.16Z"/><path class="cls-18" d="M12.72,9.68a6.64,6.64,0,0,1-.77,0,4.52,4.52,0,0,1-.68-.15c.08-.38.23-.76.29-1.16a1.76,1.76,0,0,0-.92.7,1.68,1.68,0,0,0-.23.58,2.37,2.37,0,0,0,0,.75c0,.08.57.11.69.11a2.41,2.41,0,0,0,1.23-.38c.1-.07.39-.3.4-.4Z"/><path class="cls-18" d="M7.41,27.39a6.26,6.26,0,0,1-.94-.33c-.11,0-.21-.11-.3-.14a1.66,1.66,0,0,0,.78,1,3.23,3.23,0,0,0,1.36.46,2,2,0,0,0-.24-1.72,1.84,1.84,0,0,0-.15-.28A1.53,1.53,0,0,0,7.5,26a3.66,3.66,0,0,1-.09,1.41Z"/><path class="cls-18" d="M28.44,28.4A3.22,3.22,0,0,0,29.79,28a1.69,1.69,0,0,0,.79-1c-.09,0-.19.09-.28.13l-.31.12a4.53,4.53,0,0,1-.65.22A3.65,3.65,0,0,1,29.25,26a1.68,1.68,0,0,0-.42.42,1.25,1.25,0,0,0-.15.28c-.05.11-.11.18-.16.27a2.06,2.06,0,0,0-.08,1.45Z"/><path class="cls-18" d="M4.86,22.38l-1-.77a.57.57,0,0,0-.15-.12,2.65,2.65,0,0,0,1.59,2.2,2.36,2.36,0,0,0,.41-1.06,2.48,2.48,0,0,0-.16-1.25,2.6,2.6,0,0,1-.32.55,3.05,3.05,0,0,1-.42.45Z"/><path class="cls-18" d="M31.39,23.69a2.66,2.66,0,0,0,1.6-2.2.53.53,0,0,0-.14.11l-1,.78a3.34,3.34,0,0,1-.6-.71c-.06-.09-.09-.19-.15-.29A2.59,2.59,0,0,0,31,22.63a2.47,2.47,0,0,0,.4,1.06Z"/><path class="cls-18" d="M29.8,21.52a1.06,1.06,0,0,0,.23-.19,3.39,3.39,0,0,0,.6-.71A2,2,0,0,0,31,19.25l-.81.73-.12.1a1.48,1.48,0,0,1-.64-.85l0-.07a2.46,2.46,0,0,0-.1,1.35,2.18,2.18,0,0,0,.56,1Z"/><path class="cls-18" d="M6.73,20.08c-.05,0-.06-.06-.11-.09l-.12-.1a7.43,7.43,0,0,1-.59-.53l-.11-.11a2.05,2.05,0,0,0,.32,1.37,2.59,2.59,0,0,0,.38.48,3.51,3.51,0,0,0,.45.42,2,2,0,0,0,.55-1,2.4,2.4,0,0,0-.09-1.36l0,.06a1.54,1.54,0,0,1-.65.86Z"/><path class="cls-18" d="M30,17.59a3.3,3.3,0,0,1-.77-.53c-.08-.07-.16-.17-.23-.22a2.93,2.93,0,0,0,.34,1.25,3.9,3.9,0,0,0,.31.5A2.6,2.6,0,0,0,30,19a2.11,2.11,0,0,0,.4-.52,2.16,2.16,0,0,0,.25-1.5,2.28,2.28,0,0,0-.25-.67A11,11,0,0,1,30,17.59Z"/><path class="cls-18" d="M6.73,19a.43.43,0,0,0,.1-.09,4.11,4.11,0,0,0,.58-.83,3,3,0,0,0,.35-1.26s-.29.29-.46.41a3.06,3.06,0,0,1-.54.34c-.08-.2-.17-.4-.24-.61s-.18-.63-.2-.65a2.22,2.22,0,0,0,0,2.16,2,2,0,0,0,.19.28,1.36,1.36,0,0,0,.22.25Z"/><path class="cls-18" d="M27.12,11.16a6.29,6.29,0,0,1-1.39-.05,1.82,1.82,0,0,0,.78.75,2.18,2.18,0,0,0,1.27.26,2,2,0,0,0,.1-.65,1.5,1.5,0,0,0-.42-1.09A1.53,1.53,0,0,0,27,10,7.2,7.2,0,0,0,27.12,11.16Z"/><path class="cls-18" d="M11,11.11a7.77,7.77,0,0,1-1,.08l-.4,0A7.33,7.33,0,0,0,9.71,10a1.78,1.78,0,0,0-.72.79,1.62,1.62,0,0,0-.13.64,1.75,1.75,0,0,0,.12.65,1.86,1.86,0,0,0,.7,0,2,2,0,0,0,1.33-1Z"/><path class="cls-18" d="M7,16.32a3.58,3.58,0,0,0,1.06-.91l.16-.23a2,2,0,0,0,.26-.55,4.31,4.31,0,0,1-1.15.46,1.8,1.8,0,0,0-.12-.62c-.06-.17-.14-.37-.21-.53a2.11,2.11,0,0,0-.29.49,1.69,1.69,0,0,0-.14.68A2.09,2.09,0,0,0,7,16.32Z"/><path class="cls-18" d="M29.43,15.09a3.94,3.94,0,0,1-1.15-.46,1.91,1.91,0,0,0,.25.54,3.34,3.34,0,0,0,.76.83,2.17,2.17,0,0,0,.47.32,2.1,2.1,0,0,0,.43-1.19,1.65,1.65,0,0,0-.13-.68,1.92,1.92,0,0,0-.31-.51l-.2.53A1.8,1.8,0,0,0,29.43,15.09Z"/><path class="cls-18" d="M7.67,14.28a3.32,3.32,0,0,0,1-.48A2.26,2.26,0,0,0,9.38,13l-.55.09-.57.06-.07-1.22c-.09,0-.34.31-.41.4a1.77,1.77,0,0,0-.27.55,2.1,2.1,0,0,0,.16,1.39Z"/><path class="cls-18" d="M28.48,13.16c-.38,0-.75-.11-1.11-.15a2.32,2.32,0,0,0,.7.79,3.5,3.5,0,0,0,1,.48,2.13,2.13,0,0,0,.16-1.38,1.77,1.77,0,0,0-.46-.77c0-.05-.16-.19-.22-.2l-.08,1.23Z"/><path class="cls-18" d="M22.53,8.58v0a2.72,2.72,0,0,0,1,.42,2.17,2.17,0,0,0,1.24,0,1.71,1.71,0,0,0-.43-1,2.06,2.06,0,0,0-.4-.31,1.71,1.71,0,0,0-.52-.2,2.31,2.31,0,0,0,.21.73A2.76,2.76,0,0,1,22.53,8.58Z"/><path class="cls-18" d="M14.23,8.61v0a3.16,3.16,0,0,1-1.05-.33,2.45,2.45,0,0,0,.21-.74,1.78,1.78,0,0,0-.71.33l-.1.08A1.67,1.67,0,0,0,12,9a2.64,2.64,0,0,0,2.2-.38Z"/><path class="cls-18" d="M9.45,29.52a6.47,6.47,0,0,1-1.12-.17,1.19,1.19,0,0,0,.32.41,2,2,0,0,0,1,.41,2.16,2.16,0,0,0,.67,0v0a1.65,1.65,0,0,0,0-.63,2.11,2.11,0,0,0-1-1.22,3.41,3.41,0,0,1,.17,1.21Z"/><path class="cls-18" d="M26.38,30.18a2.44,2.44,0,0,0,1.71-.41,1.17,1.17,0,0,0,.33-.42,6.44,6.44,0,0,1-1.13.17c-.06-.67.07-.63.17-1.21a1.87,1.87,0,0,0-.77.71,1.8,1.8,0,0,0-.31,1.16Z"/><path class="cls-18" d="M28.23,25.68a1.93,1.93,0,0,0,1.39-1.6,4.7,4.7,0,0,1-.69.44,2.77,2.77,0,0,1-.53-.89A2.3,2.3,0,0,0,28.23,25.68Z"/><path class="cls-18" d="M7.82,24.52a4.7,4.7,0,0,1-.69-.44,1.94,1.94,0,0,0,1.39,1.6,2.32,2.32,0,0,0-.17-2.05,3,3,0,0,1-.53.89Z"/><path class="cls-18" d="M11.77,12a1.83,1.83,0,0,0,1.56-.24,1,1,0,0,0,.33-.33,3.53,3.53,0,0,1-1.19-.18l.24-1a1.41,1.41,0,0,0-.74.6,2,2,0,0,0-.2,1.14Z"/><path class="cls-18" d="M24.28,11.23a3.53,3.53,0,0,1-1.19.18,1.48,1.48,0,0,0,.75.54A1.85,1.85,0,0,0,25,12a2,2,0,0,0-.2-1.14,1.47,1.47,0,0,0-.73-.6c0,.3.21.73.23,1Z"/><path class="cls-18" d="M26.81,27.58a2.61,2.61,0,0,0,1.09-.37,1.48,1.48,0,0,0,.65-.84,8.65,8.65,0,0,1-1,.4,2.85,2.85,0,0,1-.09-.56c0-.21,0-.44,0-.65a1.89,1.89,0,0,0-.58.83,1.69,1.69,0,0,0-.06,1.19Z"/><path class="cls-18" d="M9.23,26.77a4.76,4.76,0,0,1-.53-.19l-.51-.21a1.5,1.5,0,0,0,.65.83,2.53,2.53,0,0,0,1.11.39,1.86,1.86,0,0,0-.06-1.19,1.93,1.93,0,0,0-.59-.83c0,.19,0,.42,0,.63a4.27,4.27,0,0,1-.09.57Z"/><path class="cls-18" d="M29.27,23.54a2.22,2.22,0,0,0,.67-.5,1.83,1.83,0,0,0,.64-1.33l-.44.39a5,5,0,0,1-.48.36.6.6,0,0,0-.08-.08l-.09-.1a3.2,3.2,0,0,1-.44-.65,2.21,2.21,0,0,0,.15,1.81l0,0,0,.06Z"/><path class="cls-18" d="M7.08,22.45a1.77,1.77,0,0,1-.24-.17c-.15-.11-.65-.55-.67-.57a1.87,1.87,0,0,0,.44,1.12l.19.2.09.1a2.78,2.78,0,0,0,.59.4h0l0-.07.06-.1a1.19,1.19,0,0,0,.08-.2,2.21,2.21,0,0,0,0-1.52,4,4,0,0,1-.27.44,2.54,2.54,0,0,1-.34.38Z"/><path class="cls-18" d="M8.73,20.48l-.4-.34c-.14-.13-.24-.23-.37-.37a2.09,2.09,0,0,0,.57,1.56,3,3,0,0,0,.37.35,1.72,1.72,0,0,0,.44-.84,2.15,2.15,0,0,0-.06-1.13A1.43,1.43,0,0,1,8.73,20.48Z"/><path class="cls-18" d="M27.85,21.68a2.92,2.92,0,0,0,.66-.76,1.81,1.81,0,0,0,.27-1.15,8.51,8.51,0,0,1-.76.71,1.65,1.65,0,0,1-.33-.32,1.88,1.88,0,0,1-.22-.45,2.21,2.21,0,0,0-.07,1.12,1.76,1.76,0,0,0,.18.47,1.23,1.23,0,0,0,.27.38Z"/><path class="cls-18" d="M28,18.31a4.46,4.46,0,0,1-.82-.62,2.67,2.67,0,0,0,.29,1,4,4,0,0,0,.24.41,2.86,2.86,0,0,0,.3.36,1.87,1.87,0,0,0,.52-1,1.73,1.73,0,0,0,0-.68,1.28,1.28,0,0,0-.19-.58A5.15,5.15,0,0,1,28,18.3Z"/><path class="cls-18" d="M8.73,19.5a3.07,3.07,0,0,0,.83-1.81,4.23,4.23,0,0,1-.82.62,6.27,6.27,0,0,1-.35-1.06,1.2,1.2,0,0,0-.19.56,1.88,1.88,0,0,0,0,.71,1.91,1.91,0,0,0,.52,1Z"/><path class="cls-18" d="M10.59,13.5a1.7,1.7,0,0,0,1.65-.84,3.9,3.9,0,0,1-1.13,0l.07-.95a1.16,1.16,0,0,0-.34.28,1.44,1.44,0,0,0-.24.39,1.81,1.81,0,0,0,0,1.08Z"/><path class="cls-18" d="M24.54,12.67s0,0,0,0a1.57,1.57,0,0,0,.63.62,1.71,1.71,0,0,0,1,.21A1.55,1.55,0,0,0,25.91,12a1,1,0,0,0-.33-.29,7.69,7.69,0,0,0,.06.95,3.68,3.68,0,0,1-1.1,0Z"/><path class="cls-18" d="M13.06,5.48a2.09,2.09,0,0,0,1.38,0,1.54,1.54,0,0,0,.9-.73,1.92,1.92,0,0,0-1.9.28,1.84,1.84,0,0,0-.2.19A2,2,0,0,0,13.06,5.48Z"/><path class="cls-18" d="M21.41,4.78a1.56,1.56,0,0,0,.9.73,2.1,2.1,0,0,0,1.38,0,1.85,1.85,0,0,0-1.59-.82A1.7,1.7,0,0,0,21.41,4.78Z"/><path class="cls-18" d="M9.51,15.38a2.53,2.53,0,0,0,1.12-.69,1.21,1.21,0,0,0,.25-.37l-.9.13-.06-1a.39.39,0,0,0-.18.16,1.49,1.49,0,0,0-.36.67,1.86,1.86,0,0,0,.13,1.15Z"/><path class="cls-18" d="M27.55,16.12a1.84,1.84,0,0,1-.49-.15c-.15-.06-.39-.2-.44-.22a2.72,2.72,0,0,0,1.18,1.4h0a1.89,1.89,0,0,0,.34-1,1.64,1.64,0,0,0-.33-1,2.7,2.7,0,0,0-.17.44,1.42,1.42,0,0,0-.1.52Z"/><path class="cls-18" d="M26.77,14.45l-.9-.12a1.8,1.8,0,0,0,.56.64,2.29,2.29,0,0,0,.81.41,2,2,0,0,0,.13-1.14,1.6,1.6,0,0,0-.54-.84Z"/><path class="cls-18" d="M9,17.15a2.89,2.89,0,0,0,.7-.58,2.43,2.43,0,0,0,.48-.82,3.16,3.16,0,0,1-.94.37,1.65,1.65,0,0,0-.09-.51,2,2,0,0,0-.17-.45h0l-.12.19a1.12,1.12,0,0,0-.1.22,1.6,1.6,0,0,0,0,1.14A1.82,1.82,0,0,0,9,17.15Z"/><path class="cls-18" d="M11.72,31.12a10.66,10.66,0,0,1-1.13,0l.05.08a1.81,1.81,0,0,0,1.52.48c0-.56.17-.62.29-.91a1.15,1.15,0,0,0-.21-.27l-.15-.08a1.15,1.15,0,0,1-.39-.35,1.11,1.11,0,0,0-.35-.14A3.51,3.51,0,0,1,11.72,31.12Z"/><path class="cls-18" d="M21.86,10.44s0,0,0,0a3.87,3.87,0,0,0,.36.2,2,2,0,0,0,1.41.11,1.44,1.44,0,0,0-1.08-1.26,2.25,2.25,0,0,0,.17.62l-.08.06a2.45,2.45,0,0,1-.76.23Z"/><path class="cls-18" d="M14.9,10.48s0,0,0,0a2,2,0,0,1-.84-.29,3.27,3.27,0,0,0,.17-.62,1.44,1.44,0,0,0-1,1c0,.05-.06.21,0,.25a1.71,1.71,0,0,0,1,0,2.06,2.06,0,0,0,.78-.34Z"/><path class="cls-18" d="M24.36,30.71a4.32,4.32,0,0,1,.27.42,1.17,1.17,0,0,1,.09.59,2.39,2.39,0,0,0,.86-.13A1.34,1.34,0,0,0,26,31.3l.06-.06.06-.09a10.65,10.65,0,0,1-1.13,0,1.67,1.67,0,0,1,.14-.64c.07-.16.18-.37.23-.53a1.52,1.52,0,0,0-.32.12c-.07.05,0,.11-.22.23s-.43.22-.5.4Z"/><path class="cls-18" d="M10.93,28.59c-.38,0-.69-.12-.92-.14.22.55,1.31.78,1.65.66a1.65,1.65,0,0,0-.5-1.28,1.18,1.18,0,0,0-.35-.26,2.91,2.91,0,0,1,.13,1Z"/><path class="cls-18" d="M25.09,29.11a2.2,2.2,0,0,0,1-.12,1.26,1.26,0,0,0,.63-.54c-.19,0-.56.11-.92.14a2.87,2.87,0,0,1,.12-1,1.64,1.64,0,0,0-.61.59,1.55,1.55,0,0,0-.24.95Z"/><path class="cls-18" d="M26.55,25.3A1.63,1.63,0,0,0,27.67,24a3.74,3.74,0,0,1-.55.36,3.6,3.6,0,0,1-.45-.75,2.06,2.06,0,0,0-.12,1.72Z"/><path class="cls-18" d="M9.63,24.34A4,4,0,0,1,9.08,24a1.65,1.65,0,0,0,1.12,1.33,2.06,2.06,0,0,0-.12-1.72l-.2.4a2.41,2.41,0,0,1-.25.35Z"/><path class="cls-18" d="M12.93,13.34A1.38,1.38,0,0,0,14,13.25a1.26,1.26,0,0,0,.44-.37,3.76,3.76,0,0,1-1-.16l.19-.85a1.09,1.09,0,0,0-.58.54A1.6,1.6,0,0,0,12.93,13.34Z"/><path class="cls-18" d="M23.29,12.72c-.15,0-.28.08-.45.11a4.75,4.75,0,0,1-.53.05,1.39,1.39,0,0,0,1.51.46,1.49,1.49,0,0,0-.37-1.25,1.42,1.42,0,0,0-.34-.22l.18.85Z"/><path class="cls-18" d="M10,26h0c.1.52.9,1,1.4,1a1.7,1.7,0,0,0-.05-1,2.25,2.25,0,0,0-.19-.38,1,1,0,0,0-.26-.31,3.25,3.25,0,0,1-.08,1,3.47,3.47,0,0,1-.41-.16c-.12,0-.31-.14-.4-.16Z"/><path class="cls-18" d="M26.77,26h0c-.14,0-.57.26-.81.32a3.25,3.25,0,0,1-.08-1,1.72,1.72,0,0,0-.45.69,1.7,1.7,0,0,0-.05,1A1.61,1.61,0,0,0,26.77,26Z"/><path class="cls-18" d="M9,22.55c-.1-.09-.22-.16-.38-.3l-.36-.33A1.8,1.8,0,0,0,9,23.18a1.89,1.89,0,0,0,.39.26,2.11,2.11,0,0,0,.24-.72,1.9,1.9,0,0,0-.07-.86,2.74,2.74,0,0,1-.23.37,2.08,2.08,0,0,1-.27.32Z"/><path class="cls-18" d="M27.4,23.44a1.79,1.79,0,0,0,.38-.25,1.82,1.82,0,0,0,.69-1.27c-.06,0-.12.11-.18.16a5,5,0,0,1-.56.47,2.08,2.08,0,0,1-.27-.32,3.73,3.73,0,0,1-.23-.37,2,2,0,0,0-.07.84,2,2,0,0,0,.24.74Z"/><path class="cls-18" d="M10.37,20.77l-.61-.59a1.61,1.61,0,0,0,.23.94,2.4,2.4,0,0,0,.53.65,1.77,1.77,0,0,0,.32-1.62C10.75,20.32,10.61,20.66,10.37,20.77Z"/><path class="cls-18" d="M26.23,21.77a2.4,2.4,0,0,0,.53-.65,1.63,1.63,0,0,0,.23-.94l-.29.29c-.06.06-.11.08-.17.15l-.15.15a1,1,0,0,1-.28-.27c-.09-.12-.11-.23-.19-.36a2,2,0,0,0,0,.93,1.49,1.49,0,0,0,.35.7Z"/><path class="cls-18" d="M10.37,19.87a1.16,1.16,0,0,0,.24-.29,2.64,2.64,0,0,0,.44-1.2c-.05,0,0,0-.05,0l0,0a2.17,2.17,0,0,1-.58.44,5.8,5.8,0,0,1-.26-.77v-.05l0-.06A1.93,1.93,0,0,0,10,19.05a1.8,1.8,0,0,0,.4.82Z"/><path class="cls-18" d="M26.37,18.88a1.41,1.41,0,0,1-.34-.22l-.16-.13a.73.73,0,0,0-.17-.15,2.54,2.54,0,0,0,.24.85,2.25,2.25,0,0,0,.44.64,1.74,1.74,0,0,0,.32-1.76.19.19,0,0,0-.05-.11,5.73,5.73,0,0,1-.28.89Z"/><path class="cls-18" d="M12,14.68A1.41,1.41,0,0,0,13.26,14a3.53,3.53,0,0,1-.92,0l.06-.81a1.13,1.13,0,0,0-.46.59,1.58,1.58,0,0,0,0,.89Z"/><path class="cls-18" d="M14,7.93a1.79,1.79,0,0,0,1.12,0,1.28,1.28,0,0,0,.73-.61,1.59,1.59,0,0,0-1.54.24A1.34,1.34,0,0,0,14,7.93Z"/><path class="cls-18" d="M20.94,7.33a1.26,1.26,0,0,0,.71.6,1.78,1.78,0,0,0,1.14,0,1.44,1.44,0,0,0-.71-.59A1.66,1.66,0,0,0,20.94,7.33Z"/><path class="cls-18" d="M24.41,14a3.53,3.53,0,0,1-.92,0,1.4,1.4,0,0,0,1.31.71,1.68,1.68,0,0,0,0-.89,1.13,1.13,0,0,0-.45-.6l.05.81Z"/><path class="cls-18" d="M11,16.29a1.93,1.93,0,0,0,.64-.33,1.42,1.42,0,0,0,.45-.55l-.73.11-.05-.89c-.06,0,0,0-.08.07l-.17.23A1.53,1.53,0,0,0,11,16.29Z"/><path class="cls-18" d="M25.35,15.51l-.74-.09a1.24,1.24,0,0,0,.2.29,2,2,0,0,0,.9.58,1.57,1.57,0,0,0-.05-1.35,1.13,1.13,0,0,0-.26-.31l0,.88Z"/><path class="cls-18" d="M26,17a2.06,2.06,0,0,1-.76-.31,2.34,2.34,0,0,0,.93,1.16,1.39,1.39,0,0,0,.29-.82,1.5,1.5,0,0,0-.25-.85A2,2,0,0,0,26,17Z"/><path class="cls-18" d="M10.57,17.83a2.3,2.3,0,0,0,.94-1.16,2.25,2.25,0,0,1-.76.31,2.19,2.19,0,0,0-.21-.82,1.44,1.44,0,0,0-.15,1.31,1.19,1.19,0,0,0,.08.2l.1.16Z"/><path class="cls-18" d="M14.05,12.31a1.25,1.25,0,0,0,.79,0,1.6,1.6,0,0,0,.33-.11c.11-.05.22-.13.3-.16l0,0,0,0a1.57,1.57,0,0,1-.62-.24,2,2,0,0,0,.14-.52,1.06,1.06,0,0,0-.57.38,1.24,1.24,0,0,0-.28.69Z"/><path class="cls-18" d="M22,11.78a1.8,1.8,0,0,1-.65.24c-.06,0,0,0,0,0l.28.15a1.56,1.56,0,0,0,1.14.1,1.2,1.2,0,0,0-.85-1.06C21.89,11.54,22,11.7,22,11.78Z"/><path class="cls-18" d="M24,28.3c.24.12,1.16-.11,1.31-.53a4.54,4.54,0,0,1-.74.1c-.1-.26.09-.71.08-.86a1.55,1.55,0,0,0-.47.51A1.35,1.35,0,0,0,24,28.3Z"/><path class="cls-18" d="M12.22,27.87a4.7,4.7,0,0,1-.74-.1c.16.46,1.12.62,1.31.53A1.49,1.49,0,0,0,12.13,27c0,.23.18.62.09.86Z"/><path class="cls-18" d="M11.14,24.13a3,3,0,0,1-.44-.29,1.36,1.36,0,0,0,.88,1.08,1.61,1.61,0,0,0,0-1.09.88.88,0,0,0,0-.15l-.07-.16a3.34,3.34,0,0,1-.36.61Z"/><path class="cls-18" d="M25.17,24.92a1.36,1.36,0,0,0,.88-1.08c-.12.06-.29.23-.44.29a3,3,0,0,1-.36-.61l-.12.3c-.08.31-.13.91,0,1.1Z"/><path class="cls-18" d="M12.83,30c-.32,0-.61,0-.93,0a.94.94,0,0,0,.38.3,1.53,1.53,0,0,0,.38.12c.12,0,.1,0,.18-.12s.54-.54.58-.6-.1-.09-.23-.17a1.66,1.66,0,0,1-.24-.17c-.18-.17-.17-.34-.42-.38a2.68,2.68,0,0,1,.3,1Z"/><path class="cls-18" d="M25.3,25.57h0l-.32.15-.33.12a2.27,2.27,0,0,1-.07-.87,1.61,1.61,0,0,0-.38,1.42c.44-.06,1-.39,1.11-.81Z"/><path class="cls-18" d="M11.46,25.57h0a1.34,1.34,0,0,0,1.11.81A1.6,1.6,0,0,0,12.18,25a2.09,2.09,0,0,1-.07.87C11.88,25.75,11.59,25.61,11.46,25.57Z"/><path class="cls-18" d="M25.87,23.3a1.23,1.23,0,0,0,.29-.22,2.06,2.06,0,0,0,.25-.26,1.45,1.45,0,0,0,.3-.76,1.79,1.79,0,0,0-.14.13l-.15.13a3.47,3.47,0,0,1-.29.25,2.38,2.38,0,0,1-.41-.56,1.73,1.73,0,0,0,.15,1.29Z"/><path class="cls-18" d="M10.63,22.57a2.31,2.31,0,0,1-.29-.24l-.3-.27a1.6,1.6,0,0,0,.54,1,2.1,2.1,0,0,0,.3.22A1.73,1.73,0,0,0,11,22c-.06.1-.11.19-.18.29A2.13,2.13,0,0,1,10.63,22.57Z"/><path class="cls-18" d="M20.53,9.36a1,1,0,0,0,.57.5,1.42,1.42,0,0,0,.91,0,1.15,1.15,0,0,0-.58-.5A1.33,1.33,0,0,0,20.53,9.36Z"/><path class="cls-18" d="M14.74,9.87a1.53,1.53,0,0,0,.9,0,1,1,0,0,0,.58-.51,1.29,1.29,0,0,0-1.22.2A1.13,1.13,0,0,0,14.74,9.87Z"/><path class="cls-18" d="M23.38,29.62c0,.06.12.11.18.18l.58.6a1.42,1.42,0,0,0,.57-.26.4.4,0,0,0,.13-.16c-.32,0-.6,0-.92,0a2.4,2.4,0,0,1,.3-1c-.3,0-.2.26-.61.52-.06,0-.21.09-.23.13Z"/><path class="cls-18" d="M13.8,29.07l-.75,0a.66.66,0,0,0,.29.23c.4.2.41.09.69-.11a1.49,1.49,0,0,1,.31-.2,1.23,1.23,0,0,0-.12-.26c-.14-.2-.17-.08-.42-.37a.35.35,0,0,0-.23-.17,2.38,2.38,0,0,1,.23.85Z"/><path class="cls-18" d="M22.44,28.94c.08.07.42.27.61.42s.13.08.35,0a.66.66,0,0,0,.3-.24,3.83,3.83,0,0,1-.75-.05,2.7,2.7,0,0,1,.23-.83c-.23.08-.19.18-.4.34S22.64,28.57,22.44,28.94Z"/><path class="cls-18" d="M14.6,28.23l-.6,0a1,1,0,0,0,.93.25.53.53,0,0,0,.15-.05,1.17,1.17,0,0,0-.66-.95A1.86,1.86,0,0,1,14.6,28.23Z"/><path class="cls-18" d="M21.67,28.47l.13.05a1,1,0,0,0,.95-.26l-.61,0a2.1,2.1,0,0,1,.19-.72,1.13,1.13,0,0,0-.44.36,1.11,1.11,0,0,0-.22.59Z"/><path class="cls-18" d="M13.3,27.21l-.6-.09c0,.11.24.26.39.33a1.35,1.35,0,0,0,.64.1,1.25,1.25,0,0,0-.14-.65,1.31,1.31,0,0,0-.36-.43,2.48,2.48,0,0,1,.07.74Z"/><path class="cls-18" d="M23,27.55a1.35,1.35,0,0,0,.64-.1c.15-.07.36-.21.39-.34l-.6.1a2.22,2.22,0,0,1,.07-.74,1.29,1.29,0,0,0-.5,1.08Z"/><path class="cls-18" d="M20.19,11.08a.92.92,0,0,0,1.16.42,1,1,0,0,0-.44-.4A1,1,0,0,0,20.19,11.08Z"/><path class="cls-18" d="M15.4,11.5a1,1,0,0,0,.71,0,.81.81,0,0,0,.45-.42,1,1,0,0,0-.71,0A.89.89,0,0,0,15.4,11.5Z"/><path class="cls-19" d="M3.31,18.64c0-.05,0,0,0,0s0,0,0,0Z"/><path class="cls-20" d="M4.8,12.46c0-.06,0,0,0,0Z"/><path class="cls-21" d="M32,12.46h0C32,12.39,32,12.44,32,12.46Z"/><path class="cls-22" d="M14.23,8.61h0s0,0,0,0v0Z"/><path class="cls-23" d="M24.52,12.68s0,0,0,0l0,0C24.5,12.72,24.5,12.66,24.52,12.68Z"/><polygon class="cls-24" points="3.95 15.23 3.99 15.23 3.98 15.2 3.95 15.23"/><polygon class="cls-25" points="22.52 8.61 22.53 8.58 22.49 8.59 22.52 8.61"/><path class="cls-26" d="M21.85,10.48s0,0,0,0h0l0,0Z"/><path class="cls-27" d="M14.9,10.48l0,0,0,0s0,0,0,0Z"/><polygon class="cls-27" points="26.77 25.99 26.8 25.96 26.76 25.98 26.77 25.99"/><polygon class="cls-28" points="9.98 25.99 9.99 25.98 9.96 25.95 9.98 25.99"/><polygon class="cls-21" points="25.3 25.57 25.32 25.55 25.29 25.57 25.3 25.57"/><polygon class="cls-29" points="11.45 25.57 11.46 25.57 11.43 25.54 11.45 25.57"/></g></g></svg>