<svg id="Layer_1" data-name="Layer 1" xmlns="http://www.w3.org/2000/svg" viewBox="0 0 42.09 42.09"><defs><style>.cls-1{fill:#736a06;}.cls-1,.cls-3{fill-rule:evenodd;}.cls-2,.cls-3{fill:#0260b3;}</style></defs><g id="Layer_1-2" data-name="Layer_1"><g id="_1222049183888" data-name=" 1222049183888"><path class="cls-1" d="M21.05,0A21,21,0,1,1,0,21.05,21,21,0,0,1,21.05,0Zm0,.85A20.2,20.2,0,1,1,.85,21.05,20.19,20.19,0,0,1,21.05.85Z"/><path class="cls-2" d="M15.39,37.84l.45-1.78.33.09.73,1.54-.17,0,.33-1.28.4.11L17,38.25l-.33-.09L16,36.62l.16,0-.32,1.28Zm2.23.53L18,36.58l.41.08L18,38.45Zm1.89.31a.93.93,0,0,1-.39-.1,1,1,0,0,1-.3-.22.8.8,0,0,1-.19-.32,1,1,0,0,1,.06-.75.89.89,0,0,1,.23-.28.87.87,0,0,1,.33-.17,1.24,1.24,0,0,1,.84.07.79.79,0,0,1,.31.26l-.29.23a.63.63,0,0,0-.2-.17.72.72,0,0,0-.25-.07.69.69,0,0,0-.25,0,.56.56,0,0,0-.2.11.45.45,0,0,0-.13.17.46.46,0,0,0-.06.23.62.62,0,0,0,0,.24.64.64,0,0,0,.11.2.59.59,0,0,0,.18.13.46.46,0,0,0,.23.06.69.69,0,0,0,.25,0,.68.68,0,0,0,.24-.12l.22.32a1.14,1.14,0,0,1-.36.15,1.35,1.35,0,0,1-.4,0Zm.37-.26.05-.68.39,0-.06.73-.38-.08Zm1.28-.79.88,0,0,.33-.88,0Zm.06.75,1,0v.33l-1.42.06-.06-1.83,1.38,0v.34l-1,0,0,1.15Zm1.52.26-.21-1.81.79-.09a1,1,0,0,1,.43,0,.67.67,0,0,1,.3.19.64.64,0,0,1,.13.35.62.62,0,0,1-.05.36.67.67,0,0,1-.25.25,1,1,0,0,1-.41.13l-.55.06.16-.21.08.69-.42,0Zm1.15-.13-.53-.61.45,0,.54.61-.46,0Zm-.8-.56-.21-.17.53-.06a.52.52,0,0,0,.28-.12.28.28,0,0,0,.06-.24.27.27,0,0,0-.12-.22.4.4,0,0,0-.3,0l-.53.06.17-.22.11,1Zm1.71.36-.41-1.78.41-.1.42,1.78Zm.78-.16.18-2,.4-.13,1.36,1.47-.42.14L26,36.32l.16,0L26,38l-.41.14Zm.26-.5v-.34l.89-.3.21.27-1.1.37Z"/><path class="cls-2" d="M9.46,32a2.26,2.26,0,0,1,.3.41,1.33,1.33,0,0,1,.14.41l-.4.14a1.06,1.06,0,0,0-.11-.36,1.21,1.21,0,0,0-.22-.32A.77.77,0,0,0,9,32.08a.24.24,0,0,0-.15,0,.17.17,0,0,0-.12.05.16.16,0,0,0-.05.14.52.52,0,0,0,.06.19,2.53,2.53,0,0,0,.13.22,2,2,0,0,1,.13.25,1.25,1.25,0,0,1,.09.25.57.57,0,0,1,0,.26.53.53,0,0,1-.16.25.55.55,0,0,1-.32.16.68.68,0,0,1-.39-.05,1.32,1.32,0,0,1-.42-.3,2,2,0,0,1-.24-.33,1.11,1.11,0,0,1-.14-.35l.38-.16a1.25,1.25,0,0,0,.12.31,1.14,1.14,0,0,0,.18.25.54.54,0,0,0,.19.14.25.25,0,0,0,.16,0,.14.14,0,0,0,.11-.06.15.15,0,0,0,.06-.14A.56.56,0,0,0,8.53,33l-.13-.22-.13-.24a.93.93,0,0,1-.1-.26.7.7,0,0,1,0-.25.47.47,0,0,1,.16-.25.58.58,0,0,1,.31-.16.78.78,0,0,1,.39.05,1.26,1.26,0,0,1,.42.31Zm-2.31-.7-.62-.85.32-.23.61.86Zm.7-.55-.69-1,.33-.24,1,1.37L6.7,32.14l-1-1.33.33-.24.67.93,1.11-.8ZM6.74,28a1.27,1.27,0,0,1,.13.46,1.08,1.08,0,0,1,0,.44,1.28,1.28,0,0,1-.21.38,1.34,1.34,0,0,1-.37.28,1.26,1.26,0,0,1-.45.12,1.16,1.16,0,0,1-.81-.3A1.62,1.62,0,0,1,4.71,29a1.4,1.4,0,0,1-.14-.5,1.19,1.19,0,0,1,.09-.47l.42.15a.73.73,0,0,0-.07.31.67.67,0,0,0,.08.3.66.66,0,0,0,.17.23.5.5,0,0,0,.22.13.75.75,0,0,0,.26,0A.9.9,0,0,0,6,29.13.81.81,0,0,0,6.25,29a.79.79,0,0,0,.14-.23.57.57,0,0,0,0-.26,1.09,1.09,0,0,0-.08-.28A.88.88,0,0,0,6.15,28a.82.82,0,0,0-.28-.14L6,27.39a1,1,0,0,1,.43.22,1.14,1.14,0,0,1,.32.42Zm-.87-2.22a.91.91,0,0,1-.64,1.25l-1.16.38L3.91,27l1.15-.38a.66.66,0,0,0,.39-.26.45.45,0,0,0,0-.38.49.49,0,0,0-.24-.3.7.7,0,0,0-.47,0L3.61,26l-.16-.47,1.17-.39a1,1,0,0,1,.78,0A.94.94,0,0,1,5.87,25.81Zm-.52-1.64-2.17.26-.11-.94a1.41,1.41,0,0,1,0-.51.76.76,0,0,1,.24-.36.72.72,0,0,1,.4-.16.76.76,0,0,1,.43.06.78.78,0,0,1,.31.29,1.23,1.23,0,0,1,.15.49l.08.66-.25-.19.83-.1.06.5Zm-.17-1.38-.72.64-.06-.54.72-.64.06.54Zm-.66,1L4.31,24l-.07-.63a.51.51,0,0,0-.15-.33A.35.35,0,0,0,3.8,23a.32.32,0,0,0-.26.15.49.49,0,0,0-.06.36l.07.63-.26-.2,1.23-.14Zm.6-2.07-2.18.07,0-.5,2.18-.07Zm0-1.7-1.76-.13-.06.7-.41,0,.15-1.89.41,0-.06.7,1.77.13,0,.5Zm.19-1.65-2.14-.4.09-.5,2.14.4Zm-.89-2,.27-1,.38.1-.27,1Zm.88.2.31-1.15.39.11-.44,1.63-2.11-.56L3.89,15l.39.11L4,16.19l1.32.36ZM6.63,14.3a1.57,1.57,0,0,1-.27.43A1,1,0,0,1,6,15l-.28-.31a1.28,1.28,0,0,0,.29-.24,1.11,1.11,0,0,0,.21-.32.69.69,0,0,0,.07-.24.29.29,0,0,0,0-.16.2.2,0,0,0-.09-.09.16.16,0,0,0-.15,0,.58.58,0,0,0-.15.13l-.16.2a1.92,1.92,0,0,1-.18.22,1.12,1.12,0,0,1-.2.18.54.54,0,0,1-.24.09.61.61,0,0,1-.29-.05.58.58,0,0,1-.27-.24.63.63,0,0,1-.1-.38,1.33,1.33,0,0,1,.12-.5A2,2,0,0,1,4.81,13a1.13,1.13,0,0,1,.28-.26l.28.29a2.66,2.66,0,0,0-.24.23,1,1,0,0,0-.16.26.84.84,0,0,0-.07.23.35.35,0,0,0,0,.16A.22.22,0,0,0,5,14a.16.16,0,0,0,.15,0,.58.58,0,0,0,.15-.13l.16-.2a1.84,1.84,0,0,1,.17-.22,1.12,1.12,0,0,1,.2-.18.64.64,0,0,1,.24-.1.63.63,0,0,1,.29.05.6.6,0,0,1,.26.24.65.65,0,0,1,.1.38,1.29,1.29,0,0,1-.12.5Zm.89-1.86-1.13-2.1.3-.4L9,10.51l-.32.41-2-.54.12-.16,1,1.81-.31.41Zm-.07-.67-.22-.34.68-.89.39.13Zm1.87-1.59L7.82,8.59l.31-.29,2,.26L10,8.7,8.92,7.56l.36-.34,1.5,1.58-.31.29-2-.26.15-.14L9.68,9.83Zm2-1.87L10.14,6.47,11,5.94a1.33,1.33,0,0,1,.6-.22,1.06,1.06,0,0,1,.56.09,1.11,1.11,0,0,1,.44.4,1.27,1.27,0,0,1,.18.57,1,1,0,0,1-.16.55,1.38,1.38,0,0,1-.45.45l-.84.53Zm.21-.62.38-.25a.81.81,0,0,0,.28-.27.54.54,0,0,0,.08-.33.66.66,0,0,0-.11-.35.74.74,0,0,0-.27-.26.66.66,0,0,0-.34-.06.75.75,0,0,0-.36.13l-.39.25.72,1.14ZM14.44,5.1l1-.38.15.36-1,.38Zm.36.82,1.11-.43.15.38-1.58.61-.79-2,1.54-.6.14.38-1.07.41.5,1.28Zm1.58-.17L17,4.28l.08.36-1.15-1,.56-.13.8.71-.23.06.39-1L18,3.14l-.59,1.4-.08-.35,1.21,1.06L18,5.38l-.83-.75.22-.06-.4,1-.57.13ZM20,5.17a1.42,1.42,0,0,1-.47,0,1.07,1.07,0,0,1-.67-.55,1.07,1.07,0,0,1-.12-.44,1,1,0,0,1,.05-.46A1.07,1.07,0,0,1,19,3.3,1.22,1.22,0,0,1,19.33,3a1.3,1.3,0,0,1,.46-.11,1.12,1.12,0,0,1,.52.06.94.94,0,0,1,.4.25l-.3.33a.87.87,0,0,0-.26-.18,1.06,1.06,0,0,0-.31,0,.77.77,0,0,0-.27.07.83.83,0,0,0-.21.16.7.7,0,0,0-.13.24.64.64,0,0,0,0,.28.77.77,0,0,0,.07.28.89.89,0,0,0,.16.21.7.7,0,0,0,.24.13,1.2,1.2,0,0,0,.28,0,.66.66,0,0,0,.29-.09.79.79,0,0,0,.24-.21l.34.27a1,1,0,0,1-.36.32,1.37,1.37,0,0,1-.51.14ZM23.06,3l.5,0L23.4,5.24l-.51,0Zm-1.15,2.1-.51,0,.17-2.17.5,0ZM23,4.31l-1.06-.08,0-.43L23,3.88l0,.43Zm.84,1,1.52-1.84.48.13.35,2.37-.51-.14-.25-2.07.19,0L24.33,5.42l-.49-.14ZM24.43,5l.23-.33,1.08.3,0,.41Zm2.2,1.11.89-2,.38.17.54,2-.19-.08.64-1.44.46.21-.89,2-.38-.17-.54-2,.19.08-.64,1.43-.46-.2Zm3.3,1.79a1.15,1.15,0,0,1-.36-.33,1,1,0,0,1-.18-.4,1,1,0,0,1,0-.43,1.21,1.21,0,0,1,.17-.43,1.12,1.12,0,0,1,.32-.33,1.05,1.05,0,0,1,.41-.17,1.37,1.37,0,0,1,.45,0,1.34,1.34,0,0,1,.44.2,1.23,1.23,0,0,1,.39.36,1.08,1.08,0,0,1,.17.45l-.43.07a.69.69,0,0,0-.12-.29A.66.66,0,0,0,31,6.35a.8.8,0,0,0-.27-.12.62.62,0,0,0-.27,0,.53.53,0,0,0-.24.11.67.67,0,0,0-.2.21.66.66,0,0,0-.11.26.61.61,0,0,0,0,.27.66.66,0,0,0,.11.24,1,1,0,0,0,.21.2,1,1,0,0,0,.27.11.89.89,0,0,0,.33,0l0,.46a1.44,1.44,0,0,1-.46,0A1.54,1.54,0,0,1,29.93,7.86Zm.54-.06.44-.69.39.25-.48.75-.35-.31Zm2,.33.76.73L33,9.14l-.76-.73.27-.28Zm-.59.67.85.82-.28.3L31.23,8.75l1.52-1.58,1.19,1.15-.28.29-.83-.8-.95,1ZM34,11.88a1.32,1.32,0,0,1-.21-.43,1.66,1.66,0,0,1,0-.44,1.34,1.34,0,0,1,.15-.41,1.12,1.12,0,0,1,.31-.34,1.3,1.3,0,0,1,.42-.19,1.09,1.09,0,0,1,.44,0,1.05,1.05,0,0,1,.41.17,1.21,1.21,0,0,1,.35.33,1.31,1.31,0,0,1,.21.47.91.91,0,0,1,0,.49l-.43-.09a.7.7,0,0,0,0-.32.77.77,0,0,0-.12-.28,1,1,0,0,0-.21-.2.7.7,0,0,0-.24-.09.82.82,0,0,0-.27,0,.79.79,0,0,0-.26.13.76.76,0,0,0-.2.2.58.58,0,0,0-.09.25.57.57,0,0,0,0,.26.68.68,0,0,0,.12.26.76.76,0,0,0,.23.21,1,1,0,0,0,.3.08l0,.44a1.07,1.07,0,0,1-.46-.14,1.43,1.43,0,0,1-.38-.36ZM35.27,14a1.21,1.21,0,0,1-.14-.47,1.08,1.08,0,0,1,0-.44,1.06,1.06,0,0,1,.21-.39,1.1,1.1,0,0,1,.36-.27.91.91,0,0,1,.44-.12,1,1,0,0,1,.43.06,1.15,1.15,0,0,1,.39.24,1.4,1.4,0,0,1,.42.85,1.29,1.29,0,0,1,0,.44,1.28,1.28,0,0,1-.21.38,1.09,1.09,0,0,1-.36.28,1,1,0,0,1-.45.12,1,1,0,0,1-.43-.06,1.11,1.11,0,0,1-.38-.24,1.21,1.21,0,0,1-.28-.38Zm.38-.2a.54.54,0,0,0,.17.22.5.5,0,0,0,.22.13.71.71,0,0,0,.54-.05.66.66,0,0,0,.23-.17.68.68,0,0,0,.14-.23,1,1,0,0,0,0-.25.7.7,0,0,0-.08-.27.73.73,0,0,0-.16-.22.76.76,0,0,0-.23-.13.74.74,0,0,0-.26,0,1.09,1.09,0,0,0-.28.08.81.81,0,0,0-.23.17.76.76,0,0,0-.13.23.57.57,0,0,0,0,.26A.59.59,0,0,0,35.65,13.81Zm.4,1.81,2.1-.59.11.4L37,16.74,37,16.53,38.7,17l.11.4-2.1.59-.13-.45,1.4-.4,0,.09-1.38-.37-.06-.22,1-1,0,.1-1.4.39-.13-.45Zm.76,3.07L39,18.52l0,.42-1.47,1,0-.22,1.61.79,0,.42L37,21.14l0-.47,1.45-.12v.09L37.14,20l0-.23L38.29,19v.1l-1.45.11,0-.47Zm.12,3.17,2.18.17,0,.5-2.18-.16Zm-.27,1.95a1.94,1.94,0,0,1,.16-.48,1.2,1.2,0,0,1,.25-.34l.34.24a1.38,1.38,0,0,0-.22.29,1.26,1.26,0,0,0-.13.37.72.72,0,0,0,0,.25.2.2,0,0,0,.05.14.19.19,0,0,0,.11.07.16.16,0,0,0,.15,0,.74.74,0,0,0,.12-.16c0-.08.07-.15.11-.24a1.42,1.42,0,0,1,.12-.25.86.86,0,0,1,.15-.22.51.51,0,0,1,.21-.15.58.58,0,0,1,.61.15.63.63,0,0,1,.19.34,1.31,1.31,0,0,1,0,.52,1.27,1.27,0,0,1-.12.39,1,1,0,0,1-.2.32l-.35-.22a1.67,1.67,0,0,0,.18-.28.95.95,0,0,0,.11-.53.35.35,0,0,0-.07-.15.24.24,0,0,0-.11-.06.19.19,0,0,0-.15,0A.5.5,0,0,0,38,24a1.75,1.75,0,0,0-.11.24l-.12.25a1.25,1.25,0,0,1-.16.22.51.51,0,0,1-.21.15.55.55,0,0,1-.29,0,.63.63,0,0,1-.31-.17.71.71,0,0,1-.19-.34,1.36,1.36,0,0,1,0-.53Zm-.53,2.12a2.09,2.09,0,0,1,.22-.45,1.11,1.11,0,0,1,.3-.31l.3.28a1.25,1.25,0,0,0-.25.26,1.29,1.29,0,0,0-.18.35.93.93,0,0,0-.05.24.22.22,0,0,0,0,.15.16.16,0,0,0,.1.08.16.16,0,0,0,.15,0,.41.41,0,0,0,.14-.15,1.93,1.93,0,0,0,.13-.21l.16-.24a.86.86,0,0,1,.18-.2.46.46,0,0,1,.23-.12.59.59,0,0,1,.29,0,.63.63,0,0,1,.3.21.78.78,0,0,1,.14.36,1.47,1.47,0,0,1-.07.52,1.76,1.76,0,0,1-.17.37,1.41,1.41,0,0,1-.25.29l-.32-.27a1.27,1.27,0,0,0,.22-.25,1,1,0,0,0,.13-.27.55.55,0,0,0,0-.24.24.24,0,0,0,0-.15.18.18,0,0,0-.11-.08.16.16,0,0,0-.15,0,1,1,0,0,0-.13.15,2.11,2.11,0,0,0-.14.22,1.5,1.5,0,0,1-.15.23.7.7,0,0,1-.18.2.46.46,0,0,1-.23.12.49.49,0,0,1-.29,0,.57.57,0,0,1-.29-.2.82.82,0,0,1-.14-.37,1.41,1.41,0,0,1,.07-.51Zm-.47,1.38,2,.89-.2.46-2-.89Zm-1.06,2a1.15,1.15,0,0,1,.33-.36,1.23,1.23,0,0,1,.4-.19,1.09,1.09,0,0,1,.44,0,1,1,0,0,1,.43.17,1.08,1.08,0,0,1,.32.32,1,1,0,0,1,.17.4,1.36,1.36,0,0,1,0,.45,1.13,1.13,0,0,1-.19.44,1.15,1.15,0,0,1-.33.36,1,1,0,0,1-.4.18,1.08,1.08,0,0,1-.44,0A1.06,1.06,0,0,1,34.9,31a1,1,0,0,1-.33-.32,1,1,0,0,1-.16-.41,1.09,1.09,0,0,1,0-.44,1.54,1.54,0,0,1,.19-.44Zm.36.23a.6.6,0,0,0-.1.25.57.57,0,0,0,0,.26.51.51,0,0,0,.1.24,1,1,0,0,0,.21.2.77.77,0,0,0,.27.11.57.57,0,0,0,.26,0,.64.64,0,0,0,.24-.1.73.73,0,0,0,.19-.2.7.7,0,0,0,.1-.26.57.57,0,0,0,0-.26.82.82,0,0,0-.1-.24,1,1,0,0,0-.21-.19.62.62,0,0,0-.27-.11.57.57,0,0,0-.26,0,.51.51,0,0,0-.24.1.61.61,0,0,0-.19.2Zm-1.34,1.25,1.66,1.42-.27.31-2,0,.13-.15,1.2,1-.33.38-1.66-1.42.27-.31,2,0-.13.15-1.19-1,.32-.38Z"/><path class="cls-1" d="M10.7,34.21a17,17,0,0,0,3.86,2.28l-.17.41a17.38,17.38,0,0,1-3.93-2.3l.24-.39Z"/><path class="cls-1" d="M32,34.32a17.29,17.29,0,0,1-3.63,2.3L28,36.29A16.87,16.87,0,0,0,31.63,34h0l.35.29Z"/><path class="cls-3" d="M18.19,24.84a2,2,0,0,1-1.82,1.45,2.07,2.07,0,0,1-1.83-1.45Z"/><path class="cls-3" d="M27.52,24.75a2,2,0,0,1-1.78,1.42A2,2,0,0,1,24,24.75Z"/><polygon class="cls-3" points="24.78 30.03 21.8 30.03 21.28 30.03 17.46 30.03 18.5 28.13 21.28 28.13 21.8 28.13 23.75 28.13 24.78 30.03"/><polygon class="cls-3" points="17.32 30.3 24.86 30.3 24.86 31.99 17.32 31.99 17.32 30.3"/><path class="cls-3" d="M20.35,17.43c0-.16.5-.68.58-.8.27-.38.24-.77.46,0,.09.3.25,1.38-.35,1.1-.22-.1-.69.35-.69-.31Zm1.85-3.57Zm-3.12-.93c0-.08-.13,0-.13-.19-.07,0,0,0-.08,0C18.87,12.91,19,12.93,19.08,12.93Zm.32.12c-.12-.05-.1-.1-.16-.12-.14.28.6.19.4.05,0,.09-.21.08-.25.07Zm3.81.08s.13-.16.15-.19c-.14-.07-.22,0-.36,0A.11.11,0,0,0,23,13c.08,0,.16.09.25.09Zm-4.47-.4c.15-.07.26-.21.11-.33C18.55,12.53,18.39,12.86,18.74,12.73Zm4.81-.11c-.27-.16-.19,0-.21.23a1.08,1.08,0,0,1,.3.11.51.51,0,0,0,0-.25Zm-.7.59.11-.09c-.08-.08-.29,0-.42-.14a.36.36,0,0,1-.2.15v0a.51.51,0,0,0,.51.05Zm-4.64-.8c0,.09,0,.09,0,.14.21,0,.67-.15.53-.45a3.61,3.61,0,0,0-.56.31Zm1.56,2.24A3.11,3.11,0,0,0,20,14H19.7c0,.56-.06.15.05.63ZM22.34,14c-.16,0-.2-.07.12.6,0,.07,0,.06,0,.1C22.64,14.54,22.71,14.06,22.34,14ZM20,10.66c0,.44.68,0,.54-.09s-.18-.15-.45,0c0,0-.09.06-.09.08Zm4,2.05s0,0,0,0c.11-.16-.29-.45-.47-.45s0,.05-.1.06-.05.07-.06.12a1.69,1.69,0,0,0,.58.26Zm-1.24.81c.08.18.2.55.42.22a1.26,1.26,0,0,1-.18-.49c-.11,0-.18.11-.3.11l.06.15Zm.34-.21c0,.38.56.94.37.1a1.42,1.42,0,0,1-.09-.3c-.16,0-.06.14-.28.14v.06Zm-3.58.5c0-.16.34-.58.25-.71-.12.07-.21.15-.34.12-.14.19-.35.82.08.59Zm.54,0c0-.19-.05-.47-.06-.67h-.13c-.6,1.25.19.72.19.67Zm-1.11,0c.15,0,.53-.65.23-.85-.07,0,0,0-.14,0S18.68,13.87,18.93,13.87Zm1.26,4.3c0,.38.65.4.55.2s0-.62-.27-.44c-.08.05,0,.05-.22.05C20.22,18.1,20.19,18,20.19,18.17Zm2.23.08c-.23-.21-.08.18-.32.4s.61.46.61-.16c0-.13-.2,0-.24-.15A.13.13,0,0,0,22.42,18.25Zm-2.65.4c-.21,0-.21-.34-.19-.5-.2,0-.22.18-.24.23-.51,0,0,.64.2.42s.23.09.23-.15Zm.36-.63c.06-.14-.26-.07-.26.12-.09,0-.54.22-.07.43.22.1.24,0,.46,0,0,0,0,0,0-.05S20,18.21,20.13,18Zm3.39-4.64c.24.61.51.61.39.15a3.33,3.33,0,0,0-.16-.6c-.16.13-.25,0-.33.07A2.15,2.15,0,0,1,23.52,13.38Zm1-.4a2.59,2.59,0,0,1-.14-.42,1,1,0,0,0-.24,0c0,.13.37,1.41.54,1C24.77,13.4,24.6,13.14,24.53,13ZM22,18.16a.28.28,0,0,1,0-.1c-.37-.19-.16-.08-.3.22s-.08.12.12.32.47-.17.39-.36,0,0-.05-.07Zm-4.24-4.52c.19,0,.45-.79.45-1a.48.48,0,0,1-.07-.2c-.2,0-.53,1.22-.39,1.22Zm7.69.73a.3.3,0,0,0,.13.12c0-.13-.43-1.73-.44-1.74-.49-.25-.31-.44.07.54,0,.1.08.19,0,.29-.22,0-.16.19.07.59l.16.2Zm-1.37-1.58s-.2,0-.28,0c0,.22.33,1.39.61.85,0,0,0,0,0,0s-.21-.85-.34-.76ZM18.5,13.85c.34,0,.51-.87.26-1l-.16.06c0,.12-.36,1-.1,1Zm-.38-.08c.32,0,.46-1.18.3-1.18s0,0-.12,0-.5,1.16-.17,1.16Zm4.42-.42c-.44-.18-.68-.51-.46.2.16.5,1,.52.54-.11C22.54,13.33,22.61,13.37,22.54,13.35Zm-5.42.08c0-.29.39-.6.39-.9-.22,0-.45.41-.48.66a12.62,12.62,0,0,0-.34,1.31,1.45,1.45,0,0,0,.53-.92h-.07c0-.09,0,0,0-.15Zm.77-1.32c0,.55,1.14-.11,1-.38l-.06-.13C18.68,11.61,17.89,12,17.89,12.11Zm5.5-.26a.55.55,0,0,1,.14.32c.36.21.91.59.86,0C24.11,12.16,23.62,11.52,23.39,11.85Zm-2,6.7s.56-1.07-.3-.5c-.51-.12-.26.1-.26.46.19.13.22-.08.27-.08s.13.23.29.12Zm1.91-3.4a6.12,6.12,0,0,0-.25-1.21c-.58,0-.49.06-.21.79C22.92,14.89,23.13,15.28,23.32,15.15Zm-4.33,0c.46,0,.63-1,.56-1.28h-.07c-.07.14-.21,0-.29,0l0,0C19.15,14.07,18.89,15.18,19,15.18ZM25,12c-.05-.1-.12-.13-.12-.22h0c0,.3,0,.44-.37.44,0,.18.05.15,0,.32.11.21.28,1.19.72,1,0-.26-.91-1.71-.07-.85.28.29.32-.1.1-.34A1.49,1.49,0,0,1,25,12Zm-7.88.73c.17,0,.36-.46.53-.34-.09.39-.77,1.28-.2,1.06.23-.08.38-.72.45-.92s-.1-.18-.1-.42c-.23,0-.25-.13-.39-.23-.14.28-.3.52-.46.79.07,0,.06.06.17.06ZM18.27,16c.53,0,.83-2.13.74-2.09-.4.2,0-.34-.39.54-.05.15-.36,1.56-.35,1.56Zm-.72-4.41c-.07.8.66.17,1,0a1.22,1.22,0,0,0,.36-.27c-.39-.26.12-.4-.79-.12C18,11.27,17.81,11.59,17.55,11.61Zm5.93,2.33c-.32,0-.4-.3-.22.42a3.48,3.48,0,0,0,.6,1.6c.37.43-.26-1.55-.27-1.65a1.45,1.45,0,0,0-.11-.37Zm0-2.53a.89.89,0,0,0,.53.46c.39.15.76.51.77-.1,0-.15-1.36-.8-1.26-.6s0,.15,0,.24Zm.86,2.76c0-.38-.44-.67-.26.1.06.24.44,2.32.75,2.32.1,0,.05,0,.11-.06A14.87,14.87,0,0,0,24.33,14.17Zm-6.92,2.42c.25,0,.88-2.67.88-2.8a1.35,1.35,0,0,1-.29,0c0,.32-.86,2.77-.59,2.77Zm.5-.25c.27,0,.78-2.47.75-2.46-.39.17-.27-.27-.6,1.21a6.15,6.15,0,0,0-.32,1.19C17.74,16.35,17.81,16.34,17.91,16.34Zm6-2.41a.44.44,0,0,1-.29-.11,7.72,7.72,0,0,0,.73,2.52c.33,0,0-.52,0-.74a9,9,0,0,0-.44-1.67Zm.94.56c-.06-.2-.19-1-.44-.73a10.1,10.1,0,0,0,.81,3,.61.61,0,0,1,.1.14h.05a2.1,2.1,0,0,0-.22-1.31,6.64,6.64,0,0,1-.3-1.08ZM17,16.85c.64-.59.58-2.34,1-3.11,0,0,0,0,0-.09a.61.61,0,0,1-.28,0c0,.49-1.06,3-.72,3.19Zm7.94-3.32c-.06,0-.06,0-.11,0A2.24,2.24,0,0,0,25,14.76c.14.39.46,2.25.92,2.37A10.68,10.68,0,0,0,24.9,13.53Zm-8.59,3.58c0,.38.49-.81.53-.92a22.68,22.68,0,0,0,.69-2.68c-.43.06-1,2.27-1.1,2.76a4.72,4.72,0,0,0-.12.84Zm4.55-4.75a.43.43,0,0,0,.06.21c.18,0,.15-.35.1-.46S20.86,12.3,20.86,12.36Zm.41-.1c0,.4.29.21.22-.09-.07,0,0,0-.09,0a.08.08,0,0,1,0-.05C21.29,12.16,21.27,12.26,21.27,12.26ZM22.34,17c0,.06-.06.07-.07.13-.23,0-.05-.52,0-.13h0C22.27,16.89,22.42,16.77,22.34,17Zm-.91-.49c.09,0,.1.08.11.14.19-.27.16,0,0,.13s-.12-.19-.12-.27Zm-.54.08c0,.24-.39-.19-.14-.19a.85.85,0,0,0,0,.17c.06-.05,0-.15.16-.15a.58.58,0,0,1-.06.17Zm.93-.08a.84.84,0,0,1-.08-.2l.06,0a1.79,1.79,0,0,0,.12.24s.3-.44.07.06a.18.18,0,0,1,0,.07C21.84,16.61,21.85,16.58,21.82,16.51Zm-1.45-.36s0,0,0,0,.07.09.1.14.05-.12.14-.12-.06.23-.16.25A.35.35,0,0,1,20.37,16.15Zm1.81,0s0,0,0,0,.05.06.07.14,0-.12.16-.12C22.44,16.34,22.18,16.44,22.18,16.13Zm-1.15,0c-.16.26-.38-.53-.15-.17,0,0,0,0,.05.12h0s0-.21.12-.22S21.05,16.09,21,16.14Zm-.54-.24a.37.37,0,0,1-.06-.21c.1-.06.07.1.14.12.11-.22.18,0,0,.14l0,0Zm1.13-.19c0,.07,0,.14-.12.19s-.07-.46,0-.13c.36-.26.13,0,.32.14,0,0,.37-.54.05.08-.08.15-.2-.26-.26-.28Zm.07-.31a.44.44,0,0,1-.05-.15c.05,0,.05,0,.09,0a.43.43,0,0,0,.1.24c.14-.1.1-.37.1,0a.26.26,0,0,1-.09.16C21.73,15.58,21.76,15.51,21.69,15.4Zm-.26-.08s0,0-.08.12c-.13-.09-.18-.47,0-.13.05,0,.05-.2.16-.12s0,0-.07.13ZM20.78,15c0-.1.12.1.13.1s0-.1.13-.1C21.08,15.19,20.78,15.39,20.78,15Zm.56-.12c0,.38-.25-.12-.29-.18s0,0,.07,0,.06.18.11.27c.14-.1.11-.36.11,0Zm.09-.24c.08,0,.11.07.11.14h0c.05-.2.17-.11,0,.08S21.43,14.71,21.43,14.65Zm-.82.14c-.09.17-.34-.29-.18-.29l.1.23c.11-.05.22-.35.12,0C20.64,14.76,20.63,14.76,20.61,14.79Zm.61-.29c-.09.14-.24-.11-.24-.28.18,0,.1.39.21.1s.11.06,0,.18Zm.56.06c-.25-.13-.15-.61,0-.17,0,0,0,0,0,.06.22-.42.13,0,0,.11Zm-1.6-.73s.12.13.12.22,0-.07.16-.21h.07c0,.32-.35.4-.35,0Zm1.22,0c.1-.24.19-.12,0,.21-.22-.15-.1-.57,0-.19C21.35,14,21.37,13.94,21.4,13.86Zm-.76-.1c0-.24.1,0,.1.12,0,0,.43-.43.08.06-.12.16-.17-.08-.18-.17Zm1-.42c-.12.15-.21-.11-.21-.29s.13.16.13.24l.05,0a.2.2,0,0,1,.12-.2s0,.19-.09.27Zm-.43-.19c-.15.18-.15.36-.29,0s.06-.12.12.08c0,0,.14-.19.18-.21l0,0,0,0Zm-.51,0c-.32.86-.22-.83-.14.1C20.59,13.22,20.82,12.82,20.7,13.13Zm-.25-.46a.65.65,0,0,1-.06-.29s.05,0,.08,0c0,.19,0,0,0,.22.07,0,.08-.26.21-.19a.54.54,0,0,1-.21.32l-.06-.07Zm1.24-.73a.45.45,0,0,1,0-.17c.1,0,.12.12.13.23s.06-.23.2-.2a.58.58,0,0,1-.2.34.45.45,0,0,1-.09-.2Zm-.29-.39c.08,0,.05-.2.18-.21s0-.09.09-.05,0,0,0,.21c.08,0,.08-.24.2-.21,0,.22-.26.46-.29.11-.15,0-.09.29-.28.24-.18.11-.19.37-.29,0s.09,0,.11.13c.32-.12,0-.74.24-.21Zm.63.17c0-.64-.36-.91-.05-1.26.05-.05.06,0,.06-.08a2.27,2.27,0,0,1-.69-.11c-.28-.14-.8-.34-1,.1a1.33,1.33,0,0,0,.34.16c0,.14-.14.12-.17.24.18.25.82.23.17,1.2.11.06.12.41.2.13s.2.14.23.2.15-.75.23-.29c0,0,0,.05,0,.07s.35-.41.12,0a.35.35,0,0,1,.1.24c.13,0,.22-.38.12,0,0,.18-.12.1-.22.12-.13.27-.28.27-.28-.08,0,0,0,0-.06.06s-.31.72-.45-.32c0,0,0-.06,0-.09s-.84,1-1.48.31c-.44-.48,1.24-2-.55-1.69-.25,0-1.25.6-1.26.87.46,0,.25-.18,1.06-.44.65-.21.14-.11.51.19,0,0,.06,0,.09.08-.26.38-.06.19-.06.54-.27.1,0,.94.15,1s.45.26.54.08l.22.17c.07,0,.1,0,.15,0,0,1.43.6,1.84.06,3.44,0,.11-.08.17-.05.22.63-.46.45.7-.31.93a2.68,2.68,0,0,1-.41,0c0,.5.13.39.51.2s.92.05,1.26.05c.06-.24.37-.08.49-.05.08-.12.49.15.89.14,0-.39-1.06-.05-.74-.81.25-.57.54.12.54.49a5.34,5.34,0,0,0,1.62-.1c0-.14-.93-1.08-1.11-1.42S21.63,12.82,22,13s.38-.15.76,0c.12,0,0,0,.14,0,0-.29.37.06.37-.41,0-.3.34-.36.08-.67-.08-.09.2-.25.1-.42s-.06-.08-.06-.13c.32-.09-.44-.52.5-.22.23.07,1.73.94.63,0-.56-.45-2.17-1.09-1.64.32s-1.18,1.45-.87.5a1.36,1.36,0,0,0,0-.27Z"/><path class="cls-1" d="M23.94,24.16h3.61l-1.64-5.07h.85v-.54H22.47c.05.08.23,0,.23.13,0,.63-.76.3-.61.16a.51.51,0,0,0,.15-.29h-.06c0,.18-.27.4-.41.25s-.3.05-.16-.25h-.13c0,.1-.08.19-.08.2-.16.1-.22-.13-.29-.13s-.08.22-.28.09a.78.78,0,0,0,0-.16h-.09c.08.16-.33.18-.49,0h-.06l.11.13s0,0,0,.06c-.23,0-.25.13-.47,0s-.22-.16-.21-.22h0c0,.14.06.29.2.3,0,.24-.11,0-.23.14s-.71-.42-.2-.42v0H15.45v.54h.8l-1.59,5.07h3.61l-1.64-5.07h.28l1.26,1.83H20.7v.57H19.35v.45h.89v.94h.3v4h-1.3l-.47.83h4.68L23,26.9h-1.3v-4H22v-.94h.89v-.45H21.51v-.57h2.91l1-1.48L24,24.16Zm-8.66-.39h2.36l-1.17-3.59Zm2.5-4.41.91,1.09h5.19l.91-1.09Zm6.79,4.41h2.35l-1.16-3.59Z"/><path class="cls-1" d="M21.05,7.42A13.63,13.63,0,1,0,34.68,21.05,13.63,13.63,0,0,0,21.05,7.42Zm0,.67a13,13,0,1,0,13,13A13,13,0,0,0,21.05,8.09Z"/></g></g></svg>