<svg id="Layer_1" data-name="Layer 1" xmlns="http://www.w3.org/2000/svg" viewBox="0 0 56.62 27.52"><defs><style>.cls-1{fill:#253f66;}.cls-2{fill:#ededed;}.cls-3{fill:#fc4e2b;}.cls-4{fill:#00884f;}</style></defs><g id="Layer_1-2" data-name="Layer_1"><g id="_1259097214336" data-name=" 1259097214336"><path class="cls-1" d="M0,4.72a.14.14,0,0,1,.16-.16h4a.14.14,0,0,1,.16.16v.92c0,.11,0,.17-.16.17H2.82v4a.15.15,0,0,1-.17.16h-1a.15.15,0,0,1-.16-.16v-4H.16C.05,5.81,0,5.75,0,5.64Z"/><path class="cls-1" d="M6.25,4.72a.14.14,0,0,1,.16-.16H7.49a.14.14,0,0,1,.16.16V9.81a.14.14,0,0,1-.16.16H6.41a.14.14,0,0,1-.16-.16Z"/><path class="cls-1" d="M9.63,4.72a.14.14,0,0,1,.16-.16h4a.14.14,0,0,1,.16.16v.92c0,.11-.05.17-.16.17H12.45v4a.15.15,0,0,1-.17.16h-1a.15.15,0,0,1-.16-.16v-4H9.79c-.11,0-.16-.06-.16-.17Z"/><path class="cls-1" d="M17.16,6.27l-.57,1.65h1.16ZM16.5,4.72a.23.23,0,0,1,.23-.16h.89a.22.22,0,0,1,.22.16l2,5.09c0,.1,0,.16-.11.16H18.64a.22.22,0,0,1-.22-.16l-.25-.72h-2l-.25.72a.21.21,0,0,1-.22.16H14.63c-.11,0-.14-.06-.1-.16l2-5.09Z"/><path class="cls-1" d="M23,6.66V9.81c0,.1-.06.16-.18.16h-1a.14.14,0,0,1-.16-.16V4.72a.15.15,0,0,1,0-.11.14.14,0,0,1,.12-.05H23a.23.23,0,0,1,.14,0,.43.43,0,0,1,.11.12l1.83,3V4.72a.15.15,0,0,1,0-.11.14.14,0,0,1,.12-.05h1a.19.19,0,0,1,.12,0,.16.16,0,0,1,.06.12V9.81c0,.1-.06.16-.18.16H25.16a.3.3,0,0,1-.26-.16L23,6.66Z"/><path class="cls-1" d="M0,11.5a.14.14,0,0,1,.16-.16h4a.14.14,0,0,1,.16.16v.92a.14.14,0,0,1-.16.16H2.82v4c0,.11-.06.16-.17.16h-1a.14.14,0,0,1-.16-.16v-4H.16A.14.14,0,0,1,0,12.42Z"/><path class="cls-1" d="M7.35,12.46v1.32h.8a.76.76,0,0,0,.27,0,.62.62,0,0,0,.2-.15.77.77,0,0,0,.14-.21.67.67,0,0,0,0-.24.61.61,0,0,0,0-.24,1,1,0,0,0-.14-.22,1,1,0,0,0-.2-.15.6.6,0,0,0-.27-.06Zm-1.41-1a.21.21,0,0,1,0-.11.13.13,0,0,1,.12-.05H8.52a1.63,1.63,0,0,1,.7.15,1.84,1.84,0,0,1,.54.41,2,2,0,0,1,.36.58,2,2,0,0,1,.12.67,1.54,1.54,0,0,1-.06.43A2.17,2.17,0,0,1,10,14a1.59,1.59,0,0,1-.28.36,2,2,0,0,1-.36.29l1.05,1.94a.11.11,0,0,1,0,.11s0,0-.09,0H9a.16.16,0,0,1-.11,0,.31.31,0,0,1-.08-.12L7.93,15H7.35v1.63a.14.14,0,0,1-.16.16H6.1a.14.14,0,0,1-.16-.16V11.5Z"/><path class="cls-1" d="M13.24,14.59a1.25,1.25,0,0,0,.08.45.76.76,0,0,0,.2.31.73.73,0,0,0,.28.17.92.92,0,0,0,.68,0,.91.91,0,0,0,.29-.19A1,1,0,0,0,15,15a1.11,1.11,0,0,0,.07-.43V11.5a.21.21,0,0,1,.05-.12.17.17,0,0,1,.12-.05h1.06a.17.17,0,0,1,.13.05.21.21,0,0,1,.05.12v3.07a2.63,2.63,0,0,1-.19,1.07,1.89,1.89,0,0,1-.5.69,2,2,0,0,1-.74.38,3.25,3.25,0,0,1-1.75,0,1.91,1.91,0,0,1-.73-.39,1.77,1.77,0,0,1-.51-.7,2.7,2.7,0,0,1-.19-1V11.5a.21.21,0,0,1,0-.11.12.12,0,0,1,.11-.05h1.11c.06,0,.11,0,.13,0a.43.43,0,0,1,0,.12v3.09Z"/><path class="cls-1" d="M18.08,15.81a.13.13,0,0,1,0-.07.11.11,0,0,1,0-.08.24.24,0,0,1,.06-.09l.63-.6a.13.13,0,0,1,.11-.05.13.13,0,0,1,.08,0L19,15a2.67,2.67,0,0,0,.23.18,1.85,1.85,0,0,0,.27.19,1.38,1.38,0,0,0,.3.14.92.92,0,0,0,.33.06,1.21,1.21,0,0,0,.3,0,.5.5,0,0,0,.18-.11.39.39,0,0,0,.1-.16,1.36,1.36,0,0,0,0-.2.26.26,0,0,0-.08-.2.83.83,0,0,0-.2-.16l-.24-.11L20,14.5a5.09,5.09,0,0,1-.77-.33,2.76,2.76,0,0,1-.56-.39,1.69,1.69,0,0,1-.34-.48,1.36,1.36,0,0,1-.11-.58,1.22,1.22,0,0,1,.14-.61,1.32,1.32,0,0,1,.4-.48,1.94,1.94,0,0,1,.63-.3,2.81,2.81,0,0,1,.8-.11,2.92,2.92,0,0,1,.5,0,3.82,3.82,0,0,1,.48.15,2.3,2.3,0,0,1,.44.23,1.59,1.59,0,0,1,.34.28.29.29,0,0,1,.08.17.26.26,0,0,1-.09.17l-.56.59a.17.17,0,0,1-.12.06l-.09,0-.1-.07a1.71,1.71,0,0,0-.4-.28,1,1,0,0,0-.48-.11.65.65,0,0,0-.2,0,.6.6,0,0,0-.19.06.35.35,0,0,0-.13.11.31.31,0,0,0-.05.17.28.28,0,0,0,.06.18.57.57,0,0,0,.16.14l.27.12.35.12c.26.09.5.18.71.27a2,2,0,0,1,.55.33,1.47,1.47,0,0,1,.36.46,1.56,1.56,0,0,1,.12.64,1.73,1.73,0,0,1-.15.73,1.58,1.58,0,0,1-.44.55,1.9,1.9,0,0,1-.66.36,2.71,2.71,0,0,1-.82.12,2.1,2.1,0,0,1-.56-.07,3.39,3.39,0,0,1-.53-.2,2.92,2.92,0,0,1-.48-.29,2.4,2.4,0,0,1-.41-.36l-.07-.07Z"/><path class="cls-1" d="M23.57,11.5c0-.11.05-.16.15-.16h4a.14.14,0,0,1,.16.16v.92a.14.14,0,0,1-.16.16h-1.3v4a.14.14,0,0,1-.16.16h-1a.14.14,0,0,1-.16-.16v-4H23.72a.14.14,0,0,1-.16-.16V11.5Z"/><path class="cls-1" d="M2.83,20.86V22h.89a.46.46,0,0,0,.2,0,.48.48,0,0,0,.16-.12.66.66,0,0,0,.12-.17.78.78,0,0,0,0-.21.65.65,0,0,0,0-.2A.54.54,0,0,0,4.09,21a.65.65,0,0,0-.16-.13.36.36,0,0,0-.21-.05Zm0-1.86v1h.71a.66.66,0,0,0,.21,0l.16-.1A.57.57,0,0,0,4,19.67a.54.54,0,0,0,0-.19.63.63,0,0,0,0-.19.72.72,0,0,0-.11-.15.44.44,0,0,0-.16-.1.42.42,0,0,0-.2,0Zm-1.28-.83c0-.1.05-.15.14-.15H3.9a1.26,1.26,0,0,1,.55.11,1.33,1.33,0,0,1,.46.31,1.37,1.37,0,0,1,.3.45,1.34,1.34,0,0,1,.12.56,1.45,1.45,0,0,1-.08.47A1.11,1.11,0,0,1,5,20.3a2,2,0,0,1,.38.52,1.61,1.61,0,0,1,.14.64,1.4,1.4,0,0,1-.12.58,1.67,1.67,0,0,1-.31.47,1.54,1.54,0,0,1-.47.33A1.3,1.3,0,0,1,4.1,23H1.69c-.09,0-.14-.05-.14-.15V18.17Z"/><path class="cls-1" d="M10.07,19.58l-.52,1.51h1.06Zm-.6-1.41a.2.2,0,0,1,.2-.15h.82a.21.21,0,0,1,.2.15l1.81,4.64q.06.15-.09.15h-1a.19.19,0,0,1-.2-.15L11,22.16H9.17L9,22.81a.19.19,0,0,1-.2.15h-1c-.1,0-.13-.05-.1-.15l1.81-4.64Z"/><path class="cls-1" d="M16.2,19.93v2.88c0,.1-.06.15-.17.15h-.92a.13.13,0,0,1-.15-.15V18.17a.15.15,0,0,1,0-.11.12.12,0,0,1,.11,0h1.07a.23.23,0,0,1,.14,0,.36.36,0,0,1,.1.11l1.67,2.69V18.17a.2.2,0,0,1,0-.11.15.15,0,0,1,.12,0h.92a.17.17,0,0,1,.11,0,.14.14,0,0,1,.05.11v4.64c0,.1-.05.15-.16.15h-1a.27.27,0,0,1-.24-.15L16.2,19.93Z"/><path class="cls-1" d="M24.67,20.12l1.78,2.68c0,.05.05.09,0,.11s0,.05-.08.05H25.15a.16.16,0,0,1-.12,0,.53.53,0,0,1-.09-.11l-1.09-1.69-.49.59v1.1c0,.1,0,.15-.14.15h-1c-.09,0-.14-.05-.14-.15V18.16a.12.12,0,0,1,0-.1.13.13,0,0,1,.1,0h1l.05,0s0,0,.05.05a.13.13,0,0,1,0,.06V20l1.44-1.86a.24.24,0,0,1,.11-.1h1.33c.05,0,.08,0,.08.05a.13.13,0,0,1,0,.1l-1.61,1.95Z"/><path class="cls-2" d="M55,3.18H33.33a1.59,1.59,0,1,1,0-3.18H55a1.59,1.59,0,0,1,0,3.18Z"/><path class="cls-2" d="M54.08,6.84,45.65,26.53a1.58,1.58,0,0,1-2.08.84h0a1.57,1.57,0,0,1-.84-2.08L51.15,5.59a1.6,1.6,0,0,1,2.09-.84h0a1.6,1.6,0,0,1,.84,2.09Z"/><path class="cls-2" d="M48.13,6.84l-5.48,12.8a1.58,1.58,0,0,1-2.08.84h0a1.59,1.59,0,0,1-.84-2.09l5.48-12.8a1.58,1.58,0,0,1,2.08-.84h0A1.6,1.6,0,0,1,48.13,6.84Z"/><path class="cls-2" d="M42.22,6.84,39.7,12.79a1.61,1.61,0,0,1-2.09.84h0a1.58,1.58,0,0,1-.84-2.08L39.3,5.59a1.58,1.58,0,0,1,2.08-.84h0a1.59,1.59,0,0,1,.84,2.09Z"/><path class="cls-3" d="M55,3.2H33.33a1.59,1.59,0,1,1,0-3.18H55A1.59,1.59,0,0,1,55,3.2Z"/><path class="cls-3" d="M54.08,6.86,45.65,26.55a1.58,1.58,0,0,1-2.08.84h0a1.59,1.59,0,0,1-.84-2.09L51.15,5.61a1.59,1.59,0,0,1,2.09-.83h0a1.58,1.58,0,0,1,.84,2.08Z"/><path class="cls-1" d="M48.13,6.86l-5.48,12.8a1.58,1.58,0,0,1-2.08.84h0a1.59,1.59,0,0,1-.84-2.09l5.48-12.8a1.58,1.58,0,0,1,2.08-.83h0A1.58,1.58,0,0,1,48.13,6.86Z"/><path class="cls-4" d="M42.22,6.86l-2.52,6a1.6,1.6,0,0,1-2.09.84h0a1.6,1.6,0,0,1-.84-2.09L39.3,5.61a1.58,1.58,0,0,1,2.08-.83h0a1.57,1.57,0,0,1,.84,2.08Z"/></g></g></svg>