<svg id="Layer_1" data-name="Layer 1" xmlns="http://www.w3.org/2000/svg" viewBox="0 0 30.41 37.89"><defs><style>.cls-1{fill:#fefefe;}.cls-2{fill:#287159;}.cls-3{fill:#282828;}.cls-4{fill:#fcce29;}.cls-5{fill:#d43443;}.cls-6{fill:#a6333c;}.cls-7{fill:#3d2d2f;}.cls-8{fill:#df3338;}</style></defs><g id="Layer_1-2" data-name="Layer_1"><g id="_1259089766128" data-name=" 1259089766128"><path class="cls-1" d="M30,19C30,29.2,23.4,37.52,15.21,37.52S.37,29.2.37,19,7,.37,15.21.37,30,8.69,30,19Z"/><path class="cls-2" d="M30,19h-.37a22.11,22.11,0,0,1-1.15,7.1,18,18,0,0,1-5.26,8,13.26,13.26,0,0,1-3.78,2.27,11.62,11.62,0,0,1-4.27.81,11.9,11.9,0,0,1-5.6-1.41A14.23,14.23,0,0,1,6,33a18.39,18.39,0,0,1-3.86-6.16A22.07,22.07,0,0,1,.75,19a22.12,22.12,0,0,1,1.14-7.11,18,18,0,0,1,5.26-8,13.26,13.26,0,0,1,3.78-2.27A11.67,11.67,0,0,1,15.21.75a12,12,0,0,1,5.6,1.41,14.4,14.4,0,0,1,3.56,2.72A18.24,18.24,0,0,1,28.23,11,22.08,22.08,0,0,1,29.67,19H30Zm.37,0a23.06,23.06,0,0,0-1.18-7.35,18.72,18.72,0,0,0-5.49-8.34,14,14,0,0,0-4-2.4A12.42,12.42,0,0,0,15.21,0a12.72,12.72,0,0,0-6,1.5A15.31,15.31,0,0,0,5.5,4.35a19.12,19.12,0,0,0-4,6.41,23.24,23.24,0,0,0-.3,15.53,18.71,18.71,0,0,0,5.48,8.34,14.24,14.24,0,0,0,4,2.4,12.47,12.47,0,0,0,4.55.86,12.75,12.75,0,0,0,5.95-1.5,15.26,15.26,0,0,0,3.75-2.85,19.14,19.14,0,0,0,4-6.41A22.87,22.87,0,0,0,30.41,19Z"/><polygon class="cls-3" points="19.45 8.63 19.36 8.59 16.41 17.43 16.5 17.47 19.45 8.63"/><polygon class="cls-3" points="19.45 8.63 19.46 8.6 19.37 8.57 19.34 8.58 16.39 17.42 16.4 17.45 16.49 17.49 16.52 17.48 19.48 8.63 19.46 8.6 19.45 8.63 19.43 8.62 16.48 17.43 16.44 17.42 19.38 8.62 19.44 8.65 19.45 8.63 19.43 8.62 19.45 8.63"/><path class="cls-2" d="M19.3,9c3.49,1.46,4.92,2.95,5.41,3.73l-1,3.16a14.53,14.53,0,0,0-5.45-3.76L19.3,9Z"/><path class="cls-4" d="M18.73,10.84c3.49,1.45,4.93,3,5.42,3.75l-.2.62a14.19,14.19,0,0,0-5.4-3.75l.18-.62Z"/><path class="cls-4" d="M19.13,9.52c3.49,1.46,4.94,3,5.43,3.76l-.2.61A14.19,14.19,0,0,0,19,10.14l.18-.62h0Z"/><path class="cls-5" d="M19.32,9a22.48,22.48,0,0,1,2.29,1.11c0,.09-.07.18-.66,1.81a23.4,23.4,0,0,0-2.23-1.09L19.32,9Z"/><polygon class="cls-1" points="20.33 9.76 20.03 10.18 19.57 10 19.84 10.44 19.55 10.86 20.02 10.71 20.29 11.16 20.31 10.62 20.78 10.48 20.32 10.29 20.33 9.76"/><polygon class="cls-3" points="10.92 8.66 11.01 8.63 13.96 17.54 13.87 17.57 10.92 8.66"/><polygon class="cls-3" points="10.92 8.66 10.93 8.69 10.99 8.66 13.93 17.52 13.89 17.54 10.94 8.66 10.92 8.66 10.93 8.69 10.92 8.66 10.9 8.67 13.85 17.58 13.88 17.59 13.97 17.56 13.99 17.53 11.03 8.62 11 8.61 10.91 8.64 10.9 8.67 10.92 8.66"/><path class="cls-2" d="M11.07,9c-3.49,1.47-4.92,3-5.41,3.76l1,3.18a14.41,14.41,0,0,1,5.44-3.79Z"/><path class="cls-4" d="M11.65,10.89c-3.49,1.47-4.94,3-5.43,3.78l.2.62a14.26,14.26,0,0,1,5.4-3.77l-.18-.63h0Z"/><path class="cls-4" d="M11.24,9.57c-3.49,1.46-4.93,3-5.42,3.78L6,14a14.07,14.07,0,0,1,5.39-3.78l-.17-.62Z"/><path class="cls-5" d="M11.05,9a21.17,21.17,0,0,0-2.28,1.12c0,.08.06.18.65,1.82a23.54,23.54,0,0,1,2.24-1.1Z"/><polygon class="cls-1" points="10.04 9.81 10.34 10.23 10.8 10.05 10.53 10.49 10.83 10.91 10.36 10.77 10.08 11.21 10.06 10.67 9.6 10.53 10.06 10.34 10.04 9.81"/><path class="cls-4" d="M12.34,17c.71,1,1.72.08,1.33-1.22.39,1.29,1.53,1,1.53-.39,0,1.4,1.15,1.7,1.54.42-.38,1.29.59,2.17,1.3,1.18-.71,1-.05,2.34.89,1.81-.94.52-.71,2.12.29,2.1-1,0-1.24,1.6-.31,2.13-.93-.53-1.59.8-.88,1.77-.71-1-1.66-.11-1.27,1.16-.39-1.27-1.56-.95-1.56.43,0-1.38-1.15-1.67-1.53-.4.37-1.27-.61-2.17-1.32-1.19.71-1,.05-2.31-.88-1.79.93-.51.69-2.1-.32-2.09,1,0,1.24-1.59.31-2.13C12.39,19.28,13.05,17.93,12.34,17Z"/><path class="cls-3" d="M12.34,17h0a1.3,1.3,0,0,0,.34.33.69.69,0,0,0,.35.1.68.68,0,0,0,.56-.31,1.31,1.31,0,0,0,.23-.78,2,2,0,0,0-.09-.57h-.06a1.53,1.53,0,0,0,.35.64.69.69,0,0,0,.47.21.6.6,0,0,0,.29-.08.86.86,0,0,0,.34-.42,1.81,1.81,0,0,0,.14-.74h-.06a1.63,1.63,0,0,0,.24.93.85.85,0,0,0,.25.25.67.67,0,0,0,.3.08.64.64,0,0,0,.46-.2,1.45,1.45,0,0,0,.35-.63l-.05,0a1.75,1.75,0,0,0-.09.58,1.32,1.32,0,0,0,.21.76.67.67,0,0,0,.53.3.7.7,0,0,0,.36-.1,1.3,1.3,0,0,0,.34-.33l-.05,0a1.64,1.64,0,0,0-.31.93,1.18,1.18,0,0,0,.23.73.68.68,0,0,0,.25.23.63.63,0,0,0,.33.09.94.94,0,0,0,.43-.12l0-.06a1.18,1.18,0,0,0-.46.48,1.38,1.38,0,0,0-.15.62,1.2,1.2,0,0,0,.23.73.92.92,0,0,0,.28.24.8.8,0,0,0,.39.09h0v-.06a1,1,0,0,0-.39.1.91.91,0,0,0-.39.41,1.31,1.31,0,0,0-.14.59,1.43,1.43,0,0,0,.14.61,1.1,1.1,0,0,0,.46.47l0-.05a.94.94,0,0,0-.43-.12.66.66,0,0,0-.32.08.81.81,0,0,0-.35.38,1.28,1.28,0,0,0-.12.56,1.55,1.55,0,0,0,.3.91l0,0a1.12,1.12,0,0,0-.34-.32.6.6,0,0,0-.87.19,1.27,1.27,0,0,0-.21.74,2.05,2.05,0,0,0,.09.58h.06a1.45,1.45,0,0,0-.35-.62.65.65,0,0,0-.46-.21.7.7,0,0,0-.56.33,1.63,1.63,0,0,0-.24.93h.06a1.66,1.66,0,0,0-.24-.92.69.69,0,0,0-.55-.32.68.68,0,0,0-.46.2,1.56,1.56,0,0,0-.35.63l.06,0a1.94,1.94,0,0,0,.08-.56,1.31,1.31,0,0,0-.22-.78A.7.7,0,0,0,13,24.3a.81.81,0,0,0-.35.1,1.15,1.15,0,0,0-.33.33l0,0a1.49,1.49,0,0,0,.31-.91,1.24,1.24,0,0,0-.22-.73.78.78,0,0,0-.26-.22.62.62,0,0,0-.32-.09.84.84,0,0,0-.42.12l0,.05a1.07,1.07,0,0,0,.46-.46,1.3,1.3,0,0,0,.14-.61,1.25,1.25,0,0,0-.23-.74,1,1,0,0,0-.29-.24.87.87,0,0,0-.4-.09h0v.05a.87.87,0,0,0,.4-.09,1,1,0,0,0,.39-.41,1.3,1.3,0,0,0,.14-.58,1.35,1.35,0,0,0-.15-.62,1.1,1.1,0,0,0-.46-.47l0,.05a.94.94,0,0,0,.43.12.73.73,0,0,0,.33-.08.92.92,0,0,0,.35-.38,1.34,1.34,0,0,0,.12-.58,1.52,1.52,0,0,0-.31-.92l0,0h0a1.57,1.57,0,0,1,.29.89,1.21,1.21,0,0,1-.21.7.66.66,0,0,1-.23.21.6.6,0,0,1-.3.07.84.84,0,0,1-.4-.11l0,.05a1.06,1.06,0,0,1,.44.45,1.31,1.31,0,0,1,.14.59,1.16,1.16,0,0,1-.23.71.87.87,0,0,1-.27.23,1,1,0,0,1-.37.09v.05h0a.88.88,0,0,1,.37.09.9.9,0,0,1,.37.38,1.27,1.27,0,0,1,.13.55,1.3,1.3,0,0,1-.14.58,1.13,1.13,0,0,1-.43.44l0,.05a.93.93,0,0,1,.4-.11.55.55,0,0,1,.29.08.78.78,0,0,1,.33.36,1.16,1.16,0,0,1,.12.54,1.52,1.52,0,0,1-.29.88l.05,0a1.08,1.08,0,0,1,.31-.3.6.6,0,0,1,.32-.1.61.61,0,0,1,.5.29,1.25,1.25,0,0,1,.21.74,1.77,1.77,0,0,1-.08.54l.06,0a1.3,1.3,0,0,1,.33-.6.6.6,0,0,1,.42-.19.62.62,0,0,1,.5.3,1.49,1.49,0,0,1,.23.88h.05a1.55,1.55,0,0,1,.24-.89.64.64,0,0,1,.51-.31.6.6,0,0,1,.42.19,1.31,1.31,0,0,1,.33.59l.06,0a1.67,1.67,0,0,1-.09-.56,1.24,1.24,0,0,1,.2-.71.58.58,0,0,1,.47-.27.6.6,0,0,1,.32.1,1,1,0,0,1,.32.3l0,0a1.45,1.45,0,0,1-.29-.88,1.14,1.14,0,0,1,.2-.68.79.79,0,0,1,.24-.21.55.55,0,0,1,.29-.08.83.83,0,0,1,.4.12l0-.05a1,1,0,0,1-.43-.45,1.18,1.18,0,0,1-.14-.58,1.17,1.17,0,0,1,.23-.72.67.67,0,0,1,.27-.23.71.71,0,0,1,.36-.09v-.06h0a.69.69,0,0,1-.36-.09.86.86,0,0,1-.36-.37,1.23,1.23,0,0,1-.12-.55,1.25,1.25,0,0,1,.14-.59,1.06,1.06,0,0,1,.44-.45l0-.05a.81.81,0,0,1-.4.11.6.6,0,0,1-.3-.07.92.92,0,0,1-.33-.37,1.35,1.35,0,0,1-.12-.55,1.49,1.49,0,0,1,.3-.89l-.05,0a1.17,1.17,0,0,1-.33.31.55.55,0,0,1-.32.1.6.6,0,0,1-.48-.28,1.29,1.29,0,0,1-.2-.73,1.94,1.94,0,0,1,.08-.56l-.05,0a1.5,1.5,0,0,1-.34.61.6.6,0,0,1-.42.19.56.56,0,0,1-.27-.08.89.89,0,0,1-.32-.4,1.69,1.69,0,0,1-.14-.73h-.06a1.64,1.64,0,0,1-.22.89.79.79,0,0,1-.23.22.5.5,0,0,1-.26.08.57.57,0,0,1-.42-.2,1.3,1.3,0,0,1-.34-.61l-.06,0a1.92,1.92,0,0,1,.09.56,1.33,1.33,0,0,1-.22.75.6.6,0,0,1-.82.19,1.34,1.34,0,0,1-.33-.31l0,0,0,0Z"/><path class="cls-3" d="M16.32,22.25V19.76h-.94v-.33h2.24v.33h-.93v2.49Zm-3.2-1.58h.81a1.11,1.11,0,0,0,.4-.05.41.41,0,0,0,.22-.17.45.45,0,0,0,.07-.25.42.42,0,0,0-.14-.33.67.67,0,0,0-.46-.13h-.9Zm-.37,1.58V19.43H14a1.79,1.79,0,0,1,.58.07.62.62,0,0,1,.31.27.8.8,0,0,1,.12.43.73.73,0,0,1-.2.51,1,1,0,0,1-.6.26.92.92,0,0,1,.23.14,2,2,0,0,1,.31.37l.49.77h-.47l-.38-.58a3.71,3.71,0,0,0-.26-.39.84.84,0,0,0-.19-.19.85.85,0,0,0-.17-.08h-.65v1.25Z"/><path class="cls-3" d="M6.15,28.82,2.9,20.25h0v0c0,.12.4,1.06,3.24,8.55Z"/><path class="cls-3" d="M4.19,25.49c.88-2.89,1.31-4.34,1.53-5.06.11-.37.17-.55.2-.64s0-.07,0-.08h0l-.06,0h0l.06,0h0s0,0,0-.05a.05.05,0,0,0,0,0h0a.08.08,0,0,0,0,0h.06l0,0-.35.53.09.07.15-.14,0,0h0v0h0v0h0v0h0v0a.46.46,0,0,1,0,.09l0,.14H6V19.7H5.84l0,.61H6a1,1,0,0,1,0-.14.4.4,0,0,0,0-.13.1.1,0,0,0,0-.05l0,0H5.73l-.06,0-.08.07-.1.11,0,0,0,0,.36-.53-.05,0H5.83v0c0,.13-.28.94-1.75,5.76l.12,0Z"/><path class="cls-5" d="M4.77,24c-.36.26-.8.1-.81-.16a.55.55,0,0,0,.59-.07Z"/><path class="cls-3" d="M4.77,24l0,0a.6.6,0,0,1-.37.12A.54.54,0,0,1,4.11,24L4,23.94a.16.16,0,0,1,0-.09H4v0a.93.93,0,0,0,.29.06.37.37,0,0,0,.2-.05.56.56,0,0,1,.13-.07l0,0,0,0,.21.23,0,0,0,0,0,0,0,0-.24-.25h0l-.13.07a.27.27,0,0,1-.17,0A.82.82,0,0,1,4,23.81H3.92v.05A.29.29,0,0,0,4,24a.33.33,0,0,0,.16.15.7.7,0,0,0,.25.05A.68.68,0,0,0,4.79,24l0,0,0,0,0,0Z"/><path class="cls-5" d="M4.31,23.35a.37.37,0,0,0-.58.1c-.08-.51.45-.62.88-.45l-.3.35Z"/><path class="cls-3" d="M4.31,23.35l0,0a.58.58,0,0,0-.3-.09.32.32,0,0,0-.19.05.34.34,0,0,0-.14.17h.07s0-.07,0-.1a.48.48,0,0,1,0-.18A.31.31,0,0,1,4,23,.57.57,0,0,1,4.24,23a1.09,1.09,0,0,1,.35.07l0,0,0,0-.35.41h.2l-.1-.07,0,0v0l0,0L4.67,23l0,0a1,1,0,0,0-.38-.07.64.64,0,0,0-.39.11.33.33,0,0,0-.12.14.46.46,0,0,0,0,.21.45.45,0,0,0,0,.11l0,.12,0-.11a.27.27,0,0,1,.11-.14.26.26,0,0,1,.15,0,.48.48,0,0,1,.26.09l0,0v0Z"/><path class="cls-5" d="M4.68,22.7c-.12-.27-.15-.46-.6-.31.18-.51.84-.24,1,.13l-.43.18Z"/><path class="cls-3" d="M4.68,22.7l0,0a1.26,1.26,0,0,0-.12-.26.28.28,0,0,0-.1-.09.33.33,0,0,0-.15,0,1.12,1.12,0,0,0-.27.05v0h0a.42.42,0,0,1,.15-.19.3.3,0,0,1,.2-.06.66.66,0,0,1,.35.11.7.7,0,0,1,.26.28l0,0,0,0-.43.17,0,.07h.05l0-.05,0,0v0l.47-.19,0,0a.76.76,0,0,0-.29-.3.73.73,0,0,0-.39-.13.45.45,0,0,0-.25.07.5.5,0,0,0-.17.24l0,.07.08,0a.79.79,0,0,1,.25-.06.18.18,0,0,1,.11,0l.06,0,.06.11a.77.77,0,0,1,.07.16h0v0Z"/><path class="cls-5" d="M5.49,22.51c.17-.25.18-.23,0-.49.45-.09.5.39.37.72Z"/><path class="cls-3" d="M5.49,22.51l0,0,.1-.14,0-.06s0,0,0,0,0,0,0-.06l-.06-.1L5.49,22l0,0v0h.09a.29.29,0,0,1,.14,0,.26.26,0,0,1,.12.13.65.65,0,0,1,0,.21,1.13,1.13,0,0,1-.06.31h0l0,0-.34-.23,0,0,0,0,0,0,0,0,.38.25v0a.83.83,0,0,0,.07-.34.53.53,0,0,0-.08-.31.29.29,0,0,0-.12-.1.43.43,0,0,0-.17,0H5.45l-.06,0,0,0a.92.92,0,0,1,.12.16l0,.05v.06l0,.07-.08.11,0,0,0,0,0,0Z"/><path class="cls-5" d="M9.06,23.22a7.68,7.68,0,0,1-1.45.06c-.8-.08-.92-.53-.8-.64s.26.31.67.39A5.27,5.27,0,0,0,9,23.12C9.06,23.11,9,23.22,9.06,23.22Z"/><path class="cls-3" d="M9.06,23.22v0a8.93,8.93,0,0,1-1,.07h-.4v0A1.24,1.24,0,0,1,7,23a.38.38,0,0,1-.17-.28.09.09,0,0,1,0-.05l0,0,0,0,0,0h.06l.09.07a1.7,1.7,0,0,0,.19.18.81.81,0,0,0,.31.14v0l.22,0a7.48,7.48,0,0,0,1,.07l.31,0H9v.05s0,0,0,0h.05v-.08h0v0H9s0,0,0,0H8.65l-.65,0-.3,0-.2,0h0a.74.74,0,0,1-.38-.22c-.05,0-.08-.09-.12-.12l-.06,0a.1.1,0,0,0-.07,0H6.79a.09.09,0,0,0,0,.06.17.17,0,0,0,0,.07.48.48,0,0,0,.19.34,1.48,1.48,0,0,0,.67.23H8a7.45,7.45,0,0,0,1.06-.08v0Z"/><path class="cls-5" d="M6.41,25.28c.6-.18-.66-.34-.89-.37.84-.22.16-.58-.37-.58.45-.07.39-.23-.09-.27,0,0,0-.12-.15-.07,0,0-.11.16-.23.12a.54.54,0,0,1-.29-.26c0-.09.17-.07.16-.17a.32.32,0,0,0-.17-.25c-.1-.07-.23,0-.21-.15s0-.29.16-.37.32.05.32.05.13,0,.11-.09-.21-.18-.14-.26A.56.56,0,0,1,5,22.37c.17,0,.1.23.21.25s.13-.21.3-.15.39.17.33.33-.1.09-.09.13-.07,0,.23.23a5.48,5.48,0,0,0,1.52,1c.74.4-.91,1.23-1.14,1.08h0Z"/><path class="cls-3" d="M6.41,25.28v0l.13-.06,0,0a.06.06,0,0,0,0-.09s0,0,0,0a.19.19,0,0,0-.09-.05L6.23,25a6.34,6.34,0,0,0-.71-.11V25a1.1,1.1,0,0,0,.32-.13.3.3,0,0,0,.08-.08.11.11,0,0,0,0-.08.16.16,0,0,0,0-.09.32.32,0,0,0-.12-.11,1,1,0,0,0-.3-.12,1.42,1.42,0,0,0-.36-.05h0v.08l.24-.06.07,0s0,0,0,0,0,0,0,0a.05.05,0,0,0,0,0l-.05-.05a.44.44,0,0,0-.15-.05.69.69,0,0,0-.22,0v0l0,0V24l0,0H5a.2.2,0,0,0-.1,0h0l0,.06,0,0H4.69A.51.51,0,0,1,4.53,24l-.1-.13h0l0,0,.08,0a.08.08,0,0,0,0,0,.07.07,0,0,0,0-.05h0a.25.25,0,0,0-.06-.17.69.69,0,0,0-.13-.11l-.08,0h-.1s0,0,0,0a0,0,0,0,1,0,0,1.12,1.12,0,0,1,0-.21l0-.08.06-.06.08,0a.33.33,0,0,1,.13,0l.05,0h0l.06,0,0,0s0,0,0,0a.08.08,0,0,0,0,0v0l0,0,0,0a.46.46,0,0,0-.07-.07s0,0,0,0v0h0a.7.7,0,0,1,.19-.17.33.33,0,0,1,.2,0h0s0,0,0,0l0,0,0,.1,0,.05a.09.09,0,0,0,.06,0h.06a.15.15,0,0,0,.06,0l.06-.08,0,0h.07a.88.88,0,0,1,.22.1.45.45,0,0,1,.07.07.13.13,0,0,1,0,.07s0,0,0,0a.33.33,0,0,1,0,.06l0,0,0,0h0v0s0,0,0,0v0h0v0l0,0,.07.06L6,23.2l0,0,0,0a5.27,5.27,0,0,0,1.54,1v0l0,0a.29.29,0,0,1,.13.1.19.19,0,0,1,0,.11.31.31,0,0,1,0,.13,1,1,0,0,1-.22.24,2.14,2.14,0,0,1-.52.32l-.25.09a.93.93,0,0,1-.19,0H6.41v0l0,0,.05,0h0l.16,0A2.77,2.77,0,0,0,7.36,25a1.84,1.84,0,0,0,.29-.26.51.51,0,0,0,.09-.13.42.42,0,0,0,0-.15.3.3,0,0,0,0-.15.53.53,0,0,0-.16-.13h0a5.26,5.26,0,0,1-1.51-1h0A.68.68,0,0,1,5.87,23l0,0h0s0,0,0,0h0l0,0v0h0l0,0h0l0,0a.59.59,0,0,0,0-.08.17.17,0,0,0,0-.07.21.21,0,0,0,0-.11.44.44,0,0,0-.15-.12.71.71,0,0,0-.18-.08H5.51a.17.17,0,0,0-.1,0s-.06.07-.09.09l0,0s0,0,0,0h0a.14.14,0,0,0,0-.06.76.76,0,0,0,0-.11l-.06,0-.07,0h0a.4.4,0,0,0-.24.07.84.84,0,0,0-.21.18.14.14,0,0,0,0,.07.08.08,0,0,0,0,0s0,0,0,.06l.07.08,0,0v0h0l0,0h0v0l0,0-.08,0a.39.39,0,0,0-.17,0,.2.2,0,0,0-.11,0,.3.3,0,0,0-.08.08.47.47,0,0,0-.06.15,1,1,0,0,0,0,.17v.09l0,0s0,0,.06,0H4.3l.07,0,.11.11a.16.16,0,0,1,0,.11h0v0l0,0-.08,0,0,0,0,0v0a0,0,0,0,0,0,0,.42.42,0,0,0,.12.16.52.52,0,0,0,.18.12h.06l.09,0a.24.24,0,0,0,.09-.08.12.12,0,0,0,0,0l0,0v0H5v0l0,0v0h0a.88.88,0,0,1,.28.05l.07,0h0a0,0,0,0,1,0,0,.19.19,0,0,1-.09,0l-.16,0v.07h0a1.35,1.35,0,0,1,.5.1.55.55,0,0,1,.17.1.12.12,0,0,1,0,.05.06.06,0,0,1,0,0,.09.09,0,0,1,0,.05.48.48,0,0,1-.12.08,1,1,0,0,1-.24.09V25c.1,0,.36,0,.6.09a1.73,1.73,0,0,1,.31.08l.09,0s0,0,0,0h0l0,0-.09,0v0Z"/><path class="cls-5" d="M5.45,29.26c0-.23-.33-.18-.49-.2a.49.49,0,0,1,.7,0C5.74,29.16,5.49,29.08,5.45,29.26Z"/><path class="cls-3" d="M5.45,29.26h0a.19.19,0,0,0,0-.08.26.26,0,0,0-.11-.1.46.46,0,0,0-.21,0H5v0l0,0A.29.29,0,0,1,5.11,29a.65.65,0,0,1,.2,0,.39.39,0,0,1,.18,0,.44.44,0,0,1,.15.1h0l0,0v0h0l0,0h0l-.1,0,0,.05a.09.09,0,0,0,0,.07h.07s0-.06,0-.07a.25.25,0,0,1,.09,0h0l0,0h0a0,0,0,0,1,0,0s0,0,0,0,0,0,0,0a.38.38,0,0,0-.18-.13.45.45,0,0,0-.2,0,.51.51,0,0,0-.22,0,.41.41,0,0,0-.16.11l0,.06H5.1a.73.73,0,0,1,.22,0s0,0,.06.05a.2.2,0,0,1,0,.08h0Z"/><path class="cls-5" d="M5.33,29.69a.79.79,0,0,0-.69,0,.58.58,0,0,1,.26-.35.56.56,0,0,1,.47,0l0,.3Z"/><path class="cls-3" d="M5.33,29.69v0A1.3,1.3,0,0,0,5,29.58l-.16,0-.19.07v0h0a.45.45,0,0,1,0-.12.48.48,0,0,1,.2-.2.38.38,0,0,1,.17,0,.53.53,0,0,1,.19,0l.06,0h0v0h0l0,.3h0v0h0l0-.34h0l-.09,0a1.05,1.05,0,0,0-.21,0,.41.41,0,0,0-.21,0,.56.56,0,0,0-.23.23.37.37,0,0,0-.05.14l0,.06.07,0,.18-.06a.34.34,0,0,1,.14,0,1.07,1.07,0,0,1,.34.07h0v0h0Z"/><path class="cls-5" d="M5.61,30.09c-.12.05-.21.08-.3.4-.21-.18-.21-.47.07-.56l.23.16Z"/><path class="cls-3" d="M5.61,30.09v0l-.09,0a.33.33,0,0,0-.13.11,1.11,1.11,0,0,0-.1.27h0l0,0a.33.33,0,0,1-.14-.26.2.2,0,0,1,0-.14A.27.27,0,0,1,5.4,30l0,0,0,0,.23.16,0,0v0l0,0-.24-.17h0a.34.34,0,0,0-.18.12.26.26,0,0,0-.07.18.41.41,0,0,0,.17.32l0,0,0-.05a.93.93,0,0,1,.06-.18.38.38,0,0,1,.1-.13.34.34,0,0,1,.12-.06l.06,0-.06,0,0,0Z"/><path class="cls-5" d="M6.3,30.13c-.11.09-.06.22,0,.42s-.43-.34-.24-.48l.27.06Z"/><path class="cls-3" d="M6.3,30.13l0,0a.16.16,0,0,0-.06.08.44.44,0,0,0,0,.1.69.69,0,0,0,0,.13.59.59,0,0,1,0,.14h0l0,0h0v0h0v0h0v0h0a.19.19,0,0,1-.07-.06.47.47,0,0,1-.11-.13.3.3,0,0,1,0-.14s0,0,0,0l0,0,0,0v0l.27.05v-.07h0l0,0v0L6,30H6a.13.13,0,0,0,0,.06.12.12,0,0,0,0,.08.25.25,0,0,0,0,.14.59.59,0,0,0,.13.18l.07.06,0,0h.09v0q0-.09,0-.15s0-.08,0-.11,0-.05,0-.07l0-.06,0,0v0Z"/><path class="cls-5" d="M7.92,27.48a2.55,2.55,0,0,0-.4,0,1.1,1.1,0,0,0-.85.47.24.24,0,0,1,.2.11s-.12.18-.12.26.21,0,.17.08a.37.37,0,0,1,0,.37,1.78,1.78,0,0,1-1,.43c-.15-.1-.11-.21-.18-.22s-.33.11-.33.21.07.11.16.14l-.08.06c-.06-.05-.12-.11-.17-.1a.29.29,0,0,0-.12.37.23.23,0,0,0,.18.05l0,.13c-.06,0-.15,0-.15.08s.21.28.34.25,0-.1.06-.13l.29,0s-.07.13,0,.17a.5.5,0,0,0,.32,0c.11,0,0-.16,0-.16a6.67,6.67,0,0,1,2.43-.25,1.51,1.51,0,0,1-.35-1.17,1.3,1.3,0,0,1,.83.1c.1-.09.26-.25.2-.35s-.06-.47-.16-.76c-.26,0-1-.08-1.34-.08Z"/><path class="cls-3" d="M7.92,27.48v0l-.41,0a1.45,1.45,0,0,0-.68.28.71.71,0,0,0-.19.21l0,.06h.14l0,0s0,0,0,0h0l0,0-.06.08a.17.17,0,0,0,0,.05.13.13,0,0,0,0,.06h0v0h.17s0,0,0,0h0v0a.47.47,0,0,1,0,.17.19.19,0,0,1,0,.08.16.16,0,0,1,0,.07,1.41,1.41,0,0,1-.47.3,1.52,1.52,0,0,1-.28.09l-.23,0h0v0l0,0a.29.29,0,0,1-.08-.07l0-.08a.13.13,0,0,0,0-.05l0,0h0a.42.42,0,0,0-.22.08.6.6,0,0,0-.08.08.17.17,0,0,0,0,.1h0a.14.14,0,0,0,0,.06.14.14,0,0,0,.07.06l.09.05,0,0,0,0-.08.06,0,0,0,0-.08-.07,0,0,0,0h0l-.08,0a.75.75,0,0,0-.07.12.39.39,0,0,0,0,.14.2.2,0,0,0,0,.13s0,0,0,0a.1.1,0,0,0,.07,0h.1v0h0l0,.13h0v0l-.1,0,0,0,0,0s0,0,0,0h0a.21.21,0,0,0,0,.1.53.53,0,0,0,.13.13.35.35,0,0,0,.17.06h.05l0,0,0,0a.43.43,0,0,0,0-.05,0,0,0,0,1,0,0l0,0v0l.3-.05v0l0,0a0,0,0,0,0,0,0,.14.14,0,0,0,0,.07.19.19,0,0,0,0,.07l.08,0a.23.23,0,0,0,.11,0h.12l.11,0a.15.15,0,0,0,.06-.05.07.07,0,0,0,0-.06s0-.06,0-.08l0,0,0,0v0a7,7,0,0,1,1.86-.27l.56,0h.09l-.06-.07a1.18,1.18,0,0,1-.27-.47,1.51,1.51,0,0,1-.08-.53v-.14h0v0l.28,0a1.18,1.18,0,0,1,.53.13h0v0a.67.67,0,0,0,.14-.15.16.16,0,0,0,.06-.08.17.17,0,0,0,0-.1.19.19,0,0,0,0-.07.47.47,0,0,1-.06-.15,2.19,2.19,0,0,1,0-.28,1.37,1.37,0,0,0-.06-.32v0h0l-.63-.06-.73,0h0v0l0,0H8v0h0v0h0v0h0l.72,0,.63.06v0h0a1.94,1.94,0,0,1,.06.4c0,.06,0,.12,0,.18a1.34,1.34,0,0,0,.07.18,0,0,0,0,1,0,0,.25.25,0,0,1,0,.07.33.33,0,0,1-.08.11l-.1.1,0,0v0a1.3,1.3,0,0,0-.57-.13l-.28,0h0v0a.76.76,0,0,0,0,.15,2,2,0,0,0,.08.55,1.59,1.59,0,0,0,.29.5l0,0v0l-.56,0A7.11,7.11,0,0,0,6.3,30l0,0,0,0h0l0,0a.43.43,0,0,0,0,.05s0,0,0,0h0l-.11,0H6l0,0s0,0,0,0a.06.06,0,0,1,0,0v0H6L6,30,5.6,30h0s0,0,0,.05a.18.18,0,0,0,0,.06v0h0v0h0v0h0l-.08,0a.38.38,0,0,1-.13-.09l0-.05a.11.11,0,0,1,0-.05h0l.05,0,.06,0h0l-.06-.19H5.23s0,0,0,0h0a.19.19,0,0,1,0-.08.37.37,0,0,1,0-.15.21.21,0,0,1,0-.06l0,0h0l0,0,.06.05,0,0,.16-.12-.07,0-.1-.05,0,0v0h0a.06.06,0,0,1,0,0,.29.29,0,0,1,.1-.09.22.22,0,0,1,.13,0h0s0,0,0,0l0,.08a.31.31,0,0,0,.1.1h0l.25,0a2.6,2.6,0,0,0,.44-.16,1.37,1.37,0,0,0,.35-.25.31.31,0,0,0,0-.1.2.2,0,0,0,0-.11.63.63,0,0,0,0-.19H7v0a.07.07,0,0,0,0,0l0,0,0,0H6.76v0h0v0l0,0h0a.1.1,0,0,1,0,0l.06-.1s0,0,0-.05,0,0,0,0a.08.08,0,0,0,0,0L6.84,28a.31.31,0,0,0-.1-.05H6.67v0l0,0h0a.71.71,0,0,1,.18-.19,1.2,1.2,0,0,1,.64-.26,2.38,2.38,0,0,1,.39,0v0h0Z"/><path class="cls-5" d="M4.32,25.35c.06-.13,0-.27-.46-.33a.57.57,0,0,1,.84.17Z"/><path class="cls-3" d="M4.32,25.35l0,0a.29.29,0,0,0,0-.09.21.21,0,0,0,0-.1.55.55,0,0,0-.16-.12A1.73,1.73,0,0,0,3.86,25v0l0,0a.67.67,0,0,1,.36-.12.46.46,0,0,1,.23.06.58.58,0,0,1,.2.21l0,0v0l-.38.16v0l0,0,0,0,0,0,.41-.18,0,0a.55.55,0,0,0-.49-.3.73.73,0,0,0-.4.13l-.08.05h.09a1,1,0,0,1,.36.11.14.14,0,0,1,.07.06.07.07,0,0,1,0,.06.11.11,0,0,1,0,.05l0,.09.09,0,0,0Z"/><path class="cls-5" d="M4.09,25.85c-.16-.2-.37-.06-.53,0,.11-.36.32-.5.67-.36Z"/><path class="cls-3" d="M4.09,25.85l0,0A.44.44,0,0,0,4,25.74a.27.27,0,0,0-.12,0,.37.37,0,0,0-.18.05l-.17.09,0,0h0a.71.71,0,0,1,.15-.29.34.34,0,0,1,.11-.07.27.27,0,0,1,.13,0,.64.64,0,0,1,.22,0l0,0,0,0-.14.34h0l0,0,0,0,0,0,.16-.37,0,0A.79.79,0,0,0,4,25.43a.41.41,0,0,0-.16,0,.43.43,0,0,0-.18.15.89.89,0,0,0-.12.26l0,.09.08,0,.16-.09a.23.23,0,0,1,.15,0,.15.15,0,0,1,.09,0,.23.23,0,0,1,.08.07l0,.05,0-.06h0Z"/><path class="cls-5" d="M4.31,26.37a.73.73,0,0,0-.59.26.57.57,0,0,1,.45-.58l.14.32Z"/><path class="cls-3" d="M4.31,26.37v0a.68.68,0,0,0-.27,0,1,1,0,0,0-.35.23l0,0h0v0a.48.48,0,0,1,.11-.32.58.58,0,0,1,.31-.2v0h0l.15.32h0v0l0,0L4.19,26h0a.66.66,0,0,0-.35.22.57.57,0,0,0-.13.37v.11l.06-.05a.74.74,0,0,1,.31-.22,1.18,1.18,0,0,1,.25,0h.06l0,0,0,0Z"/><path class="cls-5" d="M4.57,26.53c0,.07-.11.21-.34.27.12.13.62.06.62-.17l-.28-.1Z"/><path class="cls-3" d="M4.57,26.53h0a.11.11,0,0,1,0,.05.57.57,0,0,1-.11.1.68.68,0,0,1-.19.08l-.06,0,0,0a.24.24,0,0,0,.11.06h.13a.68.68,0,0,0,.29-.06l.11-.08a.21.21,0,0,0,0-.13h0v0l-.38-.14,0,.08,0,0v0l.28.1v0h0a.13.13,0,0,1,0,.08.38.38,0,0,1-.14.09.63.63,0,0,1-.19,0l-.12,0-.07,0,0,0v0a.85.85,0,0,0,.27-.13l.07-.08a.16.16,0,0,0,0-.09v0h0v0Z"/><path class="cls-5" d="M8.76,32.28c.09,0,0,.29-.11.4.22.08.4-.16.39-.39Z"/><path class="cls-3" d="M8.76,32.28v0a.43.43,0,0,1,0,.05.27.27,0,0,1,0,.14.32.32,0,0,1-.1.13l-.05.05.06,0h.1a.35.35,0,0,0,.14,0A.5.5,0,0,0,9,32.53a.59.59,0,0,0,.05-.23h0v0H8.77l0,.07v0H9v0H9a.44.44,0,0,1-.08.25l-.09.08a.19.19,0,0,1-.1,0H8.67l0,0,0,0a.48.48,0,0,0,.12-.16.38.38,0,0,0,0-.17.22.22,0,0,0,0-.08.08.08,0,0,0-.05,0l0,0v0Z"/><path class="cls-5" d="M8.38,32.2a.32.32,0,0,0-.12.56c0-.11,0-.25.28-.4Z"/><path class="cls-3" d="M8.38,32.2v0a.34.34,0,0,0-.2.12.36.36,0,0,0-.06.2.42.42,0,0,0,.12.29l0,.06v-.08a.28.28,0,0,0,0-.09.13.13,0,0,1,0-.06.22.22,0,0,1,.06-.1.82.82,0,0,1,.18-.11l0,0-.21-.22h0v0l0,0,.16.16,0,0,0,0-.19.11-.07.09a.93.93,0,0,0,0,.13v.09h0l0,0a.37.37,0,0,1-.1-.24.25.25,0,0,1,.05-.15.28.28,0,0,1,.15-.1v0l0,0,0,0Z"/><path class="cls-5" d="M8.13,32c-.24-.16-.38.1-.48.18-.17-.17.11-.66.55-.38l-.07.2Z"/><path class="cls-3" d="M8.13,32l0,0A.29.29,0,0,0,8,31.94a.27.27,0,0,0-.12,0l-.14.11a.45.45,0,0,1-.09.1l0,0,0,0,0,0s0,0,0-.06a.31.31,0,0,1,.08-.19.3.3,0,0,1,.22-.1.43.43,0,0,1,.24.08l0,0,0,0L8.1,32l0,0h0v0h0l0,0h0l.08-.23h0a.46.46,0,0,0-.28-.09.36.36,0,0,0-.27.12.35.35,0,0,0-.11.24.29.29,0,0,0,0,.09.22.22,0,0,0,0,.08l0,0,0,0,.06-.07.12-.11A.21.21,0,0,1,8,32a.2.2,0,0,1,.13.05l0,0h0Z"/><path class="cls-5" d="M8.28,31.58c-.21,0-.26-.18-.56-.07,0-.24.55-.36.68-.1l-.12.17Z"/><path class="cls-3" d="M8.28,31.58v0l-.18-.07a.36.36,0,0,0-.19-.05.46.46,0,0,0-.21.05v0h0a.12.12,0,0,1,0-.09.3.3,0,0,1,.13-.09.43.43,0,0,1,.19,0,.37.37,0,0,1,.15,0,.28.28,0,0,1,.1.09h0l0,0-.12.17,0,0v0l0,0,.13-.19v0a.27.27,0,0,0-.13-.13.37.37,0,0,0-.18,0,.54.54,0,0,0-.28.08.27.27,0,0,0-.1.08.34.34,0,0,0-.06.12v.07l.05,0a.63.63,0,0,1,.19,0,.38.38,0,0,1,.16,0,.84.84,0,0,0,.19.08h0v0l0,0Z"/><path class="cls-5" d="M8.61,27.36a1.47,1.47,0,0,1,.57.8c.13.41,0,.52.07.49C9.63,28.22,9.25,27.23,8.61,27.36Z"/><path class="cls-3" d="M8.61,27.36l0,0a1.41,1.41,0,0,1,.36.37,1.35,1.35,0,0,1,.14.22.49.49,0,0,1,.05.18h0a1,1,0,0,1,.06.32.22.22,0,0,1,0,.09v.06h0v0h.09a.69.69,0,0,0,.16-.47,1.07,1.07,0,0,0-.19-.6A.76.76,0,0,0,9,27.39a.61.61,0,0,0-.3-.08H8.61l-.09,0,.07.05,0,0v0h.1a.56.56,0,0,1,.26.07.8.8,0,0,1,.28.32,1,1,0,0,1,.11.43.62.62,0,0,1-.15.42l0,0v0h0v0h0v0l0,0h0v0l0,0,0,0h0l0,0h0v0s0-.07,0-.13a1.1,1.1,0,0,0-.06-.35h0a.48.48,0,0,0-.06-.21,1.36,1.36,0,0,0-.23-.34,1.52,1.52,0,0,0-.29-.28l0,0v0Z"/><path class="cls-5" d="M9.72,21.85a.35.35,0,0,1,.47-.07C10,21.92,9.89,22,9.72,21.85Z"/><path class="cls-3" d="M9.72,21.85h0a.32.32,0,0,1,.24-.13.44.44,0,0,1,.21.07h0a.43.43,0,0,1-.27.13.27.27,0,0,1-.18-.07h0a.32.32,0,0,0,.2.07.42.42,0,0,0,.29-.14h0a.49.49,0,0,0-.23-.06.33.33,0,0,0-.26.14h0Z"/><path class="cls-5" d="M4.79,25.25s0-.18-.13-.16a.48.48,0,0,0-.35.23c0,.05.08.08.1.13s0,.11,0,.11-.16-.17-.23-.07a.42.42,0,0,0-.11.38c0,.07.13,0,.2,0s.06.14.06.14-.22-.08-.19,0a.57.57,0,0,0,.16.33c.11.08.16-.09.16-.09l.16.12s-.11.08,0,.15a.58.58,0,0,0,.29.11c.09,0,.07-.16.07-.16.22-.22.44-.12.33.2.26,0,.6-.28.81-.35s.08.31,0,.4c.45,0,.55-.35.81-.39.06.05.2.3.13.41q.52-.66,1-.51a4.48,4.48,0,0,0,.86.83c.33.17.31.88.48,1.2.08.15-.25.39-.27.44a4.88,4.88,0,0,0-.2,1,.45.45,0,0,1,.37-.22c0,.1-.15.63-.15.63a.45.45,0,0,1,.54,0s-.32.32-.2.4c.55-.25-.65.66-.81.9-.06.07-.11,0-.2,0s-.08-.16-.15-.15a.22.22,0,0,0-.19.32c.07.1.13,0,.17,0s.05.11,0,.15-.13-.12-.21,0-.06.2,0,.28.11,0,.11,0l.12.11s-.14.07-.08.13.24.22.32.12a.37.37,0,0,0,.07-.12h.17s0,.11,0,.12a.31.31,0,0,0,.26,0c.1-.07-.05-.18.12-.17,0,0,0,0,.07,0,.53-.4,1.26-1.25,1.62-1.15.1-.11.32-.34.4,0,.1-.1.18-.44.21-.46s.19,0,.19,0,.25-.2,0-.29-.83-.87-.64-1a1.32,1.32,0,0,0-.33-.64.47.47,0,0,1,.13-.45A13.73,13.73,0,0,1,12,29.4c.38.42.9-.24.9-.24a1.5,1.5,0,0,0,.33-.93,2.2,2.2,0,0,0-.39-1c-.41-.61-.43-.74-.9-1.42-.22-.5-1.58-1.55-1.33.09a4.52,4.52,0,0,1,.4.76c.45,1,.79.3.37,0l-.4-.91c-.2-.61.4-.44.72.35s1.17,1.45,1.21,2a1,1,0,0,1-.14.85c-.19.25-.34.51-.69.13s-.65-.88-1-1.33a3.8,3.8,0,0,1-1.27-2.43c-1.35-1-3.56.49-4.95,0Z"/><path class="cls-3" d="M4.79,25.25h0v0a.18.18,0,0,0,0-.1.12.12,0,0,0,0-.05l-.08,0h0a.57.57,0,0,0-.23.08.52.52,0,0,0-.14.16s0,0,0,0v0l0,0,0,0s0,0,0,0h0l0,0h0l0,0,0,0h0l0,0,0,0,0,0,0,0-.06-.05a.15.15,0,0,0-.06,0l-.07,0h0a.08.08,0,0,0,0,0,.42.42,0,0,0-.09.14.34.34,0,0,0,0,.17.36.36,0,0,0,0,.1.1.1,0,0,0,0,.05h.18s0,0,0,0,0,0,0,0v0h0v0h0l-.09,0H4.1l0,0a.06.06,0,0,0,0,0v0a1.89,1.89,0,0,0,.06.18.25.25,0,0,0,0,.09.3.3,0,0,0,.08.08.11.11,0,0,0,.07,0,.08.08,0,0,0,.07,0,.15.15,0,0,0,0-.07.06.06,0,0,0,0,0h0l0,0,.17.12,0,0,0,0,0,0s0,0,0,0a.11.11,0,0,0,0,.05.07.07,0,0,0,0,0,.08.08,0,0,0,0,0,.6.6,0,0,0,.15.09.47.47,0,0,0,.16,0l.06,0,0,0a.43.43,0,0,1,0-.05.11.11,0,0,0,0-.05.12.12,0,0,0,0,0h0l0,0a.47.47,0,0,1,.12-.09.15.15,0,0,1,.09,0h0a.08.08,0,0,1,0,0s0,.05,0,.09a.83.83,0,0,1,0,.13l0,.05h.06a.93.93,0,0,0,.22,0l.32-.17.27-.14v0h0a.05.05,0,0,1,0,0,.15.15,0,0,1,0,.07.3.3,0,0,1,0,.13.62.62,0,0,1,0,.1l0,.06h.06a1.11,1.11,0,0,0,.3-.07,1.69,1.69,0,0,0,.28-.2l.12-.08a.21.21,0,0,1,.11,0v0l0,0,0,0a.54.54,0,0,1,.07.13.39.39,0,0,1,0,.14.07.07,0,0,1,0,.05l.06,0a1.72,1.72,0,0,1,.42-.4.79.79,0,0,1,.4-.13.57.57,0,0,1,.18,0v0l0,0a5.71,5.71,0,0,0,.87.84h0a.39.39,0,0,1,.1.08.71.71,0,0,1,.12.23c0,.14.08.3.12.46a1.6,1.6,0,0,0,.13.42v0s0,.06,0,.1l-.14.16-.07.06,0,0h0c0,.15-.1.37-.13.56s0,.18-.05.25a.38.38,0,0,0,0,.1.13.13,0,0,0,0,.06v0h0s0,0,0,0,0,0,0,0H9v0a.4.4,0,0,1,.15-.14.52.52,0,0,1,.2-.06v0h0a.58.58,0,0,1,0,.14c0,.1-.05.22-.07.31a1.3,1.3,0,0,1,0,.13v.05l.06,0,.1-.07.13,0a.72.72,0,0,1,.27.07h0v0l0,0h0v0l0,0,0,0h0v0l0,0h0v0l-.06.07-.1.13,0,.08a.14.14,0,0,0,0,.07.06.06,0,0,0,0,0,0,0,0,0,0,0,0l0,0h0l.07,0h0v0l0,0s0,0,0,0v0l0,0,0,0h0v0l0,0h0l-.07.08L9.07,31l-.25.22-.09.1a.19.19,0,0,0-.06.07l0,0,0,0,0,0a0,0,0,0,1,0,0H8.58l-.06,0,0,0,0-.07,0,0-.05,0h0a.25.25,0,0,0-.18.08.24.24,0,0,0-.07.16.2.2,0,0,0,0,.13l0,0a.07.07,0,0,0,.06,0H8.3a.06.06,0,0,1,0,.05v0h0l0,0,0,0H8.12l0,0A.19.19,0,0,0,8,31.8a.3.3,0,0,0,0,.1A.59.59,0,0,0,8,32a.1.1,0,0,0,0,0,.07.07,0,0,0,.06,0H8.2l0,0,0,0,.11.11,0,0,0,0h0l-.05,0,0,0s0,0,0,0v0l0,0,0,0,.11.08a.21.21,0,0,0,.12,0h0a.1.1,0,0,0,.05,0l0-.07s0,0,0,0a.08.08,0,0,0,0,0h0v0l.18,0h0v0l0,0h0v0l0,0,0,0h0l0,0h0v0s0,0,0,0a0,0,0,0,0,0,0v0H9l.08-.05a.1.1,0,0,0,0,0,.09.09,0,0,0,0-.05v0h0v0l0,0h.12c.25-.19.54-.48.82-.73a4.4,4.4,0,0,1,.4-.31l.17-.09.14,0h.09A.57.57,0,0,1,11,31l.06,0h.08a.11.11,0,0,1,0,.05.43.43,0,0,1,0,.11v.06l0,0a.25.25,0,0,0,.08-.12,1.28,1.28,0,0,0,.09-.22l0-.09v0h0l.07,0h0l0,0,0,0v0h0s0,0,0,0h.07a.43.43,0,0,0,.07-.1.28.28,0,0,0,0-.13.11.11,0,0,0,0-.08.11.11,0,0,0-.07-.06,1.19,1.19,0,0,1-.22-.16,1.8,1.8,0,0,1-.3-.37.7.7,0,0,1-.1-.19.3.3,0,0,1,0-.14s0,0,0,0,0,0,0,0h0v0A.87.87,0,0,0,11,29a2.18,2.18,0,0,0-.22-.31l0,0h0a.41.41,0,0,1,0-.11.47.47,0,0,1,0-.17.64.64,0,0,1,.1-.13l0,0v0h0v0h0v0h0l.08.07.48.51.48.52a.45.45,0,0,0,.16.12.41.41,0,0,0,.16,0,.5.5,0,0,0,.24-.06,1.14,1.14,0,0,0,.29-.21,1,1,0,0,0,.11-.13l0,0,0,0a1,1,0,0,0,.17-.26,1.43,1.43,0,0,0,.17-.64v-.05a2,2,0,0,0-.21-.71,1.6,1.6,0,0,0-.19-.31l0,0,0,0c-.2-.31-.31-.5-.43-.69s-.23-.4-.46-.74l0,0h0a1.64,1.64,0,0,0-.17-.26,2,2,0,0,0-.43-.38c-.07,0-.16-.09-.23-.13a.69.69,0,0,0-.24-.05.28.28,0,0,0-.15,0,.32.32,0,0,0-.16.18.82.82,0,0,0-.06.35,2.6,2.6,0,0,0,0,.36h0a2.42,2.42,0,0,1,.15.24.9.9,0,0,1,.05.09.79.79,0,0,0,0,.13c0,.06.07.15.15.3l0,0h0a1.46,1.46,0,0,0,.25.4l.11.09a.23.23,0,0,0,.11,0h.07a.27.27,0,0,0,.07-.08.36.36,0,0,0,0-.11.48.48,0,0,0-.2-.37l0,0,0,0-.4-.91,0,0h0a.58.58,0,0,1,0-.2.13.13,0,0,1,0-.1s0,0,0,0h0a.27.27,0,0,1,.13,0,.84.84,0,0,1,.24.23,1.66,1.66,0,0,1,.24.42,5,5,0,0,0,.72,1.12,4.56,4.56,0,0,1,.33.44.87.87,0,0,1,.15.39h0a1.24,1.24,0,0,1,0,.3.78.78,0,0,1,0,.28,1.08,1.08,0,0,1-.12.24l0,0,0,0-.17.22-.09.07-.08,0a.19.19,0,0,1-.12,0,.5.5,0,0,1-.17-.14c-.34-.37-.65-.87-1-1.33h0a8.6,8.6,0,0,1-.89-1.13,2.36,2.36,0,0,1-.38-1.26v0h0l0,0A1.71,1.71,0,0,0,9.16,25a2.39,2.39,0,0,0-.66-.08A7.27,7.27,0,0,0,7,25.1a7.62,7.62,0,0,1-1.49.23,1.76,1.76,0,0,1-.66-.11v.08h0v0h0v0l0,.07a2,2,0,0,0,.69.11A7,7,0,0,0,7,25.17a7.76,7.76,0,0,1,1.54-.23,2.59,2.59,0,0,1,.63.08,1.71,1.71,0,0,1,.57.29l0,0h0a2.43,2.43,0,0,0,.4,1.3A9.83,9.83,0,0,0,11,27.73l0,0,0,0c.37.45.67,1,1,1.34a.6.6,0,0,0,.18.15.37.37,0,0,0,.16.05.28.28,0,0,0,.12,0,.45.45,0,0,0,.15-.13l.13-.17h0a.85.85,0,0,0,.13-.25.73.73,0,0,0,0-.3,1.91,1.91,0,0,0,0-.32h0a.88.88,0,0,0-.16-.41,6.8,6.8,0,0,0-.53-.7,4.3,4.3,0,0,1-.52-.85,1.57,1.57,0,0,0-.34-.55l-.17-.15a.37.37,0,0,0-.16-.05l-.07,0a.12.12,0,0,0-.07.07.36.36,0,0,0,0,.11.69.69,0,0,0,0,.22h0l.41.92h0a.39.39,0,0,1,.17.3.15.15,0,0,1,0,.1,0,0,0,0,1,0,0h0l-.07,0a.6.6,0,0,1-.15-.14c0-.08-.11-.18-.18-.32h0l-.14-.27,0-.1a.69.69,0,0,0-.06-.13l-.16-.26,0,0h0a2.6,2.6,0,0,1,0-.36.72.72,0,0,1,.09-.39.28.28,0,0,1,.09-.07.27.27,0,0,1,.12,0,.67.67,0,0,1,.28.08,1.6,1.6,0,0,1,.43.32,1.33,1.33,0,0,1,.28.37h0c.23.34.35.54.46.73s.23.39.43.7h0a1.48,1.48,0,0,1,.18.31,1.75,1.75,0,0,1,.19.67v.05a1.29,1.29,0,0,1-.15.6c0,.08-.08.14-.11.19l0,0v0h0a1.67,1.67,0,0,1-.2.2l-.18.12a.54.54,0,0,1-.21.05l-.13,0a.31.31,0,0,1-.13-.1l-.63-.68-.3-.32-.11-.1,0,0h-.07a.91.91,0,0,0-.11.16.42.42,0,0,0-.05.2.5.5,0,0,0,0,.12h0a2.86,2.86,0,0,1,.22.3.83.83,0,0,1,.11.31h0l0,0a.1.1,0,0,0,0,.05.15.15,0,0,0,0,.07.23.23,0,0,0,0,.11,2,2,0,0,0,.1.22,3,3,0,0,0,.27.35,1.08,1.08,0,0,0,.31.24l0,0a.06.06,0,0,1,0,0,.13.13,0,0,1,0,.06l-.06.09,0,0h0v0h0v0l0,0v0h0l0,0v0h0v0l0,0,0,0v0l0,0,0,0h0v0l0,0h0l0,0,0,0,0,0-.1,0a.16.16,0,0,0-.09,0h0s0,0,0,0a1,1,0,0,0,0,.1,1.34,1.34,0,0,1-.07.18l0,.08a.1.1,0,0,1,0,0l0,0h0a.46.46,0,0,0-.07-.17l-.06,0H11.1l-.08,0-.11.08-.08.08,0,0v0H10.8a.39.39,0,0,0-.18,0,1.53,1.53,0,0,0-.33.2c-.17.13-.36.3-.55.47a6.65,6.65,0,0,1-.53.46h0v0h0v0H9.07l0,0v.11l0,0-.07,0H8.88l-.09,0h0v0l0,0h0v0l0,0v0h0v0h0v0s0,0,0,0a0,0,0,0,0,0,0l0,0h0v0l-.19,0v0a.26.26,0,0,1-.05.09l0,0H8.41l-.1-.07-.08-.07h0l0,0,0,0,0,0L8.18,32h0v0h0v0H8.1v0a.37.37,0,0,1,0-.11.17.17,0,0,1,0-.07l0-.06h.05l.05,0,0,0h0l0,0s0,0,0,0a.14.14,0,0,0,0-.06.16.16,0,0,0-.05-.11l0,0H8.2l0,0a.15.15,0,0,1,0-.09.15.15,0,0,1,0-.11.22.22,0,0,1,.14-.06h0a0,0,0,0,1,0,0l0,.07a.17.17,0,0,0,.08.06l.07,0,.06,0,.06,0,.05,0h0l.07-.09L9,31.13l.42-.38.16-.15,0-.06s0,0,0,0,0,0,0,0,0,0,0,0l0,0H9.6l-.12,0v0l0,0h0a.08.08,0,0,1,0,0,.25.25,0,0,1,.05-.08,1.47,1.47,0,0,1,.1-.13l.05-.06s0,0,0,0h0v0s0,0,0,0a0,0,0,0,0,0,0v0a.79.79,0,0,0-.3-.08.4.4,0,0,0-.15,0,.38.38,0,0,0-.13.09l0,0h0s0-.14.07-.28a2.09,2.09,0,0,0,.05-.21.64.64,0,0,0,0-.15v-.05h0a.62.62,0,0,0-.23.07.46.46,0,0,0-.17.17h0v0h0v0l0,0h0v0l0,0,0,0H9l0,0,0,0H9v0a4.11,4.11,0,0,1,.08-.42,4.58,4.58,0,0,1,.12-.47h0v0l.07-.07.13-.14a.35.35,0,0,0,0-.08.29.29,0,0,0,0-.09.15.15,0,0,0,0-.07,1.63,1.63,0,0,1-.1-.29,5.29,5.29,0,0,0-.13-.54,1.6,1.6,0,0,0-.1-.23.52.52,0,0,0-.17-.16l0,0,0,0a5.11,5.11,0,0,1-.85-.83h0a.76.76,0,0,0-.21,0,.75.75,0,0,0-.44.15,1.64,1.64,0,0,0-.43.41l0,0h0a.13.13,0,0,0,0-.09.43.43,0,0,0,0-.11A.67.67,0,0,0,7,26.48a.21.21,0,0,1,0-.06l0,0h0a.46.46,0,0,0-.19.08c-.08.05-.16.13-.25.19a.74.74,0,0,1-.37.12v0l0,0a.83.83,0,0,0,0-.12.68.68,0,0,0,0-.15.25.25,0,0,0,0-.12.08.08,0,0,0,0,0s0,0-.06,0H6a1.51,1.51,0,0,0-.18.09l-.31.17a.6.6,0,0,1-.29.09h0v0h0a.47.47,0,0,0,0-.16.24.24,0,0,0,0-.15l-.06,0H5.13a.27.27,0,0,0-.12,0,.41.41,0,0,0-.13.1h0v0h0v0s0,.05,0,.06a0,0,0,0,1,0,0,0,0,0,0,1,0,0,.31.31,0,0,1-.13,0l-.14-.08,0,0h0v0l0,0h0l0,0,0,0h0l0,0,0,0,0,0-.25-.18v0h0a.15.15,0,0,1,0,.05s0,0,0,0h0l0,0-.06-.05a.61.61,0,0,1,0-.12c0-.05,0-.09,0-.14h.14l0,0V26a.32.32,0,0,0,0-.08l0,0a.1.1,0,0,0,0,0H4.05a.22.22,0,0,1,0-.08.31.31,0,0,1,0-.13.57.57,0,0,1,.08-.13h.08l.07.05s0,0,0,0h0l0,0,0,0,0,0s0,0,0,0a.07.07,0,0,0,0-.05.06.06,0,0,0,0,0,.08.08,0,0,0,0,0s0,0,0,0v0h0a.71.71,0,0,1,.12-.13.4.4,0,0,1,.2-.07h.06l0,0v.08h0v0Z"/><path class="cls-5" d="M8.25,22.86l-.12,0a.43.43,0,0,1-.52-.15c0-.16-.2-.41-.1-.52l.63-.09A.32.32,0,0,0,8.48,22c.06-.08.12-.17.22-.16l1.23.07a1.6,1.6,0,0,1,.41-.12c.2,0,.35.21.31.33a1.12,1.12,0,0,1-.36.3c-.2.46.13.84.42,1.2-.48-.15-.24.4-.08.54-.56,0-.28.43-.15.68a.39.39,0,0,1-.28,0c-.1,0-.18-.06-.21,0s.08.52.24.64a.64.64,0,0,1-.35,0c-.15-.05,0,.44,0,.44-.15,0-.63-.48-.63-.48s-.25.47-.34.45-.21-.56-.39-.55c-.1.35-.61.55-1,.6a.73.73,0,0,0,.17-.54c-.4,0-.78.32-1.31.25.11-.16.58-.49.29-.7,0-.05-.31-.07-.44-.25a3.71,3.71,0,0,0,1.42-.34s-.49,0-.44-.18c.41,0,1.11,0,1.23-.41a.46.46,0,0,0-.35-.07.82.82,0,0,1-.27,0c-.13-.05-.06-.16,0-.22h.07l.07,0,.7-.05c.5-.14.36-.44.09-.56a1,1,0,0,0-.54,0Z"/><path class="cls-3" d="M8.25,22.86v0h-.1a.71.71,0,0,1-.22.05.32.32,0,0,1-.16,0,.29.29,0,0,1-.14-.13l0,0h0a.94.94,0,0,0-.07-.22.49.49,0,0,1,0-.11.28.28,0,0,1,0-.09v0l0,0,0,0v0l.14,0,.49-.08v0H8.2a.29.29,0,0,0,.19-.06A.38.38,0,0,0,8.48,22l.1-.13.05,0,0,0h0l1.23.07h0l.16,0a.77.77,0,0,1,.24-.06v0a.29.29,0,0,1,.2.09.24.24,0,0,1,.06.09.11.11,0,0,1,0,.07v0h0l0,0a.24.24,0,0,1-.08.1.75.75,0,0,1-.18.13l-.06,0,0,0h0a.79.79,0,0,0-.06.29,1,1,0,0,0,.16.5,2.89,2.89,0,0,0,.33.45l0,0v0l-.16,0h-.07s-.07,0-.08.07a.16.16,0,0,0,0,.1.5.5,0,0,0,0,.12.84.84,0,0,0,.08.19,1,1,0,0,0,.12.15l0,0v0h-.2a.22.22,0,0,0-.13.09.2.2,0,0,0,0,.13.76.76,0,0,0,.06.26c0,.09.09.18.12.24h0l0,0a.15.15,0,0,1-.09,0,.45.45,0,0,1-.16,0l-.08,0H10l0,.05a.37.37,0,0,0,0,.15.65.65,0,0,0,.09.3.77.77,0,0,0,.2.23l0,0v0h0a.93.93,0,0,1-.21,0h-.2s0,0,0,0,0,0,0,0,0,0,0,0a.5.5,0,0,0,0,.12,2.25,2.25,0,0,0,.06.25h0v0H9.82l-.16-.11a2.84,2.84,0,0,1-.25-.23l-.09-.08,0,0h0l0,0,0,0h0a2.08,2.08,0,0,1-.14.24l-.1.14s0,0,0,0h0v0l0,0h0s0,0,0,0l-.06-.14a1.16,1.16,0,0,0-.14-.24.39.39,0,0,0-.08-.1l-.05,0H8.5v0a.5.5,0,0,1-.13.22,1.23,1.23,0,0,1-.38.24,1.56,1.56,0,0,1-.45.11v0l0,0a.7.7,0,0,0,.15-.28,1.33,1.33,0,0,0,0-.28v0h0a2.3,2.3,0,0,0-.56.14,1.88,1.88,0,0,1-.6.12H6.4v0l0,0,.09-.11a2,2,0,0,0,.19-.21.37.37,0,0,0,.07-.12.33.33,0,0,0,0-.13.19.19,0,0,0,0-.1.32.32,0,0,0-.08-.09l0,0,0,0,0,0-.08,0-.17-.07a.28.28,0,0,1-.14-.12l0,0v0a4.11,4.11,0,0,0,.92-.15l.34-.11.11-.05.06,0,0,0h0l0,0v0h0l0,0,0,0,0,0a0,0,0,0,1,0,0l0,0,0,0,0,0v0h0l0,0v0h0v0h0l-.23,0-.1,0,0,0v0h0v0h.14A2.67,2.67,0,0,0,8,24.13.92.92,0,0,0,8.31,24a.42.42,0,0,0,.18-.23v0h0a.24.24,0,0,0-.13-.07l-.13,0H7.84v0l0,0s0,0,0,0,0,0,0,0,0,0,0-.05l0,0,0,0v0h0l0,0H8l.36,0,.35,0h0A.57.57,0,0,0,9,23.33.16.16,0,0,0,9,23.25a.19.19,0,0,0,0-.1.22.22,0,0,0,0-.1A.34.34,0,0,0,9,22.93a.78.78,0,0,0-.15-.1.57.57,0,0,0-.22,0,2.88,2.88,0,0,0-.33,0v0h0v0h0v0h0v0h0c.11,0,.22,0,.33,0a.43.43,0,0,1,.19,0,.64.64,0,0,1,.16.11l.05.07a.2.2,0,0,1,0,.07.13.13,0,0,1,0,.06l-.09.1a.64.64,0,0,1-.2.08v0l-.35,0-.35,0H7.84a.27.27,0,0,0-.08.07s0,0,0,0a.13.13,0,0,0,0,.06.1.1,0,0,0,0,.07l.07.05h.41l.11,0a.13.13,0,0,1,.09,0l0,0h0a.37.37,0,0,1-.14.19,1.22,1.22,0,0,1-.42.15,2.89,2.89,0,0,1-.5,0H7.18v.06a.11.11,0,0,0,0,.06.18.18,0,0,0,.09.08l.18.05h.22s0,0,0,0h0l0,0,0,0,0,0a3.87,3.87,0,0,1-.53.18,4,4,0,0,1-.82.12H6.16l0,.05a.58.58,0,0,0,.26.19l.12,0h.06a.17.17,0,0,1,.06.06.08.08,0,0,1,0,.07.46.46,0,0,1,0,.13,1.57,1.57,0,0,1-.17.21.43.43,0,0,0-.09.1s-.06,0-.07.08l0,.05h.21a2,2,0,0,0,.62-.13,2.4,2.4,0,0,1,.54-.14v0h0a1.24,1.24,0,0,1,0,.27.57.57,0,0,1-.13.24L7.43,26h.1a1.59,1.59,0,0,0,.62-.19,1.2,1.2,0,0,0,.26-.18.64.64,0,0,0,.15-.25h0v0h.05a.35.35,0,0,1,.09.11,2,2,0,0,1,.13.25.46.46,0,0,0,0,.1l0,0,0,0H9l0,0a.62.62,0,0,0,.09-.12,3.19,3.19,0,0,0,.19-.31l0,0,0,0a3.24,3.24,0,0,0,.25.24l.21.17.1,0,.08,0h.06v0h0a1.19,1.19,0,0,0,0-.14l0-.11s0-.07,0-.09a.2.2,0,0,1,0-.05h0l.14,0a.78.78,0,0,0,.24,0l.07,0-.06-.05a.71.71,0,0,1-.18-.2.6.6,0,0,1-.08-.28.43.43,0,0,1,0-.11h0s0,0,0,0h.06l.11,0,.14,0a.31.31,0,0,0,.13,0l0,0,0,0c0-.07-.08-.15-.11-.24a.55.55,0,0,1-.07-.23.14.14,0,0,1,0-.06.13.13,0,0,1,.06-.07.35.35,0,0,1,.16,0h.17l-.08-.07L10.59,24a.56.56,0,0,1-.09-.17.37.37,0,0,1,0-.16v-.05l0,0h.07l.13,0,.12,0-.08-.1a4.35,4.35,0,0,1-.32-.43.93.93,0,0,1-.15-.47.65.65,0,0,1,.06-.26l0,0,0,0a1.18,1.18,0,0,0,.16-.1l.13-.1a.47.47,0,0,0,.09-.12h0v0a.27.27,0,0,0,0-.12.39.39,0,0,0-.12-.14.37.37,0,0,0-.2-.07h0a.88.88,0,0,0-.27.06l-.15.06v0L8.7,21.75v0h0l-.08,0a.28.28,0,0,0-.1.09L8.38,22l-.08.06-.1,0H8.13L8,22.1l-.29,0-.25,0h0a.09.09,0,0,0,0,.06.13.13,0,0,0,0,.06.37.37,0,0,0,0,.11l.06.17a.77.77,0,0,1,.06.15h0a.5.5,0,0,0,.18.15.39.39,0,0,0,.18,0,.94.94,0,0,0,.2,0l.07,0h0v0h0Z"/><path class="cls-5" d="M9.19,22.24c0,.06-.1.11-.22.11s-.22-.05-.22-.11.1-.11.22-.11S9.19,22.18,9.19,22.24Z"/><path class="cls-3" d="M9.19,22.24h0v0l-.07,0-.11,0a.42.42,0,0,1-.14,0l0,0v0l.07,0H9a.26.26,0,0,1,.14,0,.05.05,0,0,1,0,0v0h.08a.11.11,0,0,0,0-.07l-.09-.06-.14,0a.39.39,0,0,0-.17,0,.15.15,0,0,0-.06,0,.11.11,0,0,0,0,.07.09.09,0,0,0,0,.07.15.15,0,0,0,.09.06l.14,0a.29.29,0,0,0,.17,0,.09.09,0,0,0,.06,0,.09.09,0,0,0,0-.07Z"/><path class="cls-5" d="M7.79,22.91a.75.75,0,0,0,.37.21c0-.07-.11-.14-.07-.23l-.3,0Z"/><path class="cls-3" d="M7.79,22.91l0,0a.49.49,0,0,0,.18.14l.21.08.1,0-.06-.09a.22.22,0,0,0,0-.08.25.25,0,0,1,0-.07s0,0,0,0l0-.06-.36,0v0l0,0,0,0v0l.31,0v0h0A.14.14,0,0,0,8,23a.21.21,0,0,0,0,.11.35.35,0,0,1,.05.08l0,0,0,0L8,23a.42.42,0,0,1-.15-.11v0h0v0Z"/><path class="cls-5" d="M7.93,23.44c-.06-.07.05-.17.1-.25,0,.09,0,.2.13.28C8.08,23.46,8,23.49,7.93,23.44Z"/><path class="cls-3" d="M7.93,23.44l0,0s0,0,0,0a.08.08,0,0,1,0,0,.25.25,0,0,1,0-.07l.06-.09H8a1.55,1.55,0,0,1,0,.15.36.36,0,0,0,.11.15l0,0v0H8.05a.22.22,0,0,1-.11,0v0l0,0,0,0,0,0a.25.25,0,0,0,.14,0h.23l-.1-.07a.42.42,0,0,1-.08-.12s0-.09,0-.15l0-.08,0,.08a.46.46,0,0,1-.07.1l0,.06a.14.14,0,0,0,0,.07.14.14,0,0,0,0,.06h0l0,0Z"/><path class="cls-5" d="M7.62,22.3c.11,0,.13.17.06.25s0,0,0,0c0-.29-.1-.09-.1,0l0-.17c0-.16-.07-.18.12-.12Z"/><path class="cls-3" d="M7.62,22.3v0a.07.07,0,0,1,0,0,.07.07,0,0,1,0,.06.14.14,0,0,1,0,.09l0,0h0a0,0,0,0,0,0,0H7.63v0h0v0h0v0l0,0h0v0l0,0,0,0h0s0,0,0,0l0,0h0V22.4l0,0H7.59l0,0a.25.25,0,0,0,0,.07.28.28,0,0,0,0,.09h.07l0-.17h0v-.14h0v0h0v0h0v0h0l.1,0h0v0l0,0-.08,0H7.48l0,0v.06s0,0,0,.05a.06.06,0,0,1,0,0h0l0,.17h.07a.19.19,0,0,1,0-.1s0,0,0,0h0v0h0v0l0,0s0,0,0,0v0l0,0h0a0,0,0,0,1,0,0,.28.28,0,0,1,0,.08h.07v0h0v0h0v0h0v0h0l0,.05,0,0a.2.2,0,0,0,.06-.14.21.21,0,0,0-.13-.17v0Z"/><path class="cls-5" d="M10.19,22.22A.34.34,0,0,0,10,22l.26-.07c.08,0,.15-.06.27.1Z"/><path class="cls-3" d="M10.22,22.22a.28.28,0,0,0,0-.13.32.32,0,0,0-.16-.17l0,0v0l.26-.07v0h.1l.06,0a.57.57,0,0,1,.08.08l.06,0a.46.46,0,0,0-.1-.1.19.19,0,0,0-.1,0h-.1l-.35.1L10,22a.4.4,0,0,1,.13.14.27.27,0,0,1,0,.1h.07Z"/><path class="cls-5" d="M8.79,22.23h0v0h0v0h0Z"/><path class="cls-6" d="M8.77,22.22h0l0,.07h0v0h0s0,0,0,0h0Z"/><path class="cls-7" d="M9,22.17H8.86l-.07,0h.09a0,0,0,0,0,0,0h0l0,0,0,0a.35.35,0,0,0,.12,0H9a.14.14,0,0,0,0-.07v0l0,0Z"/><path class="cls-3" d="M8.85,22.13H8.78a.12.12,0,0,0,0,.05l0,0h0l.07,0H9l0,0-.07,0h0Zm0,.14,0,0,0,0a.16.16,0,0,0,.09,0h.06l0,0a.35.35,0,0,1-.12,0l0,0Z"/><path class="cls-5" d="M8.81,22.06c.17.09.15.06.32,0a.23.23,0,0,1,.27,0Z"/><path class="cls-3" d="M8.79,22.09l.1.05.08,0,.07,0,.1,0h0a.19.19,0,0,1,.12,0,.19.19,0,0,1,.11,0l0-.06A.3.3,0,0,0,9.27,22a.3.3,0,0,0-.16.05l0,0v0l-.11,0h-.1L8.83,22l0,.07Z"/><path class="cls-5" d="M8.3,23.69a2.4,2.4,0,0,0,.83-.17Z"/><path class="cls-3" d="M8.3,23.73h0a2.35,2.35,0,0,0,.82-.17l0-.07a2.37,2.37,0,0,1-.8.16h0v.08Z"/><path class="cls-3" d="M26.34,25.43c-.87-2.89-1.31-4.34-1.53-5.06-.11-.36-.17-.55-.19-.64s0-.07,0-.08h0l-.05,0,.05,0h0l-.05,0,.05,0-.06,0,.06,0h0l-.06,0,.06,0-.06,0h.06l-.06,0,.06,0-.06,0h.06a.05.05,0,0,0,0,0s0,0-.05,0l0,0a.07.07,0,0,0,0,.05h0v0l.36.54.05,0,.05,0a1,1,0,0,0-.15-.15L24.72,20H24.6l0,0,0,.05,0,.1a1.55,1.55,0,0,0,0,.15l.06,0h.06v-.61h-.13l0,.61h.12l0-.13,0-.11h0v0h0v0h0l.06.06.11.11.1-.08-.47-.7v.21h0l0,.11c.09.29.43,1.41,1.72,5.69l.12,0Z"/><path class="cls-3" d="M24.31,28.81l3.25-8.57h0c-.05.12-.4,1.06-3.25,8.55l0,0Z"/><path class="cls-5" d="M25.6,24c.36.26.8.1.81-.16a.55.55,0,0,1-.59-.07Z"/><path class="cls-3" d="M25.6,24l0,0a.68.68,0,0,0,.41.14.66.66,0,0,0,.32-.09.52.52,0,0,0,.1-.11.28.28,0,0,0,0-.13v-.06l-.05,0a.78.78,0,0,1-.27.05.43.43,0,0,1-.17,0l-.13-.07,0,0-.27.28,0,0,0,0,0,0,.22-.22,0,0,0,0,.13.08a.53.53,0,0,0,.2.05.93.93,0,0,0,.29-.06v0h0a.17.17,0,0,1,0,.1.3.3,0,0,1-.13.12.72.72,0,0,1-.22,0,.73.73,0,0,1-.37-.12l0,0,0,0,0,0Z"/><path class="cls-5" d="M26.06,23.35a.37.37,0,0,1,.58.1c.08-.51-.45-.62-.88-.45l.3.35Z"/><path class="cls-3" d="M26.06,23.35l0,0a.43.43,0,0,1,.25-.09.33.33,0,0,1,.15,0,.27.27,0,0,1,.11.14l0,.11,0-.12a.45.45,0,0,0,0-.11.46.46,0,0,0,0-.21.43.43,0,0,0-.21-.19.68.68,0,0,0-.29-.06,1.34,1.34,0,0,0-.39.07l-.05,0,.33.39,0,0v0l0,0,0,0v0h.09L25.79,23l0,0,0,0a1.09,1.09,0,0,1,.36-.06.56.56,0,0,1,.33.09.29.29,0,0,1,.1.12.39.39,0,0,1,0,.17s0,.06,0,.1h.07a.39.39,0,0,0-.14-.17.41.41,0,0,0-.19-.05.51.51,0,0,0-.3.1l-.1.06h.12v0Z"/><path class="cls-5" d="M25.7,22.7c.11-.27.15-.46.59-.31-.18-.51-.84-.24-1,.13Z"/><path class="cls-3" d="M25.7,22.7h0a1.47,1.47,0,0,1,.12-.25.13.13,0,0,1,.07-.06.18.18,0,0,1,.11,0,.79.79,0,0,1,.25.06l.08,0,0-.07a.5.5,0,0,0-.17-.24.43.43,0,0,0-.25-.07.73.73,0,0,0-.39.13.83.83,0,0,0-.29.3l0,0,.5.21,0,0h0l0,0-.43-.17v0l0,0a.7.7,0,0,1,.26-.28.68.68,0,0,1,.35-.11.37.37,0,0,1,.21.06.49.49,0,0,1,.14.19h0l0,0A.94.94,0,0,0,26,22.3a.29.29,0,0,0-.14,0l-.08.06a.46.46,0,0,0-.08.13,1.11,1.11,0,0,0-.07.16l0,0,0,0,0,0Z"/><path class="cls-5" d="M24.88,22.51c-.17-.25-.18-.23,0-.49-.46-.09-.51.39-.38.72l.35-.23Z"/><path class="cls-3" d="M24.88,22.51l0,0-.1-.14s0,0,0,0v0a.08.08,0,0,1,0,0s0,0,0-.07l.1-.13L25,22h-.17a.33.33,0,0,0-.17,0,.28.28,0,0,0-.15.17.6.6,0,0,0,0,.24.93.93,0,0,0,.07.33v.05l.42-.28,0,0,0,0,0,0-.34.23,0,0h0a.87.87,0,0,1-.06-.32.44.44,0,0,1,.07-.26.3.3,0,0,1,.08-.08.58.58,0,0,1,.14,0h.1v0l0,0-.12.16s0,0,0,.06a.1.1,0,0,0,0,.12.36.36,0,0,0,0,.09,1,1,0,0,1,.08.11l0,0,0,0,0,0Z"/><path class="cls-5" d="M21.31,23.22a7.79,7.79,0,0,0,1.46.06c.79-.08.91-.53.79-.64s-.26.31-.67.39a5.27,5.27,0,0,1-1.48.09c-.09,0,0,.1-.1.1Z"/><path class="cls-3" d="M21.31,23.22v0a7.31,7.31,0,0,0,1.05.08l.41,0h0a1.34,1.34,0,0,0,.67-.22.46.46,0,0,0,.2-.34s0-.05,0-.07a.1.1,0,0,0-.05-.06h-.13a.87.87,0,0,0-.11.09,1.52,1.52,0,0,1-.18.17.56.56,0,0,1-.28.12h0l-.21,0a7.23,7.23,0,0,1-1,.06h-.36s0,0,0,0,0,0,0,0v0h0v.07h.05l0,0,0,0v0h0l.31,0c.2,0,.44,0,.66,0l.3,0,.22,0v0a.8.8,0,0,0,.42-.23l.12-.12.05,0h.06l0,0,0,0s0,0,0,0a.07.07,0,0,1,0,.05.36.36,0,0,1-.17.27,1.15,1.15,0,0,1-.63.21v0l-.4,0a7.17,7.17,0,0,1-1-.08h0v0Z"/><path class="cls-5" d="M24,25.28c-.6-.18.66-.34.9-.37-.85-.22-.17-.58.36-.58-.45-.07-.39-.23.09-.27,0,0,0-.12.15-.07,0,0,.11.16.24.12a.55.55,0,0,0,.28-.26c.05-.09-.16-.07-.16-.17a.31.31,0,0,1,.18-.25c.09-.07.22,0,.2-.15s0-.29-.16-.37-.32.05-.32.05-.13,0-.1-.09.2-.18.13-.26a.54.54,0,0,0-.41-.24c-.17,0-.11.23-.22.25s-.12-.21-.3-.15-.39.17-.33.33.11.09.09.13.07,0-.23.23a5.34,5.34,0,0,1-1.52,1c-.74.4.91,1.23,1.14,1.08h0Z"/><path class="cls-3" d="M24,25.28l0,0-.12-.05s0,0,0,0h0l.07,0,.22-.06a6.93,6.93,0,0,1,.71-.12v-.07a1,1,0,0,1-.3-.12.17.17,0,0,1-.06-.06s0,0,0,0,0,0,0-.05,0-.06.09-.09a1.26,1.26,0,0,1,.28-.11,1.33,1.33,0,0,1,.34-.05h0v-.07L25,24.23l-.05,0h0l0,0,.13,0,.21,0h0v0a.06.06,0,0,0,0,0s0,0,0,0h0l.08,0v0l0,0a.22.22,0,0,0,.06.07.18.18,0,0,0,.07.05l.09,0h.05A.47.47,0,0,0,25.9,24a.79.79,0,0,0,.12-.15.08.08,0,0,0,0,0s0,0,0,0,0,0,0,0l0,0-.06,0,0,0h0a.17.17,0,0,1,.05-.12.52.52,0,0,1,.11-.1l.06,0h.11l0,0a.13.13,0,0,0,0-.06v0a.87.87,0,0,0,0-.22.36.36,0,0,0,0-.09l-.08-.09a.27.27,0,0,0-.12,0,.47.47,0,0,0-.17,0l-.07,0,0,0v0h0l-.05,0h0a.08.08,0,0,1,0,0l.07-.08s0,0,0-.05a.08.08,0,0,0,0-.05.11.11,0,0,0,0-.07.81.81,0,0,0-.2-.18.48.48,0,0,0-.24-.06h-.07l-.05,0a.16.16,0,0,0,0,.07l0,.1s0,0,0,0h0s0,0,0,0L25,22.47l-.05,0-.07,0h-.06a1.08,1.08,0,0,0-.24.12.24.24,0,0,0-.09.08.17.17,0,0,0,0,.12.13.13,0,0,0,0,.06s0,.06,0,.07a.08.08,0,0,0,.05.05h0v0h0v0h0a.06.06,0,0,0,0,0h0l-.05,0-.16.11h0a5,5,0,0,1-1.52,1h0a.39.39,0,0,0-.15.13.24.24,0,0,0-.05.16.32.32,0,0,0,0,.16,1.17,1.17,0,0,0,.24.27,2.58,2.58,0,0,0,.53.32l.26.1a1,1,0,0,0,.21,0H24l0,0,0,0v0h-.08a.34.34,0,0,1-.13,0,2.22,2.22,0,0,1-.69-.32,1.35,1.35,0,0,1-.28-.24.83.83,0,0,1-.08-.12.26.26,0,0,1,0-.11.15.15,0,0,1,0-.11.36.36,0,0,1,.13-.11l0,0,0,0a5.39,5.39,0,0,0,1.53-1l0,0,0,0,.19-.14,0,0v0h0v0h0v0s0,0,0,0h0l0,0s0,0,0-.06v0a.19.19,0,0,1,0-.07.34.34,0,0,1,.13-.1.56.56,0,0,1,.16-.07h0l.06,0s0,.05.07.08l0,0,.07,0h0a.09.09,0,0,0,.06,0l0,0a.36.36,0,0,0,0-.07l0-.09,0,0h0a.34.34,0,0,1,.2.06.85.85,0,0,1,.19.16v0l0,0-.07.07,0,0,0,0v.06l0,0,.07,0h.06l.07,0a.31.31,0,0,1,.13,0,.08.08,0,0,1,.07,0,.09.09,0,0,1,.06.06.22.22,0,0,1,.05.12.9.9,0,0,1,0,.16v0h-.09a.12.12,0,0,0-.09,0,.47.47,0,0,0-.13.11.33.33,0,0,0-.07.16h0a.08.08,0,0,0,0,0,.1.1,0,0,0,.05.06l.08,0h0a.94.94,0,0,1-.1.14.7.7,0,0,1-.16.1h0l-.06,0s-.05,0-.07-.06l0,0h-.16s0,0,0,0a295224554145.31,295224554145.31,0,0,0,0,.06h0l0,0v0a1,1,0,0,0-.31.06.19.19,0,0,0-.09,0l0,0s0,0,0,0,0,0,0,0l0,.05.12,0,.17,0v-.07h0a1.46,1.46,0,0,0-.52.1.56.56,0,0,0-.19.11.19.19,0,0,0-.06.07.13.13,0,0,0,0,.08.16.16,0,0,0,0,.09.33.33,0,0,0,.14.11,1.42,1.42,0,0,0,.26.1v-.08l-.6.1a2.13,2.13,0,0,0-.32.08l-.11.05,0,0a.08.08,0,0,0,0,.05s0,0,0,.05a.09.09,0,0,0,.06,0l.11,0v0Z"/><path class="cls-5" d="M24.92,29.26c0-.23.33-.18.5-.2a.5.5,0,0,0-.71,0C24.64,29.16,24.88,29.08,24.92,29.26Z"/><path class="cls-3" d="M24.92,29.26h0a.13.13,0,0,1,0-.06.2.2,0,0,1,.07-.06l.18,0h.27l0-.06a.64.64,0,0,0-.16-.11.85.85,0,0,0-.23,0,.45.45,0,0,0-.2,0,.38.38,0,0,0-.18.13l0,0v.06h.05l.05,0a.11.11,0,0,1,.08,0,0,0,0,0,1,0,0,.08.08,0,0,1,0,.05H25a.21.21,0,0,0-.07-.11.35.35,0,0,0-.13-.05h0v0h0v0h0a.33.33,0,0,1,.15-.11.47.47,0,0,1,.17,0,.65.65,0,0,1,.2,0,.33.33,0,0,1,.13.09l0,0v0h-.14a.64.64,0,0,0-.24,0,.21.21,0,0,0-.1.06.29.29,0,0,0-.05.13Z"/><path class="cls-5" d="M25.05,29.69a.79.79,0,0,1,.69,0,.57.57,0,0,0-.27-.35.56.56,0,0,0-.47,0l.05.3Z"/><path class="cls-3" d="M25.05,29.69v0a1.13,1.13,0,0,1,.34-.07.34.34,0,0,1,.14,0l.18.06.07,0,0-.07a.55.55,0,0,0-.05-.14.51.51,0,0,0-.23-.23.41.41,0,0,0-.21,0,.6.6,0,0,0-.21,0l-.09,0,0,0,.06.37h0v0h0l0-.31h0l0,0h0l.08,0a.44.44,0,0,1,.18,0,.33.33,0,0,1,.17,0,.63.63,0,0,1,.2.2l0,.09v0h0v0l-.19-.06-.16,0a1.3,1.3,0,0,0-.37.08v0h0Z"/><path class="cls-5" d="M24.76,30.09c.12.05.21.08.3.4.22-.18.21-.47-.07-.56l-.23.16Z"/><path class="cls-3" d="M24.76,30.09v0l.08,0a.25.25,0,0,1,.09.09.67.67,0,0,1,.1.25l0,.05,0,0a.4.4,0,0,0,.17-.31.3.3,0,0,0-.06-.18A.35.35,0,0,0,25,29.9h0l-.3.21.07,0v0l0,0L25,30l0,0v0a.32.32,0,0,1,.15.09.23.23,0,0,1,0,.14.3.3,0,0,1-.14.25l0,0h0a.75.75,0,0,0-.14-.31l-.09-.07-.09,0v0l0,0,0,0Z"/><path class="cls-5" d="M24.08,30.13c.1.09.05.22,0,.42s.44-.34.24-.48l-.26.06Z"/><path class="cls-3" d="M24.08,30.13l0,0a.1.1,0,0,1,0,.05.15.15,0,0,1,0,.07.45.45,0,0,1,0,.11.77.77,0,0,0,0,.15v0h0l0,0h.07l.08-.06a.7.7,0,0,0,.13-.16.35.35,0,0,0,.06-.18.19.19,0,0,0,0-.07.13.13,0,0,0-.06-.07h0l-.35.08.05.05,0,0v0l.27-.06v0l0,0s0,0,0,0a.06.06,0,0,1,0,0,.26.26,0,0,1,0,.11.48.48,0,0,1-.12.16l-.06.05h0v0h0v0l0,0h0a.78.78,0,0,0,0-.14.69.69,0,0,0,0-.13.29.29,0,0,0,0-.09.24.24,0,0,0-.06-.09l0,0v0Z"/><path class="cls-5" d="M22.45,27.48a2.49,2.49,0,0,1,.4,0,1.1,1.1,0,0,1,.85.47.25.25,0,0,0-.2.11s.12.18.12.26-.21,0-.17.08a.4.4,0,0,0,0,.37,1.81,1.81,0,0,0,1,.43c.16-.1.11-.21.18-.22s.33.11.33.21-.07.11-.16.14l.09.06c.06-.05.11-.11.16-.1a.29.29,0,0,1,.12.37.23.23,0,0,1-.18.05l0,.13c.06,0,.15,0,.15.08s-.21.28-.34.25,0-.1,0-.13l-.3,0s.07.13-.05.17a.5.5,0,0,1-.32,0c-.1,0,0-.16,0-.16a6.64,6.64,0,0,0-2.43-.25A1.51,1.51,0,0,0,22,28.57a1.3,1.3,0,0,0-.83.1c-.1-.09-.26-.25-.19-.35s.05-.47.15-.76c.26,0,1-.08,1.35-.08h0Z"/><path class="cls-3" d="M22.45,27.48v0a2.55,2.55,0,0,1,.4,0,1.24,1.24,0,0,1,.64.26.94.94,0,0,1,.14.13l0,.05h0l0,0v0h0a.2.2,0,0,0-.09,0l-.07,0-.06.06a.08.08,0,0,0,0,.08s0,0,0,.05,0,.06.05.09l0,0a0,0,0,0,1,0,0h0v0h0v0h-.16l0,0a.09.09,0,0,0,0,.05v0h0a.64.64,0,0,0,0,.2.18.18,0,0,0,0,.1.31.31,0,0,0,.05.1,1.39,1.39,0,0,0,.5.32,1.52,1.52,0,0,0,.28.09.87.87,0,0,0,.26,0h0a.24.24,0,0,0,.09-.08.41.41,0,0,0,.06-.11v0h0a.31.31,0,0,1,.17.07.17.17,0,0,1,.06.06.06.06,0,0,1,0,.05h0v0l0,0-.08,0-.07,0,.16.12,0,0a.46.46,0,0,1,.07-.07l0,0h0s0,0,.05,0a.35.35,0,0,1,.06.09.52.52,0,0,1,0,.11.13.13,0,0,1,0,.08l0,0H25l-.06.19,0,0,.09,0,0,0h0a.25.25,0,0,1,0,.07l-.11.1a.31.31,0,0,1-.13.05h0v0a.43.43,0,0,1,0-.05s0,0,0-.05h0L24.39,30l0,.07h0a0,0,0,0,1,0,0s0,0,0,.05v0l0,0h-.19l-.11,0s0,0,0,0,0,0,0,0a.06.06,0,0,1,0,0v0h0l0,0h-.05a7.19,7.19,0,0,0-1.89-.28l-.56,0v0l0,0a1.34,1.34,0,0,0,.29-.5,1.67,1.67,0,0,0,.08-.55v-.18h0l-.29,0a1.2,1.2,0,0,0-.57.14l0,0,0,0L21,28.51,21,28.44a.15.15,0,0,1,0-.06v0a.36.36,0,0,0,.07-.17,2.85,2.85,0,0,0,0-.29,1.22,1.22,0,0,1,.06-.3h0v0a5.86,5.86,0,0,1,.63-.06l.71,0h0v0h0v0h0v0l0,0v0l0,0h0l0,0v0h0l-.72,0-.63.06h0v0A1.68,1.68,0,0,0,21,28a.9.9,0,0,1,0,.18.47.47,0,0,1-.06.15.24.24,0,0,0,0,.08.16.16,0,0,0,0,.09.51.51,0,0,0,.09.13l.1.11h.05a1.19,1.19,0,0,1,.53-.12,1.47,1.47,0,0,1,.28,0v0h0a.61.61,0,0,1,0,.14,1.89,1.89,0,0,1-.08.53,1.21,1.21,0,0,1-.27.46l-.07.07h.1a5.43,5.43,0,0,1,.56,0,7,7,0,0,1,1.86.26v0l0,0,0,0a.19.19,0,0,0,0,.08.11.11,0,0,0,0,.07.09.09,0,0,0,.06,0l.11,0h.23a.11.11,0,0,0,.07-.06.1.1,0,0,0,0-.07.15.15,0,0,0,0-.07,0,0,0,0,0,0,0l0,0v0l.3,0v0l0,0s0,0,0,0a.13.13,0,0,0,0,.06s0,0,0,0h.09a.2.2,0,0,0,.11,0,.33.33,0,0,0,.15-.11l.06-.07a.19.19,0,0,0,0-.08h0s0,0,0,0l0,0-.06,0-.07,0v0h0l0-.13h0v0h.12l.05,0a.08.08,0,0,0,0,0,.17.17,0,0,0,0-.12.37.37,0,0,0-.05-.18.56.56,0,0,0,0-.08l-.08-.05H25l-.06,0-.06.05,0,0,0,0-.08-.05,0,0,0,0a.27.27,0,0,0,.12-.06.1.1,0,0,0,0-.05.11.11,0,0,0,0-.06h0a.16.16,0,0,0,0-.09.35.35,0,0,0-.13-.11.34.34,0,0,0-.17-.05h0l0,0a0,0,0,0,0,0,0l0,0a.09.09,0,0,1,0,.07.59.59,0,0,1-.08.08l0,0v0h0l-.24,0a1.74,1.74,0,0,1-.41-.16,1.07,1.07,0,0,1-.33-.23.16.16,0,0,1,0-.07.25.25,0,0,1,0-.09.55.55,0,0,1,0-.17h0s0,0,0,0h.17v0h0a.19.19,0,0,0,0-.07l-.06-.11,0,0s0,0,0,0h0l0,0,.07,0h.05v0h0v0h.06l0-.06a.71.71,0,0,0-.19-.21,1.36,1.36,0,0,0-.68-.28l-.41,0h0v0l0,0Z"/><path class="cls-5" d="M26.05,25.35c-.06-.13,0-.27.46-.33a.57.57,0,0,0-.84.17Z"/><path class="cls-3" d="M26.05,25.35h0s0,0,0-.06,0,0,0-.05a.29.29,0,0,1,.13-.1,2.28,2.28,0,0,1,.3-.07h.1L26.54,25a.76.76,0,0,0-.41-.12.48.48,0,0,0-.26.07.51.51,0,0,0-.23.23l0,0,.5.22,0-.09h0l0,0-.38-.16,0,0,0,0a.46.46,0,0,1,.42-.27.6.6,0,0,1,.36.12l0,0v0a.91.91,0,0,0-.38.11.21.21,0,0,0-.1.08.19.19,0,0,0,0,.1.15.15,0,0,0,0,.09l0,0,0,0,0,0Z"/><path class="cls-5" d="M26.29,25.85c.15-.2.36-.06.52,0-.11-.36-.32-.5-.66-.36Z"/><path class="cls-3" d="M26.29,25.85l0,0a.2.2,0,0,1,.08-.08l.08,0a.3.3,0,0,1,.15,0l.16.08.08.05,0-.09a.66.66,0,0,0-.18-.32.38.38,0,0,0-.13-.09.37.37,0,0,0-.15,0,.91.91,0,0,0-.26.05l0,0,.18.43,0-.05,0,0h0l-.14-.34,0,0v0a.64.64,0,0,1,.22,0,.27.27,0,0,1,.13,0,.29.29,0,0,1,.15.12.67.67,0,0,1,.12.24h0l0,0-.16-.09a.41.41,0,0,0-.19-.05.27.27,0,0,0-.12,0,.41.41,0,0,0-.1.09l0,0,0,0,0,0Z"/><path class="cls-5" d="M26.06,26.37a.72.72,0,0,1,.59.26.57.57,0,0,0-.45-.58l-.14.32Z"/><path class="cls-3" d="M26.06,26.37v0a.72.72,0,0,1,.25,0,.74.74,0,0,1,.31.22l.06.06V26.6a.59.59,0,0,0-.13-.37.73.73,0,0,0-.35-.22h0l-.18.41h.06v0h0l.15-.32h0v0a.64.64,0,0,1,.31.2.45.45,0,0,1,.11.32v0h0l0,0a1.13,1.13,0,0,0-.34-.23.7.7,0,0,0-.28,0v0l0,0,0,0Z"/><path class="cls-5" d="M25.8,26.53c0,.07.11.21.34.27-.12.13-.62.06-.61-.17l.27-.1Z"/><path class="cls-3" d="M25.8,26.53l0,0a0,0,0,0,0,0,0,.16.16,0,0,0,0,.09.51.51,0,0,0,.13.12.67.67,0,0,0,.21.09v0l0,0a.14.14,0,0,1-.07,0h-.11a.75.75,0,0,1-.26,0,.27.27,0,0,1-.08-.07.11.11,0,0,1,0-.08h0l0,0,.28-.1,0,0h0v0l-.3.11v0h0a.2.2,0,0,0,0,.13.37.37,0,0,0,.18.11.57.57,0,0,0,.22,0l.13,0a.2.2,0,0,0,.11-.06l0,0-.06,0a.9.9,0,0,1-.24-.11l-.06-.07a.08.08,0,0,1,0,0h0l0-.07-.07,0v0Z"/><path class="cls-5" d="M21.61,32.28c-.09,0,0,.29.11.4-.22.08-.4-.16-.39-.39Z"/><path class="cls-3" d="M21.61,32.28l0,0-.05,0a.22.22,0,0,0,0,.08.53.53,0,0,0,0,.17.4.4,0,0,0,.13.16l0,0v0h-.07a.23.23,0,0,1-.11,0,.42.42,0,0,1-.12-.14.38.38,0,0,1,0-.19h0v0h.28v0l0,0,0,0v0h-.32v0h0a.54.54,0,0,0,.1.3.36.36,0,0,0,.11.1.33.33,0,0,0,.14,0l.09,0,.07,0-.06-.05a.32.32,0,0,1-.1-.13.39.39,0,0,1,0-.14v-.05l0,0,0-.07v0Z"/><path class="cls-5" d="M22,32.2a.33.33,0,0,1,.12.56c0-.11,0-.25-.28-.4Z"/><path class="cls-3" d="M22,32.2v0a.24.24,0,0,1,.15.1.25.25,0,0,1,.05.15.39.39,0,0,1-.1.24l0,0h0v-.08s0-.05,0-.08a.46.46,0,0,0-.08-.13.58.58,0,0,0-.21-.13v0l0,0,.16-.16,0,0v0l0,0-.2.2.05,0a.5.5,0,0,1,.17.1.13.13,0,0,1,.06.07.32.32,0,0,1,0,.09v.17l.05,0a.43.43,0,0,0,.13-.29.31.31,0,0,0-.07-.2.31.31,0,0,0-.19-.12h0l0,0,0,0Z"/><path class="cls-5" d="M22.24,32c.24-.16.38.1.48.18.18-.17-.11-.66-.55-.38l.07.2Z"/><path class="cls-3" d="M22.24,32l0,0a.27.27,0,0,1,.13-.05l.09,0a.48.48,0,0,1,.11.09l.1.11,0,0,0,0a.18.18,0,0,0,.05-.08.29.29,0,0,0,0-.09.39.39,0,0,0-.1-.24.4.4,0,0,0-.28-.12.52.52,0,0,0-.28.08l0,0,.07.23h0l0,0,0,0h0l0,0-.07-.2,0,0,0,0a.43.43,0,0,1,.24-.08.29.29,0,0,1,.22.1.26.26,0,0,1,.09.19s0,0,0,.06a.1.1,0,0,1,0,0l0,0,0,0,0-.06L22.56,32a.29.29,0,0,0-.17-.06.32.32,0,0,0-.17.06h0v0Z"/><path class="cls-5" d="M22.09,31.58c.21,0,.27-.18.56-.07,0-.24-.55-.36-.68-.1l.12.17Z"/><path class="cls-3" d="M22.09,31.58v0l.19-.07a.29.29,0,0,1,.16,0,.54.54,0,0,1,.19,0l.06,0v-.06a.17.17,0,0,0-.05-.12.43.43,0,0,0-.17-.12.54.54,0,0,0-.21-.05.41.41,0,0,0-.19,0,.33.33,0,0,0-.13.13v0l.15.22h0v0l0,0L22,31.39l0,0h0a.18.18,0,0,1,.1-.09.33.33,0,0,1,.15,0,.5.5,0,0,1,.24.06l.08.07a.36.36,0,0,1,0,.09h0v0a.52.52,0,0,0-.22-.05.41.41,0,0,0-.19.05l-.17.07v0l0,0,0,0Z"/><path class="cls-5" d="M21.76,27.36a1.4,1.4,0,0,0-.56.8c-.14.41,0,.52-.08.49-.38-.43,0-1.42.64-1.29Z"/><path class="cls-3" d="M21.76,27.36l0,0a1.57,1.57,0,0,0-.38.39.79.79,0,0,0-.14.23.42.42,0,0,0-.06.21h0l0,0a1.14,1.14,0,0,0-.06.35.28.28,0,0,0,0,.1v0h0l0,0v0h0l0,0v0h0v0h0v0l0,0a.61.61,0,0,1-.14-.42.94.94,0,0,1,.18-.56.52.52,0,0,1,.2-.19.48.48,0,0,1,.26-.07h.1v-.08h0l0,0v0h-.12a.61.61,0,0,0-.3.08,1,1,0,0,0-.31.35,1.08,1.08,0,0,0-.11.47.68.68,0,0,0,.16.46h.09v-.06a.39.39,0,0,1,0-.13,1.39,1.39,0,0,1,.06-.32h0a.35.35,0,0,1,.05-.18,1.8,1.8,0,0,1,.21-.33,1.66,1.66,0,0,1,.28-.26l0,0v0Z"/><path class="cls-5" d="M20.65,21.85a.34.34,0,0,0-.47-.07C20.33,21.92,20.49,22,20.65,21.85Z"/><path class="cls-3" d="M20.65,21.85h0a.33.33,0,0,0-.26-.14.46.46,0,0,0-.22.06h0v0a.49.49,0,0,0,.3.14.4.4,0,0,0,.19-.07h0a.38.38,0,0,1-.18.06.43.43,0,0,1-.28-.13h0a.42.42,0,0,1,.21-.06.28.28,0,0,1,.24.12h0Z"/><path class="cls-5" d="M25.58,25.25s0-.18.13-.16a.48.48,0,0,1,.35.23c0,.05-.07.08-.1.13s0,.11,0,.11.16-.17.24-.07a.44.44,0,0,1,.1.38c0,.07-.12,0-.2,0s-.06.14-.06.14.22-.08.19,0-.05.26-.16.33-.15-.09-.15-.09l-.17.12s.11.08,0,.15a.58.58,0,0,1-.29.11c-.09,0-.07-.16-.07-.16-.22-.22-.44-.12-.33.2-.26,0-.59-.28-.8-.35s-.09.31,0,.4c-.45,0-.55-.35-.81-.39-.06.05-.2.3-.13.41-.35-.44-.7-.61-1-.51a4.84,4.84,0,0,1-.87.83c-.33.17-.31.88-.48,1.2-.08.15.26.39.27.44a4.22,4.22,0,0,1,.2,1,.43.43,0,0,0-.37-.22c0,.1.15.63.15.63a.45.45,0,0,0-.54,0s.32.32.2.4c-.55-.25.65.66.82.9.05.07.1,0,.19,0s.08-.16.15-.15.28.18.19.32-.13,0-.17,0-.05.11,0,.15.13-.12.21,0a.26.26,0,0,1,0,.28c0,.09-.11,0-.11,0l-.12.11s.14.07.08.13-.23.22-.32.12a.23.23,0,0,1-.06-.12H21.6s0,.11,0,.12a.32.32,0,0,1-.26,0c-.1-.07.05-.18-.12-.17,0,0,0,0-.07,0-.53-.4-1.25-1.25-1.62-1.15-.1-.11-.32-.34-.39,0-.11-.1-.18-.44-.22-.46s-.19,0-.19,0-.25-.2,0-.29.83-.87.64-1a1.41,1.41,0,0,1,.33-.64.47.47,0,0,0-.13-.45,13.73,13.73,0,0,0-1.1,1.13c-.38.42-.9-.24-.9-.24a1.5,1.5,0,0,1-.33-.93,2.2,2.2,0,0,1,.39-1c.41-.61.44-.74.9-1.42.22-.5,1.58-1.55,1.33.09a4.52,4.52,0,0,0-.4.76c-.45,1-.79.3-.37,0l.4-.91c.2-.61-.4-.44-.72.35s-1.17,1.45-1.21,2a1,1,0,0,0,.14.85c.19.25.34.51.69.13s.65-.88,1-1.33a3.8,3.8,0,0,0,1.27-2.43c1.35-1,3.56.49,4.95,0Z"/><path class="cls-3" d="M25.58,25.25h0s0,0,0,0a.11.11,0,0,1,0-.06,0,0,0,0,1,0,0h.06a.44.44,0,0,1,.2.08.37.37,0,0,1,.12.13h0l0,0a.1.1,0,0,0,0,.05.06.06,0,0,0,0,0,.09.09,0,0,0,0,.05l0,0,0,0,0,0,0,0h0s0,0,0-.05l.05,0h.06s0,0,0,0l.08.12a.35.35,0,0,1,0,.14.25.25,0,0,1,0,.08h-.18l-.05,0a.13.13,0,0,0,0,.07A.35.35,0,0,1,26,26v.07l.05,0h.13a1.16,1.16,0,0,1,0,.18.25.25,0,0,0,0,.07l-.06.06H26s0,0,0,0v0h0v-.05l-.25.17,0,0h0l0,0,0,0h0v0h0a.39.39,0,0,1-.14.08.31.31,0,0,1-.13,0h0s0,0,0,0v-.06h0v0h0a.38.38,0,0,0-.13-.1.22.22,0,0,0-.13,0l-.07,0a.16.16,0,0,0-.07.07.21.21,0,0,0,0,.12.55.55,0,0,0,0,.16l0,0v0h0a.49.49,0,0,1-.19-.05,1.47,1.47,0,0,1-.31-.15,2,2,0,0,0-.28-.15h0l-.06,0a.15.15,0,0,0-.05.07.3.3,0,0,0,0,.1.77.77,0,0,0,0,.15.73.73,0,0,0,.05.12l0,0v0a.91.91,0,0,1-.26-.06,1.43,1.43,0,0,1-.27-.19l-.13-.09-.14,0h0s0,0-.05.06a.64.64,0,0,0-.08.14.45.45,0,0,0,0,.16.16.16,0,0,0,0,.1l0,0,0,0a1.81,1.81,0,0,0-.43-.41.88.88,0,0,0-.45-.14l-.2,0h0a4.8,4.8,0,0,1-.86.83l0,0,0,0a.27.27,0,0,0-.12.09,1,1,0,0,0-.14.25c-.05.15-.08.32-.12.47a1.59,1.59,0,0,1-.12.4.17.17,0,0,0,0,.07.37.37,0,0,0,0,.14,1.22,1.22,0,0,0,.15.17l.07.06,0,0h0a4.65,4.65,0,0,1,.14.54c0,.1,0,.19,0,.26s0,.06,0,.09v.05h0l0,0v0h0l0,0,0,0,0,0h0l0,0,0,0,0,0v0h0l0,0v0h0v0l0,0a.51.51,0,0,0-.17-.16.62.62,0,0,0-.23-.07h0v.05a.64.64,0,0,0,0,.15c0,.19.12.48.12.48h0l0,0A.38.38,0,0,0,21.1,30,.4.4,0,0,0,21,30a.64.64,0,0,0-.3.08v0a0,0,0,0,0,0,0s0,0,0,0,0,0,0,0,0,0,0,0l.06.07.1.12a.16.16,0,0,0,0,.06.11.11,0,0,1,0,0h0l0,0v0l-.08,0h-.08l0,0s0,0,0,0v0l0,0a.59.59,0,0,0,.08.08l.47.43.24.22.09.09.06.07h0l0,0,.06,0,.07,0,.07,0,.06-.05.05-.07a0,0,0,0,1,0,0h0a.2.2,0,0,1,.14.06.15.15,0,0,1,0,.2s0,0,0,0H22l0,0a.15.15,0,0,0,0,.11.13.13,0,0,0,0,.06l0,0,0,0,.05,0,.06,0h.06a.06.06,0,0,1,0,.06.19.19,0,0,1,0,.07.36.36,0,0,1,0,.11s0,0,0,0h-.08l-.17.16,0,0h0l0,0h0l-.05,0-.1.07a.12.12,0,0,1-.08,0h0l0-.06,0,0v0l-.2,0v0h0l0,0v.11h0v0h0v0l0,0v0h0l0,0v0h-.16l-.07,0v0a0,0,0,0,1,0,0v0s0,0,0,0,0,0,0,0v0l0,0h-.12c-.25-.19-.54-.48-.82-.72a5.15,5.15,0,0,0-.41-.32.76.76,0,0,0-.18-.09.38.38,0,0,0-.17,0H19.5v0l0,0-.12-.12-.08,0a.11.11,0,0,0-.08,0H19.2a.16.16,0,0,0-.07.07.46.46,0,0,0-.05.14h0l0,0a.44.44,0,0,1-.06-.1,2,2,0,0,1-.09-.22l0-.08s0,0,0,0h0a.14.14,0,0,0-.09,0l-.1,0,0,0,0,0,0,0v0h0l0,0s0,0,0,0h0l0,0,0,0v0h0l0,0v0l0,0h0v0l0,0v0h0v0h0a.32.32,0,0,1-.06-.08.38.38,0,0,1,0-.1.06.06,0,0,1,0,0l0,0a.71.71,0,0,0,.24-.17,2.47,2.47,0,0,0,.32-.39.87.87,0,0,0,.1-.19.41.41,0,0,0,0-.17.15.15,0,0,0,0-.07.1.1,0,0,0,0-.05l0,0h0a.66.66,0,0,1,.1-.31,2.86,2.86,0,0,1,.22-.3h0a.5.5,0,0,0,0-.12.42.42,0,0,0-.05-.2.91.91,0,0,0-.11-.16h-.06l0,0-.09.07-.48.51-.49.53a.38.38,0,0,1-.13.1.3.3,0,0,1-.13,0,.54.54,0,0,1-.21-.05,1,1,0,0,1-.27-.2l-.08-.08,0,0h0a1.78,1.78,0,0,1-.16-.25,1.29,1.29,0,0,1-.16-.6.09.09,0,0,1,0-.05,1.75,1.75,0,0,1,.19-.68,1.83,1.83,0,0,1,.13-.22l0-.06h0c.21-.31.32-.5.44-.69s.23-.4.46-.74h0a1.86,1.86,0,0,1,.17-.24,2.33,2.33,0,0,1,.4-.36l.23-.12a.51.51,0,0,1,.2,0,.25.25,0,0,1,.12,0,.27.27,0,0,1,.12.15.65.65,0,0,1,.06.32,2.47,2.47,0,0,1,0,.35h0l0,0a2.42,2.42,0,0,0-.15.24.93.93,0,0,0-.05.1.89.89,0,0,0-.05.13l-.15.29h0a1.81,1.81,0,0,1-.24.38.57.57,0,0,1-.09.08l-.07,0h0a.11.11,0,0,1,0-.05.14.14,0,0,1,0-.07.4.4,0,0,1,.17-.31h0l.41-.92h0a.69.69,0,0,0,0-.22.24.24,0,0,0,0-.15l0,0h-.07a.37.37,0,0,0-.16.05,1,1,0,0,0-.26.25,1.82,1.82,0,0,0-.25.44,4.75,4.75,0,0,1-.72,1.1c-.12.16-.24.31-.33.45a1,1,0,0,0-.16.42h0a2.14,2.14,0,0,0,0,.32,1,1,0,0,0,.05.31,1.19,1.19,0,0,0,.13.25h0c.06.08.11.16.17.23l.11.08a.21.21,0,0,0,.12,0,.27.27,0,0,0,.16-.05,1,1,0,0,0,.18-.15c.35-.38.66-.88,1-1.34l0,0,0,0a9.76,9.76,0,0,0,.89-1.13,2.43,2.43,0,0,0,.39-1.31h0l0,0a1.89,1.89,0,0,1,.57-.28,2.18,2.18,0,0,1,.63-.08,7.09,7.09,0,0,1,1.54.23,7.69,7.69,0,0,0,1.51.23,1.9,1.9,0,0,0,.68-.11h0v0h0v0a2,2,0,0,1-.66.1,7.11,7.11,0,0,1-1.5-.23,7.75,7.75,0,0,0-1.55-.23,2.37,2.37,0,0,0-.65.09,1.67,1.67,0,0,0-.6.29h0v0h0a2.36,2.36,0,0,1-.38,1.26,9.53,9.53,0,0,1-.89,1.13h0c-.37.46-.68,1-1,1.34a.64.64,0,0,1-.16.14.19.19,0,0,1-.12,0,.16.16,0,0,1-.09,0,.4.4,0,0,1-.12-.11l-.13-.17,0,0,0,0a1.34,1.34,0,0,1-.12-.24.78.78,0,0,1,0-.28,1.13,1.13,0,0,1,0-.3h0a.77.77,0,0,1,.15-.38,7.33,7.33,0,0,1,.52-.7,3.89,3.89,0,0,0,.53-.86,1.72,1.72,0,0,1,.32-.53,1.53,1.53,0,0,1,.16-.13.24.24,0,0,1,.12,0h0l0,0a.19.19,0,0,1,0,.08.58.58,0,0,1,0,.2h0l-.4.9,0,0,0,0a.46.46,0,0,0-.2.36.2.2,0,0,0,0,.14.12.12,0,0,0,0,.05l.07,0a.19.19,0,0,0,.1,0,.52.52,0,0,0,.18-.16,2.25,2.25,0,0,0,.19-.33l0,0,0,0,.14-.27,0-.11a1.33,1.33,0,0,1,.06-.12c0-.05.07-.13.16-.26h0a1.67,1.67,0,0,0,0-.37.74.74,0,0,0-.1-.43.29.29,0,0,0-.12-.1.33.33,0,0,0-.15,0,.67.67,0,0,0-.31.09,1.58,1.58,0,0,0-.45.33,1.24,1.24,0,0,0-.3.39l0,0,0,0c-.23.34-.35.54-.47.74s-.22.38-.43.68l0,0,0,0a1.43,1.43,0,0,0-.19.31,1.9,1.9,0,0,0-.21.72v.05a1.43,1.43,0,0,0,.17.64,1.6,1.6,0,0,0,.16.26l0,0,0,0a1.57,1.57,0,0,0,.2.2.86.86,0,0,0,.2.13.55.55,0,0,0,.25.07.32.32,0,0,0,.16,0,.51.51,0,0,0,.16-.11l.62-.68.3-.32.11-.09,0,0h0v0h0v0h0v0l0,0a.45.45,0,0,1,.1.14.31.31,0,0,1,0,.17.45.45,0,0,1,0,.11h0l0,0a3,3,0,0,0-.22.31.73.73,0,0,0-.12.34v0h0a0,0,0,0,1,0,0s0,0,0,0a.31.31,0,0,1,0,.08,1,1,0,0,1-.1.21,2.56,2.56,0,0,1-.26.34,1,1,0,0,1-.28.22.22.22,0,0,0-.07.06.13.13,0,0,0,0,.08.29.29,0,0,0,0,.09l.07.11,0,0v0h.07v0h0l0,0,0,0h0l0,0h.11v0h0v0h0s0,0,0,0l.08.22A1.17,1.17,0,0,0,19,31a.35.35,0,0,0,.07.09l.05,0v-.06a.38.38,0,0,1,.06-.14l0,0h0l0,0a.18.18,0,0,1,.09.06l.08.08,0,0h.07l.14,0a1.11,1.11,0,0,1,.32.19c.17.13.36.3.54.47a6.67,6.67,0,0,0,.54.46l.05,0h.07l0,0v0h0v.06a.11.11,0,0,0,0,.05.1.1,0,0,0,0,0,.18.18,0,0,0,.09,0,.15.15,0,0,0,.09,0h.11l0,0,0,0v0a.06.06,0,0,0,0,0v0h0l0,0v0h0l0,0v0h0v0h0v0h.18v0h0a0,0,0,0,1,0,0,.67.67,0,0,0,.07.11s0,0,0,0h0l.09,0,.11-.08.08-.07,0,0s0,0,0,0a0,0,0,0,0,0,0l0,0-.05,0,0,0,0,0,0,0,.12-.11,0,0,0,0h0l.05,0,.05,0s0,0,0-.06a.51.51,0,0,0,0-.13.34.34,0,0,0,0-.1.47.47,0,0,0-.06-.09l0,0h-.1l-.06,0h0s0,0,0,0,0,0,0,0a.09.09,0,0,1,0-.06h.07l.05,0,.05,0a.35.35,0,0,0,0-.13.23.23,0,0,0-.07-.17.33.33,0,0,0-.18-.08H22a.08.08,0,0,0,0,0l0,.06s0,0,0,0l-.07,0h-.06s0,0,0,0l0,0,0,0-.09-.1a1.79,1.79,0,0,0-.24-.23L21,30.68l-.15-.14,0-.05v0h0l0,0v0h0l0,0,0,0v0h0l0,0v0h0v0h0l.1,0h0l0,0a.09.09,0,0,0,0-.05s0,0,0-.06l-.06-.1-.11-.13,0-.05v0h0v0s0,0,0,0h0v0h0a.72.72,0,0,1,.27-.07.27.27,0,0,1,.13,0,.3.3,0,0,1,.1.07l.06,0,0-.08c0-.08,0-.19-.07-.3a.8.8,0,0,1,0-.15.51.51,0,0,1,0-.09h0v0a.52.52,0,0,1,.2.06.33.33,0,0,1,.15.14h0s0,0,0,0l0,0h0v-.07c0-.09,0-.25-.08-.42s-.08-.35-.12-.48,0,0,0,0l0,0-.07-.07L21,28.49a.25.25,0,0,1,0-.07l0-.05s0,0,0,0a1.17,1.17,0,0,0,.11-.3c0-.18.07-.37.12-.53a1.12,1.12,0,0,1,.1-.22.35.35,0,0,1,.14-.13h0a4.93,4.93,0,0,0,.86-.85l0,0v0a.57.57,0,0,1,.18,0,.7.7,0,0,1,.4.13,1.72,1.72,0,0,1,.42.4l.06,0a.11.11,0,0,1,0-.06.34.34,0,0,1,0-.09l.06-.13,0-.05,0,0,0,0v0a.32.32,0,0,1,.15.06c.08.05.15.13.25.19a.76.76,0,0,0,.4.13h.07l0-.06a.51.51,0,0,1,0-.1.68.68,0,0,1,0-.14.19.19,0,0,1,0-.08s0,0,0,0h0v0a.51.51,0,0,1,.17.08,3.07,3.07,0,0,0,.31.17.7.7,0,0,0,.33.1h.06l0-.05a.36.36,0,0,1,0-.14.13.13,0,0,1,0-.1l0,0h0a.16.16,0,0,1,.09,0l.12.09,0,0h0a.2.2,0,0,0,0,.05.15.15,0,0,0,0,.09s0,0,0,.05l.06,0a.47.47,0,0,0,.16,0l.15-.09a.08.08,0,0,0,0,0,.07.07,0,0,0,0,0,.09.09,0,0,0,0-.05l0-.05,0,0,0,0,0,0,.17-.11,0,0h0l0,.06a.1.1,0,0,0,0,.05.11.11,0,0,0,.07,0,.11.11,0,0,0,.07,0,.27.27,0,0,0,.07-.08.61.61,0,0,0,.07-.14l0-.14s0,0,0,0,0,0,0,0,0,0,0,0l0,0h-.13l0,0v0h0V26l0,0s0,0,0,0h.19s0,0,0,0a.22.22,0,0,0,0-.11.42.42,0,0,0,0-.16.85.85,0,0,0-.09-.14.08.08,0,0,0,0,0h-.05l-.08,0a.24.24,0,0,0-.08.06l0,0,0,0,0,0h0l0,0a0,0,0,0,0,0,0v0h0l0,0a.1.1,0,0,1,.05,0l0,0a.43.43,0,0,0,0-.05,0,0,0,0,0,0,0,.45.45,0,0,0-.15-.16.53.53,0,0,0-.23-.09h0l-.07,0,0,0a.09.09,0,0,0,0,.06.43.43,0,0,1,0,.05.2.2,0,0,0,0,.05h0l0,0,0,0Z"/><path class="cls-5" d="M22.12,22.86l.12,0a.44.44,0,0,0,.53-.15c0-.16.19-.41.09-.52l-.63-.09A.31.31,0,0,1,21.9,22c-.07-.08-.12-.17-.22-.16l-1.23.07a1.73,1.73,0,0,0-.42-.12c-.2,0-.35.21-.31.33a1.12,1.12,0,0,0,.37.3c.19.46-.14.84-.42,1.2.47-.15.23.4.07.54.56,0,.29.43.16.68a.36.36,0,0,0,.27,0c.1,0,.19-.06.22,0s-.09.52-.25.64a.64.64,0,0,0,.35,0c.16-.05,0,.44,0,.44s.63-.48.63-.48.25.47.34.45.21-.56.39-.55c.11.35.61.55,1,.6a.73.73,0,0,1-.17-.54c.4,0,.78.32,1.31.25-.1-.16-.57-.49-.29-.7,0-.05.32-.07.44-.25a3.64,3.64,0,0,1-1.41-.34s.48,0,.44-.18c-.42,0-1.12,0-1.24-.41a.46.46,0,0,1,.35-.07.82.82,0,0,0,.27,0c.14-.05.06-.16,0-.22h-.07l-.06,0-.71-.05c-.5-.14-.36-.44-.09-.56a1,1,0,0,1,.54,0Z"/><path class="cls-3" d="M22.12,22.86v0h0v0h.06a.72.72,0,0,0,.24.05.43.43,0,0,0,.19,0,.6.6,0,0,0,.18-.15h0c0-.06.05-.13.07-.21a.36.36,0,0,0,0-.11.43.43,0,0,0,0-.11.13.13,0,0,0,0-.06l0-.06h0l-.14,0-.31-.05-.12,0h-.12a.25.25,0,0,1-.15-.05L22,22l-.11-.13a.34.34,0,0,0-.06-.06l-.09,0h0v0l-1.23.07v0l-.15,0a1.43,1.43,0,0,0-.28-.07h0a.42.42,0,0,0-.25.12l-.08.1a.23.23,0,0,0,0,.11.43.43,0,0,0,0,.05h0a.35.35,0,0,0,.1.11.77.77,0,0,0,.19.14l.1.06,0,0,0,0a.62.62,0,0,1,.06.26.9.9,0,0,1-.15.46,4.48,4.48,0,0,1-.32.44l-.08.1.12,0,.13,0h.05l0,0a.14.14,0,0,1,0,.07.44.44,0,0,1,0,.1.89.89,0,0,1-.08.17.49.49,0,0,1-.1.13l-.08.07h.29a.17.17,0,0,1,.09.06.12.12,0,0,1,0,.09.78.78,0,0,1-.06.23l-.12.24,0,0,0,0a.25.25,0,0,0,.12,0,.52.52,0,0,0,.18,0l.08,0h.08s0,0,0,0a.2.2,0,0,1,0,.11.6.6,0,0,1-.08.28.71.71,0,0,1-.18.2l-.06.05.07,0a1,1,0,0,0,.24,0l.14,0h0v0s0,0,0,0,0,.07,0,.11l0,.16,0,.05v0h0v0h.06a.16.16,0,0,0,.09,0,1.2,1.2,0,0,0,.17-.11,4.45,4.45,0,0,0,.39-.36l0,0h0l.13.24.11.16.06.06h.09l0,0,0-.06.06-.14a1.71,1.71,0,0,1,.13-.23.22.22,0,0,1,.06-.07l0,0h0v0h0a.6.6,0,0,0,.16.25,1.11,1.11,0,0,0,.4.26,1.68,1.68,0,0,0,.47.11l.1,0-.07-.08a.56.56,0,0,1-.13-.24,1.18,1.18,0,0,1,0-.27h0v0a1.88,1.88,0,0,1,.54.14,2,2,0,0,0,.62.12H24l0-.05-.1-.12c-.06-.07-.13-.14-.18-.21l-.07-.11a.16.16,0,0,1,0-.09.19.19,0,0,1,0-.07.17.17,0,0,1,.06-.06h0l.08,0,.18-.07a.75.75,0,0,0,.17-.14l0-.06h-.07a3.52,3.52,0,0,1-.91-.16l-.33-.1-.1-.05-.06,0,0,0,0,0h0s0,0,0,0h.07a.8.8,0,0,0,.25,0,.31.31,0,0,0,.13-.06l0,0a.1.1,0,0,0,0-.07v-.06H23a2.36,2.36,0,0,1-.65-.07,1,1,0,0,1-.27-.12.33.33,0,0,1-.14-.19h0l0,0a.2.2,0,0,1,.09-.05l.12,0,.24,0,.15,0h0l.07-.05a.11.11,0,0,0,0-.07.08.08,0,0,0,0-.05.16.16,0,0,0,0-.07.18.18,0,0,0-.07,0h-.15l-.35,0-.35,0v0a.67.67,0,0,1-.24-.11l-.05-.07s0,0,0-.06a.25.25,0,0,1,0-.07.3.3,0,0,1,.07-.1.57.57,0,0,1,.13-.08.44.44,0,0,1,.2,0l.32,0h0v0h0v0h0v0c-.1,0-.22,0-.33,0a.59.59,0,0,0-.23,0,.67.67,0,0,0-.19.14.22.22,0,0,0-.05.08.18.18,0,0,0,0,.2.4.4,0,0,0,.11.12.63.63,0,0,0,.22.09h0l.36,0,.35,0h0l.07,0h.05v0l0,0a.18.18,0,0,1,.07.05s0,0,0,0,0,0,0,0,0,0,0,0l0,0v0l-.13,0H22a.19.19,0,0,0-.12.07h0v0a.42.42,0,0,0,.17.23,1.2,1.2,0,0,0,.45.16,2.24,2.24,0,0,0,.51,0h.14v0h0v0s0,0,0,0,0,0-.06.05a.62.62,0,0,1-.16,0h-.17v0l0,0h0v0l0,0,0,0,0,0h0l0,0,0,0,0,0h0v0l0,0h0l0,0,.07,0a4.13,4.13,0,0,0,.54.18,4.24,4.24,0,0,0,.83.13v0l0,0a.73.73,0,0,1-.23.16l-.12,0h0l0,0,0,0,0,0a.32.32,0,0,0-.08.09.23.23,0,0,0,0,.11.33.33,0,0,0,.05.16,2,2,0,0,0,.18.23.41.41,0,0,1,.09.1.19.19,0,0,1,.06.07l0,0v0h-.15a1.88,1.88,0,0,1-.59-.12,2.3,2.3,0,0,0-.56-.14h0v0a1.43,1.43,0,0,0,0,.29.66.66,0,0,0,.15.27l0,0v0a1.61,1.61,0,0,1-.59-.18,1.46,1.46,0,0,1-.24-.17.74.74,0,0,1-.14-.22v0h0a.16.16,0,0,0-.09,0,.47.47,0,0,0-.11.13,1.58,1.58,0,0,0-.13.26l0,.1,0,0h0l0,0v0h0a.05.05,0,0,1,0,0l-.08-.11a1.45,1.45,0,0,1-.12-.19l0-.08v0h0l0-.05,0,0h0s-.14.14-.27.25a1.25,1.25,0,0,1-.19.15l-.08,0-.05,0h0v0h0l0-.13s0-.08,0-.12a.49.49,0,0,0,0-.12.22.22,0,0,0,0-.08l0,0h-.07l-.12,0-.15,0h-.06v0l0,0a.83.83,0,0,0,.29-.54.4.4,0,0,0,0-.15l-.05-.05h-.13l-.12,0-.12,0-.09,0,0,0,0,0a2.68,2.68,0,0,0,.12-.24.68.68,0,0,0,.07-.26.13.13,0,0,0,0-.09.16.16,0,0,0-.1-.11.49.49,0,0,0-.19,0h-.07v0l0,0a.36.36,0,0,0,.08-.09.91.91,0,0,0,.09-.17.53.53,0,0,0,0-.2.13.13,0,0,0,0-.06.16.16,0,0,0-.06-.08.18.18,0,0,0-.11,0l-.15,0v0l0,0c.11-.15.23-.29.33-.45a1,1,0,0,0,.16-.5.84.84,0,0,0-.06-.3h0l-.17-.1-.11-.09a.18.18,0,0,1-.07-.09l0,0h0v0a.16.16,0,0,1,0-.08.35.35,0,0,1,.1-.12A.28.28,0,0,1,20,21.8v0a.82.82,0,0,1,.26.06l.11,0h0l1.24-.08h.06a.46.46,0,0,1,.07.07,1.83,1.83,0,0,0,.13.16l.1.07a.28.28,0,0,0,.13,0h.07v0l.28,0,.21,0,.14,0v0l0,0v0a.06.06,0,0,1,0,0s0,.06,0,.09l-.06.16a1.15,1.15,0,0,0-.06.17h0l0,0a.35.35,0,0,1-.15.13.4.4,0,0,1-.15,0,.48.48,0,0,1-.18,0l-.07,0h-.1v0h.05Z"/><path class="cls-5" d="M21.18,22.24c0,.06.1.11.22.11s.22-.05.22-.11-.09-.11-.22-.11S21.18,22.18,21.18,22.24Z"/><path class="cls-3" d="M21.18,22.24h0a.09.09,0,0,0,0,.07.17.17,0,0,0,.1.06l.13,0a.34.34,0,0,0,.18,0l.06,0a.14.14,0,0,0,0-.07.19.19,0,0,0,0-.07l-.1-.06-.14,0a.47.47,0,0,0-.17,0,.15.15,0,0,0-.06,0,.11.11,0,0,0,0,.07h.08v0l.06,0h.11a.26.26,0,0,1,.14,0,.05.05,0,0,1,0,0v0s0,0,0,0l-.06,0-.12,0a.58.58,0,0,1-.14,0l0,0s0,0,0,0h0Z"/><path class="cls-5" d="M22.58,22.91a.75.75,0,0,1-.37.21c0-.07.11-.14.07-.23l.3,0Z"/><path class="cls-3" d="M22.58,22.91l0,0a.45.45,0,0,1-.15.11l-.2.09v0l0,0,.06-.08a.35.35,0,0,0,0-.11.14.14,0,0,0,0-.07h0v0l.3,0v0l0,0,0,0v0l-.36,0,0,.06s0,0,0,0a.13.13,0,0,1,0,.07l-.05.08-.05.09.1,0,.2-.08a.42.42,0,0,0,.18-.14l0-.05h-.07v0Z"/><path class="cls-5" d="M22.45,23.44c.05-.07-.05-.17-.1-.25,0,.09,0,.2-.14.28C22.29,23.46,22.36,23.49,22.45,23.44Z"/><path class="cls-3" d="M22.45,23.44l0,0a.25.25,0,0,0,0-.07.14.14,0,0,0,0-.07.41.41,0,0,0-.05-.09l-.05-.07,0-.08,0,.08c0,.06,0,.11,0,.15a.32.32,0,0,1-.08.12l-.1.07h.23a.35.35,0,0,0,.14,0h0l0,0,0,0a.2.2,0,0,1-.1,0h-.12v0l0,0a.44.44,0,0,0,.1-.15c0-.06,0-.11,0-.15h0l0,0,.08.1,0,.05a.08.08,0,0,1,0,0s0,0,0,0l0,0,0,0Z"/><path class="cls-5" d="M22.75,22.3c-.11,0-.13.17-.06.25s0,0,0,0c0-.29.1-.09.09,0l0-.17c0-.16.07-.18-.12-.12Z"/><path class="cls-3" d="M22.75,22.3v0a.16.16,0,0,0-.09.07.14.14,0,0,0,0,.1.2.2,0,0,0,.06.14l0,0,0-.05h0v0s0,0,0,0h0v0h0v0h0v0h0a0,0,0,0,0,0,0v0h0s0-.06,0-.08a0,0,0,0,1,0,0h0v0h0v0h0v0h0v0h0v0l0,.05a.2.2,0,0,1,0,.07h.08l0-.18h0v-.15h0a0,0,0,0,0,0,0h0l-.1,0v.08l.07,0h0v0h0v0l0,0,0,0h0v0l0,0h0v.14h0l0,.17h.07a.31.31,0,0,0,0-.13l0-.05,0,0h-.07v0a0,0,0,0,0,0,0v.13h0l0,0h0l0,0,0,0v0h0l0,0v0h0v0h0v0h-.06s0,0,0,0h0l0,0a.14.14,0,0,1,0-.09.14.14,0,0,1,0-.06.1.1,0,0,1,.05,0h0v0Z"/><path class="cls-5" d="M20.18,22.22a.37.37,0,0,1,.18-.27l-.26-.07c-.08,0-.15-.06-.27.1l.35.24Z"/><path class="cls-3" d="M20.22,22.22a.33.33,0,0,1,0-.1.4.4,0,0,1,.13-.14l.07,0-.34-.1H20a.16.16,0,0,0-.09,0,.24.24,0,0,0-.1.1l.06,0a.29.29,0,0,1,.08-.08l.05,0h.1v0l.26.08v0l0,0a.42.42,0,0,0-.16.17.26.26,0,0,0,0,.13Z"/><path class="cls-5" d="M21.59,22.24h-.1a0,0,0,0,1,0,0h0s0,0,0,0l0,0h0s0,0,0,0Z"/><path class="cls-6" d="M21.6,22.22h0s0,0,0,0h0v0h0l0-.07Z"/><path class="cls-7" d="M21.42,22.17l0,0v0a.14.14,0,0,0,0,.07h0l.09,0,.06,0,0,0h0a.05.05,0,0,0,0,0,.21.21,0,0,0-.12,0Z"/><path class="cls-3" d="M21.52,22.13h0l-.07,0,0,0a.21.21,0,0,1,.12,0l0,0h0l0,0-.06-.05Zm.05.14-.05,0-.1,0,0,0h.06a.14.14,0,0,0,.09,0l0,0Z"/><path class="cls-8" d="M21.56,22.06c-.17.09-.15.06-.32,0a.22.22,0,0,0-.27,0Z"/><path class="cls-3" d="M21.54,22l-.09,0h-.1l-.1,0v0l0,0a.3.3,0,0,0-.15-.05.3.3,0,0,0-.16.05l.05.07a.18.18,0,0,1,.11-.05.21.21,0,0,1,.11.05h0l.1,0h.08l.07,0a.31.31,0,0,0,.1-.05l0-.06h0Z"/><path class="cls-8" d="M22.07,23.69a2.45,2.45,0,0,1-.83-.17Z"/><path class="cls-3" d="M22.07,23.65h0a2.39,2.39,0,0,1-.81-.17l0,.07a2.35,2.35,0,0,0,.83.18h0v-.08Z"/><path class="cls-3" d="M6.13,28.84C2.89,25.26,2.92,24,2.89,20.26,3.12,24.41,3.11,25,6.13,28.84Z"/><path class="cls-3" d="M6.13,28.84h0A12,12,0,0,1,3.32,24.6a14.37,14.37,0,0,1-.42-4.34h0a16,16,0,0,0,.57,4.41,15.37,15.37,0,0,0,2.67,4.17h0a15.53,15.53,0,0,1-2.67-4.17,16.23,16.23,0,0,1-.57-4.4h0a14.16,14.16,0,0,0,.41,4.35,12,12,0,0,0,2.83,4.24l0,0Z"/><path class="cls-3" d="M24.28,28.81c3.25-3.57,3.22-4.84,3.24-8.58-.22,4.15-.22,4.75-3.24,8.58Z"/><path class="cls-3" d="M24.28,28.81h0a12,12,0,0,0,2.83-4.23,14.51,14.51,0,0,0,.42-4.36h0a15.92,15.92,0,0,1-.57,4.41,15.58,15.58,0,0,1-2.66,4.17l0,0h0A15.27,15.27,0,0,0,27,24.65a15.6,15.6,0,0,0,.57-4.41h0a14.13,14.13,0,0,1-.41,4.35,11.94,11.94,0,0,1-2.83,4.23Z"/><path class="cls-1" d="M6.15,10.79C7.54,8.9,10.66,8.57,11,7.52c.14-.46-.36-1-.18-1.48,1.24-1.91,7.4-2,8.92,0,.25.51-.27.92-.22,1.4.22.88,3.35,1.46,4.83,3.24.39.11,1.16-1.52.64-2.2C23,6.55,21.19,6.84,20.41,5.31c-.2-.58.28-.93.08-1.67A9.38,9.38,0,0,0,10,3.8c-.38.32.33,1,0,1.62C9.88,6.59,6.71,7.05,5.41,8.69c-.42.46.1,2.39.74,2.1Z"/><path class="cls-3" d="M6.15,10.79l0,0A4.54,4.54,0,0,1,7.46,9.66,17.84,17.84,0,0,1,9.7,8.55a6.66,6.66,0,0,0,.86-.47,1.56,1.56,0,0,0,.3-.26A.83.83,0,0,0,11,7.53h0a.58.58,0,0,0,0-.19,1.75,1.75,0,0,0-.12-.54,1.63,1.63,0,0,1-.12-.52.54.54,0,0,1,0-.22l0,0,0,0a2.28,2.28,0,0,1,.68-.62,5.41,5.41,0,0,1,1.65-.62,10.61,10.61,0,0,1,2.07-.2A9.33,9.33,0,0,1,17.89,5a3.56,3.56,0,0,1,1.82,1.08l0,0h0a.58.58,0,0,1,.06.27.78.78,0,0,1,0,.26c0,.13-.1.25-.15.38a1.17,1.17,0,0,0-.1.41.22.22,0,0,0,0,.08h0a.69.69,0,0,0,.22.34,4,4,0,0,0,.87.55c.55.28,1.25.58,1.93.95a6.63,6.63,0,0,1,1.82,1.41h.07a.24.24,0,0,0,.13-.05.85.85,0,0,0,.24-.23,2.24,2.24,0,0,0,.3-.62,2.3,2.3,0,0,0,.14-.73A1.07,1.07,0,0,0,25,8.44h0a8.49,8.49,0,0,0-2.74-1.73,7.12,7.12,0,0,1-1.07-.56,2.36,2.36,0,0,1-.76-.86l0,0h0A.72.72,0,0,1,20.4,5a1.56,1.56,0,0,1,.09-.47A1.86,1.86,0,0,0,20.58,4a1.26,1.26,0,0,0,0-.37h0a8.64,8.64,0,0,0-5.11-1.52A8.85,8.85,0,0,0,10,3.77h0a.33.33,0,0,0-.1.14.37.37,0,0,0,0,.15,1,1,0,0,0,0,.23l.11.37a1.59,1.59,0,0,1,.06.38A.69.69,0,0,1,10,5.4h0a.72.72,0,0,1-.19.39A2.7,2.7,0,0,1,9,6.42c-.54.29-1.23.58-1.89.93A5.44,5.44,0,0,0,5.38,8.67l0,0,0,0a.49.49,0,0,0-.12.25,1.11,1.11,0,0,0,0,.33,2.76,2.76,0,0,0,.23,1.05,1.62,1.62,0,0,0,.24.39.61.61,0,0,0,.16.12.33.33,0,0,0,.17,0l.14,0v0l0,0,0,0v0l0,0-.11,0a.25.25,0,0,1-.14,0,.68.68,0,0,1-.23-.22,2.28,2.28,0,0,1-.25-.59,2.38,2.38,0,0,1-.1-.68,1.51,1.51,0,0,1,0-.32.46.46,0,0,1,.11-.22h0a4.49,4.49,0,0,1,1.24-1c.72-.44,1.53-.78,2.18-1.12A4.77,4.77,0,0,0,9.69,6,1.75,1.75,0,0,0,10,5.75a.88.88,0,0,0,.12-.33h0l0,0A.8.8,0,0,0,10.16,5a1.78,1.78,0,0,0-.1-.53c0-.09-.05-.17-.07-.24a2.11,2.11,0,0,1,0-.21.28.28,0,0,1,0-.13.23.23,0,0,1,.07-.1l0,0,0,0a8.76,8.76,0,0,1,5.35-1.67,8.55,8.55,0,0,1,5.06,1.51l0,0h0a1.55,1.55,0,0,1,.05.35,1.72,1.72,0,0,1-.1.52,2.19,2.19,0,0,0-.09.5,1,1,0,0,0,.05.3h0a2.48,2.48,0,0,0,.78.88,13.62,13.62,0,0,0,1.71.85A7.5,7.5,0,0,1,25,8.49l0,0,0,0a.94.94,0,0,1,.17.59,2.54,2.54,0,0,1-.26,1.05,2,2,0,0,1-.25.37.53.53,0,0,1-.12.1l-.1,0h0v0l0,0a8.36,8.36,0,0,0-2.91-2c-.49-.24-.95-.45-1.3-.66a2.54,2.54,0,0,1-.42-.3.66.66,0,0,1-.2-.3h0V7.36a1,1,0,0,1,0-.25c0-.13.11-.26.16-.39a1.12,1.12,0,0,0,.09-.41.66.66,0,0,0-.07-.3h0a3.59,3.59,0,0,0-1.85-1.1,9.54,9.54,0,0,0-2.68-.36,9.18,9.18,0,0,0-2.7.37,4.7,4.7,0,0,0-1.06.46,2.28,2.28,0,0,0-.69.65h0a.69.69,0,0,0,0,.25,1.81,1.81,0,0,0,.12.55,1.71,1.71,0,0,1,.12.51,1,1,0,0,1,0,.17h0a.82.82,0,0,1-.24.34,3.26,3.26,0,0,1-.89.55c-.56.27-1.26.55-1.93.91a5.44,5.44,0,0,0-1.78,1.45l0,.06h.07v0Z"/><path class="cls-3" d="M9.71,6c.31-.4,1.09.4,1.11.63-.22-.45,0-.61.19-.81-.52.28-.75-.55-.92-1A1.19,1.19,0,0,1,9.71,6Z"/><path class="cls-3" d="M9.71,6l0,0a.16.16,0,0,1,.09-.07.16.16,0,0,1,.1,0A.59.59,0,0,1,10.2,6a1.6,1.6,0,0,1,.4.33.86.86,0,0,1,.13.17.25.25,0,0,1,0,.07s0,0,0,0h0l0,0a.71.71,0,0,1-.09-.3.35.35,0,0,1,0-.14A.54.54,0,0,1,10.9,6L11,5.81l0-.06a.33.33,0,0,1-.18,0,.27.27,0,0,1-.12,0,.52.52,0,0,1-.18-.16,1.51,1.51,0,0,1-.22-.42c-.06-.15-.12-.32-.16-.45l-.08,0a1.08,1.08,0,0,1,0,.3,1,1,0,0,1-.11.47,1.27,1.27,0,0,1-.3.4l0,0,0,0,0,0,0,0a1.56,1.56,0,0,0,.32-.42,1.26,1.26,0,0,0,.11-.51,1.82,1.82,0,0,0,0-.32h-.07a4.85,4.85,0,0,0,.27.71,1,1,0,0,0,.2.28.51.51,0,0,0,.13.09.42.42,0,0,0,.15,0A.49.49,0,0,0,11,5.82l0,0,0,0L10.8,6a.54.54,0,0,0-.07.13.41.41,0,0,0,0,.16.78.78,0,0,0,.09.33l.07,0a.54.54,0,0,0,0-.1.8.8,0,0,0-.15-.2A1.55,1.55,0,0,0,10.33,6a.82.82,0,0,0-.4-.15.35.35,0,0,0-.14,0,.26.26,0,0,0-.11.1l.05,0,0,0Z"/><path class="cls-3" d="M20.82,5.88c-.34-.45-1,.43-1.08.67.16-.44-.09-.58-.25-.78.52.28.75-.59.92-1.07a1.13,1.13,0,0,0,.41,1.18Z"/><path class="cls-3" d="M20.82,5.88l0,0a.45.45,0,0,0-.13-.11.32.32,0,0,0-.14,0,.53.53,0,0,0-.29.1,1.7,1.7,0,0,0-.39.37l-.13.2a.64.64,0,0,0-.06.16l.07,0a.74.74,0,0,0,0-.27.48.48,0,0,0,0-.18.74.74,0,0,0-.13-.21l-.14-.16,0,0,0,0a.42.42,0,0,0,.21.06l.15,0a.63.63,0,0,0,.21-.19,2,2,0,0,0,.23-.46c.07-.16.12-.33.17-.46l0,0h0a1.5,1.5,0,0,0,0,.29,1.1,1.1,0,0,0,.12.51,1.8,1.8,0,0,0,.33.41l.06,0,0,0,0,0a1.6,1.6,0,0,1-.31-.4A1,1,0,0,1,20.41,5a1,1,0,0,1,0-.28l-.07,0c-.08.21-.16.49-.27.71a1.05,1.05,0,0,1-.19.28.38.38,0,0,1-.11.08.27.27,0,0,1-.12,0,.49.49,0,0,1-.18,0l0,0c.06.09.13.15.19.23a.75.75,0,0,1,.07.12.41.41,0,0,1,0,.16.79.79,0,0,1-.05.24h.07l0-.08A1.86,1.86,0,0,1,20.14,6a1.74,1.74,0,0,1,.22-.18.55.55,0,0,1,.22-.07.2.2,0,0,1,.11,0,.21.21,0,0,1,.1.09l0,0,0,0,0,0Z"/><path class="cls-3" d="M23.74,8.75l.38.27a.27.27,0,0,0,0-.16.22.22,0,0,0-.09-.17.22.22,0,0,0-.17,0A.23.23,0,0,0,23.74,8.75ZM24,9.2l.11.1a.47.47,0,0,1-.22.09.46.46,0,0,1-.23-.08.37.37,0,0,1-.17-.26.45.45,0,0,1,.09-.32.48.48,0,0,1,.28-.2.35.35,0,0,1,.29.07.33.33,0,0,1,.16.24.45.45,0,0,1-.1.32l0,0-.5-.35a.31.31,0,0,0-.06.21.21.21,0,0,0,.1.16.21.21,0,0,0,.13,0A.24.24,0,0,0,24,9.2Zm-.92-.29.43-.71.12.08-.43.7-.12-.07Zm.51-.84.08-.14.12.07-.08.14Zm-1,.58.4-.73.11.06-.06.11A.31.31,0,0,1,23.18,8a.1.1,0,0,1,.09,0,.35.35,0,0,1,.11.1l-.11.1a.19.19,0,0,0-.07-.08.15.15,0,0,0-.09,0L23,8.2a.5.5,0,0,0-.1.14l-.21.38-.12-.07Zm-.07-.18,0,.12a.23.23,0,0,1-.1,0,.2.2,0,0,1-.1-.07.13.13,0,0,1,0-.08.4.4,0,0,1,.06-.16l.21-.42-.09-.05.05-.1.09,0,.1-.18h.16l-.13.25.12.07-.05.09-.12-.06-.22.43a.26.26,0,0,0,0,.07s0,0,0,0l0,0,.05,0Zm-.47-.56a.93.93,0,0,1-.24,0,.3.3,0,0,0-.12,0h-.07a.13.13,0,0,0,0,.06.09.09,0,0,0,0,.1.19.19,0,0,0,.09.09.26.26,0,0,0,.15,0,.17.17,0,0,0,.12,0A.24.24,0,0,0,22,8l0,0Zm-.13.29a.35.35,0,0,1-.17,0,.42.42,0,0,1-.15,0A.26.26,0,0,1,21.45,8a.19.19,0,0,1,0-.18.22.22,0,0,1,.07-.09.21.21,0,0,1,.1,0h.11l.12,0a.86.86,0,0,0,.25.06l0,0a.15.15,0,0,0,0-.13A.26.26,0,0,0,22,7.54a.22.22,0,0,0-.15,0,.28.28,0,0,0-.12.08l-.11-.07a.26.26,0,0,1,.11-.1.33.33,0,0,1,.15,0,.64.64,0,0,1,.18.06.35.35,0,0,1,.15.09.27.27,0,0,1,.06.1.17.17,0,0,1,0,.1.28.28,0,0,1-.05.12L22.16,8a1.91,1.91,0,0,0-.1.23.37.37,0,0,0,0,.11l-.13-.07a.38.38,0,0,1,0-.1Zm-1.13-1,.27.11a.3.3,0,0,0,.22,0,.19.19,0,0,0,.11-.12.2.2,0,0,0,0-.13.21.21,0,0,0-.06-.1l-.13-.06L21,6.79l-.15.38Zm-.37.5.44-1.06.39.16a.59.59,0,0,1,.16.08.27.27,0,0,1,.11.1.29.29,0,0,1,0,.14.4.4,0,0,1,0,.15.39.39,0,0,1-.18.2.42.42,0,0,1-.35,0l-.27-.11-.18.43-.14,0Z"/><path class="cls-3" d="M17.24,3.29l.15-.2.18,0-.21.19Zm-.22.4.45.08a.26.26,0,0,0,0-.16.23.23,0,0,0-.16-.11.22.22,0,0,0-.27.19Zm.41.3.14,0a.38.38,0,0,1-.16.17.41.41,0,0,1-.25,0,.46.46,0,0,1-.26-.16.45.45,0,0,1,0-.33.48.48,0,0,1,.16-.3.4.4,0,0,1,.3-.07.39.39,0,0,1,.25.16.47.47,0,0,1,0,.34,0,0,0,0,1,0,0L17,3.8A.3.3,0,0,0,17,4a.2.2,0,0,0,.15.1.22.22,0,0,0,.14,0A.26.26,0,0,0,17.43,4ZM16.7,4v.12H16.6a.23.23,0,0,1-.11,0s0,0,0-.07a.45.45,0,0,1,0-.17l0-.47h-.1V3.28h.11l0-.2L16.66,3l0,.29h.14l0,.11h-.14l0,.48a.26.26,0,0,0,0,.07s0,0,0,0l0,0Zm-.85.06,0-.83H16v.13a.44.44,0,0,1,.1-.12l.09,0a.3.3,0,0,1,.14,0l-.06.13a.17.17,0,0,0-.1,0,.08.08,0,0,0-.08,0,.2.2,0,0,0-.06.07.45.45,0,0,0,0,.16l0,.44Zm-.79-.49h.46a.34.34,0,0,0-.06-.16.21.21,0,0,0-.17-.07.19.19,0,0,0-.16.07.24.24,0,0,0-.07.17Zm.47.22h.14a.34.34,0,0,1-.12.2.43.43,0,0,1-.24.08A.4.4,0,0,1,15,4a.42.42,0,0,1-.11-.31.48.48,0,0,1,.1-.33.43.43,0,0,1,.28-.12.37.37,0,0,1,.27.11.43.43,0,0,1,.11.31v0l-.62,0a.29.29,0,0,0,.09.2.21.21,0,0,0,.17.07.25.25,0,0,0,.13,0,.25.25,0,0,0,.09-.13Zm-1.37-.06a.34.34,0,0,0,.07.2.19.19,0,0,0,.19.09A.2.2,0,0,0,14.57,4a.45.45,0,0,0,0-.25.5.5,0,0,0-.09-.23.22.22,0,0,0-.17-.06.22.22,0,0,0-.15.1.43.43,0,0,0,0,.24Zm.05.41-.13,0L14,3h.14l.05.4a.27.27,0,0,1,.21-.13.26.26,0,0,1,.15,0,.37.37,0,0,1,.12.07.57.57,0,0,1,.08.13.75.75,0,0,1,.05.16.51.51,0,0,1-.07.34.35.35,0,0,1-.24.15.27.27,0,0,1-.24-.1v.1Zm-.48.08-.14-.81.14,0,.14.82Zm-.17-1,0-.16.14,0,0,.16-.14,0Zm-.68,1.15-.27-1.11.14,0,.24,1,.55-.14,0,.13-.69.17Z"/><path class="cls-3" d="M10.08,7.84l-.53-1,.13-.07.53,1-.13.07ZM9.77,8,9.4,7.25l.13-.06.37.74L9.77,8Zm-.43-.88L9.26,7l.13-.06.07.14Zm-.08.66a1.07,1.07,0,0,1-.18.15A.49.49,0,0,0,9,8l0,.06a.15.15,0,0,0,0,.07A.13.13,0,0,0,9,8.21a.21.21,0,0,0,.13,0,.4.4,0,0,0,.12-.1.28.28,0,0,0,0-.13.46.46,0,0,0,0-.13l0,0Zm.15.28-.09.15a.38.38,0,0,1-.13.09.29.29,0,0,1-.22,0,.21.21,0,0,1-.14-.12.2.2,0,0,1,0-.11.17.17,0,0,1,0-.1.31.31,0,0,1,.07-.09L9,7.84a1,1,0,0,0,.2-.16v0a.19.19,0,0,0-.09-.09.24.24,0,0,0-.16,0,.31.31,0,0,0-.12.09.21.21,0,0,0,0,.14l-.13,0a.45.45,0,0,1,0-.16.31.31,0,0,1,.08-.13,1,1,0,0,1,.15-.11.64.64,0,0,1,.17,0h.11a.27.27,0,0,1,.08.07.72.72,0,0,1,.07.11l.08.17A1.16,1.16,0,0,0,9.54,8l.07.07-.13.07a.27.27,0,0,1-.07-.08Zm-.95.58-.65-.59L7.94,8l.38.36.12.13a1.28,1.28,0,0,0,0-.17l-.07-.53.13-.07.1.88-.12.06Zm-.72-.08a1.07,1.07,0,0,1-.18.15l-.09.09,0,.06a.14.14,0,0,0,0,.07A.16.16,0,0,0,7.54,9a.17.17,0,0,0,.13,0,.27.27,0,0,0,.11-.1.28.28,0,0,0,0-.13.31.31,0,0,0,0-.13l0,0Zm.16.26A.48.48,0,0,1,7.82,9l-.13.1a.28.28,0,0,1-.21,0A.21.21,0,0,1,7.33,9a.23.23,0,0,1,0-.11.2.2,0,0,1,0-.11.24.24,0,0,1,.06-.09l.1-.08a.86.86,0,0,0,.19-.16v0a.17.17,0,0,0-.1-.09.21.21,0,0,0-.16,0,.22.22,0,0,0-.11.1.32.32,0,0,0,0,.14l-.13.05a.27.27,0,0,1,0-.15.28.28,0,0,1,.06-.14l.15-.12.17-.06h.11l.09.06.07.11.09.16A1,1,0,0,0,8,8.76s0,.05.07.06L8,8.9,7.9,8.82ZM7,9.46l-.45-.7.11-.07.07.11a.33.33,0,0,1,0-.15.13.13,0,0,1,.06-.07.24.24,0,0,1,.15,0l0,.14-.11,0a.18.18,0,0,0-.05.07.14.14,0,0,0,0,.09A.77.77,0,0,0,6.91,9l.23.36L7,9.46Zm-.54.39L5.83,9.1l-.29.25-.08-.1.67-.6.09.1L5.94,9l.67.75-.12.1Z"/></g></g></svg>