<svg id="Layer_1" data-name="Layer 1" xmlns="http://www.w3.org/2000/svg" viewBox="0 0 58.23 35.93"><defs><style>.cls-1{fill:#626365;}.cls-2{fill:#125b9f;}</style></defs><g id="Layer_1-2" data-name="Layer_1"><g id="_1258655131232" data-name=" 1258655131232"><path class="cls-1" d="M20.13,6A2.54,2.54,0,0,1,20,5.08a2.38,2.38,0,0,1,2.48-2.49,3,3,0,0,1,.92.15c.29-.23.58-.44.89-.65a3.59,3.59,0,0,0-5.38,3,3.54,3.54,0,0,0,.53,1.86l.25-.36L20.13,6Z"/><path class="cls-1" d="M24.88,2.53c-.28.19-.56.38-.83.58a2.49,2.49,0,0,1,.9,2A2.51,2.51,0,0,1,20.5,6.65L20.25,7l-.36.53a3.62,3.62,0,0,0,2.58,1A3.48,3.48,0,0,0,26,5.08a3.41,3.41,0,0,0-1.16-2.55Z"/><path class="cls-1" d="M18.58,14.12A2.43,2.43,0,0,1,17,16.44c0,.2,0,.39,0,.58v.46a3.43,3.43,0,0,0,1-6.27c-.12.32-.22.64-.32,1A2.48,2.48,0,0,1,18.58,14.12Z"/><path class="cls-1" d="M16.31,16.6h-.22a2.43,2.43,0,0,1-2.48-2.49,2.38,2.38,0,0,1,2.48-2.49,2.77,2.77,0,0,1,1,.18c.09-.31.19-.62.3-.92a3.44,3.44,0,0,0-1.29-.24,3.55,3.55,0,0,0-3.57,3.47,3.49,3.49,0,0,0,3.57,3.48h.22c0-.19,0-.38,0-.57S16.31,16.74,16.31,16.6Z"/><path class="cls-1" d="M18.66,20.71a2.39,2.39,0,0,1,2.48,2.5,2.42,2.42,0,0,1-1.82,2.4q.25.45.54.87a3.43,3.43,0,0,0,2.38-3.27,3.57,3.57,0,0,0-5-3.2c.06.32.12.65.2,1a2.6,2.6,0,0,1,1.18-.27Z"/><path class="cls-1" d="M16.17,23.21a2.58,2.58,0,0,1,.68-1.78c-.09-.35-.17-.7-.24-1.06a3.45,3.45,0,0,0,2,6.31,3.59,3.59,0,0,0,.47,0c-.21-.31-.4-.63-.58-1a2.42,2.42,0,0,1-2.37-2.48Z"/><path class="cls-2" d="M46.79,30.92a18.85,18.85,0,0,1-23.93-.19l-.55.62a19.71,19.71,0,0,0,25,.19Z"/><path class="cls-1" d="M36,19.89v4c0,.93-.3,1.79-1.5,1.79S33,24.84,33,23.91v-4h-1.1V24.1a2.6,2.6,0,0,0,5.2,0V19.89Z"/><polygon class="cls-1" points="36.88 7.48 39.88 7.48 39.88 8.41 35.8 8.41 35.8 1.75 36.88 1.75 36.88 7.48"/><polygon class="cls-1" points="0 10.8 3.9 10.8 3.9 11.77 1.09 11.77 1.09 13.34 3.82 13.34 3.82 14.31 1.09 14.31 1.09 16.51 3.9 16.51 3.9 17.47 0 17.47 0 10.8"/><polygon class="cls-1" points="21.94 10.46 26.52 15.15 26.52 10.8 27.61 10.8 27.61 17.73 23.02 13.08 23.02 17.47 21.94 17.47 21.94 10.46"/><polygon class="cls-1" points="49.27 17.47 50.36 17.47 50.36 10.8 49.27 10.8 49.27 17.47"/><polygon class="cls-1" points="10.73 20.84 10.73 22.42 13.1 22.42 13.1 23.39 10.73 23.39 10.73 26.54 9.64 26.54 9.64 19.88 13.18 19.88 13.18 20.84 10.73 20.84"/><polygon class="cls-1" points="15.14 5.91 15.16 5.91 16.22 1.75 17.31 1.75 15.44 8.69 13.1 3.68 10.75 8.69 8.88 1.75 9.97 1.75 11.03 5.91 11.05 5.91 13.1 1.6 15.14 5.91"/><polygon class="cls-1" points="40.62 13.3 40.6 13.3 39.54 17.47 38.45 17.47 40.32 10.52 42.67 15.54 45.01 10.52 46.88 17.47 45.79 17.47 44.73 13.3 44.71 13.3 42.67 17.61 40.62 13.3"/><polygon class="cls-1" points="41.22 22.38 41.2 22.38 40.13 26.55 39.05 26.55 40.92 19.6 43.26 24.62 45.61 19.6 47.48 26.55 46.39 26.55 45.32 22.38 45.31 22.38 43.26 26.69 41.22 22.38"/><path class="cls-1" d="M25.67,22.86h.51c.87,0,1.9,0,1.9-1.05s-1.1-1-1.94-1h-.46v2.07Zm.72-3h0a3.91,3.91,0,0,1,1.86.3,1.85,1.85,0,0,1,.9,1.6,1.82,1.82,0,0,1-1.64,1.86l2.15,2.9H28.42l-2-2.82h-.74v2.82H24.58V19.88Z"/><path class="cls-1" d="M29.41,4.73h.51c.87,0,1.9,0,1.9-1.05s-1.1-1-1.94-1h-.47Zm.72-3h0A3.91,3.91,0,0,1,32,2.05a1.85,1.85,0,0,1,.9,1.59,1.83,1.83,0,0,1-1.64,1.87l2.15,2.9H32.16l-2-2.82h-.74V8.41H28.32V1.74Z"/><path class="cls-1" d="M41.82,1.75h1.83c2.09,0,3.83,1,3.83,3.29s-1.7,3.37-3.85,3.37H41.82Zm1.1,5.72h.63c1.46,0,2.84-.53,2.84-2.43S45,2.66,43.55,2.66h-.63Z"/><path class="cls-1" d="M57.65,16.33a2.61,2.61,0,0,1-1.21.29A2.43,2.43,0,0,1,54,14.13a2.38,2.38,0,0,1,2.48-2.49,2.59,2.59,0,0,1,1.22.28l.55-.8a3.64,3.64,0,0,0-1.77-.46,3.54,3.54,0,0,0-3.57,3.47,3.48,3.48,0,0,0,3.57,3.47,3.71,3.71,0,0,0,1.79-.45Z"/><path class="cls-1" d="M10.77,16.33a2.64,2.64,0,0,1-1.21.29,2.43,2.43,0,0,1-2.49-2.49,2.39,2.39,0,0,1,2.49-2.49,2.59,2.59,0,0,1,1.22.28l.55-.8a3.64,3.64,0,0,0-1.77-.46A3.54,3.54,0,0,0,6,14.13,3.49,3.49,0,0,0,9.56,17.6a3.71,3.71,0,0,0,1.79-.45l-.58-.82Z"/><path class="cls-2" d="M46.63,30.74A18.6,18.6,0,0,1,22,29.64,17.55,17.55,0,0,1,20,6.78,18.13,18.13,0,0,1,28.41.34L28.28,0a18.52,18.52,0,0,0-8.62,6.58A17.89,17.89,0,0,0,21.75,29.9a18.75,18.75,0,0,0,13.18,5.33A18.93,18.93,0,0,0,46.87,31l-.24-.27Z"/><path class="cls-1" d="M37,14.13a3.58,3.58,0,0,1-7.15,0,3.58,3.58,0,0,1,7.15,0Zm-1.09,0h0a2.49,2.49,0,1,0-5,0,2.49,2.49,0,1,0,5,0Z"/></g></g></svg>